<svg id="logo-bvgs" data-name="bvgs logo_color" xmlns="http://www.w3.org/2000/svg" width="248.26" height="57.71" viewBox="0 0 248.26 57.71">
  <style>
    @media (prefers-color-scheme: dark) {
      path { fill: white; }
    }
  </style>
  <g id="Group_336" data-name="Group 336">
    <path id="Path_49" data-name="Path 49" d="M0,25.31a2.3,2.3,0,0,1,1.09-2.23,3.058,3.058,0,0,1,2.43-.97H4.88a3.058,3.058,0,0,1,2.43.97A2.307,2.307,0,0,1,8.4,25.31v3.23a2.468,2.468,0,0,1-1.18,2.3,2.849,2.849,0,0,1-2.34.89H3.52a2.849,2.849,0,0,1-2.34-.89A2.5,2.5,0,0,1,0,28.54V25.31Zm1.72,3.24c0,.36.12.59.63,1.02a1.575,1.575,0,0,0,1.18.47H4.89a1.538,1.538,0,0,0,1.18-.47c.5-.43.63-.66.63-1.02V25.32c0-.36-.12-.59-.63-1.02a1.567,1.567,0,0,0-1.18-.46H3.53a1.567,1.567,0,0,0-1.18.46c-.5.43-.63.66-.63,1.02v3.23Z" fill="#1d1d1b"/>
    <path id="Path_50" data-name="Path 50" d="M6.62,9.69A2.3,2.3,0,0,1,7.71,7.46a3.058,3.058,0,0,1,2.43-.97H11.5a3.058,3.058,0,0,1,2.43.97,2.307,2.307,0,0,1,1.09,2.23v3.23a2.468,2.468,0,0,1-1.18,2.3,2.849,2.849,0,0,1-2.34.89H10.14a2.849,2.849,0,0,1-2.34-.89,2.5,2.5,0,0,1-1.18-2.3V9.69Zm1.71,3.24c0,.36.12.59.63,1.02a1.575,1.575,0,0,0,1.18.47H11.5a1.538,1.538,0,0,0,1.18-.47c.5-.43.63-.66.63-1.02V9.7c0-.36-.12-.59-.63-1.02a1.567,1.567,0,0,0-1.18-.46H10.14a1.567,1.567,0,0,0-1.18.46c-.5.43-.63.66-.63,1.02Z" fill="#00964f"/>
    <path id="Path_51" data-name="Path 51" d="M38,9.69a2.3,2.3,0,0,1,1.09-2.23,3.058,3.058,0,0,1,2.43-.97h1.36a3.058,3.058,0,0,1,2.43.97A2.307,2.307,0,0,1,46.4,9.69v3.23a2.468,2.468,0,0,1-1.18,2.3,2.849,2.849,0,0,1-2.34.89H41.52a2.849,2.849,0,0,1-2.34-.89A2.5,2.5,0,0,1,38,12.92V9.69Zm1.71,3.24c0,.36.12.59.63,1.02a1.575,1.575,0,0,0,1.18.47h1.36a1.538,1.538,0,0,0,1.18-.47c.5-.43.63-.66.63-1.02V9.7c0-.36-.12-.59-.63-1.02a1.567,1.567,0,0,0-1.18-.46H41.52a1.567,1.567,0,0,0-1.18.46c-.5.43-.63.66-.63,1.02Z" fill="#00964f"/>
    <path id="Path_52" data-name="Path 52" d="M6.62,41.11a2.3,2.3,0,0,1,1.09-2.23,3.058,3.058,0,0,1,2.43-.97H11.5a3.058,3.058,0,0,1,2.43.97,2.307,2.307,0,0,1,1.09,2.23v3.23a2.468,2.468,0,0,1-1.18,2.3,2.849,2.849,0,0,1-2.34.89H10.14a2.849,2.849,0,0,1-2.34-.89,2.5,2.5,0,0,1-1.18-2.3V41.11Zm1.71,3.24c0,.36.12.59.63,1.02a1.575,1.575,0,0,0,1.18.47H11.5a1.538,1.538,0,0,0,1.18-.47c.5-.43.63-.66.63-1.02V41.12c0-.36-.12-.59-.63-1.02a1.567,1.567,0,0,0-1.18-.46H10.14a1.567,1.567,0,0,0-1.18.46c-.5.43-.63.66-.63,1.02Z" fill="#e30613"/>
    <path id="Path_53" data-name="Path 53" d="M38,41.11a2.3,2.3,0,0,1,1.09-2.23,3.058,3.058,0,0,1,2.43-.97h1.36a3.058,3.058,0,0,1,2.43.97,2.307,2.307,0,0,1,1.09,2.23v3.23a2.468,2.468,0,0,1-1.18,2.3,2.849,2.849,0,0,1-2.34.89H41.52a2.849,2.849,0,0,1-2.34-.89A2.5,2.5,0,0,1,38,44.34Zm1.71,3.24c0,.36.12.59.63,1.02a1.575,1.575,0,0,0,1.18.47h1.36a1.538,1.538,0,0,0,1.18-.47c.5-.43.63-.66.63-1.02V41.12c0-.36-.12-.59-.63-1.02a1.567,1.567,0,0,0-1.18-.46H41.52a1.567,1.567,0,0,0-1.18.46c-.5.43-.63.66-.63,1.02Z" fill="#00964f"/>
    <path id="Path_54" data-name="Path 54" d="M22.15,3.2A2.3,2.3,0,0,1,23.24.97,3.05,3.05,0,0,1,25.66,0h1.36a3.058,3.058,0,0,1,2.43.97A2.307,2.307,0,0,1,30.54,3.2V6.43a2.468,2.468,0,0,1-1.18,2.3,2.849,2.849,0,0,1-2.34.89H25.66a2.849,2.849,0,0,1-2.34-.89,2.5,2.5,0,0,1-1.18-2.3V3.2Zm1.71,3.23c0,.36.12.59.63,1.02a1.575,1.575,0,0,0,1.18.47h1.36a1.538,1.538,0,0,0,1.18-.47c.5-.43.63-.66.63-1.02V3.2c0-.36-.12-.59-.63-1.02a1.567,1.567,0,0,0-1.18-.46H25.67a1.567,1.567,0,0,0-1.18.46c-.5.43-.63.66-.63,1.02Z" fill="#00964f"/>
    <path id="Path_55" data-name="Path 55" d="M22.15,47.71a2.3,2.3,0,0,1,1.09-2.23,3.058,3.058,0,0,1,2.43-.97h1.36a3.058,3.058,0,0,1,2.43.97,2.307,2.307,0,0,1,1.09,2.23v3.23a2.468,2.468,0,0,1-1.18,2.3,2.849,2.849,0,0,1-2.34.89H25.67a2.849,2.849,0,0,1-2.34-.89,2.5,2.5,0,0,1-1.18-2.3Zm1.71,3.23c0,.36.12.59.63,1.02a1.575,1.575,0,0,0,1.18.47h1.36a1.538,1.538,0,0,0,1.18-.47c.5-.43.63-.66.63-1.02V47.71c0-.36-.12-.59-.63-1.02a1.567,1.567,0,0,0-1.18-.46H25.67a1.567,1.567,0,0,0-1.18.46c-.5.43-.63.66-.63,1.02Z" fill="#ffce44"/>
    <path id="Path_56" data-name="Path 56" d="M44.51,25.31a2.3,2.3,0,0,1,1.09-2.23,3.058,3.058,0,0,1,2.43-.97h1.36a3.058,3.058,0,0,1,2.43.97,2.307,2.307,0,0,1,1.09,2.23v3.23a2.468,2.468,0,0,1-1.18,2.3,2.849,2.849,0,0,1-2.34.89H48.03a2.849,2.849,0,0,1-2.34-.89,2.5,2.5,0,0,1-1.18-2.3Zm1.71,3.24c0,.36.12.59.63,1.02a1.575,1.575,0,0,0,1.18.47h1.36a1.538,1.538,0,0,0,1.18-.47c.5-.43.63-.66.63-1.02V25.32c0-.36-.12-.59-.63-1.02a1.567,1.567,0,0,0-1.18-.46H48.03a1.567,1.567,0,0,0-1.18.46c-.5.43-.63.66-.63,1.02Z" fill="#00964f"/>
  </g>
  <g id="Group_337" data-name="Group 337">
    <path id="Path_57" data-name="Path 57" d="M77.3,19.1a10.32,10.32,0,0,1,3.59.39,3.483,3.483,0,0,1,2.39,3.47,3.084,3.084,0,0,1-2.53,3.24c2.25.51,3.36,1.77,3.36,3.82a4.124,4.124,0,0,1-2.85,4.02,13.417,13.417,0,0,1-4.44.39H73.19V19.09h4.12Zm.05,6.18a5.641,5.641,0,0,0,2.09-.25,1.7,1.7,0,0,0,.97-1.66,1.671,1.671,0,0,0-.92-1.61,5.628,5.628,0,0,0-2.3-.28h-1.1v3.79h1.26Zm.06,6.76a6.319,6.319,0,0,0,2.67-.3,1.948,1.948,0,0,0,1.01-1.91,1.983,1.983,0,0,0-1.15-1.96,6.421,6.421,0,0,0-2.46-.28h-1.4v4.44h1.33Z" fill="#1d1d1b"/>
    <path id="Path_58" data-name="Path 58" d="M91.05,23.51v6.21a3.228,3.228,0,0,0,.39,1.82,1.763,1.763,0,0,0,1.47.64c1.45,0,2.16-.92,2.16-2.83V23.51H97.9v7.54a13.881,13.881,0,0,0,.28,3.38H95.51a3.777,3.777,0,0,1-.23-1.26,3.479,3.479,0,0,1-3.06,1.49,3.9,3.9,0,0,1-3.38-1.68,5.9,5.9,0,0,1-.62-3.1V23.51h2.83Z" fill="#1d1d1b"/>
    <path id="Path_59" data-name="Path 59" d="M105.33,23.51a3.343,3.343,0,0,1,.23,1.4,3.871,3.871,0,0,1,3.24-1.63,3.584,3.584,0,0,1,3.13,1.59c.41.74.51,1.29.51,3.26v6.3h-2.83V28.75a5.282,5.282,0,0,0-.25-2.07,1.558,1.558,0,0,0-1.52-.92,1.957,1.957,0,0,0-1.79,1.13,4.163,4.163,0,0,0-.28,1.95v5.59h-2.83V27.42c0-2.64-.02-2.85-.34-3.91h2.74Z" fill="#1d1d1b"/>
    <path id="Path_60" data-name="Path 60" d="M126.83,30.99a16.771,16.771,0,0,0,.21,3.45H124.4a5.849,5.849,0,0,1-.09-.97c0-.14,0-.28.02-.55a3.179,3.179,0,0,1-3.1,1.75c-2.76,0-4.65-2.25-4.65-5.59s1.93-5.79,4.6-5.79a3.174,3.174,0,0,1,2.83,1.43v-5.7h2.83V31Zm-7.38-1.91c0,2,.85,3.22,2.25,3.22s2.35-1.29,2.35-3.33-.83-3.31-2.23-3.31c-1.5,0-2.37,1.26-2.37,3.43Z" fill="#1d1d1b"/>
    <path id="Path_61" data-name="Path 61" d="M133.86,29.65c.09,1.79,1.06,2.81,2.64,2.81a2.086,2.086,0,0,0,2.12-1.22l2.51.12a4.468,4.468,0,0,1-4.69,3.38c-3.31,0-5.4-2.18-5.4-5.63s2.12-5.89,5.31-5.89,4.99,2.25,4.99,5.89v.55h-7.47Zm4.62-2.07c-.23-1.47-.92-2.18-2.16-2.18s-2.02.71-2.39,2.18Z" fill="#1d1d1b"/>
    <path id="Path_62" data-name="Path 62" d="M151.34,26.82a1.55,1.55,0,0,0-1.75-1.52c-.87,0-1.52.48-1.52,1.13a.868.868,0,0,0,.46.78,8.231,8.231,0,0,0,2.21.76,5.476,5.476,0,0,1,2.76,1.36,2.889,2.889,0,0,1,.64,1.88c0,2.21-1.63,3.52-4.44,3.52-3.2,0-4.85-1.36-4.85-3.96h2.67c.09,1.29.71,1.82,2.07,1.82,1.08,0,1.72-.46,1.72-1.17,0-.41-.18-.64-.74-.87q-.34-.16-2.3-.74a5.2,5.2,0,0,1-2.25-1.1,2.8,2.8,0,0,1-.76-1.98c0-2.12,1.75-3.54,4.37-3.54s4.28,1.33,4.44,3.63h-2.74Z" fill="#1d1d1b"/>
    <path id="Path_63" data-name="Path 63" d="M160.24,23.51l2.53,7.84,2.53-7.84h2.94L164.28,34.5h-3.15l-3.89-10.99h2.99Z" fill="#1d1d1b"/>
    <path id="Path_64" data-name="Path 64" d="M173.52,29.65c.09,1.79,1.06,2.81,2.64,2.81a2.086,2.086,0,0,0,2.12-1.22l2.51.12a4.468,4.468,0,0,1-4.69,3.38c-3.31,0-5.4-2.18-5.4-5.63s2.12-5.89,5.31-5.89S181,25.47,181,29.11v.55h-7.47Zm4.63-2.07c-.23-1.47-.92-2.18-2.16-2.18s-2.02.71-2.39,2.18Z" fill="#1d1d1b"/>
    <path id="Path_65" data-name="Path 65" d="M187.76,23.51a7.269,7.269,0,0,1,.18,1.7c0,.11,0,.32-.02.57.87-1.77,1.82-2.51,3.15-2.51a2.631,2.631,0,0,1,.85.14v2.87a3.124,3.124,0,0,0-1.7-.53c-1.49,0-2.18,1.15-2.18,3.59v5.08h-2.83V26.85c0-.48,0-1.13-.02-1.93a6.908,6.908,0,0,0-.12-1.43h2.69Z" fill="#1d1d1b"/>
    <path id="Path_66" data-name="Path 66" d="M198.56,19.01V24.9a3.452,3.452,0,0,1,2.99-1.61c2.58,0,4.44,2.39,4.44,5.68s-1.98,5.7-4.76,5.7a3.022,3.022,0,0,1-2.92-1.7,6.647,6.647,0,0,1-.21,1.47h-2.44a25.849,25.849,0,0,0,.07-2.87V19.01h2.83Zm0,10c0,2.02.85,3.29,2.23,3.29s2.3-1.31,2.3-3.38-.85-3.27-2.21-3.27c-1.45,0-2.32,1.24-2.32,3.36Z" fill="#1d1d1b"/>
    <path id="Path_67" data-name="Path 67" d="M209.97,26.78a3.26,3.26,0,0,1,1.2-2.46,5.748,5.748,0,0,1,3.56-1.03c1.89,0,3.24.6,3.75,1.63a5.579,5.579,0,0,1,.44,2.69V32a5.11,5.11,0,0,0,.37,2.44h-2.58a4.275,4.275,0,0,1-.14-1.24,3.185,3.185,0,0,1-3.01,1.47c-2.51,0-3.98-1.15-3.98-3.1a3.393,3.393,0,0,1,2.48-3.27,17.284,17.284,0,0,1,4.12-.94v-.18c0-1.2-.46-1.66-1.66-1.66-1.08,0-1.7.41-1.86,1.26h-2.69Zm6.21,2.46c-1.84.23-2.55.39-3.04.74a1.56,1.56,0,0,0-.67,1.22c0,.76.69,1.31,1.66,1.31a1.962,1.962,0,0,0,1.84-1.01,4.236,4.236,0,0,0,.21-1.63v-.62Z" fill="#1d1d1b"/>
    <path id="Path_68" data-name="Path 68" d="M226.27,23.51a3.343,3.343,0,0,1,.23,1.4,3.871,3.871,0,0,1,3.24-1.63,3.584,3.584,0,0,1,3.13,1.59c.41.74.51,1.29.51,3.26v6.3h-2.83V28.75a5.282,5.282,0,0,0-.25-2.07,1.558,1.558,0,0,0-1.52-.92,1.957,1.957,0,0,0-1.79,1.13,4.162,4.162,0,0,0-.28,1.95v5.59h-2.83V27.42c0-2.64-.02-2.85-.34-3.91h2.74Z" fill="#1d1d1b"/>
    <path id="Path_69" data-name="Path 69" d="M247.77,30.99a16.77,16.77,0,0,0,.21,3.45h-2.64a5.848,5.848,0,0,1-.09-.97c0-.14,0-.28.02-.55a3.179,3.179,0,0,1-3.1,1.75c-2.76,0-4.65-2.25-4.65-5.59s1.93-5.79,4.6-5.79a3.163,3.163,0,0,1,2.83,1.43v-5.7h2.83V31Zm-7.38-1.91c0,2,.85,3.22,2.25,3.22s2.35-1.29,2.35-3.33-.83-3.31-2.23-3.31c-1.5,0-2.37,1.26-2.37,3.43Z" fill="#1d1d1b"/>
  </g>
  <g id="Group_338" data-name="Group 338">
    <path id="Path_70" data-name="Path 70" d="M72.46,47.55a2.47,2.47,0,0,1,.59-1.82l1.26-.99a1.524,1.524,0,0,1,1.08-.41h1.67a3.17,3.17,0,0,1,1.69.86l.43.34v-.2a.9.9,0,0,1,.88-1.01c.76,0,.85.63.85,1.21v8.45c0,1.57-.13,1.89-.85,2.5l-.58.49a2.741,2.741,0,0,1-2.16.74H74.46c-.5,0-1.19-.11-1.19-.86s.61-.86,1.19-.86h3.17a1.221,1.221,0,0,0,.86-.4l.43-.4a1.034,1.034,0,0,0,.25-.72V52.09l-.36.36a2.439,2.439,0,0,1-1.42.85H75.36a1.77,1.77,0,0,1-1.3-.52l-1.08-.97a1.878,1.878,0,0,1-.54-1.62V47.56Zm1.73,2.38c0,.36.02.74.22.9l.72.58a.733.733,0,0,0,.5.16h1.26a1.476,1.476,0,0,0,.79-.45l1.33-1.1a.778.778,0,0,0,.18-.58V48.18a.793.793,0,0,0-.18-.58l-1.33-1.1a1.511,1.511,0,0,0-.79-.45H75.63a.7.7,0,0,0-.5.16l-.72.58c-.2.16-.22.54-.22.9v2.23Z" fill="#00964f"/>
    <path id="Path_71" data-name="Path 71" d="M85.33,45.61c0-.63.07-1.28.86-1.28.68,0,.86.58.86,1.15v.7l1.35-1.12a2.585,2.585,0,0,1,1.53-.74h1.39a2.3,2.3,0,0,1,1.69.68,2.513,2.513,0,0,1,.77,1.96c0,.59-.11,1.21-.85,1.21-.63,0-.88-.5-.88-1.06a1.151,1.151,0,0,0-.18-.76c-.22-.31-.63-.31-1.04-.31h-.5a1.329,1.329,0,0,0-.86.41l-2.41,2v4.38c0,.59-.13,1.19-.86,1.19s-.86-.59-.86-1.19V45.59Z" fill="#00964f"/>
    <path id="Path_72" data-name="Path 72" d="M101.37,54.03a1.836,1.836,0,0,1-1.55-.47l-.74-.65a2.154,2.154,0,0,1-.88-1.94V47.64a2.276,2.276,0,0,1,.85-2.07l.61-.52a2.336,2.336,0,0,1,1.91-.72h1.58a2.476,2.476,0,0,1,1.91.63l.7.56a2.456,2.456,0,0,1,.9,2.25v1.39c0,.99-.16,1.28-1.19,1.28H99.93v.58a.855.855,0,0,0,.25.5l.43.47a1.458,1.458,0,0,0,1.15.32h3.71c.58,0,1.19.13,1.19.86s-.68.86-1.19.86h-4.1ZM99.93,48.7h5V47.66c0-.32.02-.59-.22-.81l-.67-.58a1.231,1.231,0,0,0-.83-.22h-1.46a1.384,1.384,0,0,0-.88.2l-.59.43a.778.778,0,0,0-.36.79v1.22Z" fill="#00964f"/>
    <path id="Path_73" data-name="Path 73" d="M114.24,54.03a1.836,1.836,0,0,1-1.55-.47l-.74-.65a2.154,2.154,0,0,1-.88-1.94V47.64a2.276,2.276,0,0,1,.85-2.07l.61-.52a2.336,2.336,0,0,1,1.91-.72h1.58a2.476,2.476,0,0,1,1.91.63l.7.56a2.456,2.456,0,0,1,.9,2.25v1.39c0,.99-.16,1.28-1.19,1.28H112.8v.58a.855.855,0,0,0,.25.5l.43.47a1.458,1.458,0,0,0,1.15.32h3.71c.58,0,1.19.13,1.19.86s-.68.86-1.19.86h-4.1ZM112.8,48.7h5V47.66c0-.32.02-.59-.22-.81l-.67-.58a1.231,1.231,0,0,0-.83-.22h-1.46a1.384,1.384,0,0,0-.88.2l-.59.43a.778.778,0,0,0-.36.79v1.22Z" fill="#00964f"/>
    <path id="Path_74" data-name="Path 74" d="M125.68,47.82v5.02c0,.59-.13,1.19-.86,1.19s-.86-.59-.86-1.19V45.6c0-.63.07-1.28.86-1.28s.86.65.86,1.26v.23l1.4-.92a2.837,2.837,0,0,1,1.49-.58h1.28a2.169,2.169,0,0,1,1.6.63,2.726,2.726,0,0,1,.77,2.34l.18,5.44c.02.61-.07,1.3-.85,1.3-.7,0-.85-.59-.86-1.17l-.18-5.33c-.04-1.06-.13-1.48-1.17-1.48h-.58a1.021,1.021,0,0,0-.54.16l-2.56,1.6Z" fill="#00964f"/>
    <path id="Path_75" data-name="Path 75" d="M140.4,53.73c-.4,0-.68,0-.94-.34a1.139,1.139,0,0,1-.2-.81V51.57a1.139,1.139,0,0,1,.2-.81c.25-.34.54-.34.94-.34h1.3c.4,0,.68,0,.94.34a1.139,1.139,0,0,1,.2.81v1.01a1.139,1.139,0,0,1-.2.81c-.25.34-.54.34-.94.34Z" fill="#00964f"/>
    <path id="Path_76" data-name="Path 76" d="M152.65,46.06c-.36,0-.97-.07-.97.49,0,.29.22.4.47.5l4.32,1.96a2.452,2.452,0,0,1,1.69,2.45c0,1.75-1.19,2.58-2.84,2.58h-2.67a3.126,3.126,0,0,1-2.16-.54c-.32-.25-.79-.58-.79-1.01a.875.875,0,0,1,.9-.86.835.835,0,0,1,.67.31,1.846,1.846,0,0,0,1.39.38H155c.61,0,1.44.05,1.44-.95,0-.41-.5-.68-.9-.86l-4.07-1.85a2.12,2.12,0,0,1-1.51-2.11,2.208,2.208,0,0,1,2.38-2.2h2.95a2.512,2.512,0,0,1,2,.59c.32.27.68.49.68.97a.877.877,0,0,1-.88.86.948.948,0,0,1-.74-.36,1.242,1.242,0,0,0-1.06-.34h-2.63Z" fill="#00964f"/>
    <path id="Path_77" data-name="Path 77" d="M162.57,47.55a2.319,2.319,0,0,1,1.1-2.25,3.1,3.1,0,0,1,2.45-.97h1.37a3.1,3.1,0,0,1,2.45.97,2.337,2.337,0,0,1,1.1,2.25v3.26a2.508,2.508,0,0,1-1.19,2.32,2.866,2.866,0,0,1-2.36.9h-1.37a2.866,2.866,0,0,1-2.36-.9,2.518,2.518,0,0,1-1.19-2.32Zm1.72,3.26c0,.36.13.59.63,1.03a1.6,1.6,0,0,0,1.19.47h1.37a1.56,1.56,0,0,0,1.19-.47c.5-.43.63-.67.63-1.03V47.55c0-.36-.13-.59-.63-1.03a1.6,1.6,0,0,0-1.19-.47h-1.37a1.56,1.56,0,0,0-1.19.47c-.5.43-.63.67-.63,1.03Z" fill="#00964f"/>
    <path id="Path_78" data-name="Path 78" d="M177.98,46.06h-.49c-.5,0-1.19-.11-1.19-.86s.61-.86,1.19-.86h.49v-.23a2.937,2.937,0,0,1,.83-2.47,3.332,3.332,0,0,1,2.67-.86h1.17c.59,0,1.26.05,1.26.86,0,.74-.59.86-1.19.86h-1.35c-1.17,0-1.66.23-1.66,1.49v.34h1.53c.58,0,1.19.13,1.19.86s-.68.86-1.19.86h-1.53v6.79c0,.59-.13,1.19-.86,1.19s-.86-.59-.86-1.19V46.05Z" fill="#00964f"/>
    <path id="Path_79" data-name="Path 79" d="M191.79,50.77c0,.97-.04,1.53,1.15,1.53h.88c.7,0,1.03-.05,1.21-.76a.886.886,0,0,1,.86-.7.864.864,0,0,1,.88.86,2.644,2.644,0,0,1-.59,1.44,2.791,2.791,0,0,1-2.38.88h-.88a2.83,2.83,0,0,1-2.23-.86,3.1,3.1,0,0,1-.63-2.41v-4.7h-.56c-.5,0-1.19-.11-1.19-.86s.61-.86,1.19-.86h.56V42.57c0-.59.13-1.19.86-1.19s.86.59.86,1.19v1.76h2.9c.58,0,1.19.13,1.19.86s-.68.86-1.19.86h-2.9v4.72Z" fill="#00964f"/>
    <path id="Path_80" data-name="Path 80" d="M206.28,50.04l.94,1.6.54-1.6.18-4.47c.02-.59.13-1.24.86-1.24s.86.65.85,1.24l-.18,4.81-.85,2.56c-.18.52-.27,1.1-.88,1.1h-.67c-.31,0-.56-.32-.72-.56l-.94-1.4-.94,1.4c-.16.23-.41.56-.72.56h-.67c-.61,0-.7-.58-.88-1.1l-.85-2.56-.18-4.81c-.02-.59.09-1.24.85-1.24s.85.65.86,1.24l.18,4.47.54,1.6.94-1.6V48.46c0-.59.13-1.21.87-1.21s.86.61.86,1.21v1.58Z" fill="#00964f"/>
    <path id="Path_81" data-name="Path 81" d="M216.96,46.06c-.5,0-1.19-.11-1.19-.86s.61-.86,1.19-.86h2.38a2.73,2.73,0,0,1,2.23.77,2.462,2.462,0,0,1,.77,2.05l.18,5.87c.02.5-.23,1.01-.81,1.01a.877.877,0,0,1-.88-.86l-1.19.61a1.573,1.573,0,0,1-1.06.25h-1.66a2.711,2.711,0,0,1-1.96-.61,2.4,2.4,0,0,1-.9-2.12v-.76a2.261,2.261,0,0,1,.85-1.93,2.846,2.846,0,0,1,2.02-.65h3.71v-.4c0-1.3-.29-1.51-1.53-1.51h-2.14Zm-.02,3.63c-.47,0-1.15.13-1.15.76V51.6c0,.58.7.7,1.12.7h1.91l1.91-.99v-.38c0-.95-.27-1.24-1.22-1.24h-2.56Z" fill="#00964f"/>
    <path id="Path_82" data-name="Path 82" d="M226.93,45.61c0-.63.07-1.28.86-1.28.68,0,.86.58.86,1.15v.7L230,45.06a2.585,2.585,0,0,1,1.53-.74h1.39a2.3,2.3,0,0,1,1.69.68,2.513,2.513,0,0,1,.77,1.96c0,.59-.11,1.21-.85,1.21-.63,0-.88-.5-.88-1.06a1.151,1.151,0,0,0-.18-.76c-.22-.31-.63-.31-1.04-.31h-.5a1.329,1.329,0,0,0-.86.41l-2.41,2v4.38c0,.59-.13,1.19-.86,1.19s-.86-.59-.86-1.19V45.59Z" fill="#00964f"/>
    <path id="Path_83" data-name="Path 83" d="M242.97,54.03a1.836,1.836,0,0,1-1.55-.47l-.74-.65a2.154,2.154,0,0,1-.88-1.94V47.64a2.276,2.276,0,0,1,.85-2.07l.61-.52a2.336,2.336,0,0,1,1.91-.72h1.58a2.476,2.476,0,0,1,1.91.63l.7.56a2.456,2.456,0,0,1,.9,2.25v1.39c0,.99-.16,1.28-1.19,1.28h-5.54v.58a.855.855,0,0,0,.25.5l.43.47a1.458,1.458,0,0,0,1.15.32h3.71c.58,0,1.19.13,1.19.86s-.68.86-1.19.86h-4.1Zm-1.44-5.33h5V47.66c0-.32.02-.59-.22-.81l-.67-.58a1.231,1.231,0,0,0-.83-.22h-1.46a1.384,1.384,0,0,0-.88.2l-.59.43a.778.778,0,0,0-.36.79v1.22Z" fill="#00964f"/>
  </g>
</svg>
