<svg width="122" height="24" viewBox="0 0 122 24" fill="none" xmlns="http://www.w3.org/2000/svg">
<g clip-path="url(#clip0_8887_41597)">
<g clip-path="url(#clip1_8887_41597)">
<path d="M6.11135 23.9867H0.534135C0.144252 23.9867 -0.11398 23.5856 0.0502835 23.2351L9.10698 3.90213L10.7974 0.293607C10.9808 -0.097869 11.5424 -0.097869 11.7258 0.293607L14.4571 6.12385C14.548 6.31755 14.5139 6.54597 14.3706 6.70568C14.0805 7.02939 13.7969 7.35933 13.5203 7.69502C9.85341 12.1401 7.39164 17.6 6.62999 23.5849C6.60076 23.8143 6.40461 23.9864 6.1715 23.9864H6.11135V23.9867Z" fill="#64BEFF"/>
<path d="M19.7013 17.5771C18.6952 14.8626 17.2903 12.3392 15.557 10.0763C15.3652 9.82612 14.9845 9.82612 14.7927 10.0763C13.0624 12.3352 11.6594 14.854 10.6535 17.563C9.49621 20.6802 11.8314 23.9861 15.1824 23.9861C18.5261 23.9861 20.8543 20.6878 19.7013 17.5769V17.5771Z" fill="#002760"/>
</g>
<path d="M25.4 24L31.06 9.94H33.28L38.92 24H36.02L31.66 12.46H32.66L28.24 24H25.4ZM28.4 21.38V19.1H35.96V21.38H28.4ZM46.9569 24V18.46C46.9569 17.8867 46.7769 17.42 46.4169 17.06C46.0569 16.7 45.5902 16.52 45.0169 16.52C44.6435 16.52 44.3102 16.6 44.0169 16.76C43.7235 16.92 43.4902 17.1467 43.3169 17.44C43.1569 17.7333 43.0769 18.0733 43.0769 18.46L42.0569 17.94C42.0569 17.18 42.2169 16.52 42.5369 15.96C42.8702 15.3867 43.3235 14.94 43.8969 14.62C44.4835 14.3 45.1435 14.14 45.8769 14.14C46.5835 14.14 47.2169 14.32 47.7769 14.68C48.3369 15.0267 48.7769 15.4867 49.0969 16.06C49.4169 16.62 49.5769 17.2267 49.5769 17.88V24H46.9569ZM40.4569 24V14.34H43.0769V24H40.4569ZM52.9902 24V10.32H55.6102V24H52.9902ZM50.7302 16.64V14.34H57.8702V16.64H50.7302ZM63.1492 24.2C62.2692 24.2 61.4759 23.98 60.7692 23.54C60.0626 23.1 59.5092 22.5 59.1092 21.74C58.7092 20.98 58.5092 20.1267 58.5092 19.18C58.5092 18.22 58.7092 17.36 59.1092 16.6C59.5092 15.84 60.0626 15.24 60.7692 14.8C61.4759 14.36 62.2692 14.14 63.1492 14.14C63.8426 14.14 64.4626 14.28 65.0092 14.56C65.5559 14.84 65.9892 15.2333 66.3092 15.74C66.6426 16.2333 66.8226 16.7933 66.8492 17.42V20.9C66.8226 21.54 66.6426 22.1067 66.3092 22.6C65.9892 23.0933 65.5559 23.4867 65.0092 23.78C64.4626 24.06 63.8426 24.2 63.1492 24.2ZM63.6292 21.78C64.3626 21.78 64.9559 21.54 65.4092 21.06C65.8626 20.5667 66.0892 19.9333 66.0892 19.16C66.0892 18.6533 65.9826 18.2067 65.7692 17.82C65.5692 17.42 65.2826 17.1133 64.9092 16.9C64.5492 16.6733 64.1226 16.56 63.6292 16.56C63.1492 16.56 62.7226 16.6733 62.3492 16.9C61.9892 17.1133 61.7026 17.42 61.4892 17.82C61.2892 18.2067 61.1892 18.6533 61.1892 19.16C61.1892 19.68 61.2892 20.14 61.4892 20.54C61.7026 20.9267 61.9892 21.2333 62.3492 21.46C62.7226 21.6733 63.1492 21.78 63.6292 21.78ZM65.9492 24V21.4L66.3692 19.04L65.9492 16.72V14.34H68.5492V24H65.9492ZM70.867 24V14.34H73.487V24H70.867ZM73.487 18.66L72.467 17.98C72.587 16.7933 72.9337 15.86 73.507 15.18C74.0804 14.4867 74.907 14.14 75.987 14.14C76.4537 14.14 76.8737 14.22 77.247 14.38C77.6204 14.5267 77.9604 14.7733 78.267 15.12L76.627 17C76.4804 16.84 76.3004 16.72 76.087 16.64C75.887 16.56 75.6537 16.52 75.387 16.52C74.827 16.52 74.367 16.7 74.007 17.06C73.6604 17.4067 73.487 17.94 73.487 18.66ZM83.4739 24.2C82.4872 24.2 81.6006 23.98 80.8139 23.54C80.0272 23.1 79.4072 22.5 78.9539 21.74C78.5006 20.98 78.2739 20.1267 78.2739 19.18C78.2739 18.22 78.5006 17.36 78.9539 16.6C79.4072 15.84 80.0272 15.24 80.8139 14.8C81.6139 14.3467 82.5006 14.12 83.4739 14.12C84.2339 14.12 84.9339 14.26 85.5739 14.54C86.2139 14.82 86.7672 15.22 87.2339 15.74L85.5539 17.44C85.3006 17.16 84.9939 16.9467 84.6339 16.8C84.2872 16.6533 83.9006 16.58 83.4739 16.58C82.9939 16.58 82.5606 16.6933 82.1739 16.92C81.8006 17.1333 81.5006 17.4333 81.2739 17.82C81.0606 18.1933 80.9539 18.64 80.9539 19.16C80.9539 19.6667 81.0606 20.12 81.2739 20.52C81.5006 20.9067 81.8006 21.2133 82.1739 21.44C82.5606 21.6533 82.9939 21.76 83.4739 21.76C83.9139 21.76 84.3072 21.6867 84.6539 21.54C85.0139 21.38 85.3206 21.1533 85.5739 20.86L87.2739 22.56C86.7806 23.0933 86.2139 23.5 85.5739 23.78C84.9339 24.06 84.2339 24.2 83.4739 24.2ZM90.0214 24V10.32H92.6414V24H90.0214ZM87.7614 16.64V14.34H94.9014V16.64H87.7614ZM96.3748 24V14.34H99.0148V24H96.3748ZM97.6948 12.78C97.2682 12.78 96.9148 12.64 96.6348 12.36C96.3548 12.0667 96.2148 11.7067 96.2148 11.28C96.2148 10.8667 96.3548 10.5133 96.6348 10.22C96.9148 9.92667 97.2682 9.78 97.6948 9.78C98.1348 9.78 98.4882 9.92667 98.7548 10.22C99.0348 10.5133 99.1748 10.8667 99.1748 11.28C99.1748 11.7067 99.0348 12.0667 98.7548 12.36C98.4882 12.64 98.1348 12.78 97.6948 12.78ZM105.896 24.2C104.909 24.2 104.022 23.98 103.236 23.54C102.449 23.1 101.829 22.5 101.376 21.74C100.922 20.98 100.696 20.1267 100.696 19.18C100.696 18.22 100.922 17.36 101.376 16.6C101.829 15.84 102.449 15.24 103.236 14.8C104.036 14.3467 104.922 14.12 105.896 14.12C106.656 14.12 107.356 14.26 107.996 14.54C108.636 14.82 109.189 15.22 109.656 15.74L107.976 17.44C107.722 17.16 107.416 16.9467 107.056 16.8C106.709 16.6533 106.322 16.58 105.896 16.58C105.416 16.58 104.982 16.6933 104.596 16.92C104.222 17.1333 103.922 17.4333 103.696 17.82C103.482 18.1933 103.376 18.64 103.376 19.16C103.376 19.6667 103.482 20.12 103.696 20.52C103.922 20.9067 104.222 21.2133 104.596 21.44C104.982 21.6533 105.416 21.76 105.896 21.76C106.336 21.76 106.729 21.6867 107.076 21.54C107.436 21.38 107.742 21.1533 107.996 20.86L109.696 22.56C109.202 23.0933 108.636 23.5 107.996 23.78C107.356 24.06 106.656 24.2 105.896 24.2ZM115.005 24.2C114.125 24.2 113.331 23.98 112.625 23.54C111.918 23.1 111.365 22.5 110.965 21.74C110.565 20.98 110.365 20.1267 110.365 19.18C110.365 18.22 110.565 17.36 110.965 16.6C111.365 15.84 111.918 15.24 112.625 14.8C113.331 14.36 114.125 14.14 115.005 14.14C115.698 14.14 116.318 14.28 116.865 14.56C117.411 14.84 117.845 15.2333 118.165 15.74C118.498 16.2333 118.678 16.7933 118.705 17.42V20.9C118.678 21.54 118.498 22.1067 118.165 22.6C117.845 23.0933 117.411 23.4867 116.865 23.78C116.318 24.06 115.698 24.2 115.005 24.2ZM115.485 21.78C116.218 21.78 116.811 21.54 117.265 21.06C117.718 20.5667 117.945 19.9333 117.945 19.16C117.945 18.6533 117.838 18.2067 117.625 17.82C117.425 17.42 117.138 17.1133 116.765 16.9C116.405 16.6733 115.978 16.56 115.485 16.56C115.005 16.56 114.578 16.6733 114.205 16.9C113.845 17.1133 113.558 17.42 113.345 17.82C113.145 18.2067 113.045 18.6533 113.045 19.16C113.045 19.68 113.145 20.14 113.345 20.54C113.558 20.9267 113.845 21.2333 114.205 21.46C114.578 21.6733 115.005 21.78 115.485 21.78ZM117.805 24V21.4L118.225 19.04L117.805 16.72V14.34H120.405V24H117.805Z" fill="#000C1E"/>
</g>
<defs>
<clipPath id="clip0_8887_41597">
<rect width="122" height="24" fill="white"/>
</clipPath>
<clipPath id="clip1_8887_41597">
<rect width="20" height="24" fill="white"/>
</clipPath>
</defs>
</svg>
