<?xml version="1.0" encoding="UTF-8"?> <svg xmlns="http://www.w3.org/2000/svg" width="123" height="34" viewBox="0 0 123 34" fill="none"><path id="Vector" d="M33.3223 8.04064C32.5031 6.76535 31.478 5.66423 30.3754 4.62806C28.5237 2.88634 26.3422 1.69518 23.928 0.90698C22.6269 0.481883 21.3079 0.121731 19.9233 0.0922106C18.4849 0.0612139 17.0495 -0.105578 15.6081 0.104019C13.7729 0.369705 12.0047 0.855319 10.3246 1.62138C8.64155 2.38892 7.10321 3.39409 5.7454 4.64429C4.02651 6.2266 2.54934 8.00374 1.59589 10.1455C1.14976 11.1477 0.802102 12.1986 0.490254 13.2496C0.278377 13.9669 0.13066 14.7197 0.0829131 15.4636C-0.0275017 17.2112 -0.0886775 18.9618 0.306727 20.6932C0.654384 22.2165 1.13335 23.6925 1.8973 25.0652C2.50607 26.1589 3.1417 27.2379 4.00413 28.1619C4.45773 28.6475 4.92326 29.1199 5.38283 29.5996C6.25868 30.5132 7.30016 31.2188 8.3879 31.8461C9.23242 32.3332 10.1471 32.7007 11.0199 33.142C11.6183 33.4446 12.2345 33.6572 12.903 33.7576C14.792 34.041 16.0229 32.6992 15.9931 31.2129C15.9782 30.4571 16.0379 29.7014 16.0498 28.9442C16.0617 28.2121 16.0662 27.4785 16.0528 26.7464C16.0438 26.2416 15.9394 26.1279 15.4186 26.0423C15.1336 25.9951 14.8412 25.9862 14.5502 25.9774C13.9847 25.9611 13.4789 25.7589 13.0343 25.4445C12.0823 24.767 11.6302 23.7707 11.5646 22.6652C11.4676 21.0386 11.4795 19.4046 11.49 17.7736C11.4929 17.4075 11.6392 17.0208 11.8063 16.6843C11.8943 16.5057 12.1644 16.3182 12.3539 16.3153C12.4897 16.3138 12.6478 16.6031 12.7597 16.7832C12.8239 16.888 12.8328 17.0371 12.8373 17.167C12.8672 18.0422 12.8776 18.919 12.9194 19.7928C12.9447 20.3419 13.0074 20.891 13.0641 21.4386C13.1208 21.9995 13.2163 22.553 13.4879 23.0607C13.9101 23.8534 14.6636 24.1678 15.5067 23.9065C15.7872 23.8194 15.9782 23.6674 15.9961 23.356C16.0393 22.6135 16.1169 21.8725 16.1244 21.1301C16.1423 19.2688 16.1304 17.4061 16.1304 15.5448H16.1363C16.1363 13.7071 16.1334 11.8695 16.1393 10.0318C16.1393 9.75727 16.1647 9.48125 16.202 9.20819C16.2617 8.7639 16.6869 8.29009 17.0778 8.20743C17.5941 8.09821 18.0775 8.29009 18.3745 8.7329C18.6908 9.20523 18.8564 9.73218 18.8758 10.2916C18.9609 12.8702 19.0235 15.4503 19.119 18.029C19.1325 18.3994 19.2414 18.7832 19.3846 19.1301C19.5667 19.5714 19.8919 19.8637 20.4336 19.8784C21.0244 19.8947 21.5198 19.7574 21.8302 19.2304C22.1316 18.7197 22.3211 18.1736 22.3285 17.5684C22.3464 16.1396 22.3509 14.7094 22.4195 13.2835C22.4449 12.7566 22.5986 12.2222 22.7687 11.7174C22.9328 11.2348 23.467 11.0842 23.8579 11.4045C24.0743 11.5816 24.2802 11.868 24.3279 12.1322C24.4756 12.9425 24.6428 13.7706 24.6234 14.5868C24.589 16.0452 24.4279 17.502 24.313 18.9589C24.2712 19.4932 24.1981 20.0113 24.031 20.5382C23.6968 21.5891 23.0015 22.2224 22.0122 22.6002C21.5377 22.7818 21.0498 22.9294 20.5664 23.0814C19.6741 23.3633 19.2175 24.0305 19.1981 24.8881C19.1474 27.0697 19.1504 29.2557 19.2011 31.4372C19.216 32.0542 19.3742 32.6948 19.8487 33.1937C20.641 34.0262 21.6556 34.1103 22.6702 33.9066C23.564 33.7266 24.4413 33.4063 25.2844 33.0491C28.2805 31.7826 30.7976 29.883 32.7329 27.2778C34.0862 25.4549 35.0546 23.4445 35.5783 21.2275C35.8916 19.902 36.0796 18.5603 36.0826 17.2068C36.0871 15.4503 35.7857 13.7322 35.2485 12.051C34.792 10.6222 34.131 9.29675 33.3223 8.03769V8.04064ZM35.1918 18.1662C35.1351 19.0917 34.9263 20.0127 34.7323 20.9235C34.3384 22.7729 33.5371 24.4526 32.4941 26.0305C31.1498 28.063 29.4249 29.7014 27.3688 31.0151C25.8185 32.0055 24.1339 32.6948 22.3584 33.1598C21.2438 33.452 20.2112 32.6594 20.1381 31.514C20.0635 30.3302 19.9427 29.145 19.9397 27.9597C19.9367 26.9206 20.0546 25.8785 20.153 24.8423C20.1963 24.3833 20.4515 24.0408 20.9349 23.908C21.3437 23.7958 21.7481 23.6718 22.1525 23.5449C23.8072 23.0312 24.7755 21.8843 25.0814 20.2371C25.2888 19.1227 25.4037 17.9802 25.441 16.8481C25.4873 15.4223 25.4261 13.9935 25.3798 12.5662C25.3694 12.24 25.2709 11.9019 25.1471 11.5949C24.5771 10.1794 23.1402 10.2193 22.2793 10.9101C22.0152 11.1211 21.8958 11.5315 21.7645 11.8709C21.6795 12.0879 21.669 12.3418 21.663 12.5794C21.6302 14.0082 21.6526 15.4385 21.5646 16.8644C21.5258 17.4828 21.2945 18.0954 21.096 18.6917C21.0423 18.8526 20.7812 19.0533 20.626 19.0445C20.4724 19.0356 20.25 18.8098 20.2023 18.6386C20.071 18.1692 19.9561 17.6821 19.9412 17.1979C19.9039 15.9374 19.9322 14.6754 19.9173 13.4149C19.9068 12.4909 19.9352 11.5595 19.8278 10.6458C19.7293 9.80008 19.6398 8.93217 19.1146 8.1853C18.6401 7.51075 18.0119 7.23178 17.2077 7.32182C16.4303 7.4089 15.7932 7.79415 15.4903 8.49231C15.3037 8.92183 15.3291 9.45468 15.3231 9.94177C15.2784 13.2555 15.2515 16.5706 15.2157 19.8843C15.2053 20.8452 15.1859 21.8046 15.168 22.7655C15.1665 22.8821 15.1501 22.9988 15.1396 23.1154C15.1053 23.1464 15.071 23.1788 15.0367 23.2098C14.874 23.1124 14.6935 23.0357 14.5547 22.9117C14.1668 22.5663 14.0713 22.0851 14.034 21.6054C13.9191 20.1485 13.8311 18.6902 13.7236 17.2319C13.6923 16.8068 13.7117 16.3714 13.4043 16.0053C12.6657 15.1241 11.4348 15.2762 10.9409 16.3153C10.6499 16.9293 10.5843 17.592 10.5917 18.2474C10.6096 19.8179 10.6604 21.3884 10.735 22.9574C10.7887 24.0881 11.1975 25.0844 12.0659 25.8564C12.6254 26.3538 13.2924 26.649 14.0265 26.804C14.2265 26.8468 14.4324 26.8851 14.6204 26.9604C14.9889 27.1095 15.1844 27.3663 15.1769 27.7929C15.1575 28.8616 15.162 29.9302 15.171 30.9988C15.1814 32.3007 14.1101 33.362 12.6836 32.8498C11.572 32.4498 10.4738 31.9848 9.4264 31.4402C8.35507 30.8822 7.38521 30.1531 6.46758 29.3605C5.19482 28.2608 4.15334 26.9752 3.24615 25.5744C2.38223 24.2416 1.75107 22.7965 1.38402 21.2674C1.11992 20.1692 1.00353 19.0282 0.914009 17.8991C0.827467 16.8127 0.878198 15.716 1.08709 14.6385C1.34224 13.3307 1.73168 12.0687 2.29867 10.854C3.38491 8.52478 4.93669 6.55723 6.91968 4.91441C8.24615 3.81624 9.67558 2.88191 11.287 2.22951C12.6568 1.67599 14.0489 1.21547 15.5216 1.01178C17.1883 0.781518 18.8534 0.722476 20.5126 1.03982C21.5914 1.24647 22.6717 1.46049 23.7311 1.74094C24.2846 1.88854 24.8069 2.16751 25.3246 2.42434C26.0155 2.76678 26.6959 3.13284 27.3673 3.5107C28.6804 4.24872 29.7457 5.29227 30.7872 6.34911C32.2017 7.78234 33.2596 9.45616 34.0071 11.316C34.8919 13.5138 35.3276 15.8001 35.1844 18.1647L35.1918 18.1662ZM50.0382 22.0201C50.0188 21.598 50.0053 21.139 49.9964 20.6415C49.9874 20.1456 49.983 19.5847 49.983 18.9603V15.8459C49.983 14.2296 49.5189 13.0577 48.5893 12.3315C47.6598 11.6053 46.4169 11.2422 44.8561 11.2422C44.0206 11.2422 43.1477 11.3942 42.2375 11.6968C41.3273 11.9994 40.5664 12.4451 39.9531 13.0341L40.9289 14.1632C42.0614 13.2082 43.3715 12.73 44.8576 12.73C45.8976 12.73 46.7615 12.9691 47.4479 13.4459C48.1343 13.9241 48.4789 14.7138 48.4789 15.8164V16.5883H46.5288C45.8976 16.5883 45.168 16.6297 44.3414 16.7123C43.5147 16.795 42.7344 16.9795 42.0018 17.2629C41.2676 17.5478 40.6499 17.9758 40.1486 18.5441C39.6472 19.1138 39.3966 19.8858 39.3966 20.8585C39.3966 21.539 39.5308 22.1176 39.8009 22.5943C40.0695 23.0726 40.4186 23.4622 40.8454 23.7663C41.2721 24.0689 41.7556 24.2903 42.2942 24.4276C42.8329 24.5648 43.3804 24.6342 43.9385 24.6342C45.0337 24.6342 45.9394 24.4408 46.6541 24.0556C47.3688 23.6703 47.9671 23.0637 48.4506 22.2371H48.5058C48.5058 22.9899 48.561 23.6792 48.6729 24.3036H50.2336C50.1784 23.936 50.1366 23.5685 50.1083 23.201C50.0799 22.8334 50.0576 22.4393 50.0382 22.0157V22.0201ZM48.4774 18.7684C48.4774 19.3013 48.4118 19.8297 48.282 20.3537C48.1522 20.8777 47.9149 21.3456 47.5717 21.7589C47.2286 22.1722 46.7675 22.5072 46.193 22.7641C45.6171 23.0224 44.883 23.1493 43.9922 23.1493C43.6386 23.1493 43.2909 23.0991 42.9477 22.9973C42.6046 22.8969 42.2927 22.7493 42.0152 22.5559C41.7362 22.3626 41.5094 22.1146 41.3333 21.812C41.1572 21.5094 41.0692 21.164 41.0692 20.7788C41.0692 20.2282 41.2274 19.7692 41.5422 19.4017C41.8585 19.0341 42.2808 18.7404 42.8105 18.5205C43.3402 18.3005 43.934 18.1441 44.5935 18.0526C45.253 17.9611 45.9349 17.9153 46.6407 17.9153H48.4789V18.7699L48.4774 18.7684ZM122.499 15.254C122.164 14.4363 121.696 13.7293 121.092 13.1315C120.487 12.5352 119.773 12.0702 118.946 11.7396C118.119 11.4089 117.214 11.2436 116.23 11.2436C115.247 11.2436 114.335 11.4089 113.5 11.7396C112.664 12.0702 111.95 12.5352 111.354 13.1315C110.76 13.7293 110.296 14.4363 109.962 15.254C109.628 16.0717 109.461 16.9677 109.461 17.9419C109.461 18.916 109.628 19.812 109.962 20.6282C110.296 21.446 110.76 22.153 111.354 22.7508C111.948 23.3486 112.664 23.812 113.5 24.1427C114.335 24.4733 115.246 24.6386 116.23 24.6386C117.215 24.6386 118.119 24.4733 118.946 24.1427C119.773 23.812 120.487 23.3486 121.092 22.7508C121.696 22.153 122.164 21.446 122.499 20.6282C122.833 19.8105 123 18.9146 123 17.9419C123 16.9692 122.833 16.0717 122.499 15.254ZM120.98 19.967C120.747 20.6002 120.408 21.1522 119.964 21.6201C119.517 22.088 118.979 22.46 118.348 22.736C117.716 23.012 117.011 23.1493 116.23 23.1493C115.45 23.1493 114.744 23.012 114.113 22.736C113.482 22.46 112.943 22.088 112.497 21.6201C112.051 21.1522 111.712 20.6002 111.481 19.967C111.248 19.3338 111.133 18.6577 111.133 17.9419C111.133 17.226 111.25 16.55 111.481 15.9168C111.712 15.2835 112.053 14.7315 112.497 14.2636C112.942 13.7957 113.482 13.4237 114.113 13.1477C114.744 12.8717 115.45 12.7344 116.23 12.7344C117.011 12.7344 117.716 12.8717 118.348 13.1477C118.979 13.4237 119.517 13.7957 119.964 14.2636C120.41 14.7315 120.748 15.2835 120.98 15.9168C121.212 16.55 121.327 17.226 121.327 17.9419C121.327 18.6577 121.211 19.3338 120.98 19.967ZM97.0062 22.0201C96.9869 21.598 96.9734 21.139 96.9645 20.6415C96.9555 20.1456 96.951 19.5847 96.951 18.9603V15.8459C96.951 14.2296 96.487 13.0577 95.5574 12.3315C94.6279 11.6053 93.3849 11.2422 91.8242 11.2422C90.9886 11.2422 90.1158 11.3942 89.2056 11.6968C88.2954 11.9994 87.5344 12.4451 86.9212 13.0341L87.897 14.1632C89.0295 13.2082 90.3396 12.73 91.8257 12.73C92.8657 12.73 93.7296 12.9691 94.416 13.4459C95.1023 13.9241 95.447 14.7138 95.447 15.8164V16.5883H93.4968C92.8657 16.5883 92.1361 16.6297 91.3094 16.7123C90.4828 16.795 89.7025 16.9795 88.9698 17.2629C88.2357 17.5478 87.618 17.9758 87.1167 18.5441C86.6153 19.1138 86.3646 19.8858 86.3646 20.8585C86.3646 21.539 86.4989 22.1176 86.769 22.5943C87.0376 23.0726 87.3867 23.4622 87.8135 23.7663C88.2402 24.0689 88.7236 24.2903 89.2623 24.4276C89.8009 24.5648 90.3485 24.6342 90.9066 24.6342C92.0018 24.6342 92.9075 24.4408 93.6222 24.0556C94.3369 23.6703 94.9352 23.0637 95.4187 22.2371H95.4739C95.4739 22.9899 95.5291 23.6792 95.641 24.3036H97.2017C97.1465 23.936 97.1047 23.5685 97.0764 23.201C97.048 22.8334 97.0257 22.4393 97.0062 22.0157V22.0201ZM95.4455 18.7684C95.4455 19.3013 95.3799 19.8297 95.2501 20.3537C95.1202 20.8777 94.883 21.3456 94.5398 21.7589C94.1966 22.1722 93.7371 22.5072 93.1611 22.7641C92.5852 23.0224 91.8511 23.1493 90.9603 23.1493C90.6067 23.1493 90.259 23.0991 89.9158 22.9973C89.5726 22.8969 89.2608 22.7493 88.9833 22.5559C88.7042 22.3626 88.4774 22.1146 88.3014 21.812C88.1253 21.5094 88.0373 21.164 88.0373 20.7788C88.0373 20.2282 88.1954 19.7692 88.5103 19.4017C88.8266 19.0341 89.2489 18.7404 89.7786 18.5205C90.3082 18.3005 90.9021 18.1441 91.5616 18.0526C92.2211 17.9611 92.903 17.9153 93.6087 17.9153H95.447V18.7699L95.4455 18.7684ZM65.6917 13.7248H65.6365C65.1531 12.9529 64.498 12.3462 63.6729 11.9064C62.8463 11.465 61.8764 11.2451 60.7618 11.2451C59.8144 11.2451 58.9236 11.4193 58.088 11.7691C57.2524 12.1189 56.5228 12.5868 55.9006 13.1743C55.2784 13.7632 54.786 14.4511 54.4234 15.2407C54.0608 16.0304 53.8803 16.8762 53.8803 17.7766C53.8803 18.6769 54.0608 19.5227 54.4234 20.3124C54.786 21.1021 55.2769 21.7958 55.9006 22.3936C56.5228 22.9914 57.2509 23.4593 58.088 23.7988C58.9236 24.1383 59.8158 24.308 60.7618 24.308C61.8764 24.308 62.8463 24.0881 63.6729 23.6467C64.4995 23.2054 65.1546 22.6002 65.6365 21.8283H65.6917V23.5921C65.6917 23.8312 65.6828 24.1427 65.6634 24.5294C65.6455 24.9146 65.5843 25.3235 65.4828 25.756C65.3799 26.187 65.2232 26.6195 65.0098 27.0519C64.7965 27.4829 64.498 27.8785 64.119 28.2372C63.7386 28.5959 63.2551 28.8852 62.6702 29.1051C62.0853 29.325 61.3646 29.4357 60.5112 29.4357C59.5085 29.4357 58.561 29.2424 57.6702 28.8571C56.7794 28.4719 56.0349 27.8652 55.441 27.0387L54.1325 28.252C54.4667 28.6741 54.8606 29.0505 55.3157 29.3811C55.7708 29.7117 56.2766 29.9922 56.8346 30.2225C57.3912 30.4512 57.9821 30.6269 58.6043 30.7464C59.2265 30.866 59.8621 30.925 60.5127 30.925C61.1632 30.925 61.8869 30.8335 62.6851 30.649C63.4834 30.4645 64.2309 30.1073 64.9278 29.5745C65.6246 29.0416 66.205 28.2889 66.669 27.3147C67.1331 26.3405 67.3658 25.0637 67.3658 23.4844V11.5787H65.6947V13.7278L65.6917 13.7248ZM65.344 19.7471C65.074 20.3626 64.7129 20.8954 64.2578 21.3456C63.8027 21.7958 63.2641 22.1545 62.6419 22.4201C62.0197 22.6873 61.3557 22.8202 60.6499 22.8202C59.9442 22.8202 59.2802 22.6873 58.658 22.4201C58.0358 22.1545 57.4971 21.7958 57.042 21.3456C56.587 20.8954 56.2244 20.3626 55.9558 19.7471C55.6857 19.1315 55.5514 18.4747 55.5514 17.7766C55.5514 17.0784 55.6857 16.4216 55.9558 15.8061C56.2244 15.1905 56.587 14.6577 57.042 14.2075C57.4971 13.7573 58.0358 13.3986 58.658 13.133C59.2802 12.8673 59.9442 12.733 60.6499 12.733C61.3557 12.733 62.0197 12.8658 62.6419 13.133C63.2641 13.4001 63.8027 13.7573 64.2578 14.2075C64.7129 14.6577 65.074 15.1905 65.344 15.8061C65.6126 16.4216 65.7484 17.0784 65.7484 17.7766C65.7484 18.4747 65.6141 19.1315 65.344 19.7471ZM107.147 11.2451C106.181 11.2451 105.363 11.4842 104.695 11.961C104.027 12.4392 103.479 13.0547 103.051 13.8075C103.013 13.6791 102.99 13.3942 102.981 12.9529C102.972 12.5115 102.957 12.0525 102.939 11.5743H101.268C101.268 11.7396 101.277 11.9743 101.296 12.2769C101.314 12.5794 101.329 12.9071 101.338 13.2555C101.347 13.6053 101.362 13.9492 101.38 14.2887C101.397 14.6282 101.408 14.919 101.408 15.1566V24.3065H103.079V17.3618C103.079 16.7374 103.163 16.1544 103.33 15.6112C103.497 15.0695 103.752 14.5957 104.095 14.1913C104.438 13.7868 104.876 13.471 105.405 13.2407C105.935 13.0119 106.562 12.8968 107.285 12.8968C107.49 12.8968 107.703 12.9337 107.925 13.0075L108.121 11.3809C107.954 11.344 107.791 11.3115 107.633 11.285C107.475 11.2569 107.312 11.2436 107.145 11.2436L107.147 11.2451ZM82.421 22.6268C82.4121 22.2785 82.3972 21.9331 82.3793 21.5936C82.3599 21.2541 82.3509 20.9648 82.3509 20.7257V11.5757H80.6798V17.9419C80.6798 18.8231 80.5634 19.5906 80.3321 20.243C80.0994 20.8954 79.7845 21.4371 79.3846 21.8696C78.9848 22.3021 78.5118 22.6238 77.9642 22.8349C77.4166 23.046 76.8361 23.1523 76.2229 23.1523C75.5544 23.1523 75.0113 23.0371 74.5935 22.8083C74.1757 22.5796 73.8505 22.2711 73.6177 21.8858C73.3849 21.5006 73.2223 21.0637 73.1298 20.5766C73.0373 20.0895 72.991 19.5891 72.991 19.074V11.5772H71.3199V19.1566C71.3199 19.8548 71.3855 20.5353 71.5153 21.1965C71.6452 21.8578 71.8913 22.4408 72.2539 22.9471C72.6165 23.4519 73.1179 23.8608 73.758 24.1737C74.3981 24.4866 75.2202 24.6416 76.2229 24.6416C77.2256 24.6416 78.1731 24.3892 78.9534 23.8844C79.7338 23.3796 80.2903 22.7773 80.6246 22.0792H80.7081C80.7454 22.2076 80.7678 22.4925 80.7782 22.9338C80.7872 23.3751 80.8021 23.8342 80.82 24.3124H82.4912C82.4912 24.1471 82.4822 23.9124 82.4628 23.6098C82.4449 23.3072 82.43 22.981 82.421 22.6312V22.6268Z" fill="#1f2351"></path></svg> 