<svg width="256" height="256" viewBox="0 0 256 256" fill="none" xmlns="http://www.w3.org/2000/svg">
<circle cx="128" cy="128" r="128" fill="#12342F"/>
<path d="M128.94 115.083H132.462C135.365 115.083 138.032 116.632 139.417 119.126L142.246 124.128C144.339 127.89 149.15 129.273 152.996 127.227C154.241 126.564 155.28 125.591 156.002 124.401L180.84 83.7692C182.269 81.427 184.855 79.9928 187.641 80H190.079C194.449 80 198 83.4665 198 87.7402C198 89.0951 197.639 90.4211 196.954 91.5959L156.194 161.12C154.006 164.832 149.158 166.1 145.37 163.96C144.162 163.282 143.16 162.295 142.467 161.12L122.073 126.7C119.877 123.003 121.159 118.261 124.939 116.114C126.155 115.422 127.532 115.061 128.932 115.069L128.94 115.083Z" fill="#0AA376"/>
<path d="M66.0178 80.0001L148.012 80.0581C152.433 80.0654 156.007 83.5968 156 87.9476C156 89.3253 155.632 90.6741 154.931 91.8633L153.568 94.1982C152.139 96.6492 149.471 98.1574 146.597 98.1284H98.2569C93.8355 98.1284 90.2542 101.653 90.2542 106.003C90.2542 107.381 90.6227 108.73 91.3154 109.926L136.089 186.609C137.467 189.017 137.467 191.953 136.089 194.361L134.615 196.957C132.464 200.756 127.593 202.12 123.731 200.002C122.471 199.306 121.418 198.291 120.695 197.058L59.0762 91.8053C56.8656 88.0491 58.1699 83.2342 61.987 81.0588C63.2102 80.3627 64.6029 79.9929 66.0104 80.0001H66.0178Z" fill="#1C6C6C"/>
</svg>
