<svg xmlns="http://www.w3.org/2000/svg" xmlns:xlink="http://www.w3.org/1999/xlink" height="117" id="a" viewBox="37.33 86.78 680.4 209.19"><defs><linearGradient id="b" x1="156.89" y1="119.66" x2="156.39" y2="102.74" gradientUnits="userSpaceOnUse"><stop offset="0" stop-color="#2c9938"/><stop offset=".35" stop-color="#f4e600"/><stop offset=".72" stop-color="#f59b37"/><stop offset="1" stop-color="#e52520"/></linearGradient><linearGradient id="c" x1="138.5" y1="95.32" x2="132.94" y2="112.12" xlink:href="#b"/><linearGradient id="d" x1="104.1" y1="100.19" x2="122.65" y2="99.63" xlink:href="#b"/><linearGradient id="e" x1="94.45" y1="114.78" x2="78.28" y2="88.61" xlink:href="#b"/><linearGradient id="f" x1="36.85" y1="111.83" x2="72.12" y2="110.78" xlink:href="#b"/><linearGradient id="g" x1="119.39" y1="292.78" x2="143.31" y2="128.69" xlink:href="#b"/><style>.n{fill:#3d3d3c;stroke:#3d3d3c;stroke-linecap:round;stroke-linejoin:round}.o{fill:#474646}</style></defs><path class="n" d="M192.12 160.24h40.53v11.72h-26.42v16.49h22.45v11.72h-22.45v17.88h26.42v11.72h-40.53v-69.53ZM247.15 179.71h12.61v3.77c3.38-3.28 7.65-5.76 13.81-5.76s11.92 2.78 15.2 8.15c3.58-4.37 8.34-8.15 16.79-8.15 10.33 0 18.48 7.15 18.48 21.26v30.79h-12.71v-30.3c0-6.06-3.28-9.83-8.94-9.83s-8.44 3.77-10.43 7.15c.1.7.1 1.39.1 2.19v30.79h-12.71v-30.3c0-6.06-3.28-9.83-8.94-9.83s-8.74 4.27-10.63 7.45v32.68h-12.61v-50.06ZM338.44 179.71h12.61v4.07c3.87-3.87 8.74-6.06 15.59-6.06 15.89 0 25.43 12.42 25.43 27.02s-9.54 27.02-25.43 27.02c-6.85 0-11.72-2.19-15.59-6.06v28.51h-12.61v-74.5Zm12.61 17.18v15.69c3.38 4.77 8.05 7.25 13.81 7.25 8.54 0 14.1-6.36 14.1-15.1s-5.56-15.1-14.1-15.1c-5.86 0-10.63 2.58-13.81 7.25ZM403.6 179.71h12.61v4.97c3.28-3.38 7.55-5.96 13.21-5.96 1.69 0 3.18.3 4.37.7v12.42c-1.59-.4-3.28-.7-5.56-.7-6.16 0-10.13 3.38-12.02 6.56v32.08H403.6v-50.06ZM466.08 231.76c-17.78 0-27.81-12.42-27.81-27.02s9.34-27.02 25.73-27.02c13.91 0 23.04 9.44 23.04 22.55 0 2.78-.4 5.36-.79 7.05h-35.06c1.19 9.34 6.95 13.11 14.8 13.11 5.46 0 10.23-2.38 12.91-5.96l9.04 7.15c-4.67 6.26-12.42 10.13-21.85 10.13Zm-14.5-33.57h23.04c-.2-5.07-3.87-10.13-10.93-10.13-6.46 0-10.73 3.58-12.12 10.13ZM497.48 162.72c0-4.47 3.77-8.24 8.24-8.24s8.15 3.77 8.15 8.24-3.68 8.24-8.15 8.24-8.24-3.77-8.24-8.24Zm1.89 16.99h12.61v50.06h-12.61v-50.06ZM527.08 179.71h12.61v3.97c3.48-3.38 8.15-5.96 14.8-5.96 10.83 0 19.47 7.45 19.47 22.25v29.8h-12.71v-29.3c0-6.65-3.77-10.83-9.93-10.83s-9.73 4.27-11.62 7.45v32.68h-12.61v-50.06ZM591.45 191.03h-9.34v-11.32h9.34v-12.52h12.71v12.52h15.3v11.32h-15.3v20.46c0 5.56 2.98 7.75 7.95 7.75 3.48 0 5.76-.4 7.45-1.09v11.03c-2.48 1.09-5.46 1.59-9.64 1.59-12.52 0-18.48-7.05-18.48-19.27v-20.46ZM654.03 231.76c-17.78 0-27.81-12.42-27.81-27.02s9.34-27.02 25.73-27.02c13.91 0 23.04 9.44 23.04 22.55 0 2.78-.4 5.36-.79 7.05h-35.06c1.19 9.34 6.95 13.11 14.8 13.11 5.46 0 10.23-2.38 12.91-5.96l9.04 7.15c-4.67 6.26-12.42 10.13-21.85 10.13Zm-14.5-33.57h23.04c-.2-5.07-3.87-10.13-10.93-10.13-6.46 0-10.73 3.58-12.12 10.13Z"/><g><path class="n" d="M191.73 92.58h9.64c7.99 0 12.93 4.44 12.93 11.22 0 4.25-1.97 7.61-5.77 9.38 5.52 1.65 8.43 5.83 8.43 11.22 0 7.61-5.52 12.55-14.39 12.55h-10.84V92.57Zm4.06 3.55v15.53h5.58c5.45 0 8.69-2.85 8.69-7.86s-3.23-7.67-8.69-7.67h-5.58Zm0 19.08v18.2h6.85c6.34 0 10.08-3.3 10.08-9.19s-3.74-9-10.08-9h-6.85ZM240.42 92.58h5.52l18.26 44.38h-4.31l-5.71-13.95h-22l-5.71 13.95h-4.37l18.32-44.38Zm12.3 26.82-9.51-23.46-9.57 23.46h19.08ZM273.39 128.15c3.36 4.18 6.91 6.34 11.29 6.34 5.83 0 9.13-3.68 9.13-8.31 0-11.16-21.56-9-21.56-23.46 0-6.28 5.14-11.41 12.43-11.41 5.9 0 10.14 2.79 13.12 7.1l-3.11 2.66c-2.6-3.99-5.9-6.09-9.95-6.09-5.07 0-8.37 3.23-8.37 7.74 0 11.22 21.56 8.81 21.56 23.33 0 7.23-5.52 12.11-13.12 12.11-6.02 0-10.65-2.41-14.52-7.29l3.11-2.73ZM310.55 92.58h22.57v3.55h-18.51v16.49h15.98v3.49h-15.98v17.31h18.51v3.55h-22.57V92.59Z"/></g><g><path class="o" d="M151.12 112.55c.4 1.98 1.61 3.78 3.09 4.95 5.74 4.91 7.89-2.41 7.59-7.08-.02-3.39-2.73-8.12-6.6-7.02-2.85 1.25-4.84 5.84-4.09 9.14Z"/><path d="M151.12 112.55c.28 1.28.86 2.49 1.7 3.49.82 1.01 1.9 1.81 3.03 2.39 1.12.57 2.54.69 3.41-.21.9-.81 1.38-2.04 1.67-3.26.3-1.23.42-2.51.41-3.77-.03-.65-.03-1.28-.13-1.88-.11-.61-.26-1.21-.5-1.79-.44-1.16-1.13-2.24-2.05-3.03-.46-.4-1-.68-1.58-.84-.58-.16-1.2-.12-1.81 0h.03c-1.57.65-2.74 2.13-3.48 3.71-.73 1.6-1.08 3.44-.71 5.19Zm0 0c-.38-1.75-.07-3.59.58-5.25.33-.83.76-1.63 1.31-2.35.56-.72 1.24-1.36 2.09-1.78h.03c.67-.19 1.38-.29 2.08-.15.69.14 1.36.43 1.93.86 1.13.85 1.94 2.03 2.46 3.3.27.63.45 1.3.58 1.98.14.69.11 1.38.13 2.04 0 1.35-.19 2.7-.56 4-.4 1.28-1 2.59-2.12 3.49-.26.25-.62.36-.93.52-.17.05-.35.07-.53.1-.18.04-.35.06-.53.03-.35-.03-.7-.06-1.02-.2l-.48-.17-.44-.25c-1.13-.7-2.15-1.57-2.96-2.62-.79-1.05-1.38-2.26-1.63-3.55Z" style="fill:url(#b)"/></g><g><path class="o" d="M142.3 102.96c-.07-3.98-3.53-8.84-7.9-7.5-3.52 1.31-5.96 6.18-5.11 10.09.44 2.22 1.83 4.21 3.53 5.45 6.47 4.92 9.94-2.16 9.48-8.04Z"/><path d="M142.3 102.96c-.07-2.01-.88-3.96-2.19-5.46-.66-.74-1.47-1.35-2.37-1.71-.9-.36-1.9-.43-2.82-.2-.92.21-1.73.8-2.42 1.45-.69.66-1.25 1.46-1.71 2.3-.89 1.69-1.35 3.64-1.11 5.51.22 1.88 1.15 3.65 2.48 5.01 1.36 1.3 3.09 2.52 4.99 2.51 1.94-.07 3.47-1.75 4.21-3.55.81-1.83 1.04-3.88.94-5.87Zm0 0c.05 1 .07 2.01-.09 3-.13.99-.34 1.98-.72 2.92-.35.94-.84 1.86-1.56 2.6-.7.74-1.67 1.31-2.74 1.41-1.06.06-2.13-.18-3.05-.66-.92-.48-1.81-1.02-2.58-1.74-1.52-1.43-2.6-3.39-2.86-5.51-.25-2.13.3-4.26 1.35-6.05.53-.9 1.2-1.71 2-2.39.8-.66 1.72-1.24 2.77-1.43 1.04-.19 2.12-.04 3.05.4.94.44 1.72 1.13 2.35 1.91 1.25 1.57 2.03 3.54 2.08 5.55Z" style="fill:url(#c)"/></g><g><path class="o" d="M121.66 105.42c1.27-6.12-1.31-15.09-8.39-16.26-7.02-.81-9.96 8.74-7.69 14.36 2.6 7.17 13.97 11.83 16.08 1.9Z"/><path d="M121.66 105.42c.24-1.27.31-2.56.27-3.84-.06-1.29-.31-2.56-.63-3.79-.73-2.45-2.03-4.76-3.98-6.32-1.92-1.53-4.56-2.26-6.72-1.38-2.2.79-3.63 2.99-4.38 5.26-.73 2.31-.9 4.86-.27 7.2.6 2.37 2.06 4.5 4.02 6.07 1.93 1.54 4.44 2.68 6.98 2.27 1.24-.24 2.4-.93 3.19-1.95.78-1.02 1.26-2.25 1.54-3.5Zm0 0c-.26 1.26-.72 2.5-1.49 3.54a5.61 5.61 0 0 1-3.19 2.12c-2.6.59-5.32-.38-7.47-1.87-2.17-1.5-3.98-3.69-4.81-6.3-.41-1.3-.61-2.67-.58-4.03.05-1.36.26-2.7.66-4.01.45-1.29 1.08-2.53 1.95-3.62.86-1.1 2.09-1.95 3.44-2.39l.51-.17.53-.07c.35-.03.7-.13 1.05-.08l1.05.07c.34.08.67.18 1 .27 1.29.43 2.52 1.08 3.49 2.02.97.92 1.77 1.99 2.37 3.16.59 1.17 1.02 2.41 1.32 3.67.58 2.53.68 5.16.17 7.69Z" style="fill:url(#d)"/></g><g><path class="o" d="M97.72 106.67c.6-8.04-4.08-18.44-13.02-19.19-9.23-.28-11.28 12.38-7.55 19.1 4.41 8.89 19.29 13.26 20.57.08Z"/><path d="M97.72 106.68c.09-1.64-.02-3.28-.29-4.9-.28-1.62-.81-3.18-1.43-4.68-1.33-2.96-3.38-5.65-6.1-7.28-1.33-.84-2.86-1.34-4.37-1.52-1.51-.24-3.02.1-4.31.76-1.29.66-2.34 1.74-3.09 3.03-.74 1.3-1.21 2.77-1.48 4.29-.29 1.51-.3 3.08-.17 4.62.13 1.55.5 3.06 1.11 4.47 1.15 2.89 3.28 5.38 5.97 7.1 1.33.87 2.82 1.52 4.37 1.9 1.55.35 3.21.42 4.74-.1a6.704 6.704 0 0 0 3.66-3.03c.81-1.42 1.23-3.04 1.4-4.67Zm0 0c-.15 1.63-.54 3.26-1.34 4.71-.77 1.45-2.06 2.66-3.63 3.26-1.56.62-3.3.71-4.96.46a14.97 14.97 0 0 1-4.76-1.65c-2.96-1.59-5.55-4.11-7.03-7.25-1.55-3.15-1.88-6.74-1.34-10.16.33-1.71.89-3.39 1.8-4.93.94-1.52 2.33-2.83 3.99-3.58 1.65-.76 3.56-.96 5.26-.57 1.71.34 3.34 1.02 4.71 2.03 2.81 1.98 4.65 4.94 5.81 8.01 1.15 3.09 1.69 6.4 1.47 9.68Z" style="fill:url(#e)"/></g><g><path class="o" d="M51.64 90.2c-14.3-.94-16.76 18.3-11.14 28.28 6.82 13.75 28.61 20.41 30.74.13.74-12-6.58-26.88-19.6-28.41Z"/><path d="M51.64 90.2c-1.23-.05-2.46 0-3.66.25-1.2.27-2.35.72-3.4 1.35-2.12 1.25-3.65 3.3-4.7 5.48-1.02 2.21-1.55 4.63-1.72 7.05-.19 2.42-.01 4.86.47 7.22.48 2.37 1.3 4.63 2.52 6.7 1.15 2.12 2.61 4 4.31 5.67 1.7 1.66 3.62 3.09 5.7 4.19 2.07 1.13 4.32 1.91 6.6 2.21 1.14.13 2.29.15 3.41.02 1.12-.15 2.19-.5 3.18-1 1.99-1 3.53-2.78 4.51-4.87 1.98-4.24 2.15-9.26 1.18-13.99-.45-2.37-1.15-4.72-2.17-6.93-1-2.21-2.2-4.36-3.79-6.22-1.58-1.85-3.39-3.56-5.52-4.78-2.14-1.21-4.49-2-6.93-2.35Zm0 0c2.44.32 4.81 1.09 6.96 2.28 2.16 1.19 4.05 2.83 5.7 4.66 1.67 1.82 3.02 3.93 4.15 6.13 1.15 2.2 1.99 4.57 2.58 6.99 1.21 4.8 1.41 10.11-.59 14.92-1.03 2.36-2.78 4.6-5.19 5.86-1.19.62-2.49 1.04-3.8 1.24-1.32.18-2.64.17-3.94.02-5.19-.75-9.77-3.54-13.27-7.18-1.75-1.83-3.2-3.98-4.29-6.23-1.17-2.23-1.92-4.69-2.3-7.16-.73-4.93-.24-10.11 1.98-14.57 1.12-2.2 2.76-4.19 4.91-5.42 1.06-.62 2.23-1.06 3.43-1.32 1.21-.24 2.44-.28 3.67-.22Z" style="fill:url(#f)"/></g><path d="M169.77 177.43a41.64 41.64 0 0 0-3.71-10.83 42.983 42.983 0 0 0-6.12-9.24c-4.78-5.52-10.87-9.48-17.49-11.93-3.31-1.25-6.74-2.16-10.25-2.78-3.54-.59-7.04-.95-10.78-1.17-7.36-.41-14.67-.24-21.6.87-3.46.54-6.8 1.36-9.91 2.44-1.55.56-3.05 1.16-4.44 1.85-1.41.68-2.71 1.44-3.86 2.27-1.16.83-2.19 1.71-3.02 2.64-.83.92-1.44 1.88-1.9 2.79-.45.92-.72 1.83-.83 2.75-.06.23-.02.47-.05.7l-.02.18v.89c-.03.41-.02.79 0 1.16 0 .38.02.75.05 1.09.09 1.41.3 2.59.62 3.53.32.95.7 1.71 1.3 2.53.59.82 1.41 1.68 2.44 2.57 1.06.89 2.3 1.78 3.65 2.65 2.75 1.73 5.87 3.41 9.13 5.01 3.26 1.6 6.67 3.12 10.12 4.61 6.93 2.96 13.99 5.89 21.14 8.72l5.35 2.15 2.68 1.08 2.57 1c3.85 1.46 7.98 3.29 11.86 5.59 3.9 2.32 7.62 5.18 10.94 8.58a48.41 48.41 0 0 1 4.57 5.51c1.39 1.96 2.58 4.06 3.63 6.22 2.02 4.35 3.38 8.95 3.98 13.51.13 1.14.3 2.28.35 3.41l.1 1.7c.02.55.02 1.06.03 1.6.02 2.11-.03 4.2-.13 6.27-.35 8.24-1.88 16.12-2.27 23.03-.2 3.44-.07 6.57.8 9.16.4 1.27 1.09 2.67 1.65 3.39.69.91 1.8 1.82 3.06 2.56 2.54 1.51 5.72 2.4 8.9 2.39 3.2.04 6.43-.83 9.33-2.59 2.9-1.76 5.44-4.41 7.47-7.52 2.07-3.1 3.58-6.67 4.85-10.36a40.37 40.37 0 0 1-2.16 11.68c-1.39 3.81-3.55 7.55-6.78 10.55-3.18 3.02-7.42 5.11-11.92 5.93-4.51.78-9.24.42-13.73-1.3-2.24-.88-4.45-2.08-6.49-3.92-.51-.46-1.01-.96-1.48-1.52l-.35-.42-.29-.37-.57-.75c-.72-1.03-1.4-2.1-1.94-3.23-1.11-2.24-1.87-4.6-2.34-6.88-.49-2.28-.74-4.51-.9-6.66-.27-4.3-.14-8.3-.1-12.15.04-3.85.11-7.55-.04-11.16-.08-1.8-.2-3.58-.37-5.33l-.14-1.3-.17-1.19c-.08-.8-.27-1.56-.41-2.34-.62-3.08-1.72-5.9-3.13-8.49-.75-1.27-1.55-2.49-2.45-3.65-.92-1.15-1.91-2.24-3-3.26-2.2-2.03-4.74-3.81-7.56-5.32-2.82-1.55-5.83-2.8-9.24-3.99l-2.87-1.02-2.73-1.02c-1.82-.67-3.64-1.36-5.46-2.07-7.26-2.83-14.55-5.66-21.82-8.84-3.64-1.61-7.28-3.28-10.95-5.12-3.67-1.85-7.36-3.83-11.08-6.37-1.86-1.29-3.73-2.7-5.59-4.36-1.85-1.69-3.69-3.67-5.28-6.04-1.59-2.36-2.89-5.13-3.62-7.91-.75-2.78-1-5.47-1.04-7.92-.02-.63 0-1.22.01-1.81.01-.59.03-1.18.08-1.74l.06-.85.03-.43.06-.55c.09-.73.14-1.46.31-2.18.53-2.89 1.57-5.68 2.98-8.14 1.4-2.48 3.16-4.61 5.05-6.44 1.9-1.82 3.94-3.32 6.02-4.6 2.08-1.29 4.21-2.33 6.35-3.2 2.14-.9 4.29-1.58 6.44-2.14 4.3-1.11 8.59-1.76 12.81-2.07 4.23-.32 8.41-.25 12.53 0 4.12.27 8.18.74 12.18 1.46 3.94.69 8.08 1.62 12.05 2.88 3.98 1.32 7.87 2.97 11.55 5.03 3.66 2.09 7.12 4.59 10.15 7.51 3 2.94 5.67 6.22 7.67 9.84 4.1 7.16 6.03 15.33 5.46 23.13Z" style="fill:url(#g)"/><path class="n" d="M698.21 177.63c-11.24 0-18.94-8.62-18.94-18.77s7.69-18.77 19.02-18.77 18.94 8.62 18.94 18.77-7.69 18.77-19.02 18.77Zm.08-3.04c9.13 0 15.39-7.1 15.39-15.73s-6.26-15.73-15.39-15.73-15.56 7.1-15.56 15.73 6.43 15.73 15.56 15.73Zm-6.68-26.8h6.43c4.73 0 7.69 2.45 7.69 6.34 0 2.54-1.35 4.48-3.64 5.49l5.92 9.98h-4.57l-5.24-9.22h-2.45v9.22h-4.14v-21.81Zm4.14 3.47v5.66h2.45c2.11 0 3.3-1.01 3.3-2.87s-1.18-2.79-3.3-2.79h-2.45Z"/></svg>
