<svg xmlns="http://www.w3.org/2000/svg" width="24" height="24" fill="rgba(33, 37, 41, 1)" viewBox="0 0 150 149.999998"><path d="M70.781251 81.279826c.382812.1875.707031.367187.96875.53125.257812.15625.390625.398437.390625.71875 0 .136719-.070313.398437-.203125.78125-1.03125 2.523437-2.4375 5.09375-4.21875 7.71875-1.773438 2.617187-3.96875 5.054687-6.59375 7.3125-2.617188 2.261719-5.71875 4.074219-9.3125 5.4375-3.585938 1.351563-7.703125 2.03125-12.359375 2.03125-7.75 0-14.308594-1.613281-19.671875-4.84375-5.367188-3.238281-9.4375-7.648437-12.21875-13.234375-2.78125-5.59375-4.171875-11.847656-4.171875-18.765625 0-3.226563.351563-6.601563 1.0625-10.125.71875-3.53125 1.882813-6.972656 3.5-10.328125 1.613281-3.363281 3.789063-6.382812 6.53125-9.0625 2.75-2.6875 6.160156-4.820312 10.234375-6.40625 4.070312-1.582031 8.890625-2.375 14.453125-2.375 4.65625 0 8.660156.585938 12.015625 1.75 3.363281 1.15625 6.175781 2.625 8.4375 4.40625 2.257812 1.773438 4.066406 3.632812 5.421875 5.578125 1.363281 1.9375 2.335937 3.746094 2.921875 5.421875.582031 1.679688.875 2.9375.875 3.78125 0 .90625-.554688 1.554688-1.65625 1.9375l-11.828125 4.171875c-.648437.261719-1.230469.390625-1.75.390625-.773437 0-1.15625-.320312-1.15625-.96875 0-.132812.03125-.617188.09375-1.453125.0625-.84375.09375-1.425781.09375-1.75 0-2.320313-.421875-4.679687-1.265625-7.078125-.835938-2.394531-2.289062-4.414062-4.359375-6.0625-2.0625-1.644531-4.9375-2.46875-8.625-2.46875-3.492187 0-6.417969.84375-8.78125 2.53125-2.355469 1.679688-4.246094 3.875-5.671875 6.59375-1.417969 2.710938-2.433594 5.585938-3.046875 8.625-.617187 3.03125-.921875 5.90625-.921875 8.625 0 6.273438.742188 11.78125 2.234375 16.53125 1.488281 4.75 3.800781 8.46875 6.9375 11.15625 3.132813 2.679688 7.09375 4.015625 11.875 4.015625s8.703125-.835937 11.765625-2.515625c3.070312-1.6875 5.53125-3.738281 7.375-6.15625 1.84375-2.425781 3.28125-4.804688 4.3125-7.140625.394531-.832031.945312-1.25 1.65625-1.25.320312 0 .738281.132813 1.25.390625ZM147.753454 98.732951c.96875 0 1.453125.484375 1.453125 1.453125v2.90625c0 .96875-.484375 1.453125-1.453125 1.453125h-29.765625c-.96875 0-1.453125-.484375-1.453125-1.453125v-2.90625c0-.96875.484375-1.453125 1.453125-1.453125h.578125c1.613281 0 2.804687-.46875 3.578125-1.40625.78125-.9375 1.171875-2.050781 1.171875-3.34375 0-1.488281-.417969-2.976562-1.25-4.46875l-8.828125-16.484375c-1.9375.199219-4.039062.296875-6.296875.296875h-7.28125v16.1875c0 2.585938.484375 4.765625 1.453125 6.546875s2.648438 2.671875 5.046875 2.671875h.578125c.96875 0 1.453125.484375 1.453125 1.453125v2.90625c0 .96875-.484375 1.453125-1.453125 1.453125H76.972204c-.96875 0-1.453125-.484375-1.453125-1.453125v-2.90625c0-.96875.484375-1.453125 1.453125-1.453125h.6875c2.445313 0 4.140625-.890625 5.078125-2.671875s1.40625-3.960937 1.40625-6.546875v-42.65625c0-2.644531-.5-4.835938-1.5-6.578125-1-1.75-2.859375-2.625-5.578125-2.625-.96875 0-1.453125-.488281-1.453125-1.46875v-2.90625c0-.96875.484375-1.453125 1.453125-1.453125h35.59375c5.226563 0 9.78125.9375 13.65625 2.8125 3.882813 1.875 6.890625 4.367188 9.015625 7.46875 2.132812 3.105469 3.203125 6.5 3.203125 10.1875 0 3.292969-.875 6.492188-2.625 9.59375-1.742187 3.105469-4.710937 5.65625-8.90625 7.65625l10.5625 19.96875c1.289063 2.398438 2.628906 4.53125 4.015625 6.40625 1.394531 1.875 3.289062 2.8125 5.6875 2.8125Zm-42.46875-32.296875c6.46875 0 11.203125-1.257813 14.203125-3.78125 3.007812-2.519531 4.515625-5.972656 4.515625-10.359375 0-4.46875-1.390625-8.023438-4.171875-10.671875-2.78125-2.644531-6.59375-3.96875-11.4375-3.96875h-8.734375v28.78125Zm0 0"></path></svg>