<?xml version="1.0" encoding="UTF-8"?>
<!-- Generator: Adobe Illustrator 25.4.1, SVG Export Plug-In . SVG Version: 6.00 Build 0)  -->
<svg version="1.1" id="Calque_1" xmlns="http://www.w3.org/2000/svg" xmlns:xlink="http://www.w3.org/1999/xlink" x="0px" y="0px" viewBox="0 0 343.7 104.9" style="enable-background:new 0 0 343.7 104.9;" xml:space="preserve">
<style type="text/css">
	.st0{fill:#00E9AB;}
	.st1{fill:#002B39;}
	.st2{fill:#003042;}
	.st3{fill:#00ECB5;enable-background:new    ;}
</style>
<g>
	<g>
		<g transform="translate(127.960705, 198.744361)">
			<g>
				<path class="st0" d="M-9.1-170.4h27.3v5.8H-2.6v10.4h18.7v5.7H-2.6v10.5h21.5v5.8h-28V-170.4z"/>
			</g>
		</g>
	</g>
	<g>
		<g transform="translate(166.728765, 198.744361)">
			<g>
				<path class="st0" d="M11.2-132.2H5v-3.6c-1,1.3-2.4,2.2-4,2.9c-1.6,0.6-3.5,1-5.6,1c-2.1,0-3.9-0.4-5.4-1.2      c-1.5-0.8-2.7-1.9-3.6-3.2c-0.8-1.4-1.3-2.9-1.3-4.6c0-2.7,1-4.8,2.9-6.3c1.9-1.6,4.6-2.4,8.1-2.4H5v-0.9c0-1.8-0.6-3.2-1.7-4.3      c-1.2-1-2.9-1.6-5.2-1.6c-2.8,0-5.7,1-8.6,2.9l-2.6-4.4c1.3-0.8,2.6-1.5,3.8-2c1.2-0.5,2.5-1,3.8-1.2c1.4-0.3,3-0.4,4.8-0.4      c3.8,0,6.6,0.9,8.7,2.7c2,1.8,3.1,4.3,3.1,7.5L11.2-132.2z M-3.3-136.9c2.3,0,4.2-0.5,5.7-1.6c1.5-1.1,2.4-2.4,2.5-3.9v-2.7      h-7.9c-2,0-3.6,0.3-4.5,0.9c-1,0.6-1.5,1.6-1.5,3c0,1.3,0.5,2.4,1.5,3.1C-6.4-137.3-5-136.9-3.3-136.9z"/>
			</g>
		</g>
	</g>
	<g>
		<g transform="translate(201.35998, 198.744361)">
			<g>
				<path class="st0" d="M1.5-153.9c-1.3-0.8-2.7-1.4-4.2-1.9c-1.5-0.5-2.9-0.7-4.2-0.7c-1.2,0-2.3,0.2-3.1,0.7      c-0.8,0.4-1.2,1.2-1.2,2.2c0,0.9,0.4,1.6,1.1,2.1c0.8,0.5,1.7,1,2.9,1.3c1.2,0.3,2.4,0.7,3.7,1.1c1.3,0.4,2.6,0.9,3.7,1.6      c1.2,0.7,2.1,1.5,2.9,2.6c0.7,1.1,1.1,2.5,1.1,4.3c0,2-0.5,3.6-1.6,4.9c-1,1.3-2.4,2.2-4.1,2.8c-1.7,0.6-3.5,0.9-5.5,0.9      c-2.1,0-4.2-0.3-6.3-1c-2.1-0.7-3.9-1.7-5.4-3l2.2-4.5c1.3,1.1,2.8,2,4.6,2.7c1.8,0.6,3.5,1,5.1,1c1.3,0,2.5-0.2,3.4-0.7      c0.9-0.5,1.4-1.3,1.4-2.4c0-1-0.4-1.8-1.1-2.3c-0.7-0.6-1.7-1-2.8-1.4c-1.2-0.4-2.4-0.7-3.7-1.1c-1.3-0.4-2.5-0.9-3.7-1.5      c-1.1-0.6-2.1-1.5-2.8-2.5c-0.7-1.1-1.1-2.5-1.1-4.2c0-2,0.5-3.6,1.5-4.8c1-1.2,2.3-2.2,4-2.7c1.6-0.6,3.4-0.9,5.2-0.9      c1.8,0,3.6,0.3,5.5,0.8c1.8,0.5,3.4,1.2,4.7,2.2L1.5-153.9z"/>
			</g>
		</g>
	</g>
	<g>
		<g transform="translate(229.135877, 198.744361)">
			<g>
				<path class="st0" d="M-5.7-128.2c-0.9,2.3-2.2,4-3.8,5.2c-1.6,1.2-3.5,1.7-5.7,1.7c-2.5,0-4.8-0.8-6.7-2.5l2.7-4.9      c1.3,0.9,2.6,1.4,3.8,1.4c2,0,3.4-1.1,4.4-3.2l1-2.2l-12-28.6h6.5l8.7,22l8.1-22h6.3L-5.7-128.2z"/>
			</g>
		</g>
	</g>
	<g>
		<g transform="translate(260.523196, 198.744361)">
			<g>
				<path class="st1" d="M-24-170.4h6.9l11.8,31.1l11.9-31.1h6.7l-15.5,38.2h-6.7L-24-170.4z"/>
			</g>
		</g>
	</g>
	<g>
		<g transform="translate(301.300576, 198.744361)">
			<g>
				<path class="st1" d="M-19.5-173.3c1.1,0,1.9,0.4,2.6,1.1c0.7,0.7,1,1.6,1,2.7c0,1.1-0.3,1.9-1,2.7c-0.7,0.7-1.6,1.1-2.6,1.1      c-1,0-1.9-0.4-2.6-1.1c-0.7-0.7-1.1-1.6-1.1-2.7c0-1.1,0.4-2,1.1-2.7C-21.4-173-20.5-173.3-19.5-173.3z M-22.6-161.3h6.2v29.1      h-6.2V-161.3z"/>
			</g>
		</g>
	</g>
	<g>
		<g transform="translate(318.084308, 198.744361)">
			<g>
				<path class="st1" d="M-17.6-155.5c2-4,5.4-6,10.1-6v6c-2.9-0.2-5.2,0.5-7,2.1c-1.8,1.5-2.8,3.6-3,6v15.2h-6.3v-29.1h6.3V-155.5z      "/>
			</g>
		</g>
	</g>
	<g>
		<g transform="translate(341.368776, 198.744361)">
			<g>
				<path class="st1" d="M-10.8-138.9l1.6,4.8c-1.1,0.7-2.3,1.2-3.5,1.6c-1.2,0.4-2.4,0.5-3.7,0.5c-1.5,0-2.8-0.3-4-0.9      c-1.2-0.6-2.2-1.5-3-2.8c-0.7-1.3-1.1-2.9-1.1-4.8v-15.1h-4.1v-4.7h4.1v-8h6.2v8h8.6v4.7h-8.6v13.9c0,1.5,0.3,2.5,0.8,3.1      c0.5,0.6,1.3,0.9,2.3,0.9c0.7,0,1.3-0.1,2-0.3C-12.4-138.2-11.6-138.5-10.8-138.9z"/>
			</g>
		</g>
	</g>
</g>
<g>
	<g>
		<g transform="translate(131.906377, 227.516644)">
			<g>
				<path class="st1" d="M-10.2-140.4c0.5,0,1,0.1,1.5,0.3c0.5,0.2,0.9,0.4,1.2,0.8c0.4,0.3,0.6,0.7,0.8,1.2      c0.2,0.5,0.3,0.9,0.3,1.5c0,0.5-0.1,1-0.3,1.5c-0.2,0.4-0.5,0.8-0.8,1.2c-0.3,0.3-0.8,0.6-1.2,0.8c-0.5,0.2-1,0.3-1.5,0.3      c-0.5,0-1.1-0.1-1.5-0.3c-0.5-0.2-0.9-0.5-1.2-0.8c-0.3-0.3-0.6-0.7-0.8-1.2c-0.2-0.5-0.3-0.9-0.3-1.5c0-0.5,0.1-1,0.3-1.5      c0.2-0.5,0.5-0.8,0.8-1.2c0.4-0.3,0.8-0.6,1.2-0.8C-11.2-140.3-10.7-140.4-10.2-140.4z M-10.2-139.3c-0.5,0-0.9,0.1-1.3,0.3      c-0.4,0.2-0.7,0.5-1,0.9c-0.2,0.4-0.4,0.8-0.4,1.3c0,0.5,0.1,0.9,0.4,1.3c0.2,0.4,0.6,0.7,1,1c0.4,0.2,0.8,0.3,1.3,0.3      c0.5,0,0.9-0.1,1.3-0.3c0.4-0.2,0.7-0.6,0.9-1c0.2-0.4,0.4-0.8,0.4-1.3c0-0.5-0.1-0.9-0.4-1.3c-0.2-0.4-0.5-0.7-0.9-0.9      C-9.2-139.2-9.7-139.3-10.2-139.3z"/>
			</g>
		</g>
	</g>
	<g>
		<g transform="translate(142.18476, 227.516644)">
			<g>
				<path class="st1" d="M-11.3-140.4c0.9,0,1.6,0.2,2.1,0.7c0.5,0.4,0.8,1.1,0.8,1.8c0,0.8-0.3,1.5-0.8,1.9      c-0.5,0.5-1.2,0.7-2.1,0.7H-13v2.2h-1.2v-7.3H-11.3z M-11.3-136.3c0.6,0,1-0.1,1.3-0.4c0.3-0.2,0.5-0.6,0.5-1.1      c0-0.5-0.2-0.8-0.5-1.1c-0.3-0.2-0.7-0.4-1.3-0.4H-13v2.9H-11.3z"/>
			</g>
		</g>
	</g>
	<g>
		<g transform="translate(150.91066, 227.516644)">
			<g>
				<path class="st1" d="M-15.7-140.4h5.9v1.1h-2.3v6.2h-1.2v-6.2h-2.3V-140.4z"/>
			</g>
		</g>
	</g>
	<g>
		<g transform="translate(158.571355, 227.516644)">
			<g>
				<path class="st1" d="M-15.5-140.4h1.2v7.3h-1.2V-140.4z"/>
			</g>
		</g>
	</g>
	<g>
		<g transform="translate(163.093087, 227.516644)">
			<g>
				<path class="st1" d="M-15.8-140.4h1.5l2.4,4.9l2.4-4.9h1.5v7.3h-1.1l0-5.5l-2.3,4.7h-0.8l-2.3-4.7v5.5h-1.2V-140.4z"/>
			</g>
		</g>
	</g>
	<g>
		<g transform="translate(174.674644, 227.516644)">
			<g>
				<path class="st1" d="M-16.7-140.4h1.2v7.3h-1.2V-140.4z"/>
			</g>
		</g>
	</g>
	<g>
		<g transform="translate(179.196376, 227.516644)">
			<g>
				<path class="st1" d="M-12.6-138.6c-0.4-0.2-0.8-0.4-1.2-0.5c-0.4-0.1-0.7-0.2-1-0.2c-0.4,0-0.7,0.1-0.9,0.2      c-0.2,0.1-0.3,0.3-0.3,0.6c0,0.2,0.1,0.4,0.2,0.6c0.1,0.1,0.3,0.3,0.6,0.4c0.2,0.1,0.5,0.2,0.8,0.3c0.3,0.1,0.6,0.2,0.8,0.3      c0.3,0.1,0.5,0.2,0.8,0.4c0.2,0.2,0.4,0.4,0.6,0.6c0.1,0.2,0.2,0.5,0.2,0.9c0,0.4-0.1,0.8-0.4,1.1c-0.2,0.3-0.6,0.6-1,0.7      c-0.4,0.2-0.9,0.3-1.4,0.3c-0.6,0-1.1-0.1-1.6-0.3c-0.5-0.2-1-0.5-1.3-0.9l0.5-1.1c0.4,0.3,0.8,0.6,1.2,0.8      c0.4,0.2,0.9,0.3,1.3,0.3c0.4,0,0.8-0.1,1-0.2c0.2-0.2,0.4-0.4,0.4-0.6c0-0.2-0.1-0.4-0.2-0.6c-0.1-0.2-0.3-0.3-0.6-0.4      c-0.2-0.1-0.5-0.2-0.8-0.2c-0.3-0.1-0.6-0.2-0.9-0.3c-0.3-0.1-0.5-0.2-0.8-0.4c-0.2-0.2-0.4-0.4-0.6-0.6      c-0.1-0.2-0.2-0.5-0.2-0.9c0-0.4,0.1-0.8,0.3-1.1c0.2-0.3,0.5-0.5,0.9-0.7c0.4-0.2,0.9-0.2,1.4-0.2c0.5,0,0.9,0.1,1.4,0.2      c0.5,0.1,0.8,0.3,1.2,0.5L-12.6-138.6z"/>
			</g>
		</g>
	</g>
	<g>
		<g transform="translate(187.34434, 227.516644)">
			<g>
				<path class="st1" d="M-17.6-140.4h5.2v1.1h-4v2h3.6v1.1h-3.6v2h4.1v1.1h-5.4V-140.4z"/>
			</g>
		</g>
	</g>
	<g>
		<g transform="translate(200.376665, 227.516644)">
			<g>
				<path class="st1" d="M-18.6-140.4h1.2v7.3h-1.2V-140.4z"/>
			</g>
		</g>
	</g>
	<g>
		<g transform="translate(204.898397, 227.516644)">
			<g>
				<path class="st1" d="M-19.8-140.4h5.9v1.1h-2.3v6.2h-1.2v-6.2h-2.3V-140.4z"/>
			</g>
		</g>
	</g>
	<g>
		<g transform="translate(212.559094, 227.516644)">
			<g>
				<path class="st1" d="M-19.4-134.3c0.2,0,0.3,0.1,0.4,0.2c0.1,0.1,0.2,0.3,0.2,0.5c0,0.1,0,0.2-0.1,0.3c0,0.1-0.1,0.2-0.1,0.3      l-0.6,0.9h-0.6l0.4-0.9c-0.2-0.1-0.3-0.3-0.3-0.5c0-0.2,0.1-0.4,0.2-0.5C-19.7-134.2-19.6-134.3-19.4-134.3z"/>
			</g>
		</g>
	</g>
	<g>
		<g transform="translate(220.582684, 227.516644)">
			<g>
				<path class="st1" d="M-15.7-138.6c-0.4-0.2-0.8-0.4-1.2-0.5c-0.4-0.1-0.7-0.2-1-0.2c-0.4,0-0.7,0.1-0.9,0.2      c-0.2,0.1-0.3,0.3-0.3,0.6c0,0.2,0.1,0.4,0.2,0.6c0.1,0.1,0.3,0.3,0.6,0.4c0.2,0.1,0.5,0.2,0.8,0.3c0.3,0.1,0.6,0.2,0.8,0.3      c0.3,0.1,0.5,0.2,0.8,0.4c0.2,0.2,0.4,0.4,0.6,0.6c0.1,0.2,0.2,0.5,0.2,0.9c0,0.4-0.1,0.8-0.4,1.1c-0.2,0.3-0.6,0.6-1,0.7      c-0.4,0.2-0.9,0.3-1.4,0.3c-0.6,0-1.1-0.1-1.6-0.3c-0.5-0.2-1-0.5-1.3-0.9l0.5-1.1c0.4,0.3,0.8,0.6,1.2,0.8      c0.4,0.2,0.9,0.3,1.3,0.3c0.4,0,0.8-0.1,1-0.2c0.2-0.2,0.4-0.4,0.4-0.6c0-0.2-0.1-0.4-0.2-0.6c-0.1-0.2-0.3-0.3-0.6-0.4      c-0.2-0.1-0.5-0.2-0.8-0.2c-0.3-0.1-0.6-0.2-0.9-0.3c-0.3-0.1-0.5-0.2-0.8-0.4c-0.2-0.2-0.4-0.4-0.6-0.6      c-0.1-0.2-0.2-0.5-0.2-0.9c0-0.4,0.1-0.8,0.3-1.1c0.2-0.3,0.5-0.5,0.9-0.7c0.4-0.2,0.9-0.2,1.4-0.2c0.5,0,0.9,0.1,1.4,0.2      c0.5,0.1,0.8,0.3,1.2,0.5L-15.7-138.6z"/>
			</g>
		</g>
	</g>
	<g>
		<g transform="translate(228.730642, 227.516644)">
			<g>
				<path class="st1" d="M-19.7-136c0,0.6,0.2,1.1,0.5,1.5c0.4,0.3,0.8,0.5,1.4,0.5c0.6,0,1.1-0.2,1.4-0.5c0.3-0.4,0.5-0.8,0.5-1.5      v-4.3h1.2v4.3c0,0.6-0.1,1.2-0.4,1.6c-0.3,0.5-0.6,0.8-1.1,1.1c-0.5,0.3-1,0.4-1.7,0.4c-0.7,0-1.2-0.1-1.7-0.4      c-0.5-0.2-0.9-0.6-1.1-1.1c-0.3-0.5-0.4-1-0.4-1.6v-4.3h1.2V-136z"/>
			</g>
		</g>
	</g>
	<g>
		<g transform="translate(238.487748, 227.516644)">
			<g>
				<path class="st1" d="M-17-138.6c-0.4-0.2-0.8-0.4-1.2-0.5c-0.4-0.1-0.7-0.2-1-0.2c-0.4,0-0.7,0.1-0.9,0.2      c-0.2,0.1-0.3,0.3-0.3,0.6c0,0.2,0.1,0.4,0.2,0.6c0.1,0.1,0.3,0.3,0.6,0.4c0.2,0.1,0.5,0.2,0.8,0.3c0.3,0.1,0.6,0.2,0.8,0.3      c0.3,0.1,0.5,0.2,0.8,0.4c0.2,0.2,0.4,0.4,0.6,0.6c0.1,0.2,0.2,0.5,0.2,0.9c0,0.4-0.1,0.8-0.4,1.1c-0.2,0.3-0.6,0.6-1,0.7      c-0.4,0.2-0.9,0.3-1.4,0.3c-0.6,0-1.1-0.1-1.6-0.3c-0.5-0.2-1-0.5-1.3-0.9l0.5-1.1c0.4,0.3,0.8,0.6,1.2,0.8      c0.4,0.2,0.9,0.3,1.3,0.3c0.4,0,0.8-0.1,1-0.2c0.2-0.2,0.4-0.4,0.4-0.6c0-0.2-0.1-0.4-0.2-0.6c-0.1-0.2-0.3-0.3-0.6-0.4      c-0.2-0.1-0.5-0.2-0.8-0.2c-0.3-0.1-0.6-0.2-0.9-0.3c-0.3-0.1-0.5-0.2-0.8-0.4c-0.2-0.2-0.4-0.4-0.6-0.6      c-0.1-0.2-0.2-0.5-0.2-0.9c0-0.4,0.1-0.8,0.3-1.1c0.2-0.3,0.5-0.5,0.9-0.7c0.4-0.2,0.9-0.2,1.4-0.2c0.5,0,0.9,0.1,1.4,0.2      c0.5,0.1,0.8,0.3,1.2,0.5L-17-138.6z"/>
			</g>
		</g>
	</g>
	<g>
		<g transform="translate(246.635712, 227.516644)">
			<g>
				<path class="st1" d="M-23-140.4h5.9v1.1h-2.3v6.2h-1.2v-6.2H-23V-140.4z"/>
			</g>
		</g>
	</g>
	<g>
		<g transform="translate(254.29641, 227.516644)">
			<g>
				<path class="st1" d="M-17.3-133l-0.7-1.7h-3.7l-0.7,1.7h-1.3l3.2-7.3h1.3l3.2,7.3H-17.3z M-21.2-135.8h2.8l-1.4-3.2L-21.2-135.8      z"/>
			</g>
		</g>
	</g>
	<g>
		<g transform="translate(263.758888, 227.516644)">
			<g>
				<path class="st1" d="M-23.4-140.4h1.2v7.3h-1.2V-140.4z"/>
			</g>
		</g>
	</g>
	<g>
		<g transform="translate(268.28062, 227.516644)">
			<g>
				<path class="st1" d="M-23.8-140.4h1.2l3.9,5.3v-5.3h1.2v7.3h-1.2l-3.9-5.3v5.3h-1.2V-140.4z"/>
			</g>
		</g>
	</g>
	<g>
		<g transform="translate(282.854097, 227.516644)">
			<g>
				<path class="st1" d="M-25.7-140.4h5.9v1.1h-2.3v6.2h-1.2v-6.2h-2.3V-140.4z"/>
			</g>
		</g>
	</g>
	<g>
		<g transform="translate(290.514795, 227.516644)">
			<g>
				<path class="st1" d="M-25.5-140.4h1.2v3.2h3.9v-3.2h1.2v7.3h-1.2v-3h-3.9v3h-1.2V-140.4z"/>
			</g>
		</g>
	</g>
	<g>
		<g transform="translate(300.57787, 227.516644)">
			<g>
				<path class="st1" d="M-26.2-140.4h5.2v1.1h-4v2h3.6v1.1H-25v2h4.1v1.1h-5.4V-140.4z"/>
			</g>
		</g>
	</g>
	<g>
		<g transform="translate(313.610195, 227.516644)">
			<g>
				<path class="st1" d="M-27.2-140.4h4.9v1.1H-26v2.1h3.3v1.1H-26v3h-1.2V-140.4z"/>
			</g>
		</g>
	</g>
	<g>
		<g transform="translate(321.225562, 227.516644)">
			<g>
				<path class="st1" d="M-26.7-136c0,0.6,0.2,1.1,0.5,1.5c0.4,0.3,0.8,0.5,1.4,0.5c0.6,0,1.1-0.2,1.4-0.5c0.3-0.4,0.5-0.8,0.5-1.5      v-4.3h1.2v4.3c0,0.6-0.1,1.2-0.4,1.6c-0.3,0.5-0.6,0.8-1.1,1.1c-0.5,0.3-1,0.4-1.7,0.4c-0.7,0-1.2-0.1-1.7-0.4      c-0.5-0.2-0.9-0.6-1.1-1.1c-0.3-0.5-0.4-1-0.4-1.6v-4.3h1.2V-136z"/>
			</g>
		</g>
	</g>
	<g>
		<g transform="translate(330.982657, 227.516644)">
			<g>
				<path class="st1" d="M-29.4-140.4h5.9v1.1h-2.3v6.2h-1.2v-6.2h-2.3V-140.4z"/>
			</g>
		</g>
	</g>
	<g>
		<g transform="translate(338.643355, 227.516644)">
			<g>
				<path class="st1" d="M-28-136c0,0.6,0.2,1.1,0.5,1.5c0.4,0.3,0.8,0.5,1.4,0.5c0.6,0,1.1-0.2,1.4-0.5c0.3-0.4,0.5-0.8,0.5-1.5      v-4.3h1.2v4.3c0,0.6-0.1,1.2-0.4,1.6c-0.3,0.5-0.6,0.8-1.1,1.1c-0.5,0.3-1,0.4-1.7,0.4c-0.7,0-1.2-0.1-1.7-0.4      c-0.5-0.2-0.9-0.6-1.1-1.1c-0.3-0.5-0.4-1-0.4-1.6v-4.3h1.2V-136z"/>
			</g>
		</g>
	</g>
	<g>
		<g transform="translate(348.400449, 227.516644)">
			<g>
				<path class="st1" d="M-23.8-133h-1.4l-1.3-2.2c-0.1,0-0.1,0-0.2,0c-0.1,0-0.1,0-0.2,0h-1.7v2.2h-1.2v-7.3h3      c0.9,0,1.7,0.2,2.2,0.7c0.5,0.4,0.8,1.1,0.8,1.8c0,0.6-0.1,1.1-0.4,1.5s-0.6,0.7-1.1,0.9L-23.8-133z M-28.6-136.3h1.7      c0.6,0,1-0.1,1.3-0.4c0.3-0.2,0.5-0.6,0.5-1.1c0-0.5-0.2-0.8-0.5-1.1c-0.3-0.2-0.7-0.4-1.3-0.4h-1.7V-136.3z"/>
			</g>
		</g>
	</g>
	<g>
		<g transform="translate(357.692937, 227.516644)">
			<g>
				<path class="st1" d="M-30.6-140.4h5.2v1.1h-4v2h3.6v1.1h-3.6v2h4.1v1.1h-5.4V-140.4z"/>
			</g>
		</g>
	</g>
</g>
<g>
	<path class="st2" d="M96.4,18.2c8.3,8-1.4,31.4-21.5,52.3C67,78.6,58.7,85.1,50.9,89.6c7.7-4,15.8-9.6,23.8-16.4   c23.9-20.6,36.7-45.1,28.5-54.6c-3.4-3.9-9.9-4.7-18-2.8C90,15,93.9,15.8,96.4,18.2z"/>
	<g>
		<path class="st2" d="M23.2,93.6c-8.3-8,1.4-31.4,21.5-52.3c7.9-8.1,16.2-14.6,23.9-19.1c-7.7,4-15.8,9.6-23.8,16.4    C20.9,59.3,8.2,83.7,16.4,93.3c3.4,3.9,9.9,4.7,18,2.8C29.6,96.8,25.7,96.1,23.2,93.6z"/>
	</g>
	<circle class="st3" cx="76.5" cy="69" r="13"/>
	<path class="st3" d="M87.1,26C87.1,26,87.1,26.1,87.1,26c-3,6-10,8.7-16.2,6.2c-6.6-2.6-9.8-10-7.2-16.6c0.1-0.2,0.1-0.4,0.2-0.5   c0.2-0.5,0.5-1.1,0.8-1.6c-0.2,0.3-0.4,0.7-0.6,1.1c2.5-4.9,7.8-6.4,11.4-5c2,0.8,3.5,2.4,4.2,4.3c0.6,1.6,0.5,3.4,0,5.1   c-0.6,2-2.1,4.3-2,6.6c0.1,1.7,1.4,3.2,2.9,3.8C83,30.2,85.6,28.9,87.1,26z"/>
	<path class="st2" d="M87.6,25c0,0.1-0.1,0.2-0.1,0.3c-0.1,0.1-0.1,0.3-0.2,0.4c0,0,0,0.1-0.1,0.1c0,0,0,0.1-0.1,0.1   c-1.5,2.9-4.2,4.2-6.3,3.4c-1.5-0.6-2.8-2.1-2.9-3.8c-0.1-2.3,1.4-4.6,2-6.6c0.5-1.7,0.6-3.5,0-5.1c-0.7-1.9-2.2-3.5-4.2-4.3   c-3.6-1.4-8.9,0.1-11.4,5c0.2-0.4,0.4-0.7,0.6-1.1c0.5-0.8,1-1.5,1.7-2.1c3.5-3.6,8.9-4.9,13.9-3C87,11,90.2,18.5,87.6,25z"/>
	<path class="st2" d="M34.5,68.8c0,0.2,0,0.4,0,0.6c0,0.6-0.1,1.2-0.2,1.8c0.1-0.4,0.1-0.8,0.2-1.2c-0.5,5.5-4.9,8.8-8.7,8.8   c-2.2,0-4.1-0.9-5.5-2.4c-1.2-1.3-1.8-3-1.9-4.7c-0.2-2,0.4-4.7-0.6-6.8c-0.7-1.5-2.4-2.4-4.1-2.4c-2.3,0-4.3,2.2-4.6,5.4   c0,0,0-0.1,0-0.1c0.6-6.5,6-11.5,12.6-11.5C28.8,56.1,34.5,61.8,34.5,68.8z"/>
	<path class="st3" d="M34.4,69.9c0,0.4-0.1,0.8-0.2,1.2c-0.2,0.9-0.4,1.7-0.8,2.5c-1.9,4.6-6.4,7.8-11.7,7.8   c-7,0-12.7-5.7-12.7-12.7c0-0.1,0-0.2,0-0.3c0-0.1,0-0.3,0-0.4c0-0.1,0-0.1,0-0.2c0,0,0-0.1,0-0.1c0.3-3.2,2.3-5.4,4.6-5.4   c1.6,0,3.4,0.9,4.1,2.4c1,2.1,0.4,4.7,0.6,6.8c0.1,1.7,0.7,3.4,1.9,4.7c1.3,1.5,3.3,2.4,5.5,2.4C29.5,78.6,33.9,75.4,34.4,69.9z"/>
</g>
</svg>