<svg id="Layer_1" data-name="Layer 1" xmlns="http://www.w3.org/2000/svg" xmlns:xlink="http://www.w3.org/1999/xlink" viewBox="0 0 458.39 88.69"><rect width="100%" height="100%" fill="#033430"/><defs><style>.cls-1{fill:none;}.cls-2{fill:#fff;}.cls-3{clip-path:url(#clip-path);}</style><clipPath id="clip-path"><rect class="cls-1" width="458.39" height="88.69"></rect></clipPath></defs><g id="Group_9" data-name="Group 9"><path id="Path_23" data-name="Path 23" class="cls-2" d="M0,2.8V62.69H37.28V51.09H14.49V37.8H34.74V26.87H14.49V14.32H37.28V2.8Z"></path><g id="Group_8" data-name="Group 8"><g class="cls-3"><g id="Group_7" data-name="Group 7"><path id="Path_24" data-name="Path 24" class="cls-2" d="M84.84,20.51a23.09,23.09,0,0,1,8,14.3H77.05a8.39,8.39,0,0,0-2.88-4.9,8.6,8.6,0,0,0-5.51-1.75,8,8,0,0,0-6.47,3.11,14,14,0,0,0-2.53,9.05,14,14,0,0,0,2.53,9,8,8,0,0,0,6.46,3.11,8.57,8.57,0,0,0,5.5-1.75A8.35,8.35,0,0,0,77,45.83H92.87a23.06,23.06,0,0,1-8.05,14.3A24.17,24.17,0,0,1,69,65.33a26.15,26.15,0,0,1-12.71-3,21.55,21.55,0,0,1-8.71-8.71,27,27,0,0,1-3.15-13.29A27.26,27.26,0,0,1,47.52,27a21.25,21.25,0,0,1,8.71-8.66,26.53,26.53,0,0,1,12.78-3,24.27,24.27,0,0,1,15.83,5.21"></path><path id="Path_25" data-name="Path 25" class="cls-2" d="M184.72,17.83a15.32,15.32,0,0,1,5.95,6.91V15.92h14.87V64.46a28.06,28.06,0,0,1-2.63,12.29,20.14,20.14,0,0,1-8,8.71,25.85,25.85,0,0,1-13.47,3.23,27.65,27.65,0,0,1-17.63-5.2,21.16,21.16,0,0,1-7.91-14.13h14.78A7.41,7.41,0,0,0,173.83,74a11.5,11.5,0,0,0,6.52,1.66A10.46,10.46,0,0,0,187.83,73a11.23,11.23,0,0,0,2.84-8.52V55.88a15.21,15.21,0,0,1-5.95,6.91,17.72,17.72,0,0,1-9.63,2.54,19.84,19.84,0,0,1-10.8-3,20.62,20.62,0,0,1-7.52-8.71A30,30,0,0,1,154,40.31,30.08,30.08,0,0,1,156.77,27a20.69,20.69,0,0,1,7.52-8.66,19.87,19.87,0,0,1,10.82-3,17.72,17.72,0,0,1,9.63,2.54M172.19,31.58a12.4,12.4,0,0,0-2.94,8.75,12.29,12.29,0,0,0,2.94,8.74A11,11,0,0,0,187.67,49a12.17,12.17,0,0,0,3-8.66,12.12,12.12,0,0,0-3-8.71,11,11,0,0,0-15.48-.05"></path><path id="Path_26" data-name="Path 26" class="cls-2" d="M238,18a18.37,18.37,0,0,1,9.58-2.62v16h-4.29a14.77,14.77,0,0,0-9.23,2.54,10.17,10.17,0,0,0-3.27,8.57V64.73h-15V15.92h15V25.1A21.14,21.14,0,0,1,238,18"></path><path id="Path_27" data-name="Path 27" class="cls-2" d="M282.07,17.83a15.35,15.35,0,0,1,6,6.91V15.92h14.86V64.73H288V55.88a15.3,15.3,0,0,1-6,6.91,17.72,17.72,0,0,1-9.63,2.54,19.79,19.79,0,0,1-10.8-3,20.65,20.65,0,0,1-7.53-8.71,30.28,30.28,0,0,1-2.75-13.29A30.22,30.22,0,0,1,254.11,27a20.64,20.64,0,0,1,7.53-8.66,19.83,19.83,0,0,1,10.81-3,17.69,17.69,0,0,1,9.62,2.54M269.52,31.58a12.35,12.35,0,0,0-2.93,8.75,12.33,12.33,0,0,0,2.93,8.74A11,11,0,0,0,285,49a12.21,12.21,0,0,0,3-8.66,12.12,12.12,0,0,0-3-8.71,11,11,0,0,0-15.49-.05"></path><path id="Path_28" data-name="Path 28" class="cls-2" d="M341.37,17.85a14.72,14.72,0,0,1,5.86,6.9V0h14.95V64.72H347.23V55.89a14.75,14.75,0,0,1-5.86,6.91,17.72,17.72,0,0,1-9.63,2.54,19.71,19.71,0,0,1-10.8-3,20.65,20.65,0,0,1-7.53-8.71,30.28,30.28,0,0,1-2.75-13.29A30.22,30.22,0,0,1,313.41,27a20.73,20.73,0,0,1,7.53-8.64,19.86,19.86,0,0,1,10.81-3,17.69,17.69,0,0,1,9.62,2.54M328.82,31.58a12.35,12.35,0,0,0-2.93,8.75,12.37,12.37,0,0,0,2.93,8.75A11,11,0,0,0,344.31,49a12.21,12.21,0,0,0,3-8.66,12.12,12.12,0,0,0-3-8.71,11,11,0,0,0-15.49-.05"></path><path id="Path_29" data-name="Path 29" class="cls-2" d="M418.42,43H384.57a11.37,11.37,0,0,0,2.8,7.92,9,9,0,0,0,6.47,2.4,8.83,8.83,0,0,0,5.51-1.66,7.73,7.73,0,0,0,2.88-4.28h15.83a20.59,20.59,0,0,1-4.2,9.22A22.26,22.26,0,0,1,405.64,63a28.1,28.1,0,0,1-23.84-.69,21.52,21.52,0,0,1-8.7-8.71A26.87,26.87,0,0,1,370,40.33,27.26,27.26,0,0,1,373.05,27a21.31,21.31,0,0,1,8.71-8.66,28.74,28.74,0,0,1,25.54,0,21,21,0,0,1,8.53,8.35,24.88,24.88,0,0,1,3,12.38,20.87,20.87,0,0,1-.43,4M401.13,29.52a9.48,9.48,0,0,0-6.6-2.41,9.81,9.81,0,0,0-6.82,2.45,10.22,10.22,0,0,0-3.06,7.18h19.06a9,9,0,0,0-2.58-7.22"></path><path id="Path_30" data-name="Path 30" class="cls-2" d="M448.81,18a18.39,18.39,0,0,1,9.58-2.62v16H454.1a14.74,14.74,0,0,0-9.22,2.54,10.17,10.17,0,0,0-3.28,8.57V64.73h-15V15.92h15V25.1A21.26,21.26,0,0,1,448.81,18"></path><path id="Path_31" data-name="Path 31" class="cls-2" d="M122.66,20h0a26.36,26.36,0,0,1,5.17.52A23.32,23.32,0,0,1,138,25a17.16,17.16,0,0,1,5.66,8.08,21,21,0,0,1,.5,11.1,21.23,21.23,0,0,1-4.7,10.11,17.4,17.4,0,0,1-8.35,5.33,21,21,0,0,1-6,.85A25.43,25.43,0,0,1,120,60a23.09,23.09,0,0,1-10.17-4.54,17.42,17.42,0,0,1-5.71-8.11,21.18,21.18,0,0,1-.48-11.14,21.12,21.12,0,0,1,4.69-10.11,17.25,17.25,0,0,1,8.34-5.28,21.63,21.63,0,0,1,6-.82m0-4.64a26.23,26.23,0,0,0-7.26,1A21.9,21.9,0,0,0,104.86,23a25.62,25.62,0,0,0-5.77,12.29,25.61,25.61,0,0,0,.64,13.56,22.13,22.13,0,0,0,7.2,10.2A27.61,27.61,0,0,0,119.1,64.5a31.57,31.57,0,0,0,6,.61,26,26,0,0,0,7.33-1,22.2,22.2,0,0,0,10.5-6.7,25.62,25.62,0,0,0,5.78-12.26A25.66,25.66,0,0,0,148,31.58a21.83,21.83,0,0,0-7.15-10.2A27.69,27.69,0,0,0,128.74,16a31,31,0,0,0-6.08-.62"></path><path id="Path_32" data-name="Path 32" class="cls-2" d="M127.32,20.44h0a2.72,2.72,0,0,1,.49,0c.57.11,1.35.43,2.2,1.88a16.86,16.86,0,0,1,1.77,7.21,47.19,47.19,0,0,1-1,12A46.77,46.77,0,0,1,127.13,53a17.08,17.08,0,0,1-4.42,6,3.85,3.85,0,0,1-2.26,1,2.59,2.59,0,0,1-.47,0c-.57-.12-1.34-.44-2.2-1.92a16.83,16.83,0,0,1-1.8-7.23,46.5,46.5,0,0,1,1-12,46.33,46.33,0,0,1,3.65-11.47A16.53,16.53,0,0,1,125,21.4a4,4,0,0,1,2.29-1m0-4.63a8.4,8.4,0,0,0-5.07,1.88,20.75,20.75,0,0,0-5.76,7.59,50.6,50.6,0,0,0-4,12.63,51.06,51.06,0,0,0-1.08,13.22,21.09,21.09,0,0,0,2.43,9.26,7.85,7.85,0,0,0,5.3,4.12,6.46,6.46,0,0,0,1.38.14,8.25,8.25,0,0,0,5.08-1.93,21.48,21.48,0,0,0,5.76-7.63,51.13,51.13,0,0,0,4-12.63,50.75,50.75,0,0,0,1.07-13.18A21,21,0,0,0,134,20a7.89,7.89,0,0,0-5.3-4.08,7.3,7.3,0,0,0-1.4-.14"></path><path id="Path_33" data-name="Path 33" class="cls-2" d="M115,32.22a52.36,52.36,0,0,1,10.29,1.11,49.91,49.91,0,0,1,11.38,3.54,18.37,18.37,0,0,1,6.42,4.49c1.28,1.55,1.1,2.46,1,2.85-.13.66-.48,1.44-2,2.26a18.69,18.69,0,0,1-7.68,1.7c-.58,0-1.18,0-1.78,0a52.53,52.53,0,0,1-10.08-1.09,50.14,50.14,0,0,1-11.42-3.57A18.68,18.68,0,0,1,104.65,39a3.16,3.16,0,0,1-1-2.85c.13-.66.47-1.44,2-2.26a18.6,18.6,0,0,1,7.7-1.68c.53,0,1.08,0,1.63,0m0-4.64c-.62,0-1.23,0-1.83,0a22.72,22.72,0,0,0-9.65,2.21,7.52,7.52,0,0,0-4,9.89,7.4,7.4,0,0,0,1.53,2.3,23.13,23.13,0,0,0,8.08,5.74,54.37,54.37,0,0,0,12.48,3.92,57.23,57.23,0,0,0,11,1.18c.67,0,1.34,0,2,0a23.07,23.07,0,0,0,9.62-2.24,7.51,7.51,0,0,0,2.39-12.17,22.83,22.83,0,0,0-8-5.73,54.29,54.29,0,0,0-12.44-3.89A57.63,57.63,0,0,0,115,27.58"></path></g></g></g></g></svg>