<svg
    width="117"
    height="31"
    viewBox="0 0 117 31"
    fill="none"
    xmlns="http://www.w3.org/2000/svg"
>
    <path
        d="M0 23.2989V0.647217H14.8182V3.98025H4.15039V10.1933H13.8455V13.4292H4.15039V19.9659H14.8182V23.2989H0Z"
        fill="#141B2D"
    />
    <path
        d="M25.5549 23.6872C23.912 23.6872 22.4637 23.3313 21.21 22.6194C19.9562 21.9074 18.9618 20.9151 18.2269 19.6423C17.5135 18.3695 17.1568 16.9133 17.1568 15.2737C17.1568 13.6342 17.5135 12.178 18.2269 10.9052C18.9618 9.63239 19.9562 8.64003 21.21 7.92812C22.4637 7.21621 23.912 6.86025 25.5549 6.86025C27.6085 6.86025 29.3378 7.39958 30.7429 8.47823C32.148 9.53531 33.0451 11.0023 33.4342 12.8791H29.0568C28.8406 12.1025 28.4083 11.4985 27.7598 11.067C27.1329 10.614 26.3871 10.3874 25.5225 10.3874C24.3768 10.3874 23.4041 10.8189 22.6042 11.6818C21.8044 12.5447 21.4045 13.742 21.4045 15.2737C21.4045 16.8054 21.8044 18.0027 22.6042 18.8656C23.4041 19.7286 24.3768 20.16 25.5225 20.16C26.3871 20.16 27.1329 19.9443 27.7598 19.5128C28.4083 19.0814 28.8406 18.4665 29.0568 17.6683H33.4342C33.0451 19.4805 32.148 20.9367 30.7429 22.0369C29.3378 23.1371 27.6085 23.6872 25.5549 23.6872Z"
        fill="#141B2D"
    />
    <path
        d="M43.8623 23.6872C42.3059 23.6872 40.9009 23.3313 39.6471 22.6194C38.4149 21.9074 37.4314 20.9259 36.6964 19.6746C35.9831 18.4018 35.6264 16.9349 35.6264 15.2737C35.6264 13.6126 35.9939 12.1564 36.7288 10.9052C37.4638 9.63239 38.4474 8.64003 39.6795 7.92812C40.9333 7.21621 42.3384 6.86025 43.8948 6.86025C45.4295 6.86025 46.813 7.21621 48.0452 7.92812C49.2989 8.64003 50.2825 9.63239 50.9958 10.9052C51.7308 12.1564 52.0983 13.6126 52.0983 15.2737C52.0983 16.9349 51.7308 18.4018 50.9958 19.6746C50.2825 20.9259 49.2989 21.9074 48.0452 22.6194C46.7914 23.3313 45.3971 23.6872 43.8623 23.6872ZM43.8623 20.0953C44.9432 20.0953 45.8835 19.6962 46.6833 18.898C47.4831 18.0782 47.883 16.8701 47.883 15.2737C47.883 13.6773 47.4831 12.48 46.6833 11.6818C45.8835 10.862 44.954 10.4522 43.8948 10.4522C42.7923 10.4522 41.8412 10.862 41.0414 11.6818C40.2632 12.48 39.8741 13.6773 39.8741 15.2737C39.8741 16.8701 40.2632 18.0782 41.0414 18.898C41.8412 19.6962 42.7815 20.0953 43.8623 20.0953Z"
        fill="#141B2D"
    />
    <path
        d="M54.8364 30.418V7.24857H58.5328L58.9868 9.54609C59.5056 8.83418 60.1865 8.20857 61.0296 7.66924C61.8942 7.12991 63.0075 6.86025 64.3693 6.86025C65.8825 6.86025 67.2335 7.22699 68.4225 7.96048C69.6114 8.69396 70.5517 9.6971 71.2434 10.9699C71.9352 12.2427 72.281 13.6881 72.281 15.3061C72.281 16.9241 71.9352 18.3695 71.2434 19.6423C70.5517 20.8935 69.6114 21.8859 68.4225 22.6194C67.2335 23.3313 65.8825 23.6872 64.3693 23.6872C63.1588 23.6872 62.0996 23.4607 61.1917 23.0077C60.2838 22.5546 59.5488 21.9182 58.9868 21.0985V30.418H54.8364ZM63.4939 20.0629C64.8125 20.0629 65.9041 19.6207 66.7688 18.7362C67.6334 17.8517 68.0658 16.7083 68.0658 15.3061C68.0658 13.9038 67.6334 12.7497 66.7688 11.8436C65.9041 10.9376 64.8125 10.4845 63.4939 10.4845C62.1536 10.4845 61.0512 10.9376 60.1865 11.8436C59.3435 12.7281 58.9219 13.8715 58.9219 15.2737C58.9219 16.676 59.3435 17.8301 60.1865 18.7362C61.0512 19.6207 62.1536 20.0629 63.4939 20.0629Z"
        fill="#141B2D"
    />
    <path
        d="M75.178 23.2989V7.24857H79.3284V23.2989H75.178Z"
        fill="#141B2D"
    />
    <path
        d="M82.6877 23.2989V7.24857H86.3517L86.6759 9.96677C87.1731 9.01755 87.8865 8.2625 88.816 7.7016C89.7671 7.1407 90.8804 6.86025 92.1557 6.86025C94.1445 6.86025 95.6901 7.48587 96.7925 8.73711C97.895 9.98834 98.4462 11.822 98.4462 14.2382V23.2989H94.2958V14.6265C94.2958 13.2459 94.0148 12.1888 93.4527 11.4553C92.8907 10.7218 92.0152 10.3551 90.8263 10.3551C89.659 10.3551 88.6971 10.765 87.9405 11.5847C87.2055 12.4045 86.8381 13.5479 86.8381 15.0149V23.2989H82.6877Z"
        fill="#141B2D"
    />
    <path
        d="M108.251 18.5097C107.473 18.5097 106.749 18.4234 106.079 18.2508L104.879 19.4481C105.247 19.6423 105.744 19.8041 106.371 19.9335C106.998 20.0629 108.014 20.1924 109.419 20.3218C111.559 20.516 113.115 21.0229 114.088 21.8427C115.061 22.6625 115.547 23.7951 115.547 25.2405C115.547 26.1897 115.288 27.085 114.769 27.9263C114.25 28.7892 113.45 29.4796 112.369 29.9973C111.289 30.5367 109.905 30.8063 108.219 30.8063C105.928 30.8063 104.079 30.3749 102.674 29.5119C101.269 28.6706 100.567 27.3978 100.567 25.6935C100.567 24.2481 101.269 22.9969 102.674 21.9398C102.242 21.7456 101.864 21.5407 101.539 21.325C101.237 21.1092 100.967 20.8827 100.729 20.6454V19.9012L103.55 16.9241C102.296 15.8238 101.669 14.4108 101.669 12.685C101.669 11.6063 101.929 10.6247 102.447 9.74025C102.988 8.85576 103.744 8.15463 104.717 7.63688C105.69 7.11913 106.868 6.86025 108.251 6.86025C109.159 6.86025 110.002 6.98969 110.781 7.24857H116.876V9.77261L114.12 9.96677C114.553 10.7865 114.769 11.6926 114.769 12.685C114.769 13.7636 114.509 14.7452 113.991 15.6297C113.472 16.5142 112.715 17.2153 111.721 17.7331C110.748 18.2508 109.592 18.5097 108.251 18.5097ZM108.251 15.3385C109.094 15.3385 109.786 15.1119 110.327 14.6589C110.889 14.2059 111.17 13.5587 111.17 12.7173C111.17 11.876 110.889 11.2288 110.327 10.7758C109.786 10.3227 109.094 10.0962 108.251 10.0962C107.365 10.0962 106.652 10.3227 106.111 10.7758C105.571 11.2288 105.301 11.876 105.301 12.7173C105.301 13.5587 105.571 14.2059 106.111 14.6589C106.652 15.1119 107.365 15.3385 108.251 15.3385ZM104.36 25.2728C104.36 26.071 104.728 26.6643 105.463 27.0526C106.219 27.4625 107.138 27.6674 108.219 27.6674C109.257 27.6674 110.1 27.4517 110.748 27.0203C111.397 26.6104 111.721 26.0495 111.721 25.3376C111.721 24.7551 111.505 24.2697 111.072 23.8814C110.662 23.4931 109.829 23.2558 108.576 23.1695C107.689 23.1047 106.868 23.0077 106.111 22.8782C105.485 23.2234 105.031 23.6009 104.75 24.0108C104.49 24.4207 104.36 24.8414 104.36 25.2728Z"
        fill="#141B2D"
    />
    <path
        d="M75.3725 4.0773C75.8697 4.53034 76.4966 4.75685 77.2532 4.75685C78.0098 4.75685 78.6258 4.53034 79.1014 4.0773C79.5986 3.62427 79.8472 3.05259 79.8472 2.36225C79.8472 1.67191 79.5986 1.11101 79.1014 0.67955C78.6258 0.226517 78.0098 0 77.2532 0C76.4966 0 75.8697 0.226517 75.3725 0.67955C74.897 1.11101 74.6592 1.67191 74.6592 2.36225C74.6592 3.05259 74.897 3.62427 75.3725 4.0773Z"
        fill="#009F6F"
    />
</svg>
