<svg xmlns="http://www.w3.org/2000/svg" width="100" height="27" viewBox="0 0 100 27" style="background-color:#27306a;">
    <g fill="none" fill-rule="nonzero">
        <path fill="#474794" d="M81.14 6.858c-3.337 1.754-5.789 4.676-5.831 7.434.05 3.274 3.497 6.78 7.79 8.286-.364-2.612-1.952-13.15-1.959-15.72"/>
        <path fill="#8C8ACC" d="M93.095 9.303c1.197.39 1.818 1.275 2.755 2.201 1.042 1.03 2.387 2.194 2.953 3.722C99.578 13.79 100 12 100 9.911c0-5.786-2.767-12.256-11.714-9.067-4.45 1.587-6.354 3.993-7.146 6.014.966-.508 2.137-.532 3.214-.812 3.257-.863 6.765.264 8.741 3.257"/>
        <path fill="#4C57B0" d="M93.21 19.097c-2.443 2.964-5.605 4.635-8.928 3.754-.38-.099-.813-.143-1.183-.273.249.337.526.658.832.96 3.284 3.243 10.19 4.613 13.66 1.231 2.335-2.338 2.431-6.258 1.212-9.543-1.154 2.141-3.413 3.159-5.592 3.87"/>
        <path fill="#353885" d="M93.095 9.303c.91 1.378 1.467 3.07 1.47 4.989-.003 1.835-.515 3.46-1.354 4.805 2.5-.376 4.438-1.73 5.592-3.87-.566-1.529-1.416-2.92-2.46-3.95a8.229 8.229 0 0 0-3.248-1.974M80.675 10.548c.094 1.34.637 2.627 1.482 3.78a8.915 8.915 0 0 1 1.93-2.898c2.474-2.4 5.998-3.11 9.008-2.127-1.976-2.993-5.615-4.506-8.871-3.644-1.078.28-2.118.691-3.084 1.2-.801 2.042-.465 3.689-.465 3.689M93.21 19.097c-.47.07-.957.107-1.465.107-3.577 0-7.504-2.03-9.588-4.876-1.122 2.733-.808 5.877.942 8.25.37.13.744.247 1.125.346 3.322.879 7.04-.714 8.987-3.827"/>
        <path fill="#FFF" d="M2.472 13.055h7.483c-.101-1.113-.388-1.947-.858-2.505-.724-.863-1.662-1.295-2.814-1.295-1.043 0-1.92.344-2.63 1.033-.711.69-1.104 1.613-1.18 2.767zm7.457 3.627l2.347.287c-.37 1.354-1.056 2.405-2.058 3.152-1 .749-2.279 1.121-3.834 1.121-1.96 0-3.513-.595-4.662-1.787C.574 18.262 0 16.591 0 14.439c0-2.226.58-3.955 1.741-5.184C2.902 8.025 4.407 7.41 6.258 7.41c1.791 0 3.255.602 4.39 1.807 1.136 1.204 1.704 2.9 1.704 5.085 0 .133-.006.332-.013.598H2.347c.084 1.454.5 2.567 1.249 3.34.748.773 1.682 1.158 2.8 1.158.832 0 1.543-.216 2.132-.647.59-.433 1.056-1.122 1.401-2.069zm8.298 4.262V7.709h2.044v1.882c.985-1.454 2.405-2.18 4.265-2.18.807 0 1.549.142 2.226.429.677.287 1.183.662 1.52 1.129.336.464.572 1.017.706 1.657.085.414.127 1.142.127 2.18v8.138h-2.27v-8.05c0-.914-.09-1.597-.266-2.051a2.17 2.17 0 0 0-.94-1.084c-.45-.27-.978-.405-1.584-.405-.966 0-1.801.304-2.503.91-.702.607-1.053 1.758-1.053 3.452v7.228h-2.272zm22.429-2.006l.328 1.98c-.64.134-1.21.2-1.716.2-.824 0-1.464-.129-1.918-.385-.454-.258-.774-.596-.958-1.017-.186-.418-.278-1.302-.278-2.648V9.454h-1.666V7.71h1.666V4.433l2.259-1.348v4.624h2.283v1.745h-2.283v7.738c0 .64.04 1.052.119 1.235.08.182.21.328.392.437.18.107.439.161.775.161.252 0 .585-.029.997-.087zm4.413-1.944l2.245-.35c.126.89.478 1.57 1.053 2.044.577.474 1.382.71 2.416.71 1.043 0 1.818-.209 2.322-.628.505-.42.758-.913.758-1.478 0-.506-.224-.905-.67-1.196-.31-.2-1.084-.452-2.321-.76-1.666-.414-2.82-.775-3.463-1.078-.643-.303-1.132-.723-1.463-1.259a3.295 3.295 0 0 1-.499-1.775c0-.59.137-1.137.41-1.64.273-.502.645-.92 1.116-1.252.354-.257.835-.475 1.445-.654a6.939 6.939 0 0 1 1.961-.268c1.051 0 1.976.15 2.77.45.795.298 1.382.703 1.76 1.214.379.51.64 1.194.782 2.05l-2.22.299c-.101-.681-.393-1.213-.877-1.595-.484-.382-1.166-.573-2.05-.573-1.043 0-1.788.17-2.233.51-.446.342-.67.74-.67 1.197 0 .29.093.552.279.785.184.241.475.44.87.598.227.083.896.274 2.006.573 1.606.425 2.727.771 3.363 1.04.634.272 1.132.663 1.495 1.179.36.515.542 1.155.542 1.92 0 .747-.221 1.45-.662 2.11-.442.662-1.079 1.173-1.911 1.534-.833.362-1.776.541-2.827.541-1.741 0-3.067-.356-3.98-1.07-.914-.714-1.495-1.775-1.747-3.178zm18.416-2.667c0 1.694.375 2.964 1.123 3.807s1.69 1.264 2.826 1.264c1.126 0 2.065-.423 2.813-1.27.749-.848 1.123-2.14 1.123-3.876 0-1.637-.376-2.877-1.13-3.72-.752-.844-1.688-1.265-2.806-1.265-1.136 0-2.078.42-2.826 1.259-.748.838-1.123 2.106-1.123 3.8zm-2.334 0c0-2.451.69-4.267 2.069-5.447 1.152-.98 2.557-1.47 4.214-1.47 1.842 0 3.347.596 4.517 1.789 1.169 1.192 1.753 2.839 1.753 4.94 0 1.703-.258 3.044-.775 4.02a5.467 5.467 0 0 1-2.26 2.274c-.987.54-2.066.81-3.235.81-1.876 0-3.392-.593-4.548-1.783-1.156-1.186-1.735-2.898-1.735-5.133z"/>
        <path fill="#282E70" d="M93.142 9.255c-3.04-.991-6.6-.276-9.097 2.15a8.97 8.97 0 0 0-1.949 2.926c2.104 2.873 6.07 4.925 9.683 4.925.512 0 1.006-.038 1.48-.11.849-1.356 1.365-2.999 1.368-4.852-.004-1.938-.566-3.647-1.485-5.039z"/>
        <path fill="#FABD17" d="M82.056 13.055h7.48c-.1-1.113-.386-1.947-.857-2.505-.724-.863-1.662-1.295-2.814-1.295-1.043 0-1.92.344-2.63 1.033-.711.69-1.105 1.613-1.18 2.767zm7.456 3.627l2.345.287c-.369 1.354-1.055 2.405-2.055 3.152-1.002.749-2.28 1.121-3.836 1.121-1.96 0-3.513-.595-4.662-1.787-1.148-1.193-1.721-2.864-1.721-5.016 0-2.226.58-3.955 1.74-5.184 1.16-1.23 2.667-1.845 4.517-1.845 1.792 0 3.255.602 4.39 1.807 1.135 1.204 1.703 2.9 1.703 5.085 0 .133-.004.332-.012.598H81.93c.083 1.454.5 2.567 1.248 3.34.749.773 1.682 1.158 2.8 1.158.834 0 1.544-.216 2.133-.647.588-.433 1.055-1.122 1.4-2.069z"/>
    </g>
</svg>