<svg id="Groupe_28" data-name="Groupe 28" xmlns="http://www.w3.org/2000/svg" xmlns:xlink="http://www.w3.org/1999/xlink" width="186.644" height="232.058" viewBox="0 0 186.644 232.058">
  <defs>
    <clipPath id="clip-path">
      <rect id="Rectangle_6" data-name="Rectangle 6" width="186.644" height="232.058" fill="none"/>
    </clipPath>
    <clipPath id="clip-path-2">
      <rect id="Rectangle_3" data-name="Rectangle 3" width="186.645" height="141.63" fill="none"/>
    </clipPath>
    <clipPath id="clip-path-3">
      <path id="Tracé_71" data-name="Tracé 71" d="M59.937,20.029c-48.414,1.838-49.312,101.518-35.16,115.843h76.116a59.536,59.536,0,0,1,.672-38.829c10.584-28.5,16.791-77.091-37.82-77.091q-1.858,0-3.809.077" transform="translate(-16.837 -19.952)" fill="none"/>
    </clipPath>
    <clipPath id="clip-path-4">
      <path id="Tracé_73" data-name="Tracé 73" d="M87.307,25.191c-6.871-2.914-15.821-4.579-27.269-4.163C11.38,23.08,10.718,123.556,25.092,137.079H101.1a58.477,58.477,0,0,1,.776-38.829c6.246-17.692,11.032-43.294.835-59.946,8.532-6.661,4.369-14.986-3.541-18.733a6.991,6.991,0,0,0-3.058-.735c-3.78,0-6.819,3.374-8.8,6.355" transform="translate(-16.937 -18.836)" fill="none"/>
    </clipPath>
    <clipPath id="clip-path-5">
      <rect id="Rectangle_4" data-name="Rectangle 4" width="104.677" height="193.986" fill="none"/>
    </clipPath>
  </defs>
  <g id="Groupe_27" data-name="Groupe 27" clip-path="url(#clip-path)">
    <g id="Groupe_17" data-name="Groupe 17" transform="translate(0 15.819)">
      <g id="Groupe_16" data-name="Groupe 16" clip-path="url(#clip-path-2)">
        <path id="Tracé_51" data-name="Tracé 51" d="M59.377,107.985c28.932-3.33,33.095-28.932,36.425-36.842,2.29-5.2,2.5-14.778,4.579-20.19,2.081-5.2,5-10.407,9.783-13.529,5.62-3.747,13.113-3.747,19.774-2.081,4.371,1.249,8.95,3.538,10.824,7.91,1.665,3.538,1.249,7.909.416,11.864-2.706,12.489-9.158,23.728-17.276,33.511s-18.109,17.9-28.308,25.394c-4.787,3.33-9.367,6.661-14.778,9.158-12.489,5.62-26.851,5.62-40.172,2.706" transform="translate(43.954 21.25)" fill="#815137"/>
        <path id="Tracé_52" data-name="Tracé 52" d="M147.137,41.5a14.4,14.4,0,0,0-5.2-5.412c.416,2.706-.208,6.036-.624,8.95-2.706,12.489-9.158,23.728-17.276,33.511s-18.109,17.9-28.308,25.394c-4.787,3.33-9.367,6.661-14.778,9.158-12.489,5.62-26.851,5.62-40.172,2.706a17.662,17.662,0,0,1-5.828-2.081c-.208,6.244,6.244,9.158,11.864,10.407,13.321,2.914,27.683,2.914,40.172-2.706a83.254,83.254,0,0,0,14.778-9.158c10.2-7.493,20.19-15.611,28.308-25.394s14.57-21.023,17.276-33.511c.833-3.955,1.457-8.118-.208-11.864" transform="translate(37.788 23.209)" fill="#5e3929"/>
        <path id="Tracé_53" data-name="Tracé 53" d="M66.186,59.489c-1.457,7.91.624,16.235,4.579,23.312.624,1.249,2.5.416,1.665-1.041-4.163-6.869-5.62-14.154-6.244-22.271h0" transform="translate(71.073 48.515)" fill="#5e3929"/>
        <path id="Tracé_54" data-name="Tracé 54" d="M69.745,52.489c-1.457,5-.624,10.824.624,15.819a74.523,74.523,0,0,0,2.29,7.285c.624,1.249,1.041,2.5,1.665,3.747.416,1.041.833,2.081,2.081,2.29A1.259,1.259,0,0,0,77.655,81a.2.2,0,0,1,.208-.208c.416-1.041-.833-2.081-1.665-1.249l-.208.208h1.457a5.934,5.934,0,0,1-1.665-2.914,21.006,21.006,0,0,1-1.457-3.122,40.162,40.162,0,0,1-2.29-7.077c-1.041-4.579-1.041-9.367-1.665-13.946a1.611,1.611,0,0,0-.624-.208" transform="translate(74.591 40.945)" fill="#5e3929"/>
        <path id="Tracé_55" data-name="Tracé 55" d="M74,39.66a37.733,37.733,0,0,0-1.457,10.824A69.26,69.26,0,0,0,74,61.723a61.316,61.316,0,0,0,3.538,10.407c1.457,3.33,3.122,7.077,6.036,9.367,1.665,1.457,3.955-1.249,2.29-2.706-5-4.579-7.91-11.864-9.367-18.317a76.218,76.218,0,0,1-2.081-20.606c.208-.416-.416-.416-.416-.208" transform="translate(78.452 26.923)" fill="#5e3929"/>
        <path id="Tracé_56" data-name="Tracé 56" d="M79.944,36.4c1.041,8.326,6.452,15.819,12.072,21.855,1.249,1.457,3.538-1.249,2.081-2.5a37.029,37.029,0,0,1-8.326-8.742A75.031,75.031,0,0,1,80.36,36.189s-.416,0-.416.208" transform="translate(86.455 23.317)" fill="#5e3929"/>
        <path id="Tracé_57" data-name="Tracé 57" d="M69.892,59.768A49.164,49.164,0,0,1,85.919,47.279c6.036-2.706,12.7-5,19.357-4.371a1.477,1.477,0,1,0,0-2.914c-6.869.833-13.946,2.29-20.19,5.62-5.828,3.538-11.448,8.118-15.195,14.154h0" transform="translate(75.485 27.422)" fill="#5e3929"/>
        <path id="Tracé_58" data-name="Tracé 58" d="M67.76,63.125A45.037,45.037,0,0,1,84,56.256a53.541,53.541,0,0,1,8.326-1.041,27.9,27.9,0,0,1,4.163.208c1.457.208,3.122.624,4.371.208,1.041-.416,1.457-2.081.416-2.706-1.249-.833-2.706-.624-4.371-.624-1.457,0-2.914.208-4.579.208a61.835,61.835,0,0,0-8.95,1.665,44.251,44.251,0,0,0-16.027,8.534c0,.416.208.624.416.416" transform="translate(72.829 40.717)" fill="#5e3929"/>
        <path id="Tracé_59" data-name="Tracé 59" d="M65.325,64.787a30.328,30.328,0,0,1,10.615-.208,52.3,52.3,0,0,1,5.62.833c1.665.416,3.747,1.249,5.2.208a1.085,1.085,0,0,0,.208-1.665c-1.041-1.457-3.538-1.249-5.2-1.457-2.081-.208-4.163-.208-6.244-.208-3.33.208-7.493-.208-10.2,2.081-.208.208-.208.416,0,.416" transform="translate(70.477 51.543)" fill="#5e3929"/>
        <path id="Tracé_60" data-name="Tracé 60" d="M49.444,30.362s5.62-14.778,14.362-10.824,13.113,13.738.624,20.606c-12.489,7.077-14.986-9.783-14.986-9.783" transform="translate(53.471 4.583)" fill="#b7754c"/>
        <path id="Tracé_61" data-name="Tracé 61" d="M28.1,34.947s-7.285-14.154,1.665-17.9S48.7,16.422,45.581,30.576C42.25,44.521,28.1,34.947,28.1,34.947" transform="translate(27.362 1.04)" fill="#b7754c"/>
        <path id="Tracé_62" data-name="Tracé 62" d="M29.194,28.37s-3.747-7.493.833-9.367c4.787-2.081,9.991-.208,8.326,7.077s-9.158,2.29-9.158,2.29" transform="translate(30.011 3.87)" fill="#e8d8ce"/>
        <path id="Tracé_63" data-name="Tracé 63" d="M53.894,31.97s-3.747-7.493.833-9.367c4.787-2.081,9.991-.208,8.326,7.077s-9.158,2.29-9.158,2.29" transform="translate(56.722 7.763)" fill="#e8d8ce"/>
        <path id="Tracé_64" data-name="Tracé 64" d="M107.187,149.286s-26.643,28.932-81.593-12.7C10.608,125.35,10.608,21.9,59.938,20.028c58.7-2.29,52.452,47.873,41.629,77.014a59.71,59.71,0,0,0,5.62,52.244" transform="translate(18.208 5.759)" fill="#b7754c"/>
        <path id="Tracé_65" data-name="Tracé 65" d="M31.326,47.009l-2.081,9.575,12.7,4.579,1.873-12.489-.208-6.244-6.452-1.041Z" transform="translate(31.626 28.941)" fill="#fff"/>
        <path id="Tracé_66" data-name="Tracé 66" d="M40.747,33.488s-17.9-.416-14.362,17.276S40.955,51.8,40.955,51.8s.624,14.986,11.24,9.991c10.824-5,8.742-15.611.416-23.728s-11.864-4.579-11.864-4.579" transform="translate(28.033 19.566)" fill="#e8d8ce"/>
        <path id="Tracé_67" data-name="Tracé 67" d="M33.191,30.462a1.873,1.873,0,1,1-1.873-1.873,1.866,1.866,0,0,1,1.873,1.873" transform="translate(31.842 15.098)" fill="#4d4d4f"/>
        <path id="Tracé_68" data-name="Tracé 68" d="M43.991,31.362a1.873,1.873,0,1,1-1.873-1.873,1.865,1.865,0,0,1,1.873,1.873" transform="translate(43.522 16.072)" fill="#4d4d4f"/>
        <path id="Tracé_69" data-name="Tracé 69" d="M35.612,44.581S23.332,33.133,34.78,32.717c12.9-.624,13.321,4.371,13.321,4.371s.416,8.118-12.489,7.493" transform="translate(32.334 19.504)" fill="#4d4d4f"/>
      </g>
    </g>
    <g id="Groupe_19" data-name="Groupe 19" transform="translate(35.046 41.529)">
      <g id="Groupe_18" data-name="Groupe 18" clip-path="url(#clip-path-3)">
        <path id="Tracé_70" data-name="Tracé 70" d="M74.609,170.134S83.767,63.772,42.971,57.527c-41-6.244-13.113,99.493-13.113,99.493Z" transform="translate(-12.775 20.396)" fill="#e8d8ce"/>
      </g>
    </g>
    <g id="Groupe_24" data-name="Groupe 24" transform="translate(35.253 39.206)">
      <g id="Groupe_23" data-name="Groupe 23" clip-path="url(#clip-path-4)">
        <g id="Groupe_22" data-name="Groupe 22" transform="translate(8.133 -39.206)" opacity="0.12" style="mix-blend-mode: normal;isolation: isolate">
          <g id="Groupe_21" data-name="Groupe 21">
            <g id="Groupe_20" data-name="Groupe 20" clip-path="url(#clip-path-5)">
              <path id="Tracé_72" data-name="Tracé 72" d="M20.844,173.153S72.464,83.859,70.8,34.321s36.009-41.629,47.249-.624,7.91,92.624,2.29,112.4S100.147,192.719,70.8,193.76s-48.29-1.665-48.914-5c-.416-3.33-1.041-15.611-1.041-15.611" transform="translate(-20.845 0)" fill="#929497"/>
            </g>
          </g>
        </g>
      </g>
    </g>
    <g id="Groupe_26" data-name="Groupe 26" transform="translate(0 15.819)">
      <g id="Groupe_25" data-name="Groupe 25" clip-path="url(#clip-path-2)">
        <path id="Tracé_74" data-name="Tracé 74" d="M44.509,67.814c6.661-.208,10.824,0,11.24,6.244.624,5.62-6.661,7.7-7.7,1.457-.624,5.62-7.077,6.244-6.661,0-1.457,5.62-7.7,6.244-8.118,0-.624-5.2,5-7.7,11.24-7.7" transform="translate(35.927 57.466)" fill="#4d4d4f"/>
        <path id="Tracé_75" data-name="Tracé 75" d="M35.326,34.481a24.259,24.259,0,0,1,.743,43.954l3.6,9.41,2.3-.878,7.3,19.487a4.551,4.551,0,0,1-2.625,5.878,4.672,4.672,0,0,1-6.024-2.689L33.194,90.23l2.3-.878-3.572-9.339a24.263,24.263,0,1,1,3.407-45.532M7.821,48.768a19.284,19.284,0,1,0,25.473-9.741A19.284,19.284,0,0,0,7.821,48.768" transform="translate(1.254 19.181)" fill="#518065"/>
        <path id="Tracé_76" data-name="Tracé 76" d="M17.311,76.674c3.116,6.038,5.329,9.4,10.717,6.838,5.145-2.219,3.453-9.546-2.323-7.518,4.708-3.039,2-9.3-3.237-5.87,4.1-3.982,1.613-9.829-3.894-7.1-4.567,2.119-4.111,8.311-1.263,13.65" transform="translate(16.388 51.58)" fill="#4d4d4f"/>
      </g>
    </g>
  </g>
</svg>
