<?xml version="1.0" encoding="UTF-8"?>
<svg xmlns="http://www.w3.org/2000/svg" viewBox="0 0 595.53 114.5">
    <defs>
        <style>.d{fill:#1f6885;}.e{fill:#1d1d1b;}.f,.g{fill:#1a1b1a;}.h{fill:#5abaea;}.g{opacity:.6;}</style>
    </defs>
    <g id="a"/>
    <g id="b">
        <g id="c">
            <g>
                <path class="f"
                      d="M153.17,81.6c-4.43,0-8.38-1.12-11.86-3.37-3.48-2.24-6.21-5.33-8.21-9.25-1.99-3.92-2.99-8.38-2.99-13.38s1-9.55,2.99-13.47c1.99-3.92,4.73-7.01,8.21-9.25,3.48-2.24,7.43-3.37,11.86-3.37,3.04,0,5.93,.6,8.68,1.8,2.75,1.2,4.98,2.75,6.69,4.65V10.44h13V80.65h-12.34l-.19-5.98c-1.65,1.96-3.89,3.61-6.74,4.93s-5.88,1.99-9.11,1.99Zm2.85-10.82c3.86,0,6.99-1.41,9.39-4.22,2.4-2.81,3.61-6.47,3.61-10.96s-1.2-8.24-3.61-11.05c-2.4-2.81-5.54-4.22-9.39-4.22s-6.99,1.41-9.39,4.22c-2.4,2.82-3.61,6.5-3.61,11.05s1.2,8.15,3.61,10.96c2.4,2.82,5.53,4.22,9.39,4.22Z"/>
                <path class="f"
                      d="M213.51,81.6c-4.17,0-7.94-1.14-11.29-3.42-3.35-2.28-6.03-5.38-8.02-9.3-1.99-3.92-2.99-8.38-2.99-13.38s1-9.63,2.99-13.52,4.71-6.94,8.16-9.16c3.45-2.21,7.35-3.32,11.72-3.32,3.54,0,6.64,.71,9.3,2.13,2.66,1.42,4.78,3.27,6.36,5.55v-6.64h12.9v50.1h-13v-6.74c-1.77,2.21-4.06,4.05-6.88,5.5-2.82,1.45-5.9,2.18-9.25,2.18Zm3.51-11.29c3.86,0,6.99-1.36,9.39-4.08,2.4-2.72,3.61-6.29,3.61-10.72s-1.2-8-3.61-10.72c-2.4-2.72-5.54-4.08-9.39-4.08s-6.88,1.36-9.25,4.08c-2.37,2.72-3.56,6.29-3.56,10.72s1.19,8,3.56,10.72c2.37,2.72,5.46,4.08,9.25,4.08Z"/>
                <path class="f"
                      d="M261.15,80.65V42.22h-9.49v-11.67h9.49v-12.81h12.9v12.81h10.53v11.67h-10.53v38.43h-12.9Z"/>
                <path class="f"
                      d="M311.72,81.6c-4.17,0-7.94-1.14-11.29-3.42-3.35-2.28-6.03-5.38-8.02-9.3-1.99-3.92-2.99-8.38-2.99-13.38s1-9.63,2.99-13.52,4.71-6.94,8.16-9.16c3.45-2.21,7.35-3.32,11.72-3.32,3.54,0,6.64,.71,9.3,2.13,2.66,1.42,4.78,3.27,6.36,5.55v-6.64h12.9v50.1h-13v-6.74c-1.77,2.21-4.06,4.05-6.88,5.5-2.82,1.45-5.9,2.18-9.25,2.18Zm3.51-11.29c3.86,0,6.99-1.36,9.39-4.08,2.4-2.72,3.61-6.29,3.61-10.72s-1.2-8-3.61-10.72c-2.41-2.72-5.54-4.08-9.39-4.08s-6.88,1.36-9.25,4.08-3.56,6.29-3.56,10.72,1.19,8,3.56,10.72c2.37,2.72,5.46,4.08,9.25,4.08Z"/>
                <path class="f"
                      d="M382.89,81.6c-3.16,0-6.18-.65-9.06-1.95-2.88-1.3-5.17-2.93-6.88-4.89l-.29,5.69h-12.33V10.44h13v26c1.64-1.96,3.84-3.61,6.59-4.93,2.75-1.33,5.65-1.99,8.68-1.99,4.37,0,8.27,1.11,11.72,3.32,3.45,2.21,6.17,5.28,8.16,9.2,1.99,3.92,2.99,8.41,2.99,13.47s-.98,9.55-2.94,13.47c-1.96,3.92-4.63,7.01-8.02,9.25-3.38,2.25-7.26,3.37-11.62,3.37Zm-2.94-11.1c3.8,0,6.89-1.39,9.3-4.17,2.4-2.78,3.61-6.39,3.61-10.82s-1.19-7.92-3.56-10.67-5.49-4.13-9.35-4.13-7.08,1.38-9.49,4.13c-2.41,2.75-3.61,6.31-3.61,10.67s1.2,8.03,3.61,10.82c2.4,2.78,5.57,4.17,9.49,4.17Z"/>
                <path class="f"
                      d="M434.51,81.6c-4.18,0-7.94-1.14-11.29-3.42-3.35-2.28-6.03-5.38-8.02-9.3-1.99-3.92-2.99-8.38-2.99-13.38s1-9.63,2.99-13.52c1.99-3.89,4.71-6.94,8.16-9.16,3.45-2.21,7.35-3.32,11.72-3.32,3.54,0,6.64,.71,9.3,2.13,2.66,1.42,4.78,3.27,6.36,5.55v-6.64h12.9v50.1h-13v-6.74c-1.77,2.21-4.07,4.05-6.88,5.5-2.82,1.45-5.9,2.18-9.25,2.18Zm3.51-11.29c3.86,0,6.99-1.36,9.39-4.08,2.4-2.72,3.61-6.29,3.61-10.72s-1.2-8-3.61-10.72c-2.4-2.72-5.54-4.08-9.39-4.08s-6.88,1.36-9.25,4.08-3.56,6.29-3.56,10.72,1.19,8,3.56,10.72c2.37,2.72,5.46,4.08,9.25,4.08Z"/>
                <path class="f"
                      d="M494,81.6c-4.62,0-8.73-.76-12.33-2.28-3.61-1.52-6.52-3.67-8.73-6.45l8.16-6.93c1.9,2.09,4.05,3.59,6.45,4.51,2.4,.92,4.84,1.38,7.31,1.38,1.96,0,3.54-.44,4.74-1.33,1.2-.88,1.8-2.12,1.8-3.7,0-1.39-.57-2.5-1.71-3.32-1.14-.76-3.86-1.71-8.16-2.85-6.39-1.64-10.91-3.89-13.57-6.74-2.34-2.53-3.51-5.66-3.51-9.39,0-2.97,.88-5.58,2.66-7.83,1.77-2.25,4.11-4,7.02-5.27,2.91-1.26,6.07-1.9,9.49-1.9,3.92,0,7.62,.7,11.1,2.09,3.48,1.39,6.39,3.29,8.73,5.69l-7.02,7.69c-1.77-1.64-3.81-3.02-6.12-4.13-2.31-1.11-4.45-1.66-6.41-1.66-4.55,0-6.83,1.58-6.83,4.74,.06,1.52,.76,2.72,2.09,3.61,1.26,.89,4.14,1.93,8.63,3.13,6.01,1.58,10.25,3.67,12.71,6.26,2.15,2.21,3.23,5.16,3.23,8.82,0,3.04-.87,5.76-2.61,8.16-1.74,2.41-4.1,4.29-7.07,5.65-2.97,1.36-6.33,2.04-10.06,2.04Z"/>
                <path class="f"
                      d="M547.14,81.6c-5.38,0-10.09-1.11-14.14-3.32-4.05-2.21-7.2-5.25-9.44-9.11-2.25-3.86-3.37-8.29-3.37-13.28s1.09-9.76,3.27-13.71c2.18-3.95,5.19-7.07,9.01-9.35,3.83-2.28,8.24-3.42,13.24-3.42,4.49,0,8.52,1.09,12.1,3.27,3.57,2.18,6.36,5.14,8.35,8.87,1.99,3.73,2.92,8,2.8,12.81l-.09,4.08h-36.06c.7,3.61,2.42,6.45,5.17,8.54,2.75,2.09,6.25,3.13,10.48,3.13,2.28,0,4.35-.35,6.22-1.04,1.87-.7,3.87-1.93,6.03-3.7l6.26,8.73c-2.72,2.4-5.84,4.25-9.35,5.55s-7.01,1.95-10.49,1.95Zm-1.33-40.99c-7.15,0-11.45,3.23-12.91,9.68h23.72v-.38c-.19-2.72-1.31-4.95-3.37-6.69-2.06-1.74-4.54-2.61-7.45-2.61Z"/>
                <path class="f"
                      d="M583.86,81.7c-2.34,0-4.17-.68-5.5-2.04-1.33-1.36-1.99-3.3-1.99-5.84,0-2.34,.7-4.25,2.09-5.74,1.39-1.49,3.19-2.23,5.41-2.23,2.4,0,4.25,.7,5.55,2.09,1.3,1.39,1.95,3.35,1.95,5.88,0,2.28-.68,4.16-2.04,5.65-1.36,1.49-3.18,2.23-5.46,2.23Z"/>
            </g>
            <path class="h"
                  d="M30.57,18.3H100.05c3.59,0,6.51,2.92,6.51,6.51v62.57c0,3.59-2.92,6.51-6.51,6.51H6.51c-3.59,0-6.51-2.92-6.51-6.51V48.87C0,32,13.7,18.3,30.57,18.3Z"/>
            <path class="d"
                  d="M30.57,18.3H94.66v-2.52c0-2.48-2.03-4.51-4.51-4.51H44.74c-1.46-2.52-2.87-4.99-3.92-7.11-.5-1.01-1.98-1.69-3.66-1.69H11.73c-1.67,0-3.21,.64-3.65,1.67C5.59,9.96,3.41,18.76,1.69,29.26,.63,35.75,0,43.02,0,48.87,0,31.99,13.69,18.3,30.57,18.3Z"/>
            <g>
                <g>
                    <rect class="g" x="36.52" y="60.12" width="15.81" height="14.14"
                          transform="translate(28.33 146.1) rotate(-135)"/>
                    <rect class="f" x="24.25" y="43.44" width="31.37" height="14.14"
                          transform="translate(103.88 57.98) rotate(135)"/>
                </g>
                <g>
                    <path class="f"
                          d="M64.99,66.81c-1.78,0-3.38-.45-4.78-1.36s-2.5-2.15-3.31-3.73c-.8-1.58-1.2-3.38-1.2-5.39s.4-3.85,1.2-5.43c.8-1.58,1.9-2.82,3.31-3.73,1.4-.9,2.99-1.36,4.78-1.36,1.22,0,2.39,.24,3.5,.73,1.11,.48,2.01,1.11,2.69,1.87v-10.28h5.23v28.28h-4.97l-.08-2.41c-.66,.79-1.57,1.45-2.71,1.99-1.15,.54-2.37,.8-3.67,.8Zm1.15-4.36c1.55,0,2.81-.57,3.78-1.7,.97-1.13,1.45-2.6,1.45-4.41s-.48-3.32-1.45-4.45c-.97-1.13-2.23-1.7-3.78-1.7s-2.81,.57-3.78,1.7c-.97,1.13-1.45,2.62-1.45,4.45s.48,3.28,1.45,4.41c.97,1.13,2.23,1.7,3.78,1.7Z"/>
                    <path class="f"
                          d="M83.64,66.84c-.94,0-1.68-.27-2.22-.82-.53-.55-.8-1.33-.8-2.35,0-.94,.28-1.71,.84-2.31,.56-.6,1.29-.9,2.18-.9,.97,0,1.71,.28,2.24,.84,.52,.56,.78,1.35,.78,2.37,0,.92-.27,1.67-.82,2.27-.55,.6-1.28,.9-2.2,.9Z"/>
                </g>
            </g>
            <g>
                <path class="e"
                      d="M139.64,104.14c-.13,1.05-.41,1.99-.86,2.83-.45,.84-.99,1.46-1.63,1.87s-1.35,.6-2.12,.58c-1.24-.03-2.16-.49-2.76-1.39l-.35,1.19h-1.58l2.53-14.55h1.71l-1.03,5.44c.82-.91,1.82-1.35,2.99-1.33,.99,.02,1.75,.39,2.3,1.09,.55,.7,.84,1.67,.87,2.9,0,.4-.01,.8-.06,1.18l-.02,.2Zm-1.63-.99c.02-.92-.14-1.63-.46-2.12-.33-.49-.83-.75-1.51-.77-1.07-.03-1.97,.51-2.71,1.61l-.77,4.46c.38,1.04,1.09,1.57,2.13,1.6,.67,.03,1.26-.17,1.76-.6,.5-.42,.88-1.01,1.14-1.77,.26-.76,.4-1.56,.42-2.41Z"/>
                <path class="e"
                      d="M144.57,106.63l3.65-7.67h1.9l-6.08,11.96c-.85,1.66-1.93,2.48-3.26,2.46-.23,0-.58-.06-1.03-.17l.15-1.42,.45,.05c.54,.02,1.01-.1,1.41-.37,.4-.27,.74-.7,1.05-1.3l.62-1.17-1.77-10.03h1.79l1.15,7.67Z"/>
                <path class="e"
                      d="M156.86,109.22v-10.25h2.56l.04,1.69c.34-.56,.78-1.01,1.33-1.37,.55-.36,1.13-.53,1.74-.53,.23,0,.45,.02,.65,.05,.2,.03,.37,.07,.51,.13l-.72,2.91c-.14-.08-.32-.14-.54-.19-.22-.05-.44-.08-.66-.08-.63,0-1.17,.22-1.6,.65-.43,.43-.65,.98-.65,1.64v5.36h-2.66Z"/>
                <path class="e"
                      d="M169.69,109.41c-1.1,0-2.06-.23-2.89-.68-.83-.45-1.47-1.07-1.93-1.86-.46-.79-.69-1.7-.69-2.72s.22-2,.67-2.8,1.06-1.45,1.84-1.91,1.69-.7,2.71-.7c.92,0,1.74,.22,2.47,.67s1.3,1.05,1.71,1.81c.41,.76,.6,1.64,.57,2.62l-.02,.83h-7.37c.14,.74,.5,1.32,1.06,1.75,.56,.43,1.28,.64,2.14,.64,.47,0,.89-.07,1.27-.21,.38-.14,.79-.39,1.23-.76l1.28,1.79c-.56,.49-1.19,.87-1.91,1.13-.72,.27-1.43,.4-2.14,.4Zm-.27-8.38c-1.46,0-2.34,.66-2.64,1.98h4.85v-.08c-.04-.56-.27-1.01-.69-1.37-.42-.36-.93-.53-1.52-.53Z"/>
                <path class="e"
                      d="M179.66,109.41c-.94,0-1.79-.16-2.52-.47-.74-.31-1.33-.75-1.79-1.32l1.67-1.42c.39,.43,.83,.73,1.32,.92s.99,.28,1.49,.28c.4,0,.72-.09,.97-.27,.25-.18,.37-.43,.37-.76,0-.28-.12-.51-.35-.68-.23-.16-.79-.35-1.67-.58-1.31-.34-2.23-.8-2.78-1.38-.48-.52-.72-1.16-.72-1.92,0-.61,.18-1.14,.54-1.6,.36-.46,.84-.82,1.44-1.08,.59-.26,1.24-.39,1.94-.39,.8,0,1.56,.14,2.27,.43,.71,.28,1.31,.67,1.79,1.16l-1.44,1.57c-.36-.34-.78-.62-1.25-.84-.47-.23-.91-.34-1.31-.34-.93,0-1.4,.32-1.4,.97,.01,.31,.16,.56,.43,.74,.26,.18,.85,.39,1.77,.64,1.23,.32,2.1,.75,2.6,1.28,.44,.45,.66,1.05,.66,1.8,0,.62-.18,1.18-.53,1.67-.36,.49-.84,.88-1.45,1.15-.61,.28-1.29,.42-2.06,.42Z"/>
                <path class="e"
                      d="M187.29,96.84c-.52,0-.92-.13-1.21-.39-.29-.26-.44-.61-.44-1.07s.15-.8,.44-1.07c.29-.27,.7-.41,1.21-.41s.92,.13,1.2,.39,.43,.62,.43,1.09c0,.43-.15,.78-.44,1.05-.29,.27-.69,.41-1.19,.41Zm-1.32,12.38v-10.25h2.66v10.25h-2.66Z"/>
                <path class="e" d="M191.63,109.22v-14.36h2.64v14.36h-2.64Z"/>
                <path class="e"
                      d="M198.68,96.84c-.52,0-.92-.13-1.21-.39-.29-.26-.44-.61-.44-1.07s.15-.8,.44-1.07c.29-.27,.7-.41,1.21-.41s.92,.13,1.2,.39,.43,.62,.43,1.09c0,.43-.15,.78-.44,1.05-.29,.27-.69,.41-1.19,.41Zm-1.32,12.38v-10.25h2.66v10.25h-2.66Z"/>
                <path class="e"
                      d="M207.74,109.41c-1.05,0-1.98-.23-2.79-.69-.81-.46-1.46-1.09-1.92-1.89s-.7-1.72-.7-2.76,.23-1.93,.7-2.74c.47-.8,1.11-1.43,1.92-1.89s1.75-.69,2.79-.69,1.94,.23,2.76,.69,1.46,1.09,1.92,1.89c.47,.8,.7,1.71,.7,2.74s-.23,1.95-.7,2.76c-.47,.8-1.11,1.43-1.92,1.89-.81,.46-1.73,.69-2.76,.69Zm0-2.31c.52,0,.98-.13,1.4-.4,.41-.27,.73-.62,.96-1.08,.23-.45,.34-.97,.34-1.55s-.11-1.1-.34-1.55-.55-.81-.96-1.07c-.41-.26-.88-.39-1.4-.39s-1,.13-1.42,.39c-.41,.26-.74,.62-.97,1.07-.23,.45-.35,.97-.35,1.55s.12,1.1,.35,1.55,.56,.81,.97,1.08c.41,.26,.89,.4,1.42,.4Z"/>
            </g>
        </g>
    </g>
</svg>