<?xml version="1.0" encoding="UTF-8"?><svg xmlns="http://www.w3.org/2000/svg" viewBox="0 0 353.39 114.55"><defs><style>.d{fill:#1d1d1b;}.e,.f{fill:#1a1b1a;}.g{fill:#339e69;}.h{fill:#61b987;}.f{opacity:.6;}</style></defs><g id="a"/><g id="b"><g id="c"><g><path class="e" d="M139.61,80.65V42.22h-9.49v-11.67h9.49v-12.81h12.9v12.81h10.53v11.67h-10.53v38.43h-12.9Z"/><path class="e" d="M195.03,81.6c-5.38,0-10.09-1.11-14.14-3.32-4.05-2.21-7.2-5.25-9.44-9.11-2.25-3.86-3.37-8.29-3.37-13.28s1.09-9.76,3.27-13.71c2.18-3.95,5.19-7.07,9.01-9.35,3.83-2.28,8.24-3.42,13.24-3.42,4.49,0,8.52,1.09,12.1,3.27,3.57,2.18,6.36,5.14,8.35,8.87,1.99,3.73,2.93,8,2.8,12.81l-.09,4.08h-36.06c.7,3.61,2.42,6.45,5.17,8.54,2.75,2.09,6.25,3.13,10.49,3.13,2.28,0,4.35-.35,6.21-1.04,1.87-.7,3.87-1.93,6.03-3.7l6.26,8.73c-2.72,2.4-5.84,4.26-9.35,5.55-3.51,1.3-7.01,1.94-10.49,1.94Zm-1.33-40.99c-7.15,0-11.45,3.23-12.9,9.68h23.72v-.38c-.19-2.72-1.31-4.95-3.37-6.69-2.06-1.74-4.54-2.61-7.45-2.61Z"/><path class="e" d="M248.64,81.6c-4.74,0-9-1.14-12.76-3.42-3.76-2.28-6.74-5.38-8.92-9.3-2.18-3.92-3.27-8.38-3.27-13.38s1.09-9.36,3.27-13.28c2.18-3.92,5.15-7.02,8.92-9.3,3.76-2.28,8.02-3.42,12.76-3.42,4.49,0,8.59,.82,12.29,2.47,3.7,1.65,6.59,3.95,8.68,6.93l-7.12,8.54c-1.33-1.83-3.16-3.4-5.5-4.7-2.34-1.3-4.71-1.95-7.12-1.95-2.66,0-5.01,.65-7.07,1.95-2.06,1.3-3.67,3.05-4.84,5.27-1.17,2.22-1.76,4.71-1.76,7.5s.6,5.28,1.8,7.5c1.2,2.21,2.85,3.97,4.93,5.27,2.09,1.3,4.43,1.95,7.02,1.95s4.74-.55,6.83-1.66c2.09-1.11,3.99-2.67,5.69-4.7l7.12,8.54c-2.15,2.78-5.12,5.01-8.92,6.69-3.8,1.68-7.81,2.51-12.05,2.51Z"/><path class="e" d="M278.24,80.65V10.44h12.81v26.66c1.71-2.21,3.97-4.03,6.78-5.46,2.81-1.42,5.77-2.13,8.87-2.13,11.51,0,17.27,6.83,17.27,20.5v30.65h-12.9v-29.7c0-7.15-3.01-10.6-9.01-10.34-3.1,0-5.68,.95-7.73,2.85-2.06,1.9-3.08,4.24-3.08,7.02v30.17h-13Z"/><path class="e" d="M341.72,81.7c-2.34,0-4.18-.68-5.5-2.04-1.33-1.36-1.99-3.31-1.99-5.84,0-2.34,.7-4.25,2.09-5.74,1.39-1.49,3.19-2.23,5.41-2.23,2.4,0,4.25,.7,5.55,2.09,1.29,1.39,1.95,3.35,1.95,5.88,0,2.28-.68,4.16-2.04,5.65-1.36,1.49-3.18,2.23-5.46,2.23Z"/></g><g><path class="d" d="M139.64,104.2c-.13,1.05-.41,1.99-.86,2.83-.45,.84-.99,1.46-1.63,1.87s-1.35,.6-2.12,.58c-1.24-.03-2.16-.49-2.76-1.39l-.35,1.19h-1.58l2.53-14.55h1.71l-1.03,5.44c.82-.91,1.82-1.35,2.99-1.33,.99,.03,1.75,.39,2.3,1.09,.55,.7,.84,1.67,.87,2.9,0,.4-.01,.8-.06,1.17l-.02,.2Zm-1.63-.99c.02-.92-.14-1.63-.46-2.12-.33-.49-.83-.75-1.51-.77-1.07-.03-1.97,.51-2.71,1.61l-.77,4.46c.38,1.04,1.09,1.57,2.13,1.6,.67,.03,1.26-.17,1.76-.6,.5-.42,.88-1.01,1.14-1.77,.26-.76,.4-1.56,.42-2.41Z"/><path class="d" d="M144.57,106.69l3.65-7.67h1.9l-6.08,11.96c-.85,1.66-1.93,2.48-3.26,2.46-.23,0-.58-.06-1.03-.17l.15-1.42,.45,.05c.54,.03,1.01-.1,1.41-.36,.4-.27,.74-.7,1.05-1.3l.62-1.17-1.77-10.03h1.79l1.15,7.67Z"/><path class="d" d="M156.86,109.27v-10.25h2.56l.04,1.69c.34-.56,.78-1.01,1.33-1.37,.55-.36,1.13-.53,1.74-.53,.23,0,.45,.02,.65,.05,.2,.03,.37,.07,.51,.13l-.72,2.91c-.14-.08-.32-.14-.54-.19-.22-.05-.44-.08-.66-.08-.63,0-1.17,.22-1.6,.65-.43,.43-.65,.98-.65,1.64v5.36h-2.66Z"/><path class="d" d="M169.69,109.47c-1.1,0-2.06-.23-2.89-.68-.83-.45-1.47-1.07-1.93-1.86-.46-.79-.69-1.69-.69-2.72s.22-2,.67-2.8c.45-.81,1.06-1.45,1.84-1.91s1.69-.7,2.71-.7c.92,0,1.74,.22,2.47,.67s1.3,1.05,1.71,1.81c.41,.76,.6,1.64,.57,2.62l-.02,.83h-7.37c.14,.74,.5,1.32,1.06,1.75,.56,.43,1.28,.64,2.14,.64,.47,0,.89-.07,1.27-.21,.38-.14,.79-.39,1.23-.76l1.28,1.79c-.56,.49-1.19,.87-1.91,1.14-.72,.26-1.43,.4-2.14,.4Zm-.27-8.38c-1.46,0-2.34,.66-2.64,1.98h4.85v-.08c-.04-.56-.27-1.01-.69-1.37-.42-.36-.93-.53-1.52-.53Z"/><path class="d" d="M179.66,109.47c-.94,0-1.79-.16-2.52-.47-.74-.31-1.33-.75-1.79-1.32l1.67-1.42c.39,.43,.83,.73,1.32,.92s.99,.28,1.49,.28c.4,0,.72-.09,.97-.27,.25-.18,.37-.43,.37-.76,0-.28-.12-.51-.35-.68-.23-.16-.79-.35-1.67-.58-1.31-.34-2.23-.8-2.78-1.38-.48-.52-.72-1.16-.72-1.92,0-.61,.18-1.14,.54-1.6,.36-.46,.84-.82,1.44-1.08,.59-.26,1.24-.39,1.94-.39,.8,0,1.56,.14,2.27,.43,.71,.28,1.31,.67,1.79,1.16l-1.44,1.57c-.36-.34-.78-.62-1.25-.84-.47-.23-.91-.34-1.31-.34-.93,0-1.4,.32-1.4,.97,.01,.31,.16,.56,.43,.74,.26,.18,.85,.39,1.77,.64,1.23,.32,2.1,.75,2.6,1.28,.44,.45,.66,1.05,.66,1.8,0,.62-.18,1.18-.53,1.67-.36,.49-.84,.88-1.45,1.15-.61,.28-1.29,.42-2.06,.42Z"/><path class="d" d="M187.29,96.89c-.52,0-.92-.13-1.21-.39-.29-.26-.44-.61-.44-1.07s.15-.8,.44-1.07c.29-.27,.7-.41,1.21-.41s.92,.13,1.2,.39,.43,.62,.43,1.09c0,.43-.15,.78-.44,1.05-.29,.27-.69,.41-1.19,.41Zm-1.32,12.38v-10.25h2.66v10.25h-2.66Z"/><path class="d" d="M191.63,109.27v-14.36h2.64v14.36h-2.64Z"/><path class="d" d="M198.68,96.89c-.52,0-.92-.13-1.21-.39-.29-.26-.44-.61-.44-1.07s.15-.8,.44-1.07c.29-.27,.7-.41,1.21-.41s.92,.13,1.2,.39,.43,.62,.43,1.09c0,.43-.15,.78-.44,1.05-.29,.27-.69,.41-1.19,.41Zm-1.32,12.38v-10.25h2.66v10.25h-2.66Z"/><path class="d" d="M207.74,109.47c-1.05,0-1.98-.23-2.79-.69-.81-.46-1.46-1.09-1.92-1.89s-.7-1.72-.7-2.76,.23-1.93,.7-2.74c.47-.8,1.11-1.43,1.92-1.89,.81-.46,1.75-.69,2.79-.69s1.94,.23,2.76,.69c.81,.46,1.46,1.09,1.92,1.89,.47,.8,.7,1.71,.7,2.74s-.23,1.95-.7,2.76c-.47,.8-1.11,1.43-1.92,1.89-.81,.46-1.73,.69-2.76,.69Zm0-2.31c.52,0,.98-.13,1.4-.4,.41-.26,.73-.62,.96-1.08,.23-.45,.34-.97,.34-1.55s-.11-1.1-.34-1.55c-.23-.45-.55-.81-.96-1.07s-.88-.39-1.4-.39-1,.13-1.42,.39-.74,.61-.97,1.07c-.23,.45-.35,.97-.35,1.55s.12,1.1,.35,1.55c.23,.45,.56,.81,.97,1.08,.41,.27,.89,.4,1.42,.4Z"/></g><path class="h" d="M30.57,18.27H100.05c3.59,0,6.51,2.92,6.51,6.51v62.57c0,3.59-2.92,6.51-6.51,6.51H6.51c-3.59,0-6.51-2.92-6.51-6.51V48.84C0,31.97,13.7,18.27,30.57,18.27Z"/><path class="g" d="M30.57,18.27H94.66v-2.52c0-2.48-2.03-4.51-4.51-4.51H44.74c-1.46-2.52-2.87-4.99-3.92-7.11-.5-1.01-1.98-1.69-3.66-1.69H11.73c-1.67,0-3.21,.64-3.65,1.67C5.59,9.92,3.41,18.73,1.69,29.23,.63,35.72,0,42.99,0,48.84,0,31.96,13.69,18.27,30.57,18.27Z"/><g><g><rect class="f" x="37.74" y="60.09" width="15.81" height="14.14" transform="translate(30.43 146.91) rotate(-135)"/><rect class="e" x="25.46" y="43.4" width="31.37" height="14.14" transform="translate(105.93 57.07) rotate(135)"/></g><g><path class="e" d="M63.57,68.9v-15.48h-3.82v-4.7h3.82v-5.16h5.2v5.16h4.24v4.7h-4.24v15.48h-5.2Z"/><path class="e" d="M78.48,69.32c-.94,0-1.68-.27-2.22-.82s-.8-1.33-.8-2.35c0-.94,.28-1.71,.84-2.31,.56-.6,1.29-.9,2.18-.9,.97,0,1.71,.28,2.24,.84,.52,.56,.78,1.35,.78,2.37,0,.92-.27,1.68-.82,2.27-.55,.6-1.28,.9-2.2,.9Z"/></g></g></g></g></svg>