<svg width="530" height="118" viewBox="0 0 530 118" fill="none" xmlns="http://www.w3.org/2000/svg">
<path d="M249 86.3992H237.4V41.3992H222.5V31.6992H263.8V41.3992H249V86.3992Z" fill="#323433"/>
<path d="M299.201 86.3992L297.001 80.6992H296.701C294.801 83.0992 292.801 84.7992 290.801 85.6992C288.801 86.5992 286.101 87.0992 282.801 87.0992C278.801 87.0992 275.601 85.9992 273.301 83.6992C271.001 81.3992 269.801 78.0992 269.801 73.8992C269.801 69.4992 271.401 66.1992 274.501 64.0992C277.601 61.9992 282.301 60.7992 288.501 60.5992L295.801 60.3992V58.5992C295.801 54.3992 293.601 52.1992 289.301 52.1992C286.001 52.1992 282.001 53.1992 277.501 55.1992L273.701 47.4992C278.501 44.9992 283.801 43.6992 289.701 43.6992C295.301 43.6992 299.601 44.8992 302.601 47.3992C305.601 49.7992 307.101 53.5992 307.101 58.4992V86.3992H299.201ZM295.801 66.9992L291.401 67.0992C288.101 67.1992 285.601 67.7992 284.001 68.8992C282.401 69.9992 281.601 71.6992 281.601 73.8992C281.601 77.0992 283.401 78.6992 287.101 78.6992C289.701 78.6992 291.901 77.8992 293.401 76.3992C295.001 74.8992 295.801 72.8992 295.801 70.2992V66.9992Z" fill="#323433"/>
<path d="M319.699 33.6996C319.699 29.9996 321.799 28.0996 325.899 28.0996C329.999 28.0996 332.099 29.9996 332.099 33.6996C332.099 35.4996 331.599 36.7996 330.499 37.7996C329.499 38.7996 327.899 39.2996 325.799 39.2996C321.799 39.3996 319.699 37.4996 319.699 33.6996ZM331.599 86.3996H320.199V44.5996H331.599V86.3996Z" fill="#323433"/>
<path d="M356.298 86.3992H344.898V28.1992H356.298V86.3992Z" fill="#323433"/>
<path d="M392.602 87.0988C387.702 87.0988 383.802 85.2988 381.002 81.7988H380.402C380.802 85.2988 381.002 87.2988 381.002 87.8988V104.799H369.602V44.5988H378.902L380.502 49.9988H381.002C383.702 45.8988 387.602 43.7988 392.902 43.7988C397.802 43.7988 401.702 45.6988 404.502 49.4988C407.302 53.2988 408.702 58.5988 408.702 65.3988C408.702 69.8988 408.002 73.6988 406.702 76.9988C405.402 80.2988 403.502 82.7988 401.102 84.4988C398.702 86.2988 395.802 87.0988 392.602 87.0988ZM389.202 52.8988C386.402 52.8988 384.302 53.7988 383.002 55.4988C381.702 57.1988 381.002 60.0988 381.002 64.0988V65.2988C381.002 69.7988 381.702 72.9988 383.002 74.9988C384.302 76.8988 386.402 77.8988 389.302 77.8988C394.402 77.8988 397.002 73.6988 397.002 65.2988C397.002 61.1988 396.402 58.0988 395.102 55.9988C393.902 53.8988 391.902 52.8988 389.202 52.8988Z" fill="#323433"/>
<path d="M418.898 33.6996C418.898 29.9996 420.998 28.0996 425.098 28.0996C429.198 28.0996 431.298 29.9996 431.298 33.6996C431.298 35.4996 430.798 36.7996 429.698 37.7996C428.698 38.7996 427.098 39.2996 424.998 39.2996C420.998 39.3996 418.898 37.4996 418.898 33.6996ZM430.798 86.3996H419.398V44.5996H430.798V86.3996Z" fill="#323433"/>
<path d="M467 87.0988C462.1 87.0988 458.2 85.2988 455.4 81.7988H454.8C455.2 85.2988 455.4 87.2988 455.4 87.8988V104.799H444V44.5988H453.3L454.9 49.9988H455.4C458.1 45.8988 462 43.7988 467.3 43.7988C472.2 43.7988 476.1 45.6988 478.9 49.4988C481.7 53.2988 483.1 58.5988 483.1 65.3988C483.1 69.8988 482.4 73.6988 481.1 76.9988C479.8 80.2988 477.9 82.7988 475.5 84.4988C473.1 86.2988 470.3 87.0988 467 87.0988ZM463.7 52.8988C460.9 52.8988 458.8 53.7988 457.5 55.4988C456.2 57.1988 455.5 60.0988 455.5 64.0988V65.2988C455.5 69.7988 456.2 72.9988 457.5 74.9988C458.8 76.8988 460.9 77.8988 463.8 77.8988C468.9 77.8988 471.5 73.6988 471.5 65.2988C471.5 61.1988 470.9 58.0988 469.6 55.9988C468.3 53.8988 466.4 52.8988 463.7 52.8988Z" fill="#323433"/>
<path d="M512.801 87.0992C506.101 87.0992 500.801 85.1992 497.001 81.4992C493.201 77.7992 491.301 72.4992 491.301 65.6992C491.301 58.6992 493.101 53.2992 496.601 49.3992C500.101 45.5992 504.901 43.6992 511.101 43.6992C517.001 43.6992 521.601 45.3992 524.901 48.7992C528.201 52.1992 529.801 56.7992 529.801 62.7992V68.2992H502.801C502.901 71.4992 503.901 74.0992 505.701 75.8992C507.501 77.6992 510.001 78.5992 513.301 78.5992C515.801 78.5992 518.201 78.2992 520.401 77.7992C522.601 77.2992 525.001 76.3992 527.401 75.2992V84.0992C525.401 85.0992 523.301 85.7992 521.001 86.2992C518.801 86.8992 516.001 87.0992 512.801 87.0992ZM511.201 51.8992C508.801 51.8992 506.901 52.6992 505.501 54.1992C504.101 55.6992 503.301 57.8992 503.101 60.6992H519.101C519.001 57.8992 518.301 55.6992 516.901 54.1992C515.501 52.6992 513.601 51.8992 511.201 51.8992Z" fill="#323433"/>
<path d="M45.3992 89.6H128.099V117.9H45.3992V109.7C43.9992 109.7 42.6992 109.8 41.2992 109.8C35.7992 109.8 30.3992 109.4 25.1992 107.8C10.4992 103.4 0.199219 88.8 0.199219 72.3C0.199219 51 17.4992 33.7 38.7992 33.7C39.0992 33.7 39.2992 33.7 39.5992 33.7C43.6992 14.8 60.4992 0.5 80.6992 0.5C89.6992 0.5 98.1992 3.3 105.399 8.6C106.099 9.1 106.699 9.6 107.399 10.1C108.799 11 109.799 12.6 109.799 14.4C109.799 17.2 107.499 19.5 104.699 19.5C103.499 19.5 102.299 19.1 101.399 18.3V18.4C100.799 17.9 100.099 17.3 99.4992 16.9C93.9992 12.9 87.5992 10.8 80.7992 10.8C63.2992 10.8 48.9992 25.1 48.9992 42.6C48.9992 46.9 49.7992 51.1 51.4992 55C51.6992 55.5 51.7992 56.1 51.7992 56.7C51.7992 59.5 49.4992 61.8 46.6992 61.8C44.6992 61.8 42.9992 60.7 42.1992 59C40.1992 54.2 39.0992 49.2 38.8992 44C23.2992 44.1 10.5992 56.8 10.5992 72.4C10.5992 84.2 18.0992 95 28.3992 98.1C33.4992 99.6 39.4992 99.8 45.5992 99.6V89.6H45.3992ZM142.599 33.7C128.499 33.7 115.599 41.3 108.799 53.7C108.399 54.5 108.099 55.3 108.099 56.3C108.099 59.1 110.399 61.4 113.199 61.4C115.199 61.4 116.899 60.3 117.699 58.7C122.699 49.6 132.199 44 142.599 44C158.299 44 170.999 56.7 170.999 72.4C170.999 84.2 163.499 95 153.199 98.1C148.199 99.6 142.199 99.7 136.699 99.6V89.7H129.899V118H136.699V109.9C137.799 109.9 138.899 109.9 139.999 109.9C145.299 109.9 150.899 109.5 156.199 107.9C170.899 103.5 181.199 88.9 181.199 72.4C181.199 51 163.899 33.7 142.599 33.7Z" fill="url(#paint0_linear_5609_6275)"/>
<defs>
<linearGradient id="paint0_linear_5609_6275" x1="37.4362" y1="125.551" x2="143.956" y2="19.0315" gradientUnits="userSpaceOnUse">
<stop stop-color="#24D3B6"/>
<stop offset="0.3803" stop-color="#1888E9"/>
<stop offset="1" stop-color="#B965F2"/>
</linearGradient>
</defs>
</svg>
