<svg class="hoverable" id="logo" width="2000" height="500" viewBox="0 0 2000 500" xmlns="http://www.w3.org/2000/svg">
    <path d="M0 0h1280v800H0z" style="fill:none" transform="scale(.46875 .75)"/><path d="M224.612 251.294c.423 4.871.917 8.33.988 11.788.847 37.059.847 36.989 34.518 50.471 59.435 23.859 118.588 48.282 178.376 71.153 14.118 5.506 13.553 14.541 14.118 25.976.564 11.436-2.471 18.636-14.965 23.436-66.071 25.764-131.718 52.941-197.647 78.847a39.895 39.895 0 0 1-26.4 0c-66.988-25.694-133.2-53.012-199.482-79.483C4.871 429.812 0 425.506.353 414.635c.847-21.176 0-42.353.706-63.529a21.185 21.185 0 0 1 9.035-15.812c68.965-28.235 138.141-55.835 207.53-83.506a26.953 26.953 0 0 1 6.988-.494ZM.353 195.388c0-27.6 0-53.364.353-79.059a14.126 14.126 0 0 1 7.059-10.588C78.635 76.659 150 48.071 225.882 17.647c0 14.118.847 24.565 0 35.294-1.341 12.847 4.377 18.706 15.883 23.224 61.764 24.282 123.247 49.411 184.87 73.976 28.236 11.506 28.236 11.435 24.565 45.318-5.012-1.624-9.882-2.824-14.118-4.659-66.141-26.471-131.364-53.153-197.082-78.776a41.715 41.715 0 0 0-28.235 0c-65.153 25.27-129.883 51.6-194.824 77.647-4.447 1.835-9.388 3.247-16.588 5.717Z" style="fill-rule:nonzero" transform="matrix(1 0 0 1 73.343 33.57)"/><path d="M.353 310.941c0-28.235 0-54 .423-79.765a15.542 15.542 0 0 1 8.683-11.082c70.588-28.87 141.176-57.176 216.212-87.176 0 13.27.776 24.07 0 34.729-1.2 12.565 3.67 18.777 15.458 23.365 61.836 24.212 123.247 49.412 184.8 74.047 29.295 11.717 29.365 11.647 24.918 46.376l-90.212-35.788c-39.176-15.812-78.282-31.2-117.459-47.788a41.948 41.948 0 0 0-35.294 0c-63.529 26.117-127.058 51.459-191.153 77.012-4.094 2.188-8.541 3.317-16.376 6.07Z" style="fill-rule:nonzero" transform="matrix(1 0 0 1 73.343 33.57)"/>
</svg>
    