<svg xmlns="http://www.w3.org/2000/svg" viewBox="0 10.076331888519071 340.6988032258404 106.49893082432845" data-asc="1.0087890625" width="340.6988032258404" height="106.49893082432845"><defs/><g fill="#000000"><g transform="translate(0, 0)"><path d="M24.29 28.15L14.01 28.15L14.01 21.26Q14.01 18.26 13.68 17.52Q13.35 16.77 12.23 16.77Q10.96 16.77 10.62 17.68Q10.28 18.58 10.28 21.58L10.28 39.94Q10.28 42.82 10.62 43.70Q10.96 44.58 12.16 44.58Q13.31 44.58 13.66 43.70Q14.01 42.82 14.01 39.58L14.01 34.62L24.29 34.62L24.29 36.16Q24.29 42.29 23.43 44.85Q22.56 47.41 19.59 49.34Q16.63 51.27 12.28 51.27Q7.76 51.27 4.83 49.63Q1.90 48.00 0.95 45.10Q0 42.21 0 36.40L0 24.85Q0 20.58 0.29 18.44Q0.59 16.31 2.04 14.33Q3.49 12.35 6.07 11.22Q8.64 10.08 11.99 10.08Q16.53 10.08 19.48 11.84Q22.44 13.60 23.36 16.22Q24.29 18.85 24.29 24.39L24.29 28.15ZM36.50 30.59L27.25 30.59L27.25 28.42Q27.25 24.66 28.11 22.62Q28.98 20.58 31.59 19.02Q34.20 17.46 38.38 17.46Q43.38 17.46 45.92 19.23Q48.46 21.00 48.97 23.57Q49.49 26.15 49.49 34.18L49.49 50.44L39.89 50.44L39.89 47.56Q38.99 49.29 37.56 50.16Q36.13 51.03 34.16 51.03Q31.57 51.03 29.41 49.57Q27.25 48.12 27.25 43.21L27.25 40.55Q27.25 36.91 28.39 35.60Q29.54 34.28 34.08 32.52Q38.94 30.62 39.28 29.96Q39.62 29.30 39.62 27.27Q39.62 24.73 39.25 23.96Q38.87 23.19 37.99 23.19Q36.99 23.19 36.74 23.84Q36.50 24.49 36.50 27.20L36.50 30.59M39.62 35.03Q37.26 36.77 36.88 37.94Q36.50 39.11 36.50 41.31Q36.50 43.82 36.83 44.56Q37.16 45.29 38.13 45.29Q39.06 45.29 39.34 44.71Q39.62 44.14 39.62 41.70L39.62 35.03ZM62.74 18.04L62.35 22.29Q64.50 17.72 68.58 17.46L68.58 28.86Q65.87 28.86 64.60 29.59Q63.33 30.32 63.04 31.63Q62.74 32.93 62.74 37.65L62.74 50.44L52.88 50.44L52.88 18.04L62.74 18.04ZM80.64 10.91L80.64 20.26Q81.86 18.85 83.36 18.15Q84.86 17.46 86.62 17.46Q88.65 17.46 90.14 18.09Q91.63 18.73 92.41 19.87Q93.19 21.02 93.35 22.12Q93.51 23.22 93.51 26.81L93.51 41.41Q93.51 44.97 93.03 46.72Q92.55 48.46 90.80 49.74Q89.04 51.03 86.62 51.03Q84.89 51.03 83.39 50.27Q81.88 49.51 80.64 48.00L80.00 50.44L70.78 50.44L70.78 10.91L80.64 10.91M83.64 27.25Q83.64 24.73 83.33 23.96Q83.01 23.19 82.08 23.19Q81.18 23.19 80.91 23.86Q80.64 24.54 80.64 27.25L80.64 41.21Q80.64 43.82 80.94 44.56Q81.25 45.29 82.15 45.29Q83.08 45.29 83.36 44.53Q83.64 43.77 83.64 40.89L83.64 27.25ZM119.07 29.42L119.07 37.35Q119.07 41.72 118.63 43.76Q118.19 45.80 116.75 47.57Q115.31 49.34 113.05 50.18Q110.79 51.03 107.86 51.03Q104.59 51.03 102.32 50.31Q100.05 49.58 98.79 48.13Q97.53 46.68 97.00 44.62Q96.46 42.55 96.46 38.43L96.46 30.13Q96.46 25.61 97.44 23.07Q98.41 20.53 100.95 18.99Q103.49 17.46 107.45 17.46Q110.77 17.46 113.15 18.44Q115.53 19.43 116.82 21.02Q118.12 22.61 118.59 24.29Q119.07 25.98 119.07 29.42M109.20 26.98Q109.20 24.49 108.94 23.84Q108.67 23.19 107.79 23.19Q106.91 23.19 106.62 23.84Q106.32 24.49 106.32 26.98L106.32 41.60Q106.32 43.90 106.62 44.59Q106.91 45.29 107.76 45.29Q108.64 45.29 108.92 44.65Q109.20 44.02 109.20 41.92L109.20 26.98ZM132.35 18.04L132.18 21.02Q133.25 19.24 134.80 18.35Q136.35 17.46 138.38 17.46Q140.92 17.46 142.53 18.65Q144.14 19.85 144.60 21.67Q145.07 23.49 145.07 27.73L145.07 50.44L135.21 50.44L135.21 28.00Q135.21 24.66 134.99 23.93Q134.77 23.19 133.76 23.19Q132.71 23.19 132.45 24.04Q132.18 24.88 132.18 28.54L132.18 50.44L122.31 50.44L122.31 18.04L132.35 18.04ZM157.57 10.91L174.98 10.91L174.98 18.82L167.85 18.82L167.85 26.32L174.19 26.32L174.19 33.84L167.85 33.84L167.85 50.44L157.57 50.44L157.57 10.91ZM199.49 29.42L199.49 37.35Q199.49 41.72 199.05 43.76Q198.61 45.80 197.17 47.57Q195.73 49.34 193.47 50.18Q191.21 51.03 188.28 51.03Q185.01 51.03 182.74 50.31Q180.47 49.58 179.21 48.13Q177.95 46.68 177.42 44.62Q176.88 42.55 176.88 38.43L176.88 30.13Q176.88 25.61 177.86 23.07Q178.83 20.53 181.37 18.99Q183.91 17.46 187.87 17.46Q191.19 17.46 193.57 18.44Q195.95 19.43 197.24 21.02Q198.54 22.61 199.01 24.29Q199.49 25.98 199.49 29.42M189.62 26.98Q189.62 24.49 189.36 23.84Q189.09 23.19 188.21 23.19Q187.33 23.19 187.04 23.84Q186.74 24.49 186.74 26.98L186.74 41.60Q186.74 43.90 187.04 44.59Q187.33 45.29 188.18 45.29Q189.06 45.29 189.34 44.65Q189.62 44.02 189.62 41.92L189.62 26.98ZM225.05 29.42L225.05 37.35Q225.05 41.72 224.61 43.76Q224.17 45.80 222.73 47.57Q221.29 49.34 219.03 50.18Q216.77 51.03 213.84 51.03Q210.57 51.03 208.30 50.31Q206.03 49.58 204.77 48.13Q203.52 46.68 202.98 44.62Q202.44 42.55 202.44 38.43L202.44 30.13Q202.44 25.61 203.42 23.07Q204.39 20.53 206.93 18.99Q209.47 17.46 213.43 17.46Q216.75 17.46 219.13 18.44Q221.51 19.43 222.80 21.02Q224.10 22.61 224.57 24.29Q225.05 25.98 225.05 29.42M215.19 26.98Q215.19 24.49 214.92 23.84Q214.65 23.19 213.77 23.19Q212.89 23.19 212.60 23.84Q212.30 24.49 212.30 26.98L212.30 41.60Q212.30 43.90 212.60 44.59Q212.89 45.29 213.75 45.29Q214.62 45.29 214.90 44.65Q215.19 44.02 215.19 41.92L215.19 26.98ZM238.70 13.72L238.70 18.82L241.36 18.82L241.36 23.95L238.70 23.95L238.70 41.28Q238.70 44.48 239.03 44.85Q239.36 45.21 241.77 45.21L241.77 50.44L237.79 50.44Q234.42 50.44 232.98 50.16Q231.54 49.88 230.44 48.86Q229.35 47.85 229.08 46.55Q228.81 45.24 228.81 40.41L228.81 23.95L226.68 23.95L226.68 18.82L228.81 18.82L228.81 13.72L238.70 13.72ZM253.56 18.04L253.39 20.90Q254.71 19.17 256.30 18.31Q257.89 17.46 259.77 17.46Q262.06 17.46 263.73 18.69Q265.41 19.92 265.82 21.53Q266.24 23.14 266.24 27.00L266.24 40.65Q266.24 45.07 265.71 46.94Q265.19 48.80 263.56 49.91Q261.94 51.03 259.64 51.03Q257.81 51.03 256.25 50.17Q254.69 49.32 253.39 47.63L253.39 55.05L243.53 55.05L243.53 18.04L253.56 18.04M256.37 27.47Q256.37 24.46 256.15 23.83Q255.93 23.19 254.93 23.19Q253.96 23.19 253.67 23.93Q253.39 24.66 253.39 27.47L253.39 40.89Q253.39 43.82 253.69 44.56Q253.98 45.29 254.96 45.29Q255.91 45.29 256.14 44.62Q256.37 43.95 256.37 41.36L256.37 27.47ZM279.35 18.04L278.96 22.29Q281.10 17.72 285.18 17.46L285.18 28.86Q282.47 28.86 281.20 29.59Q279.93 30.32 279.64 31.63Q279.35 32.93 279.35 37.65L279.35 50.44L269.48 50.44L269.48 18.04L279.35 18.04ZM297.53 10.91L297.53 16.06L287.38 16.06L287.38 10.91L297.53 10.91M297.53 18.04L297.53 50.44L287.38 50.44L287.38 18.04L297.53 18.04ZM311.11 18.04L310.94 21.02Q312.01 19.24 313.56 18.35Q315.11 17.46 317.14 17.46Q319.68 17.46 321.29 18.65Q322.90 19.85 323.36 21.67Q323.83 23.49 323.83 27.73L323.83 50.44L313.96 50.44L313.96 28.00Q313.96 24.66 313.75 23.93Q313.53 23.19 312.52 23.19Q311.47 23.19 311.21 24.04Q310.94 24.88 310.94 28.54L310.94 50.44L301.07 50.44L301.07 18.04L311.11 18.04ZM337.62 13.72L337.62 18.82L340.28 18.82L340.28 23.95L337.62 23.95L337.62 41.28Q337.62 44.48 337.95 44.85Q338.28 45.21 340.70 45.21L340.70 50.44L336.72 50.44Q333.35 50.44 331.91 50.16Q330.47 49.88 329.37 48.86Q328.27 47.85 328.00 46.55Q327.73 45.24 327.73 40.41L327.73 23.95L325.61 23.95L325.61 18.82L327.73 18.82L327.73 13.72L337.62 13.72Z"/></g><g transform="translate(0, 60.546875)"><path d="M31.71 10.91L31.71 50.44L22.73 50.44L22.73 23.75L19.14 50.44L12.77 50.44L8.98 24.37L8.98 50.44L0 50.44L0 10.91L13.31 10.91Q13.89 14.48 14.55 19.31L15.97 29.37L18.31 10.91L31.71 10.91ZM57.86 29.42L57.86 37.35Q57.86 41.72 57.42 43.76Q56.98 45.80 55.54 47.57Q54.10 49.34 51.84 50.18Q49.58 51.03 46.66 51.03Q43.38 51.03 41.11 50.31Q38.84 49.58 37.59 48.13Q36.33 46.68 35.79 44.62Q35.25 42.55 35.25 38.43L35.25 30.13Q35.25 25.61 36.23 23.07Q37.21 20.53 39.75 18.99Q42.29 17.46 46.24 17.46Q49.56 17.46 51.94 18.44Q54.32 19.43 55.62 21.02Q56.91 22.61 57.39 24.29Q57.86 25.98 57.86 29.42M48.00 26.98Q48.00 24.49 47.73 23.84Q47.46 23.19 46.58 23.19Q45.70 23.19 45.41 23.84Q45.12 24.49 45.12 26.98L45.12 41.60Q45.12 43.90 45.41 44.59Q45.70 45.29 46.56 45.29Q47.44 45.29 47.72 44.65Q48.00 44.02 48.00 41.92L48.00 26.98ZM83.54 10.91L83.54 50.44L73.68 50.44L73.68 48.10Q72.27 49.56 70.70 50.29Q69.14 51.03 67.43 51.03Q65.14 51.03 63.45 49.82Q61.77 48.61 61.29 47.02Q60.82 45.43 60.82 41.85L60.82 26.68Q60.82 22.95 61.29 21.39Q61.77 19.82 63.48 18.64Q65.19 17.46 67.55 17.46Q69.38 17.46 70.91 18.12Q72.44 18.77 73.68 20.09L73.68 10.91L83.54 10.91M73.68 26.20Q73.68 24.41 73.38 23.80Q73.07 23.19 72.17 23.19Q71.29 23.19 70.98 23.74Q70.68 24.29 70.68 26.20L70.68 42.07Q70.68 44.04 70.97 44.67Q71.26 45.29 72.09 45.29Q73.05 45.29 73.36 44.59Q73.68 43.90 73.68 41.19L73.68 26.20ZM109.42 34.81L96.66 34.81L96.66 41.82Q96.66 44.02 96.97 44.65Q97.29 45.29 98.19 45.29Q99.32 45.29 99.69 44.45Q100.07 43.60 100.07 41.19L100.07 36.91L109.42 36.91L109.42 39.31Q109.42 42.31 109.05 43.92Q108.67 45.53 107.28 47.36Q105.88 49.19 103.75 50.11Q101.61 51.03 98.39 51.03Q95.26 51.03 92.87 50.12Q90.48 49.22 89.15 47.64Q87.82 46.07 87.30 44.18Q86.79 42.29 86.79 38.67L86.79 29.22Q86.79 24.98 87.94 22.52Q89.09 20.07 91.70 18.76Q94.31 17.46 97.71 17.46Q101.86 17.46 104.55 19.03Q107.25 20.61 108.34 23.21Q109.42 25.81 109.42 30.52L109.42 34.81M99.54 29.54L99.54 27.17Q99.54 24.66 99.27 23.93Q99.00 23.19 98.17 23.19Q97.14 23.19 96.90 23.82Q96.66 24.44 96.66 27.17L96.66 29.54L99.54 29.54ZM122.80 10.91L122.80 50.44L112.65 50.44L112.65 10.91L122.80 10.91ZM136.50 10.91L136.50 16.06L126.34 16.06L126.34 10.91L136.50 10.91M136.50 18.04L136.50 50.44L126.34 50.44L126.34 18.04L136.50 18.04ZM150.07 18.04L149.90 21.02Q150.98 19.24 152.53 18.35Q154.08 17.46 156.10 17.46Q158.64 17.46 160.25 18.65Q161.87 19.85 162.33 21.67Q162.79 23.49 162.79 27.73L162.79 50.44L152.93 50.44L152.93 28.00Q152.93 24.66 152.71 23.93Q152.49 23.19 151.49 23.19Q150.44 23.19 150.17 24.04Q149.90 24.88 149.90 28.54L149.90 50.44L140.04 50.44L140.04 18.04L150.07 18.04ZM188.60 18.04L188.60 42.99Q188.60 48.05 188.37 49.52Q188.13 51.00 186.72 52.65Q185.30 54.30 182.78 55.16Q180.25 56.03 176.42 56.03Q171.70 56.03 168.85 54.43Q165.99 52.83 165.89 48.14L175.46 48.14Q175.46 50.29 177.03 50.29Q178.15 50.29 178.52 49.63Q178.88 48.97 178.88 46.88L178.88 44.43Q177.61 45.58 176.21 46.17Q174.80 46.75 173.27 46.75Q170.61 46.75 168.88 45.68Q167.16 44.60 166.53 42.86Q165.89 41.11 165.89 37.89L165.89 26.12Q165.89 21.51 167.55 19.48Q169.21 17.46 172.61 17.46Q174.46 17.46 175.99 18.21Q177.51 18.97 178.71 20.48L179.42 18.04L188.60 18.04M178.71 26.64Q178.71 24.41 178.45 23.80Q178.20 23.19 177.32 23.19Q176.46 23.19 176.11 23.89Q175.76 24.58 175.76 26.64L175.76 37.52Q175.76 39.70 176.03 40.34Q176.29 40.99 177.15 40.99Q178.13 40.99 178.42 40.21Q178.71 39.43 178.71 36.67L178.71 26.64ZM221.92 10.91L221.92 18.82L215.82 18.82L215.82 50.44L205.54 50.44L205.54 18.82L199.46 18.82L199.46 10.91L221.92 10.91ZM246.29 29.42L246.29 37.35Q246.29 41.72 245.85 43.76Q245.41 45.80 243.97 47.57Q242.53 49.34 240.27 50.18Q238.01 51.03 235.08 51.03Q231.81 51.03 229.54 50.31Q227.27 49.58 226.01 48.13Q224.76 46.68 224.22 44.62Q223.68 42.55 223.68 38.43L223.68 30.13Q223.68 25.61 224.66 23.07Q225.63 20.53 228.17 18.99Q230.71 17.46 234.67 17.46Q237.99 17.46 240.37 18.44Q242.75 19.43 244.04 21.02Q245.34 22.61 245.81 24.29Q246.29 25.98 246.29 29.42M236.43 26.98Q236.43 24.49 236.16 23.84Q235.89 23.19 235.01 23.19Q234.13 23.19 233.84 23.84Q233.54 24.49 233.54 26.98L233.54 41.60Q233.54 43.90 233.84 44.59Q234.13 45.29 234.99 45.29Q235.86 45.29 236.15 44.65Q236.43 44.02 236.43 41.92L236.43 26.98ZM271.85 29.42L271.85 37.35Q271.85 41.72 271.41 43.76Q270.97 45.80 269.53 47.57Q268.09 49.34 265.83 50.18Q263.57 51.03 260.64 51.03Q257.37 51.03 255.10 50.31Q252.83 49.58 251.57 48.13Q250.32 46.68 249.78 44.62Q249.24 42.55 249.24 38.43L249.24 30.13Q249.24 25.61 250.22 23.07Q251.20 20.53 253.74 18.99Q256.27 17.46 260.23 17.46Q263.55 17.46 265.93 18.44Q268.31 19.43 269.60 21.02Q270.90 22.61 271.37 24.29Q271.85 25.98 271.85 29.42M261.99 26.98Q261.99 24.49 261.72 23.84Q261.45 23.19 260.57 23.19Q259.69 23.19 259.40 23.84Q259.11 24.49 259.11 26.98L259.11 41.60Q259.11 43.90 259.40 44.59Q259.69 45.29 260.55 45.29Q261.43 45.29 261.71 44.65Q261.99 44.02 261.99 41.92L261.99 26.98ZM285.25 10.91L285.25 50.44L275.10 50.44L275.10 10.91L285.25 10.91Z"/></g></g></svg>