<svg xmlns="http://www.w3.org/2000/svg" viewBox="0 10.07949574011017 270.7963916419869 222.8262755849377" data-asc="1.0087890625" width="270.7963916419869" height="222.8262755849377"><defs/><g fill="#000000"><g transform="translate(0, 0)"><path d="M0 10.91L7.69 10.91Q15.14 10.91 17.76 11.60Q20.39 12.28 21.75 13.84Q23.12 15.41 23.46 17.32Q23.80 19.24 23.80 24.85L23.80 38.70Q23.80 44.02 23.30 45.81Q22.80 47.61 21.56 48.62Q20.31 49.63 18.48 50.04Q16.65 50.44 12.96 50.44L0 50.44L0 10.91M10.28 17.68L10.28 43.68Q12.50 43.68 13.01 42.79Q13.53 41.89 13.53 37.94L13.53 22.58Q13.53 19.90 13.35 19.14Q13.18 18.38 12.57 18.03Q11.96 17.68 10.28 17.68ZM36.16 30.59L26.90 30.59L26.90 28.42Q26.90 24.66 27.77 22.62Q28.64 20.58 31.25 19.02Q33.86 17.46 38.04 17.46Q43.04 17.46 45.58 19.23Q48.12 21.00 48.63 23.57Q49.15 26.15 49.15 34.18L49.15 50.44L39.55 50.44L39.55 47.56Q38.65 49.29 37.22 50.16Q35.79 51.03 33.81 51.03Q31.23 51.03 29.06 49.57Q26.90 48.12 26.90 43.21L26.90 40.55Q26.90 36.91 28.05 35.60Q29.20 34.28 33.74 32.52Q38.60 30.62 38.94 29.96Q39.28 29.30 39.28 27.27Q39.28 24.73 38.90 23.96Q38.53 23.19 37.65 23.19Q36.65 23.19 36.40 23.84Q36.16 24.49 36.16 27.20L36.16 30.59M39.28 35.03Q36.91 36.77 36.54 37.94Q36.16 39.11 36.16 41.31Q36.16 43.82 36.49 44.56Q36.82 45.29 37.79 45.29Q38.72 45.29 39.00 44.71Q39.28 44.14 39.28 41.70L39.28 35.03ZM62.94 13.72L62.94 18.82L65.60 18.82L65.60 23.95L62.94 23.95L62.94 41.28Q62.94 44.48 63.27 44.85Q63.60 45.21 66.02 45.21L66.02 50.44L62.04 50.44Q58.67 50.44 57.23 50.16Q55.79 49.88 54.69 48.86Q53.59 47.85 53.32 46.55Q53.05 45.24 53.05 40.41L53.05 23.95L50.93 23.95L50.93 18.82L53.05 18.82L53.05 13.72L62.94 13.72ZM76.59 30.59L67.33 30.59L67.33 28.42Q67.33 24.66 68.20 22.62Q69.07 20.58 71.68 19.02Q74.29 17.46 78.47 17.46Q83.47 17.46 86.01 19.23Q88.55 21.00 89.06 23.57Q89.58 26.15 89.58 34.18L89.58 50.44L79.98 50.44L79.98 47.56Q79.08 49.29 77.65 50.16Q76.22 51.03 74.24 51.03Q71.66 51.03 69.49 49.57Q67.33 48.12 67.33 43.21L67.33 40.55Q67.33 36.91 68.48 35.60Q69.63 34.28 74.17 32.52Q79.03 30.62 79.37 29.96Q79.71 29.30 79.71 27.27Q79.71 24.73 79.33 23.96Q78.96 23.19 78.08 23.19Q77.08 23.19 76.83 23.84Q76.59 24.49 76.59 27.20L76.59 30.59M79.71 35.03Q77.34 36.77 76.97 37.94Q76.59 39.11 76.59 41.31Q76.59 43.82 76.92 44.56Q77.25 45.29 78.22 45.29Q79.15 45.29 79.43 44.71Q79.71 44.14 79.71 41.70L79.71 35.03ZM126.07 28.15L115.80 28.15L115.80 21.26Q115.80 18.26 115.47 17.52Q115.14 16.77 114.01 16.77Q112.74 16.77 112.40 17.68Q112.06 18.58 112.06 21.58L112.06 39.94Q112.06 42.82 112.40 43.70Q112.74 44.58 113.94 44.58Q115.09 44.58 115.44 43.70Q115.80 42.82 115.80 39.58L115.80 34.62L126.07 34.62L126.07 36.16Q126.07 42.29 125.21 44.85Q124.34 47.41 121.37 49.34Q118.41 51.27 114.06 51.27Q109.55 51.27 106.62 49.63Q103.69 48.00 102.73 45.10Q101.78 42.21 101.78 36.40L101.78 24.85Q101.78 20.58 102.08 18.44Q102.37 16.31 103.82 14.33Q105.27 12.35 107.85 11.22Q110.42 10.08 113.77 10.08Q118.31 10.08 121.26 11.84Q124.22 13.60 125.15 16.22Q126.07 18.85 126.07 24.39L126.07 28.15ZM151.81 34.81L139.04 34.81L139.04 41.82Q139.04 44.02 139.36 44.65Q139.67 45.29 140.58 45.29Q141.70 45.29 142.08 44.45Q142.46 43.60 142.46 41.19L142.46 36.91L151.81 36.91L151.81 39.31Q151.81 42.31 151.43 43.92Q151.05 45.53 149.66 47.36Q148.27 49.19 146.13 50.11Q143.99 51.03 140.77 51.03Q137.65 51.03 135.25 50.12Q132.86 49.22 131.53 47.64Q130.20 46.07 129.69 44.18Q129.17 42.29 129.17 38.67L129.17 29.22Q129.17 24.98 130.32 22.52Q131.47 20.07 134.08 18.76Q136.69 17.46 140.09 17.46Q144.24 17.46 146.94 19.03Q149.63 20.61 150.72 23.21Q151.81 25.81 151.81 30.52L151.81 34.81M141.92 29.54L141.92 27.17Q141.92 24.66 141.65 23.93Q141.38 23.19 140.55 23.19Q139.53 23.19 139.28 23.82Q139.04 24.44 139.04 27.17L139.04 29.54L141.92 29.54ZM165.06 18.04L164.89 21.02Q165.97 19.24 167.52 18.35Q169.07 17.46 171.09 17.46Q173.63 17.46 175.24 18.65Q176.86 19.85 177.32 21.67Q177.78 23.49 177.78 27.73L177.78 50.44L167.92 50.44L167.92 28.00Q167.92 24.66 167.70 23.93Q167.48 23.19 166.48 23.19Q165.43 23.19 165.16 24.04Q164.89 24.88 164.89 28.54L164.89 50.44L155.03 50.44L155.03 18.04L165.06 18.04ZM191.58 13.72L191.58 18.82L194.24 18.82L194.24 23.95L191.58 23.95L191.58 41.28Q191.58 44.48 191.91 44.85Q192.24 45.21 194.65 45.21L194.65 50.44L190.67 50.44Q187.30 50.44 185.86 50.16Q184.42 49.88 183.33 48.86Q182.23 47.85 181.96 46.55Q181.69 45.24 181.69 40.41L181.69 23.95L179.57 23.95L179.57 18.82L181.69 18.82L181.69 13.72L191.58 13.72ZM218.75 34.81L205.98 34.81L205.98 41.82Q205.98 44.02 206.30 44.65Q206.62 45.29 207.52 45.29Q208.64 45.29 209.02 44.45Q209.40 43.60 209.40 41.19L209.40 36.91L218.75 36.91L218.75 39.31Q218.75 42.31 218.37 43.92Q217.99 45.53 216.60 47.36Q215.21 49.19 213.07 50.11Q210.94 51.03 207.71 51.03Q204.59 51.03 202.20 50.12Q199.80 49.22 198.47 47.64Q197.14 46.07 196.63 44.18Q196.12 42.29 196.12 38.67L196.12 29.22Q196.12 24.98 197.27 22.52Q198.41 20.07 201.03 18.76Q203.64 17.46 207.03 17.46Q211.18 17.46 213.88 19.03Q216.58 20.61 217.66 23.21Q218.75 25.81 218.75 30.52L218.75 34.81M208.86 29.54L208.86 27.17Q208.86 24.66 208.59 23.93Q208.33 23.19 207.50 23.19Q206.47 23.19 206.23 23.82Q205.98 24.44 205.98 27.17L205.98 29.54L208.86 29.54ZM231.84 18.04L231.45 22.29Q233.59 17.72 237.67 17.46L237.67 28.86Q234.96 28.86 233.69 29.59Q232.42 30.32 232.13 31.63Q231.84 32.93 231.84 37.65L231.84 50.44L221.97 50.44L221.97 18.04L231.84 18.04Z"/></g><g transform="translate(0, 60.546875)"><path d="M40.72 10.91L36.16 50.44L23.32 50.44Q21.56 41.33 20.21 29.74Q19.60 34.69 17.36 50.44L4.59 50.44L0 10.91L9.99 10.91L11.04 24.71L12.11 38.01Q12.67 27.69 14.94 10.91L25.63 10.91Q25.85 12.65 26.76 23.95L27.88 38.96Q28.74 24.63 30.74 10.91L40.72 10.91ZM51.29 30.59L42.04 30.59L42.04 28.42Q42.04 24.66 42.91 22.62Q43.77 20.58 46.39 19.02Q49.00 17.46 53.17 17.46Q58.18 17.46 60.72 19.23Q63.26 21.00 63.77 23.57Q64.28 26.15 64.28 34.18L64.28 50.44L54.69 50.44L54.69 47.56Q53.78 49.29 52.36 50.16Q50.93 51.03 48.95 51.03Q46.36 51.03 44.20 49.57Q42.04 48.12 42.04 43.21L42.04 40.55Q42.04 36.91 43.19 35.60Q44.34 34.28 48.88 32.52Q53.74 30.62 54.08 29.96Q54.42 29.30 54.42 27.27Q54.42 24.73 54.04 23.96Q53.66 23.19 52.78 23.19Q51.78 23.19 51.54 23.84Q51.29 24.49 51.29 27.20L51.29 30.59M54.42 35.03Q52.05 36.77 51.67 37.94Q51.29 39.11 51.29 41.31Q51.29 43.82 51.62 44.56Q51.95 45.29 52.93 45.29Q53.86 45.29 54.14 44.71Q54.42 44.14 54.42 41.70L54.42 35.03ZM78.08 13.72L78.08 18.82L80.74 18.82L80.74 23.95L78.08 23.95L78.08 41.28Q78.08 44.48 78.41 44.85Q78.74 45.21 81.15 45.21L81.15 50.44L77.17 50.44Q73.80 50.44 72.36 50.16Q70.92 49.88 69.82 48.86Q68.73 47.85 68.46 46.55Q68.19 45.24 68.19 40.41L68.19 23.95L66.06 23.95L66.06 18.82L68.19 18.82L68.19 13.72L78.08 13.72ZM105.25 34.81L92.48 34.81L92.48 41.82Q92.48 44.02 92.80 44.65Q93.12 45.29 94.02 45.29Q95.14 45.29 95.52 44.45Q95.90 43.60 95.90 41.19L95.90 36.91L105.25 36.91L105.25 39.31Q105.25 42.31 104.87 43.92Q104.49 45.53 103.10 47.36Q101.71 49.19 99.57 50.11Q97.44 51.03 94.21 51.03Q91.09 51.03 88.70 50.12Q86.30 49.22 84.97 47.64Q83.64 46.07 83.13 44.18Q82.62 42.29 82.62 38.67L82.62 29.22Q82.62 24.98 83.76 22.52Q84.91 20.07 87.52 18.76Q90.14 17.46 93.53 17.46Q97.68 17.46 100.38 19.03Q103.08 20.61 104.16 23.21Q105.25 25.81 105.25 30.52L105.25 34.81M95.36 29.54L95.36 27.17Q95.36 24.66 95.09 23.93Q94.82 23.19 93.99 23.19Q92.97 23.19 92.72 23.82Q92.48 24.44 92.48 27.17L92.48 29.54L95.36 29.54ZM118.33 18.04L117.94 22.29Q120.09 17.72 124.17 17.46L124.17 28.86Q121.46 28.86 120.19 29.59Q118.92 30.32 118.63 31.63Q118.33 32.93 118.33 37.65L118.33 50.44L108.47 50.44L108.47 18.04L118.33 18.04Z"/></g><g transform="translate(0, 121.09375)"><path d="M24.29 28.15L14.01 28.15L14.01 21.26Q14.01 18.26 13.68 17.52Q13.35 16.77 12.23 16.77Q10.96 16.77 10.62 17.68Q10.28 18.58 10.28 21.58L10.28 39.94Q10.28 42.82 10.62 43.70Q10.96 44.58 12.16 44.58Q13.31 44.58 13.66 43.70Q14.01 42.82 14.01 39.58L14.01 34.62L24.29 34.62L24.29 36.16Q24.29 42.29 23.43 44.85Q22.56 47.41 19.59 49.34Q16.63 51.27 12.28 51.27Q7.76 51.27 4.83 49.63Q1.90 48.00 0.95 45.10Q0 42.21 0 36.40L0 24.85Q0 20.58 0.29 18.44Q0.59 16.31 2.04 14.33Q3.49 12.35 6.07 11.22Q8.64 10.08 11.99 10.08Q16.53 10.08 19.48 11.84Q22.44 13.60 23.36 16.22Q24.29 18.85 24.29 24.39L24.29 28.15ZM50 29.42L50 37.35Q50 41.72 49.56 43.76Q49.12 45.80 47.68 47.57Q46.24 49.34 43.98 50.18Q41.72 51.03 38.79 51.03Q35.52 51.03 33.25 50.31Q30.98 49.58 29.72 48.13Q28.47 46.68 27.93 44.62Q27.39 42.55 27.39 38.43L27.39 30.13Q27.39 25.61 28.37 23.07Q29.35 20.53 31.88 18.99Q34.42 17.46 38.38 17.46Q41.70 17.46 44.08 18.44Q46.46 19.43 47.75 21.02Q49.05 22.61 49.52 24.29Q50 25.98 50 29.42M40.14 26.98Q40.14 24.49 39.87 23.84Q39.60 23.19 38.72 23.19Q37.84 23.19 37.55 23.84Q37.26 24.49 37.26 26.98L37.26 41.60Q37.26 43.90 37.55 44.59Q37.84 45.29 38.70 45.29Q39.58 45.29 39.86 44.65Q40.14 44.02 40.14 41.92L40.14 26.98ZM63.28 18.04L63.11 21.02Q64.18 19.24 65.73 18.35Q67.29 17.46 69.31 17.46Q71.85 17.46 73.46 18.65Q75.07 19.85 75.54 21.67Q76.00 23.49 76.00 27.73L76.00 50.44L66.14 50.44L66.14 28.00Q66.14 24.66 65.92 23.93Q65.70 23.19 64.70 23.19Q63.65 23.19 63.38 24.04Q63.11 24.88 63.11 28.54L63.11 50.44L53.25 50.44L53.25 18.04L63.28 18.04ZM99.54 28.39L90.80 28.39L90.80 26.64Q90.80 24.39 90.54 23.79Q90.28 23.19 89.26 23.19Q88.43 23.19 88.01 23.74Q87.60 24.29 87.60 25.39Q87.60 26.88 87.81 27.58Q88.01 28.27 89.05 29.10Q90.09 29.93 93.31 31.52Q97.61 33.62 98.95 35.47Q100.29 37.33 100.29 40.87Q100.29 44.82 99.27 46.84Q98.24 48.85 95.84 49.94Q93.43 51.03 90.04 51.03Q86.28 51.03 83.61 49.85Q80.93 48.68 79.93 46.68Q78.93 44.68 78.93 40.63L78.93 39.06L87.67 39.06L87.67 41.11Q87.67 43.73 88.00 44.51Q88.33 45.29 89.31 45.29Q90.36 45.29 90.77 44.76Q91.19 44.24 91.19 42.55Q91.19 40.23 90.65 39.65Q90.09 39.06 84.91 36.18Q80.57 33.74 79.61 31.75Q78.66 29.76 78.66 27.03Q78.66 23.14 79.69 21.30Q80.71 19.46 83.17 18.46Q85.62 17.46 88.87 17.46Q92.09 17.46 94.35 18.27Q96.61 19.09 97.81 20.43Q99.02 21.78 99.28 22.92Q99.54 24.07 99.54 26.51L99.54 28.39ZM125.51 18.04L125.51 50.44L115.48 50.44L115.65 47.75Q114.62 49.39 113.12 50.21Q111.62 51.03 109.67 51.03Q107.45 51.03 105.98 50.24Q104.52 49.46 103.82 48.17Q103.13 46.88 102.95 45.47Q102.78 44.07 102.78 39.89L102.78 18.04L112.65 18.04L112.65 40.09Q112.65 43.87 112.88 44.58Q113.11 45.29 114.14 45.29Q115.23 45.29 115.44 44.56Q115.65 43.82 115.65 39.84L115.65 18.04L125.51 18.04ZM138.79 18.04L138.62 21.12Q139.77 19.29 141.36 18.37Q142.94 17.46 144.97 17.46Q148.93 17.46 151.20 21.12Q152.44 19.29 154.00 18.37Q155.57 17.46 157.47 17.46Q159.99 17.46 161.63 18.68Q163.28 19.90 163.75 21.67Q164.21 23.44 164.21 27.42L164.21 50.44L154.64 50.44L154.64 29.32Q154.64 25.17 154.36 24.18Q154.08 23.19 153.05 23.19Q152.00 23.19 151.70 24.17Q151.39 25.15 151.39 29.32L151.39 50.44L141.82 50.44L141.82 29.86Q141.82 25.10 141.59 24.15Q141.36 23.19 140.31 23.19Q139.65 23.19 139.18 23.69Q138.72 24.19 138.67 24.91Q138.62 25.63 138.62 27.98L138.62 50.44L129.05 50.44L129.05 18.04L138.79 18.04ZM177.64 18.04L177.47 20.90Q178.78 19.17 180.37 18.31Q181.96 17.46 183.84 17.46Q186.13 17.46 187.81 18.69Q189.48 19.92 189.89 21.53Q190.31 23.14 190.31 27.00L190.31 40.65Q190.31 45.07 189.78 46.94Q189.26 48.80 187.63 49.91Q186.01 51.03 183.72 51.03Q181.88 51.03 180.32 50.17Q178.76 49.32 177.47 47.63L177.47 55.05L167.60 55.05L167.60 18.04L177.64 18.04M180.44 27.47Q180.44 24.46 180.22 23.83Q180.00 23.19 179.00 23.19Q178.03 23.19 177.75 23.93Q177.47 24.66 177.47 27.47L177.47 40.89Q177.47 43.82 177.76 44.56Q178.05 45.29 179.03 45.29Q179.98 45.29 180.21 44.62Q180.44 43.95 180.44 41.36L180.44 27.47ZM203.96 13.72L203.96 18.82L206.62 18.82L206.62 23.95L203.96 23.95L203.96 41.28Q203.96 44.48 204.28 44.85Q204.61 45.21 207.03 45.21L207.03 50.44L203.05 50.44Q199.68 50.44 198.24 50.16Q196.80 49.88 195.70 48.86Q194.60 47.85 194.34 46.55Q194.07 45.24 194.07 40.41L194.07 23.95L191.94 23.95L191.94 18.82L194.07 18.82L194.07 13.72L203.96 13.72ZM218.95 10.91L218.95 16.06L208.79 16.06L208.79 10.91L218.95 10.91M218.95 18.04L218.95 50.44L208.79 50.44L208.79 18.04L218.95 18.04ZM244.80 29.42L244.80 37.35Q244.80 41.72 244.36 43.76Q243.92 45.80 242.48 47.57Q241.04 49.34 238.78 50.18Q236.52 51.03 233.59 51.03Q230.32 51.03 228.05 50.31Q225.78 49.58 224.52 48.13Q223.27 46.68 222.73 44.62Q222.19 42.55 222.19 38.43L222.19 30.13Q222.19 25.61 223.17 23.07Q224.15 20.53 226.68 18.99Q229.22 17.46 233.18 17.46Q236.50 17.46 238.88 18.44Q241.26 19.43 242.55 21.02Q243.85 22.61 244.32 24.29Q244.80 25.98 244.80 29.42M234.94 26.98Q234.94 24.49 234.67 23.84Q234.40 23.19 233.52 23.19Q232.64 23.19 232.35 23.84Q232.06 24.49 232.06 26.98L232.06 41.60Q232.06 43.90 232.35 44.59Q232.64 45.29 233.50 45.29Q234.38 45.29 234.66 44.65Q234.94 44.02 234.94 41.92L234.94 26.98ZM258.08 18.04L257.91 21.02Q258.98 19.24 260.53 18.35Q262.08 17.46 264.11 17.46Q266.65 17.46 268.26 18.65Q269.87 19.85 270.34 21.67Q270.80 23.49 270.80 27.73L270.80 50.44L260.94 50.44L260.94 28.00Q260.94 24.66 260.72 23.93Q260.50 23.19 259.50 23.19Q258.45 23.19 258.18 24.04Q257.91 24.88 257.91 28.54L257.91 50.44L248.05 50.44L248.05 18.04L258.08 18.04Z"/></g><g transform="translate(0, 181.640625)"><path d="M24.29 28.15L14.01 28.15L14.01 21.26Q14.01 18.26 13.68 17.52Q13.35 16.77 12.23 16.77Q10.96 16.77 10.62 17.68Q10.28 18.58 10.28 21.58L10.28 39.94Q10.28 42.82 10.62 43.70Q10.96 44.58 12.16 44.58Q13.31 44.58 13.66 43.70Q14.01 42.82 14.01 39.58L14.01 34.62L24.29 34.62L24.29 36.16Q24.29 42.29 23.43 44.85Q22.56 47.41 19.59 49.34Q16.63 51.27 12.28 51.27Q7.76 51.27 4.83 49.63Q1.90 48.00 0.95 45.10Q0 42.21 0 36.40L0 24.85Q0 20.58 0.29 18.44Q0.59 16.31 2.04 14.33Q3.49 12.35 6.07 11.22Q8.64 10.08 11.99 10.08Q16.53 10.08 19.48 11.84Q22.44 13.60 23.36 16.22Q24.29 18.85 24.29 24.39L24.29 28.15ZM36.50 30.59L27.25 30.59L27.25 28.42Q27.25 24.66 28.11 22.62Q28.98 20.58 31.59 19.02Q34.20 17.46 38.38 17.46Q43.38 17.46 45.92 19.23Q48.46 21.00 48.97 23.57Q49.49 26.15 49.49 34.18L49.49 50.44L39.89 50.44L39.89 47.56Q38.99 49.29 37.56 50.16Q36.13 51.03 34.16 51.03Q31.57 51.03 29.41 49.57Q27.25 48.12 27.25 43.21L27.25 40.55Q27.25 36.91 28.39 35.60Q29.54 34.28 34.08 32.52Q38.94 30.62 39.28 29.96Q39.62 29.30 39.62 27.27Q39.62 24.73 39.25 23.96Q38.87 23.19 37.99 23.19Q36.99 23.19 36.74 23.84Q36.50 24.49 36.50 27.20L36.50 30.59M39.62 35.03Q37.26 36.77 36.88 37.94Q36.50 39.11 36.50 41.31Q36.50 43.82 36.83 44.56Q37.16 45.29 38.13 45.29Q39.06 45.29 39.34 44.71Q39.62 44.14 39.62 41.70L39.62 35.03ZM63.04 10.91L63.04 50.44L52.88 50.44L52.88 10.91L63.04 10.91ZM88.38 30.27L79.08 30.27L79.08 26.54Q79.08 24.58 78.76 23.89Q78.44 23.19 77.59 23.19Q76.73 23.19 76.44 23.80Q76.15 24.41 76.15 26.54L76.15 41.82Q76.15 43.55 76.59 44.42Q77.03 45.29 77.88 45.29Q78.88 45.29 79.24 44.38Q79.59 43.48 79.59 40.97L79.59 37.11L88.38 37.11Q88.35 40.99 88.10 42.93Q87.84 44.87 86.46 46.91Q85.08 48.95 82.86 49.99Q80.64 51.03 77.37 51.03Q73.19 51.03 70.75 49.60Q68.31 48.17 67.30 45.59Q66.28 43.02 66.28 38.28L66.28 29.08Q66.28 24.95 67.11 22.85Q67.94 20.75 70.65 19.10Q73.36 17.46 77.25 17.46Q81.10 17.46 83.84 19.09Q86.57 20.73 87.48 23.22Q88.38 25.71 88.38 30.27ZM113.89 18.04L113.89 50.44L103.86 50.44L104.03 47.75Q103.00 49.39 101.50 50.21Q100 51.03 98.05 51.03Q95.83 51.03 94.36 50.24Q92.90 49.46 92.20 48.17Q91.50 46.88 91.33 45.47Q91.16 44.07 91.16 39.89L91.16 18.04L101.03 18.04L101.03 40.09Q101.03 43.87 101.26 44.58Q101.49 45.29 102.51 45.29Q103.61 45.29 103.82 44.56Q104.03 43.82 104.03 39.84L104.03 18.04L113.89 18.04ZM127.59 10.91L127.59 50.44L117.43 50.44L117.43 10.91L127.59 10.91ZM139.94 30.59L130.69 30.59L130.69 28.42Q130.69 24.66 131.56 22.62Q132.42 20.58 135.03 19.02Q137.65 17.46 141.82 17.46Q146.83 17.46 149.37 19.23Q151.90 21.00 152.42 23.57Q152.93 26.15 152.93 34.18L152.93 50.44L143.33 50.44L143.33 47.56Q142.43 49.29 141.00 50.16Q139.58 51.03 137.60 51.03Q135.01 51.03 132.85 49.57Q130.69 48.12 130.69 43.21L130.69 40.55Q130.69 36.91 131.84 35.60Q132.98 34.28 137.52 32.52Q142.38 30.62 142.72 29.96Q143.07 29.30 143.07 27.27Q143.07 24.73 142.69 23.96Q142.31 23.19 141.43 23.19Q140.43 23.19 140.19 23.84Q139.94 24.49 139.94 27.20L139.94 30.59M143.07 35.03Q140.70 36.77 140.32 37.94Q139.94 39.11 139.94 41.31Q139.94 43.82 140.27 44.56Q140.60 45.29 141.58 45.29Q142.50 45.29 142.79 44.71Q143.07 44.14 143.07 41.70L143.07 35.03ZM166.72 13.72L166.72 18.82L169.38 18.82L169.38 23.95L166.72 23.95L166.72 41.28Q166.72 44.48 167.05 44.85Q167.38 45.21 169.80 45.21L169.80 50.44L165.82 50.44Q162.45 50.44 161.01 50.16Q159.57 49.88 158.47 48.86Q157.37 47.85 157.10 46.55Q156.84 45.24 156.84 40.41L156.84 23.95L154.71 23.95L154.71 18.82L156.84 18.82L156.84 13.72L166.72 13.72ZM193.87 29.42L193.87 37.35Q193.87 41.72 193.43 43.76Q192.99 45.80 191.55 47.57Q190.11 49.34 187.85 50.18Q185.60 51.03 182.67 51.03Q179.39 51.03 177.12 50.31Q174.85 49.58 173.60 48.13Q172.34 46.68 171.80 44.62Q171.26 42.55 171.26 38.43L171.26 30.13Q171.26 25.61 172.24 23.07Q173.22 20.53 175.76 18.99Q178.30 17.46 182.25 17.46Q185.57 17.46 187.95 18.44Q190.33 19.43 191.63 21.02Q192.92 22.61 193.40 24.29Q193.87 25.98 193.87 29.42M184.01 26.98Q184.01 24.49 183.74 23.84Q183.47 23.19 182.59 23.19Q181.71 23.19 181.42 23.84Q181.13 24.49 181.13 26.98L181.13 41.60Q181.13 43.90 181.42 44.59Q181.71 45.29 182.57 45.29Q183.45 45.29 183.73 44.65Q184.01 44.02 184.01 41.92L184.01 26.98ZM206.98 18.04L206.59 22.29Q208.74 17.72 212.82 17.46L212.82 28.86Q210.11 28.86 208.84 29.59Q207.57 30.32 207.28 31.63Q206.98 32.93 206.98 37.65L206.98 50.44L197.12 50.44L197.12 18.04L206.98 18.04Z"/></g></g></svg>