<svg xmlns="http://www.w3.org/2000/svg" viewBox="0 10.909564086386133 354.92727949339485 44.142001084894176" data-asc="1.0087890625" width="354.92727949339485" height="44.142001084894176"><defs/><g fill="#000000"><g transform="translate(0, 0)"><path d="M22.63 34.81L9.86 34.81L9.86 41.82Q9.86 44.02 10.18 44.65Q10.50 45.29 11.40 45.29Q12.52 45.29 12.90 44.45Q13.28 43.60 13.28 41.19L13.28 36.91L22.63 36.91L22.63 39.31Q22.63 42.31 22.25 43.92Q21.88 45.53 20.48 47.36Q19.09 49.19 16.96 50.11Q14.82 51.03 11.60 51.03Q8.47 51.03 6.08 50.12Q3.69 49.22 2.36 47.64Q1.03 46.07 0.51 44.18Q0 42.29 0 38.67L0 29.22Q0 24.98 1.15 22.52Q2.29 20.07 4.91 18.76Q7.52 17.46 10.91 17.46Q15.06 17.46 17.76 19.03Q20.46 20.61 21.55 23.21Q22.63 25.81 22.63 30.52L22.63 34.81M12.74 29.54L12.74 27.17Q12.74 24.66 12.48 23.93Q12.21 23.19 11.38 23.19Q10.35 23.19 10.11 23.82Q9.86 24.44 9.86 27.17L9.86 29.54L12.74 29.54ZM37.94 30.83L37.94 37.65L24.98 37.65L24.98 30.83L37.94 30.83ZM53.15 10.91L53.15 15.92Q50.10 15.92 49.55 16.20Q49.00 16.48 49.00 17.80L49.00 18.82L53.15 18.82L53.15 23.95L50.81 23.95L50.81 50.44L40.94 50.44L40.94 23.95L38.92 23.95L38.92 18.82L40.94 18.82Q40.94 15.63 41.16 14.55Q41.38 13.48 42.25 12.63Q43.12 11.79 44.68 11.35Q46.24 10.91 49.54 10.91L53.15 10.91ZM77.34 29.42L77.34 37.35Q77.34 41.72 76.90 43.76Q76.46 45.80 75.02 47.57Q73.58 49.34 71.33 50.18Q69.07 51.03 66.14 51.03Q62.87 51.03 60.60 50.31Q58.33 49.58 57.07 48.13Q55.81 46.68 55.27 44.62Q54.74 42.55 54.74 38.43L54.74 30.13Q54.74 25.61 55.71 23.07Q56.69 20.53 59.23 18.99Q61.77 17.46 65.72 17.46Q69.04 17.46 71.42 18.44Q73.80 19.43 75.10 21.02Q76.39 22.61 76.87 24.29Q77.34 25.98 77.34 29.42M67.48 26.98Q67.48 24.49 67.21 23.84Q66.94 23.19 66.06 23.19Q65.19 23.19 64.89 23.84Q64.60 24.49 64.60 26.98L64.60 41.60Q64.60 43.90 64.89 44.59Q65.19 45.29 66.04 45.29Q66.92 45.29 67.20 44.65Q67.48 44.02 67.48 41.92L67.48 26.98ZM102.91 29.42L102.91 37.35Q102.91 41.72 102.47 43.76Q102.03 45.80 100.59 47.57Q99.15 49.34 96.89 50.18Q94.63 51.03 91.70 51.03Q88.43 51.03 86.16 50.31Q83.89 49.58 82.63 48.13Q81.37 46.68 80.83 44.62Q80.30 42.55 80.30 38.43L80.30 30.13Q80.30 25.61 81.27 23.07Q82.25 20.53 84.79 18.99Q87.33 17.46 91.28 17.46Q94.60 17.46 96.98 18.44Q99.37 19.43 100.66 21.02Q101.95 22.61 102.43 24.29Q102.91 25.98 102.91 29.42M93.04 26.98Q93.04 24.49 92.77 23.84Q92.50 23.19 91.63 23.19Q90.75 23.19 90.45 23.84Q90.16 24.49 90.16 26.98L90.16 41.60Q90.16 43.90 90.45 44.59Q90.75 45.29 91.60 45.29Q92.48 45.29 92.76 44.65Q93.04 44.02 93.04 41.92L93.04 26.98ZM116.55 13.72L116.55 18.82L119.21 18.82L119.21 23.95L116.55 23.95L116.55 41.28Q116.55 44.48 116.88 44.85Q117.21 45.21 119.63 45.21L119.63 50.44L115.65 50.44Q112.28 50.44 110.84 50.16Q109.40 49.88 108.30 48.86Q107.20 47.85 106.93 46.55Q106.67 45.24 106.67 40.41L106.67 23.95L104.54 23.95L104.54 18.82L106.67 18.82L106.67 13.72L116.55 13.72ZM131.42 18.04L131.25 20.90Q132.57 19.17 134.16 18.31Q135.74 17.46 137.62 17.46Q139.92 17.46 141.59 18.69Q143.26 19.92 143.68 21.53Q144.09 23.14 144.09 27.00L144.09 40.65Q144.09 45.07 143.57 46.94Q143.04 48.80 141.42 49.91Q139.79 51.03 137.50 51.03Q135.67 51.03 134.11 50.17Q132.54 49.32 131.25 47.63L131.25 55.05L121.39 55.05L121.39 18.04L131.42 18.04M134.23 27.47Q134.23 24.46 134.01 23.83Q133.79 23.19 132.79 23.19Q131.81 23.19 131.53 23.93Q131.25 24.66 131.25 27.47L131.25 40.89Q131.25 43.82 131.54 44.56Q131.84 45.29 132.81 45.29Q133.76 45.29 134.00 44.62Q134.23 43.95 134.23 41.36L134.23 27.47ZM157.20 18.04L156.81 22.29Q158.96 17.72 163.04 17.46L163.04 28.86Q160.33 28.86 159.06 29.59Q157.79 30.32 157.50 31.63Q157.20 32.93 157.20 37.65L157.20 50.44L147.34 50.44L147.34 18.04L157.20 18.04ZM175.39 10.91L175.39 16.06L165.23 16.06L165.23 10.91L175.39 10.91M175.39 18.04L175.39 50.44L165.23 50.44L165.23 18.04L175.39 18.04ZM188.96 18.04L188.79 21.02Q189.87 19.24 191.42 18.35Q192.97 17.46 195.00 17.46Q197.53 17.46 199.15 18.65Q200.76 19.85 201.22 21.67Q201.68 23.49 201.68 27.73L201.68 50.44L191.82 50.44L191.82 28.00Q191.82 24.66 191.60 23.93Q191.38 23.19 190.38 23.19Q189.33 23.19 189.06 24.04Q188.79 24.88 188.79 28.54L188.79 50.44L178.93 50.44L178.93 18.04L188.96 18.04ZM215.48 13.72L215.48 18.82L218.14 18.82L218.14 23.95L215.48 23.95L215.48 41.28Q215.48 44.48 215.81 44.85Q216.14 45.21 218.55 45.21L218.55 50.44L214.58 50.44Q211.21 50.44 209.77 50.16Q208.33 49.88 207.23 48.86Q206.13 47.85 205.86 46.55Q205.59 45.24 205.59 40.41L205.59 23.95L203.47 23.95L203.47 18.82L205.59 18.82L205.59 13.72L215.48 13.72ZM238.87 18.04L238.70 21.12Q239.84 19.29 241.43 18.37Q243.02 17.46 245.04 17.46Q249.00 17.46 251.27 21.12Q252.51 19.29 254.08 18.37Q255.64 17.46 257.54 17.46Q260.06 17.46 261.71 18.68Q263.35 19.90 263.82 21.67Q264.28 23.44 264.28 27.42L264.28 50.44L254.71 50.44L254.71 29.32Q254.71 25.17 254.43 24.18Q254.15 23.19 253.13 23.19Q252.08 23.19 251.77 24.17Q251.46 25.15 251.46 29.32L251.46 50.44L241.89 50.44L241.89 29.86Q241.89 25.10 241.66 24.15Q241.43 23.19 240.38 23.19Q239.72 23.19 239.26 23.69Q238.79 24.19 238.75 24.91Q238.70 25.63 238.70 27.98L238.70 50.44L229.13 50.44L229.13 18.04L238.87 18.04ZM289.99 29.42L289.99 37.35Q289.99 41.72 289.55 43.76Q289.11 45.80 287.67 47.57Q286.23 49.34 283.97 50.18Q281.71 51.03 278.78 51.03Q275.51 51.03 273.24 50.31Q270.97 49.58 269.71 48.13Q268.46 46.68 267.92 44.62Q267.38 42.55 267.38 38.43L267.38 30.13Q267.38 25.61 268.36 23.07Q269.34 20.53 271.88 18.99Q274.41 17.46 278.37 17.46Q281.69 17.46 284.07 18.44Q286.45 19.43 287.74 21.02Q289.04 22.61 289.51 24.29Q289.99 25.98 289.99 29.42M280.13 26.98Q280.13 24.49 279.86 23.84Q279.59 23.19 278.71 23.19Q277.83 23.19 277.54 23.84Q277.25 24.49 277.25 26.98L277.25 41.60Q277.25 43.90 277.54 44.59Q277.83 45.29 278.69 45.29Q279.57 45.29 279.85 44.65Q280.13 44.02 280.13 41.92L280.13 26.98ZM315.67 10.91L315.67 50.44L305.81 50.44L305.81 48.10Q304.39 49.56 302.83 50.29Q301.27 51.03 299.56 51.03Q297.27 51.03 295.58 49.82Q293.90 48.61 293.42 47.02Q292.94 45.43 292.94 41.85L292.94 26.68Q292.94 22.95 293.42 21.39Q293.90 19.82 295.61 18.64Q297.31 17.46 299.68 17.46Q301.51 17.46 303.04 18.12Q304.57 18.77 305.81 20.09L305.81 10.91L315.67 10.91M305.81 26.20Q305.81 24.41 305.51 23.80Q305.20 23.19 304.30 23.19Q303.42 23.19 303.11 23.74Q302.81 24.29 302.81 26.20L302.81 42.07Q302.81 44.04 303.10 44.67Q303.39 45.29 304.22 45.29Q305.18 45.29 305.49 44.59Q305.81 43.90 305.81 41.19L305.81 26.20ZM341.55 34.81L328.78 34.81L328.78 41.82Q328.78 44.02 329.10 44.65Q329.42 45.29 330.32 45.29Q331.45 45.29 331.82 44.45Q332.20 43.60 332.20 41.19L332.20 36.91L341.55 36.91L341.55 39.31Q341.55 42.31 341.17 43.92Q340.80 45.53 339.40 47.36Q338.01 49.19 335.88 50.11Q333.74 51.03 330.52 51.03Q327.39 51.03 325 50.12Q322.61 49.22 321.28 47.64Q319.95 46.07 319.43 44.18Q318.92 42.29 318.92 38.67L318.92 29.22Q318.92 24.98 320.07 22.52Q321.22 20.07 323.83 18.76Q326.44 17.46 329.83 17.46Q333.98 17.46 336.68 19.03Q339.38 20.61 340.47 23.21Q341.55 25.81 341.55 30.52L341.55 34.81M331.67 29.54L331.67 27.17Q331.67 24.66 331.40 23.93Q331.13 23.19 330.30 23.19Q329.27 23.19 329.03 23.82Q328.78 24.44 328.78 27.17L328.78 29.54L331.67 29.54ZM354.93 10.91L354.93 50.44L344.78 50.44L344.78 10.91L354.93 10.91Z"/></g></g></svg>