<svg xmlns="http://www.w3.org/2000/svg" viewBox="0 10.91170891700003 263.1616808227232 45.12025685747509" data-asc="1.0087890625" width="263.1616808227232" height="45.12025685747509"><defs/><g><g><g transform="translate(0, 0)"><path d="M0 10.91L17.14 10.91L17.14 18.82L10.28 18.82L10.28 26.32L16.70 26.32L16.70 33.84L10.28 33.84L10.28 42.53L17.82 42.53L17.82 50.44L0 50.44L0 10.91ZM30.52 18.04L30.35 21.02Q31.42 19.24 32.97 18.35Q34.52 17.46 36.55 17.46Q39.09 17.46 40.70 18.65Q42.31 19.85 42.77 21.67Q43.24 23.49 43.24 27.73L43.24 50.44L33.37 50.44L33.37 28.00Q33.37 24.66 33.15 23.93Q32.93 23.19 31.93 23.19Q30.88 23.19 30.62 24.04Q30.35 24.88 30.35 28.54L30.35 50.44L20.48 50.44L20.48 18.04L30.52 18.04ZM68.97 34.81L56.20 34.81L56.20 41.82Q56.20 44.02 56.52 44.65Q56.84 45.29 57.74 45.29Q58.86 45.29 59.24 44.45Q59.62 43.60 59.62 41.19L59.62 36.91L68.97 36.91L68.97 39.31Q68.97 42.31 68.59 43.92Q68.21 45.53 66.82 47.36Q65.43 49.19 63.29 50.11Q61.16 51.03 57.93 51.03Q54.81 51.03 52.42 50.12Q50.02 49.22 48.69 47.64Q47.36 46.07 46.85 44.18Q46.34 42.29 46.34 38.67L46.34 29.22Q46.34 24.98 47.49 22.52Q48.63 20.07 51.25 18.76Q53.86 17.46 57.25 17.46Q61.40 17.46 64.10 19.03Q66.80 20.61 67.88 23.21Q68.97 25.81 68.97 30.52L68.97 34.81M59.08 29.54L59.08 27.17Q59.08 24.66 58.81 23.93Q58.54 23.19 57.71 23.19Q56.69 23.19 56.45 23.82Q56.20 24.44 56.20 27.17L56.20 29.54L59.08 29.54ZM82.06 18.04L81.67 22.29Q83.81 17.72 87.89 17.46L87.89 28.86Q85.18 28.86 83.91 29.59Q82.64 30.32 82.35 31.63Q82.06 32.93 82.06 37.65L82.06 50.44L72.19 50.44L72.19 18.04L82.06 18.04ZM112.50 18.04L112.50 42.99Q112.50 48.05 112.27 49.52Q112.04 51.00 110.62 52.65Q109.20 54.30 106.68 55.16Q104.15 56.03 100.32 56.03Q95.61 56.03 92.75 54.43Q89.89 52.83 89.79 48.14L99.37 48.14Q99.37 50.29 100.93 50.29Q102.05 50.29 102.42 49.63Q102.78 48.97 102.78 46.88L102.78 44.43Q101.51 45.58 100.11 46.17Q98.71 46.75 97.17 46.75Q94.51 46.75 92.79 45.68Q91.06 44.60 90.43 42.86Q89.79 41.11 89.79 37.89L89.79 26.12Q89.79 21.51 91.46 19.48Q93.12 17.46 96.51 17.46Q98.36 17.46 99.89 18.21Q101.42 18.97 102.61 20.48L103.32 18.04L112.50 18.04M102.61 26.64Q102.61 24.41 102.36 23.80Q102.10 23.19 101.22 23.19Q100.37 23.19 100.01 23.89Q99.66 24.58 99.66 26.64L99.66 37.52Q99.66 39.70 99.93 40.34Q100.20 40.99 101.05 40.99Q102.03 40.99 102.32 40.21Q102.61 39.43 102.61 36.67L102.61 26.64ZM126.17 10.91L126.17 16.06L116.02 16.06L116.02 10.91L126.17 10.91M126.17 18.04L126.17 50.44L116.02 50.44L116.02 18.04L126.17 18.04ZM130.00 10.91L140.26 10.91Q145.12 10.91 147.62 11.67Q150.12 12.43 151.66 14.73Q153.20 17.04 153.20 22.17Q153.20 25.63 152.11 27.00Q151.03 28.37 147.83 29.10Q151.39 29.91 152.66 31.77Q153.93 33.64 153.93 37.50L153.93 41.16Q153.93 45.17 153.02 47.09Q152.10 49.02 150.10 49.73Q148.10 50.44 141.89 50.44L130.00 50.44L130.00 10.91M140.28 17.68L140.28 26.46Q140.94 26.44 141.31 26.44Q142.82 26.44 143.24 25.70Q143.65 24.95 143.65 21.44Q143.65 19.58 143.31 18.84Q142.97 18.09 142.42 17.90Q141.87 17.70 140.28 17.68M140.28 32.62L140.28 43.68Q142.46 43.60 143.05 42.99Q143.65 42.38 143.65 39.99L143.65 36.30Q143.65 33.76 143.12 33.23Q142.58 32.69 140.28 32.62ZM167.19 18.04L166.80 22.29Q168.95 17.72 173.02 17.46L173.02 28.86Q170.31 28.86 169.04 29.59Q167.77 30.32 167.48 31.63Q167.19 32.93 167.19 37.65L167.19 50.44L157.32 50.44L157.32 18.04L167.19 18.04ZM185.38 10.91L185.38 16.06L175.22 16.06L175.22 10.91L185.38 10.91M185.38 18.04L185.38 50.44L175.22 50.44L175.22 18.04L185.38 18.04ZM211.35 10.91L211.35 50.44L201.49 50.44L201.49 48.10Q200.07 49.56 198.51 50.29Q196.95 51.03 195.24 51.03Q192.94 51.03 191.26 49.82Q189.58 48.61 189.10 47.02Q188.62 45.43 188.62 41.85L188.62 26.68Q188.62 22.95 189.10 21.39Q189.58 19.82 191.28 18.64Q192.99 17.46 195.36 17.46Q197.19 17.46 198.72 18.12Q200.24 18.77 201.49 20.09L201.49 10.91L211.35 10.91M201.49 26.20Q201.49 24.41 201.18 23.80Q200.88 23.19 199.98 23.19Q199.10 23.19 198.79 23.74Q198.49 24.29 198.49 26.20L198.49 42.07Q198.49 44.04 198.78 44.67Q199.07 45.29 199.90 45.29Q200.85 45.29 201.17 44.59Q201.49 43.90 201.49 41.19L201.49 26.20ZM237.30 18.04L237.30 42.99Q237.30 48.05 237.07 49.52Q236.84 51.00 235.42 52.65Q234.01 54.30 231.48 55.16Q228.96 56.03 225.12 56.03Q220.41 56.03 217.55 54.43Q214.70 52.83 214.60 48.14L224.17 48.14Q224.17 50.29 225.73 50.29Q226.86 50.29 227.22 49.63Q227.59 48.97 227.59 46.88L227.59 44.43Q226.32 45.58 224.91 46.17Q223.51 46.75 221.97 46.75Q219.31 46.75 217.59 45.68Q215.87 44.60 215.23 42.86Q214.60 41.11 214.60 37.89L214.60 26.12Q214.60 21.51 216.26 19.48Q217.92 17.46 221.31 17.46Q223.17 17.46 224.69 18.21Q226.22 18.97 227.42 20.48L228.13 18.04L237.30 18.04M227.42 26.64Q227.42 24.41 227.16 23.80Q226.90 23.19 226.03 23.19Q225.17 23.19 224.82 23.89Q224.46 24.58 224.46 26.64L224.46 37.52Q224.46 39.70 224.73 40.34Q225 40.99 225.85 40.99Q226.83 40.99 227.12 40.21Q227.42 39.43 227.42 36.67L227.42 26.64ZM263.16 34.81L250.39 34.81L250.39 41.82Q250.39 44.02 250.71 44.65Q251.03 45.29 251.93 45.29Q253.05 45.29 253.43 44.45Q253.81 43.60 253.81 41.19L253.81 36.91L263.16 36.91L263.16 39.31Q263.16 42.31 262.78 43.92Q262.40 45.53 261.01 47.36Q259.62 49.19 257.48 50.11Q255.35 51.03 252.12 51.03Q249.00 51.03 246.61 50.12Q244.21 49.22 242.88 47.64Q241.55 46.07 241.04 44.18Q240.53 42.29 240.53 38.67L240.53 29.22Q240.53 24.98 241.67 22.52Q242.82 20.07 245.43 18.76Q248.05 17.46 251.44 17.46Q255.59 17.46 258.29 19.03Q260.99 20.61 262.07 23.21Q263.16 25.81 263.16 30.52L263.16 34.81M253.27 29.54L253.27 27.17Q253.27 24.66 253.00 23.93Q252.73 23.19 251.90 23.19Q250.88 23.19 250.63 23.82Q250.39 24.44 250.39 27.17L250.39 29.54L253.27 29.54Z"/></g></g></g></svg>