<svg xmlns="http://www.w3.org/2000/svg" viewBox="0 10.907604383179594 154.87694473199358 45.11542676454187" data-asc="1.0087890625" width="154.87694473199358" height="45.11542676454187"><defs/><g fill="#000000"><g transform="translate(0, 0)"><path d="M0 10.91L17.14 10.91L17.14 18.82L10.28 18.82L10.28 26.32L16.70 26.32L16.70 33.84L10.28 33.84L10.28 42.53L17.82 42.53L17.82 50.44L0 50.44L0 10.91ZM30.52 18.04L30.35 21.02Q31.42 19.24 32.97 18.35Q34.52 17.46 36.55 17.46Q39.09 17.46 40.70 18.65Q42.31 19.85 42.77 21.67Q43.24 23.49 43.24 27.73L43.24 50.44L33.37 50.44L33.37 28.00Q33.37 24.66 33.15 23.93Q32.93 23.19 31.93 23.19Q30.88 23.19 30.62 24.04Q30.35 24.88 30.35 28.54L30.35 50.44L20.48 50.44L20.48 18.04L30.52 18.04ZM68.97 34.81L56.20 34.81L56.20 41.82Q56.20 44.02 56.52 44.65Q56.84 45.29 57.74 45.29Q58.86 45.29 59.24 44.45Q59.62 43.60 59.62 41.19L59.62 36.91L68.97 36.91L68.97 39.31Q68.97 42.31 68.59 43.92Q68.21 45.53 66.82 47.36Q65.43 49.19 63.29 50.11Q61.16 51.03 57.93 51.03Q54.81 51.03 52.42 50.12Q50.02 49.22 48.69 47.64Q47.36 46.07 46.85 44.18Q46.34 42.29 46.34 38.67L46.34 29.22Q46.34 24.98 47.49 22.52Q48.63 20.07 51.25 18.76Q53.86 17.46 57.25 17.46Q61.40 17.46 64.10 19.03Q66.80 20.61 67.88 23.21Q68.97 25.81 68.97 30.52L68.97 34.81M59.08 29.54L59.08 27.17Q59.08 24.66 58.81 23.93Q58.54 23.19 57.71 23.19Q56.69 23.19 56.45 23.82Q56.20 24.44 56.20 27.17L56.20 29.54L59.08 29.54ZM82.06 18.04L81.67 22.29Q83.81 17.72 87.89 17.46L87.89 28.86Q85.18 28.86 83.91 29.59Q82.64 30.32 82.35 31.63Q82.06 32.93 82.06 37.65L82.06 50.44L72.19 50.44L72.19 18.04L82.06 18.04ZM112.50 18.04L112.50 42.99Q112.50 48.05 112.27 49.52Q112.04 51.00 110.62 52.65Q109.20 54.30 106.68 55.16Q104.15 56.03 100.32 56.03Q95.61 56.03 92.75 54.43Q89.89 52.83 89.79 48.14L99.37 48.14Q99.37 50.29 100.93 50.29Q102.05 50.29 102.42 49.63Q102.78 48.97 102.78 46.88L102.78 44.43Q101.51 45.58 100.11 46.17Q98.71 46.75 97.17 46.75Q94.51 46.75 92.79 45.68Q91.06 44.60 90.43 42.86Q89.79 41.11 89.79 37.89L89.79 26.12Q89.79 21.51 91.46 19.48Q93.12 17.46 96.51 17.46Q98.36 17.46 99.89 18.21Q101.42 18.97 102.61 20.48L103.32 18.04L112.50 18.04M102.61 26.64Q102.61 24.41 102.36 23.80Q102.10 23.19 101.22 23.19Q100.37 23.19 100.01 23.89Q99.66 24.58 99.66 26.64L99.66 37.52Q99.66 39.70 99.93 40.34Q100.20 40.99 101.05 40.99Q102.03 40.99 102.32 40.21Q102.61 39.43 102.61 36.67L102.61 26.64ZM134.06 10.91L139.94 50.44L129.42 50.44L128.91 43.33L125.22 43.33L124.61 50.44L113.96 50.44L119.19 10.91L134.06 10.91M128.61 36.33Q127.83 29.61 127.05 19.75Q125.49 31.08 125.10 36.33L128.61 36.33ZM151.81 13.72L151.81 18.82L154.47 18.82L154.47 23.95L151.81 23.95L151.81 41.28Q151.81 44.48 152.14 44.85Q152.47 45.21 154.88 45.21L154.88 50.44L150.90 50.44Q147.53 50.44 146.09 50.16Q144.65 49.88 143.55 48.86Q142.46 47.85 142.19 46.55Q141.92 45.24 141.92 40.41L141.92 23.95L139.79 23.95L139.79 18.82L141.92 18.82L141.92 13.72L151.81 13.72Z"/></g></g></svg>