<svg xmlns="http://www.w3.org/2000/svg" viewBox="0 10.905786370267343 248.220857476179 161.21822531605827" data-asc="1.0087890625" width="248.220857476179" height="161.21822531605827"><defs/><g><g><g transform="translate(0, 0)"><path d="M22.63 34.81L9.86 34.81L9.86 41.82Q9.86 44.02 10.18 44.65Q10.50 45.29 11.40 45.29Q12.52 45.29 12.90 44.45Q13.28 43.60 13.28 41.19L13.28 36.91L22.63 36.91L22.63 39.31Q22.63 42.31 22.25 43.92Q21.88 45.53 20.48 47.36Q19.09 49.19 16.96 50.11Q14.82 51.03 11.60 51.03Q8.47 51.03 6.08 50.12Q3.69 49.22 2.36 47.64Q1.03 46.07 0.51 44.18Q0 42.29 0 38.67L0 29.22Q0 24.98 1.15 22.52Q2.29 20.07 4.91 18.76Q7.52 17.46 10.91 17.46Q15.06 17.46 17.76 19.03Q20.46 20.61 21.55 23.21Q22.63 25.81 22.63 30.52L22.63 34.81M12.74 29.54L12.74 27.17Q12.74 24.66 12.48 23.93Q12.21 23.19 11.38 23.19Q10.35 23.19 10.11 23.82Q9.86 24.44 9.86 27.17L9.86 29.54L12.74 29.54ZM45.39 18.04L41.46 33.52L46.22 50.44L36.62 50.44Q35.21 44.04 34.47 39.43Q33.50 45.19 32.35 50.44L24.10 50.44L28.34 33.52L24.10 18.04L32.35 18.04Q34.33 27.95 34.47 29.30Q35.89 21.02 36.62 18.04L45.39 18.04ZM57.57 18.04L57.40 20.90Q58.72 19.17 60.30 18.31Q61.89 17.46 63.77 17.46Q66.06 17.46 67.74 18.69Q69.41 19.92 69.82 21.53Q70.24 23.14 70.24 27.00L70.24 40.65Q70.24 45.07 69.71 46.94Q69.19 48.80 67.57 49.91Q65.94 51.03 63.65 51.03Q61.82 51.03 60.25 50.17Q58.69 49.32 57.40 47.63L57.40 55.05L47.53 55.05L47.53 18.04L57.57 18.04M60.38 27.47Q60.38 24.46 60.16 23.83Q59.94 23.19 58.94 23.19Q57.96 23.19 57.68 23.93Q57.40 24.66 57.40 27.47L57.40 40.89Q57.40 43.82 57.69 44.56Q57.98 45.29 58.96 45.29Q59.91 45.29 60.14 44.62Q60.38 43.95 60.38 41.36L60.38 27.47ZM95.83 34.81L83.06 34.81L83.06 41.82Q83.06 44.02 83.37 44.65Q83.69 45.29 84.59 45.29Q85.72 45.29 86.10 44.45Q86.47 43.60 86.47 41.19L86.47 36.91L95.83 36.91L95.83 39.31Q95.83 42.31 95.45 43.92Q95.07 45.53 93.68 47.36Q92.29 49.19 90.15 50.11Q88.01 51.03 84.79 51.03Q81.67 51.03 79.27 50.12Q76.88 49.22 75.55 47.64Q74.22 46.07 73.71 44.18Q73.19 42.29 73.19 38.67L73.19 29.22Q73.19 24.98 74.34 22.52Q75.49 20.07 78.10 18.76Q80.71 17.46 84.11 17.46Q88.26 17.46 90.95 19.03Q93.65 20.61 94.74 23.21Q95.83 25.81 95.83 30.52L95.83 34.81M85.94 29.54L85.94 27.17Q85.94 24.66 85.67 23.93Q85.40 23.19 84.57 23.19Q83.54 23.19 83.30 23.82Q83.06 24.44 83.06 27.17L83.06 29.54L85.94 29.54ZM108.91 18.04L108.52 22.29Q110.67 17.72 114.75 17.46L114.75 28.86Q112.04 28.86 110.77 29.59Q109.50 30.32 109.20 31.63Q108.91 32.93 108.91 37.65L108.91 50.44L99.05 50.44L99.05 18.04L108.91 18.04ZM127.10 10.91L127.10 16.06L116.94 16.06L116.94 10.91L127.10 10.91M127.10 18.04L127.10 50.44L116.94 50.44L116.94 18.04L127.10 18.04ZM140.38 18.04L140.21 21.12Q141.36 19.29 142.94 18.37Q144.53 17.46 146.56 17.46Q150.51 17.46 152.78 21.12Q154.03 19.29 155.59 18.37Q157.15 17.46 159.06 17.46Q161.57 17.46 163.22 18.68Q164.87 19.90 165.33 21.67Q165.80 23.44 165.80 27.42L165.80 50.44L156.23 50.44L156.23 29.32Q156.23 25.17 155.94 24.18Q155.66 23.19 154.64 23.19Q153.59 23.19 153.28 24.17Q152.98 25.15 152.98 29.32L152.98 50.44L143.41 50.44L143.41 29.86Q143.41 25.10 143.18 24.15Q142.94 23.19 141.89 23.19Q141.24 23.19 140.77 23.69Q140.31 24.19 140.26 24.91Q140.21 25.63 140.21 27.98L140.21 50.44L130.64 50.44L130.64 18.04L140.38 18.04ZM191.53 34.81L178.76 34.81L178.76 41.82Q178.76 44.02 179.08 44.65Q179.39 45.29 180.30 45.29Q181.42 45.29 181.80 44.45Q182.18 43.60 182.18 41.19L182.18 36.91L191.53 36.91L191.53 39.31Q191.53 42.31 191.15 43.92Q190.77 45.53 189.38 47.36Q187.99 49.19 185.85 50.11Q183.72 51.03 180.49 51.03Q177.37 51.03 174.98 50.12Q172.58 49.22 171.25 47.64Q169.92 46.07 169.41 44.18Q168.90 42.29 168.90 38.67L168.90 29.22Q168.90 24.98 170.04 22.52Q171.19 20.07 173.80 18.76Q176.42 17.46 179.81 17.46Q183.96 17.46 186.66 19.03Q189.36 20.61 190.44 23.21Q191.53 25.81 191.53 30.52L191.53 34.81M181.64 29.54L181.64 27.17Q181.64 24.66 181.37 23.93Q181.10 23.19 180.27 23.19Q179.25 23.19 179.00 23.82Q178.76 24.44 178.76 27.17L178.76 29.54L181.64 29.54ZM204.79 18.04L204.61 21.02Q205.69 19.24 207.24 18.35Q208.79 17.46 210.82 17.46Q213.35 17.46 214.97 18.65Q216.58 19.85 217.04 21.67Q217.50 23.49 217.50 27.73L217.50 50.44L207.64 50.44L207.64 28.00Q207.64 24.66 207.42 23.93Q207.20 23.19 206.20 23.19Q205.15 23.19 204.88 24.04Q204.61 24.88 204.61 28.54L204.61 50.44L194.75 50.44L194.75 18.04L204.79 18.04ZM231.30 13.72L231.30 18.82L233.96 18.82L233.96 23.95L231.30 23.95L231.30 41.28Q231.30 44.48 231.63 44.85Q231.96 45.21 234.38 45.21L234.38 50.44L230.40 50.44Q227.03 50.44 225.59 50.16Q224.15 49.88 223.05 48.86Q221.95 47.85 221.68 46.55Q221.41 45.24 221.41 40.41L221.41 23.95L219.29 23.95L219.29 18.82L221.41 18.82L221.41 13.72L231.30 13.72ZM248.22 30.83L248.22 37.65L235.25 37.65L235.25 30.83L248.22 30.83Z"/></g><g transform="translate(0, 60.546875)"><path d="M10.16 10.91L10.16 16.06L0 16.06L0 10.91L10.16 10.91M10.16 18.04L10.16 50.44L0 50.44L0 18.04L10.16 18.04ZM23.44 18.04L23.27 21.12Q24.41 19.29 26.00 18.37Q27.59 17.46 29.61 17.46Q33.57 17.46 35.84 21.12Q37.08 19.29 38.65 18.37Q40.21 17.46 42.11 17.46Q44.63 17.46 46.28 18.68Q47.92 19.90 48.39 21.67Q48.85 23.44 48.85 27.42L48.85 50.44L39.28 50.44L39.28 29.32Q39.28 25.17 39.00 24.18Q38.72 23.19 37.70 23.19Q36.65 23.19 36.34 24.17Q36.04 25.15 36.04 29.32L36.04 50.44L26.46 50.44L26.46 29.86Q26.46 25.10 26.23 24.15Q26.00 23.19 24.95 23.19Q24.29 23.19 23.83 23.69Q23.36 24.19 23.32 24.91Q23.27 25.63 23.27 27.98L23.27 50.44L13.70 50.44L13.70 18.04L23.44 18.04ZM62.28 18.04L62.11 20.90Q63.43 19.17 65.01 18.31Q66.60 17.46 68.48 17.46Q70.78 17.46 72.45 18.69Q74.12 19.92 74.54 21.53Q74.95 23.14 74.95 27.00L74.95 40.65Q74.95 45.07 74.43 46.94Q73.90 48.80 72.28 49.91Q70.65 51.03 68.36 51.03Q66.53 51.03 64.97 50.17Q63.40 49.32 62.11 47.63L62.11 55.05L52.25 55.05L52.25 18.04L62.28 18.04M65.09 27.47Q65.09 24.46 64.87 23.83Q64.65 23.19 63.65 23.19Q62.67 23.19 62.39 23.93Q62.11 24.66 62.11 27.47L62.11 40.89Q62.11 43.82 62.40 44.56Q62.70 45.29 63.67 45.29Q64.62 45.29 64.86 44.62Q65.09 43.95 65.09 41.36L65.09 27.47ZM87.01 30.59L77.76 30.59L77.76 28.42Q77.76 24.66 78.63 22.62Q79.49 20.58 82.10 19.02Q84.72 17.46 88.89 17.46Q93.90 17.46 96.44 19.23Q98.97 21.00 99.49 23.57Q100 26.15 100 34.18L100 50.44L90.41 50.44L90.41 47.56Q89.50 49.29 88.07 50.16Q86.65 51.03 84.67 51.03Q82.08 51.03 79.92 49.57Q77.76 48.12 77.76 43.21L77.76 40.55Q77.76 36.91 78.91 35.60Q80.05 34.28 84.59 32.52Q89.45 30.62 89.79 29.96Q90.14 29.30 90.14 27.27Q90.14 24.73 89.76 23.96Q89.38 23.19 88.50 23.19Q87.50 23.19 87.26 23.84Q87.01 24.49 87.01 27.20L87.01 30.59M90.14 35.03Q87.77 36.77 87.39 37.94Q87.01 39.11 87.01 41.31Q87.01 43.82 87.34 44.56Q87.67 45.29 88.65 45.29Q89.58 45.29 89.86 44.71Q90.14 44.14 90.14 41.70L90.14 35.03ZM125.20 30.27L115.89 30.27L115.89 26.54Q115.89 24.58 115.58 23.89Q115.26 23.19 114.40 23.19Q113.55 23.19 113.26 23.80Q112.96 24.41 112.96 26.54L112.96 41.82Q112.96 43.55 113.40 44.42Q113.84 45.29 114.70 45.29Q115.70 45.29 116.05 44.38Q116.41 43.48 116.41 40.97L116.41 37.11L125.20 37.11Q125.17 40.99 124.91 42.93Q124.66 44.87 123.28 46.91Q121.90 48.95 119.68 49.99Q117.46 51.03 114.18 51.03Q110.01 51.03 107.57 49.60Q105.13 48.17 104.11 45.59Q103.10 43.02 103.10 38.28L103.10 29.08Q103.10 24.95 103.93 22.85Q104.76 20.75 107.47 19.10Q110.18 17.46 114.06 17.46Q117.92 17.46 120.65 19.09Q123.39 20.73 124.29 23.22Q125.20 25.71 125.20 30.27ZM138.53 13.72L138.53 18.82L141.19 18.82L141.19 23.95L138.53 23.95L138.53 41.28Q138.53 44.48 138.85 44.85Q139.18 45.21 141.60 45.21L141.60 50.44L137.62 50.44Q134.25 50.44 132.81 50.16Q131.37 49.88 130.27 48.86Q129.17 47.85 128.91 46.55Q128.64 45.24 128.64 40.41L128.64 23.95L126.51 23.95L126.51 18.82L128.64 18.82L128.64 13.72L138.53 13.72ZM155.44 30.83L155.44 37.65L142.48 37.65L142.48 30.83L155.44 30.83Z"/></g><g transform="translate(0, 121.09375)"><path d="M12.01 13.72L12.01 18.82L14.67 18.82L14.67 23.95L12.01 23.95L12.01 41.28Q12.01 44.48 12.34 44.85Q12.67 45.21 15.09 45.21L15.09 50.44L11.11 50.44Q7.74 50.44 6.30 50.16Q4.86 49.88 3.76 48.86Q2.66 47.85 2.39 46.55Q2.12 45.24 2.12 40.41L2.12 23.95L0 23.95L0 18.82L2.12 18.82L2.12 13.72L12.01 13.72ZM26.71 18.04L26.32 22.29Q28.47 17.72 32.54 17.46L32.54 28.86Q29.83 28.86 28.56 29.59Q27.29 30.32 27.00 31.63Q26.71 32.93 26.71 37.65L26.71 50.44L16.85 50.44L16.85 18.04L26.71 18.04ZM43.55 30.59L34.30 30.59L34.30 28.42Q34.30 24.66 35.17 22.62Q36.04 20.58 38.65 19.02Q41.26 17.46 45.43 17.46Q50.44 17.46 52.98 19.23Q55.52 21.00 56.03 23.57Q56.54 26.15 56.54 34.18L56.54 50.44L46.95 50.44L46.95 47.56Q46.04 49.29 44.62 50.16Q43.19 51.03 41.21 51.03Q38.62 51.03 36.46 49.57Q34.30 48.12 34.30 43.21L34.30 40.55Q34.30 36.91 35.45 35.60Q36.60 34.28 41.14 32.52Q46.00 30.62 46.34 29.96Q46.68 29.30 46.68 27.27Q46.68 24.73 46.30 23.96Q45.92 23.19 45.04 23.19Q44.04 23.19 43.80 23.84Q43.55 24.49 43.55 27.20L43.55 30.59M46.68 35.03Q44.31 36.77 43.93 37.94Q43.55 39.11 43.55 41.31Q43.55 43.82 43.88 44.56Q44.21 45.29 45.19 45.29Q46.12 45.29 46.40 44.71Q46.68 44.14 46.68 41.70L46.68 35.03ZM81.74 30.27L72.44 30.27L72.44 26.54Q72.44 24.58 72.12 23.89Q71.80 23.19 70.95 23.19Q70.09 23.19 69.80 23.80Q69.51 24.41 69.51 26.54L69.51 41.82Q69.51 43.55 69.95 44.42Q70.39 45.29 71.24 45.29Q72.24 45.29 72.60 44.38Q72.95 43.48 72.95 40.97L72.95 37.11L81.74 37.11Q81.71 40.99 81.46 42.93Q81.20 44.87 79.82 46.91Q78.44 48.95 76.22 49.99Q74.00 51.03 70.73 51.03Q66.55 51.03 64.11 49.60Q61.67 48.17 60.66 45.59Q59.64 43.02 59.64 38.28L59.64 29.08Q59.64 24.95 60.47 22.85Q61.30 20.75 64.01 19.10Q66.72 17.46 70.61 17.46Q74.46 17.46 77.20 19.09Q79.93 20.73 80.83 23.22Q81.74 25.71 81.74 30.27ZM105.91 18.04L101.90 30.96L107.10 50.44L97.61 50.44L94.53 36.33L94.53 50.44L84.67 50.44L84.67 10.91L94.53 10.91L94.53 27.51L97.61 18.04L105.91 18.04ZM130.91 34.81L118.14 34.81L118.14 41.82Q118.14 44.02 118.46 44.65Q118.77 45.29 119.68 45.29Q120.80 45.29 121.18 44.45Q121.56 43.60 121.56 41.19L121.56 36.91L130.91 36.91L130.91 39.31Q130.91 42.31 130.53 43.92Q130.15 45.53 128.76 47.36Q127.37 49.19 125.23 50.11Q123.10 51.03 119.87 51.03Q116.75 51.03 114.36 50.12Q111.96 49.22 110.63 47.64Q109.30 46.07 108.79 44.18Q108.28 42.29 108.28 38.67L108.28 29.22Q108.28 24.98 109.42 22.52Q110.57 20.07 113.18 18.76Q115.80 17.46 119.19 17.46Q123.34 17.46 126.04 19.03Q128.74 20.61 129.82 23.21Q130.91 25.81 130.91 30.52L130.91 34.81M121.02 29.54L121.02 27.17Q121.02 24.66 120.75 23.93Q120.48 23.19 119.65 23.19Q118.63 23.19 118.38 23.82Q118.14 24.44 118.14 27.17L118.14 29.54L121.02 29.54ZM143.99 18.04L143.60 22.29Q145.75 17.72 149.83 17.46L149.83 28.86Q147.12 28.86 145.85 29.59Q144.58 30.32 144.29 31.63Q143.99 32.93 143.99 37.65L143.99 50.44L134.13 50.44L134.13 18.04L143.99 18.04Z"/></g></g></g></svg>