<svg xmlns="http://www.w3.org/2000/svg" viewBox="0 10.914209148895276 229 100.66828472579746" data-asc="1.0087890625" width="229" height="100.66828472579746"><defs/><g fill="#000000"><g transform="translate(0, 0)"><path d="M0 10.91L17.14 10.91L17.14 18.82L10.28 18.82L10.28 26.32L16.70 26.32L16.70 33.84L10.28 33.84L10.28 42.53L17.82 42.53L17.82 50.44L0 50.44L0 10.91ZM40.01 18.04L36.08 33.52L40.84 50.44L31.25 50.44Q29.83 44.04 29.10 39.43Q28.13 45.19 26.98 50.44L18.73 50.44L22.97 33.52L18.73 18.04L26.98 18.04Q28.96 27.95 29.10 29.30Q30.52 21.02 31.25 18.04L40.01 18.04ZM52.20 18.04L52.03 20.90Q53.34 19.17 54.93 18.31Q56.52 17.46 58.40 17.46Q60.69 17.46 62.37 18.69Q64.04 19.92 64.45 21.53Q64.87 23.14 64.87 27.00L64.87 40.65Q64.87 45.07 64.34 46.94Q63.82 48.80 62.19 49.91Q60.57 51.03 58.28 51.03Q56.45 51.03 54.88 50.17Q53.32 49.32 52.03 47.63L52.03 55.05L42.16 55.05L42.16 18.04L52.20 18.04M55.00 27.47Q55.00 24.46 54.79 23.83Q54.57 23.19 53.56 23.19Q52.59 23.19 52.31 23.93Q52.03 24.66 52.03 27.47L52.03 40.89Q52.03 43.82 52.32 44.56Q52.61 45.29 53.59 45.29Q54.54 45.29 54.77 44.62Q55.00 43.95 55.00 41.36L55.00 27.47ZM90.45 34.81L77.69 34.81L77.69 41.82Q77.69 44.02 78.00 44.65Q78.32 45.29 79.22 45.29Q80.35 45.29 80.73 44.45Q81.10 43.60 81.10 41.19L81.10 36.91L90.45 36.91L90.45 39.31Q90.45 42.31 90.08 43.92Q89.70 45.53 88.31 47.36Q86.91 49.19 84.78 50.11Q82.64 51.03 79.42 51.03Q76.29 51.03 73.90 50.12Q71.51 49.22 70.18 47.64Q68.85 46.07 68.33 44.18Q67.82 42.29 67.82 38.67L67.82 29.22Q67.82 24.98 68.97 22.52Q70.12 20.07 72.73 18.76Q75.34 17.46 78.74 17.46Q82.89 17.46 85.58 19.03Q88.28 20.61 89.37 23.21Q90.45 25.81 90.45 30.52L90.45 34.81M80.57 29.54L80.57 27.17Q80.57 24.66 80.30 23.93Q80.03 23.19 79.20 23.19Q78.17 23.19 77.93 23.82Q77.69 24.44 77.69 27.17L77.69 29.54L80.57 29.54ZM103.54 18.04L103.15 22.29Q105.30 17.72 109.38 17.46L109.38 28.86Q106.67 28.86 105.40 29.59Q104.13 30.32 103.83 31.63Q103.54 32.93 103.54 37.65L103.54 50.44L93.68 50.44L93.68 18.04L103.54 18.04ZM121.73 10.91L121.73 16.06L111.57 16.06L111.57 10.91L121.73 10.91M121.73 18.04L121.73 50.44L111.57 50.44L111.57 18.04L121.73 18.04ZM135.01 18.04L134.84 21.12Q135.99 19.29 137.57 18.37Q139.16 17.46 141.19 17.46Q145.14 17.46 147.41 21.12Q148.66 19.29 150.22 18.37Q151.78 17.46 153.69 17.46Q156.20 17.46 157.85 18.68Q159.50 19.90 159.96 21.67Q160.42 23.44 160.42 27.42L160.42 50.44L150.85 50.44L150.85 29.32Q150.85 25.17 150.57 24.18Q150.29 23.19 149.27 23.19Q148.22 23.19 147.91 24.17Q147.61 25.15 147.61 29.32L147.61 50.44L138.04 50.44L138.04 29.86Q138.04 25.10 137.81 24.15Q137.57 23.19 136.52 23.19Q135.86 23.19 135.40 23.69Q134.94 24.19 134.89 24.91Q134.84 25.63 134.84 27.98L134.84 50.44L125.27 50.44L125.27 18.04L135.01 18.04ZM186.16 34.81L173.39 34.81L173.39 41.82Q173.39 44.02 173.71 44.65Q174.02 45.29 174.93 45.29Q176.05 45.29 176.43 44.45Q176.81 43.60 176.81 41.19L176.81 36.91L186.16 36.91L186.16 39.31Q186.16 42.31 185.78 43.92Q185.40 45.53 184.01 47.36Q182.62 49.19 180.48 50.11Q178.34 51.03 175.12 51.03Q172.00 51.03 169.60 50.12Q167.21 49.22 165.88 47.64Q164.55 46.07 164.04 44.18Q163.53 42.29 163.53 38.67L163.53 29.22Q163.53 24.98 164.67 22.52Q165.82 20.07 168.43 18.76Q171.04 17.46 174.44 17.46Q178.59 17.46 181.29 19.03Q183.98 20.61 185.07 23.21Q186.16 25.81 186.16 30.52L186.16 34.81M176.27 29.54L176.27 27.17Q176.27 24.66 176.00 23.93Q175.73 23.19 174.90 23.19Q173.88 23.19 173.63 23.82Q173.39 24.44 173.39 27.17L173.39 29.54L176.27 29.54ZM199.41 18.04L199.24 21.02Q200.32 19.24 201.87 18.35Q203.42 17.46 205.44 17.46Q207.98 17.46 209.59 18.65Q211.21 19.85 211.67 21.67Q212.13 23.49 212.13 27.73L212.13 50.44L202.27 50.44L202.27 28.00Q202.27 24.66 202.05 23.93Q201.83 23.19 200.83 23.19Q199.78 23.19 199.51 24.04Q199.24 24.88 199.24 28.54L199.24 50.44L189.38 50.44L189.38 18.04L199.41 18.04ZM225.93 13.72L225.93 18.82L228.59 18.82L228.59 23.95L225.93 23.95L225.93 41.28Q225.93 44.48 226.26 44.85Q226.59 45.21 229.00 45.21L229.00 50.44L225.02 50.44Q221.66 50.44 220.21 50.16Q218.77 49.88 217.68 48.86Q216.58 47.85 216.31 46.55Q216.04 45.24 216.04 40.41L216.04 23.95L213.92 23.95L213.92 18.82L216.04 18.82L216.04 13.72L225.93 13.72Z"/></g><g transform="translate(0, 60.546875)"><path d="M0 10.91L7.28 10.91Q14.55 10.91 17.13 11.47Q19.70 12.04 21.33 14.34Q22.95 16.65 22.95 21.70Q22.95 26.32 21.80 27.91Q20.65 29.49 17.29 29.81Q20.34 30.57 21.39 31.84Q22.44 33.11 22.69 34.17Q22.95 35.23 22.95 40.01L22.95 50.44L13.40 50.44L13.40 37.30Q13.40 34.13 12.90 33.37Q12.40 32.62 10.28 32.62L10.28 50.44L0 50.44L0 10.91M10.28 17.68L10.28 26.46Q12.01 26.46 12.71 25.99Q13.40 25.51 13.40 22.90L13.40 20.73Q13.40 18.85 12.73 18.26Q12.06 17.68 10.28 17.68ZM49.22 18.04L49.22 50.44L39.18 50.44L39.36 47.75Q38.33 49.39 36.83 50.21Q35.33 51.03 33.37 51.03Q31.15 51.03 29.69 50.24Q28.22 49.46 27.53 48.17Q26.83 46.88 26.66 45.47Q26.49 44.07 26.49 39.89L26.49 18.04L36.35 18.04L36.35 40.09Q36.35 43.87 36.58 44.58Q36.82 45.29 37.84 45.29Q38.94 45.29 39.15 44.56Q39.36 43.82 39.36 39.84L39.36 18.04L49.22 18.04ZM62.79 18.04L62.62 21.02Q63.70 19.24 65.25 18.35Q66.80 17.46 68.82 17.46Q71.36 17.46 72.97 18.65Q74.58 19.85 75.05 21.67Q75.51 23.49 75.51 27.73L75.51 50.44L65.65 50.44L65.65 28.00Q65.65 24.66 65.43 23.93Q65.21 23.19 64.21 23.19Q63.16 23.19 62.89 24.04Q62.62 24.88 62.62 28.54L62.62 50.44L52.76 50.44L52.76 18.04L62.79 18.04ZM88.94 18.04L88.77 21.02Q89.84 19.24 91.39 18.35Q92.94 17.46 94.97 17.46Q97.51 17.46 99.12 18.65Q100.73 19.85 101.20 21.67Q101.66 23.49 101.66 27.73L101.66 50.44L91.80 50.44L91.80 28.00Q91.80 24.66 91.58 23.93Q91.36 23.19 90.36 23.19Q89.31 23.19 89.04 24.04Q88.77 24.88 88.77 28.54L88.77 50.44L78.91 50.44L78.91 18.04L88.94 18.04ZM127.39 34.81L114.62 34.81L114.62 41.82Q114.62 44.02 114.94 44.65Q115.26 45.29 116.16 45.29Q117.29 45.29 117.66 44.45Q118.04 43.60 118.04 41.19L118.04 36.91L127.39 36.91L127.39 39.31Q127.39 42.31 127.01 43.92Q126.64 45.53 125.24 47.36Q123.85 49.19 121.72 50.11Q119.58 51.03 116.36 51.03Q113.23 51.03 110.84 50.12Q108.45 49.22 107.12 47.64Q105.79 46.07 105.27 44.18Q104.76 42.29 104.76 38.67L104.76 29.22Q104.76 24.98 105.91 22.52Q107.06 20.07 109.67 18.76Q112.28 17.46 115.67 17.46Q119.82 17.46 122.52 19.03Q125.22 20.61 126.31 23.21Q127.39 25.81 127.39 30.52L127.39 34.81M117.50 29.54L117.50 27.17Q117.50 24.66 117.24 23.93Q116.97 23.19 116.14 23.19Q115.11 23.19 114.87 23.82Q114.62 24.44 114.62 27.17L114.62 29.54L117.50 29.54ZM140.48 18.04L140.09 22.29Q142.24 17.72 146.31 17.46L146.31 28.86Q143.60 28.86 142.33 29.59Q141.06 30.32 140.77 31.63Q140.48 32.93 140.48 37.65L140.48 50.44L130.62 50.44L130.62 18.04L140.48 18.04Z"/></g></g></svg>