<svg xmlns="http://www.w3.org/2000/svg" viewBox="0 10.076938964953166 225.10170872760162 162.28363135472287" data-asc="1.0087890625" width="225.10170872760162" height="162.28363135472287"><defs/><g><g><g transform="translate(0, 0)"><path d="M23.88 25.46L13.60 25.46L13.60 21.88Q13.60 18.48 13.31 17.63Q13.01 16.77 11.91 16.77Q10.96 16.77 10.62 17.50Q10.28 18.24 10.28 21.26L10.28 40.23Q10.28 42.90 10.62 43.74Q10.96 44.58 11.99 44.58Q13.11 44.58 13.51 43.63Q13.92 42.68 13.92 39.92L13.92 35.23L11.84 35.23L11.84 29.22L23.88 29.22L23.88 50.44L17.41 50.44L16.46 47.61Q15.41 49.44 13.81 50.35Q12.21 51.27 10.03 51.27Q7.45 51.27 5.19 50.01Q2.93 48.75 1.76 46.90Q0.59 45.04 0.29 43.01Q0 40.97 0 36.89L0 25.15Q0 19.48 0.61 16.92Q1.22 14.36 4.11 12.22Q7.01 10.08 11.60 10.08Q16.11 10.08 19.09 11.94Q22.07 13.79 22.97 16.35Q23.88 18.90 23.88 23.75L23.88 25.46ZM37.43 18.04L37.04 22.29Q39.18 17.72 43.26 17.46L43.26 28.86Q40.55 28.86 39.28 29.59Q38.01 30.32 37.72 31.63Q37.43 32.93 37.43 37.65L37.43 50.44L27.56 50.44L27.56 18.04L37.43 18.04ZM67.80 34.81L55.03 34.81L55.03 41.82Q55.03 44.02 55.35 44.65Q55.66 45.29 56.57 45.29Q57.69 45.29 58.07 44.45Q58.45 43.60 58.45 41.19L58.45 36.91L67.80 36.91L67.80 39.31Q67.80 42.31 67.42 43.92Q67.04 45.53 65.65 47.36Q64.26 49.19 62.12 50.11Q59.99 51.03 56.76 51.03Q53.64 51.03 51.25 50.12Q48.85 49.22 47.52 47.64Q46.19 46.07 45.68 44.18Q45.17 42.29 45.17 38.67L45.17 29.22Q45.17 24.98 46.31 22.52Q47.46 20.07 50.07 18.76Q52.69 17.46 56.08 17.46Q60.23 17.46 62.93 19.03Q65.63 20.61 66.71 23.21Q67.80 25.81 67.80 30.52L67.80 34.81M57.91 29.54L57.91 27.17Q57.91 24.66 57.64 23.93Q57.37 23.19 56.54 23.19Q55.52 23.19 55.27 23.82Q55.03 24.44 55.03 27.17L55.03 29.54L57.91 29.54ZM93.36 34.81L80.59 34.81L80.59 41.82Q80.59 44.02 80.91 44.65Q81.23 45.29 82.13 45.29Q83.25 45.29 83.63 44.45Q84.01 43.60 84.01 41.19L84.01 36.91L93.36 36.91L93.36 39.31Q93.36 42.31 92.98 43.92Q92.60 45.53 91.21 47.36Q89.82 49.19 87.68 50.11Q85.55 51.03 82.32 51.03Q79.20 51.03 76.81 50.12Q74.41 49.22 73.08 47.64Q71.75 46.07 71.24 44.18Q70.73 42.29 70.73 38.67L70.73 29.22Q70.73 24.98 71.88 22.52Q73.02 20.07 75.63 18.76Q78.25 17.46 81.64 17.46Q85.79 17.46 88.49 19.03Q91.19 20.61 92.27 23.21Q93.36 25.81 93.36 30.52L93.36 34.81M83.47 29.54L83.47 27.17Q83.47 24.66 83.20 23.93Q82.93 23.19 82.10 23.19Q81.08 23.19 80.83 23.82Q80.59 24.44 80.59 27.17L80.59 29.54L83.47 29.54ZM106.62 18.04L106.45 21.02Q107.52 19.24 109.07 18.35Q110.62 17.46 112.65 17.46Q115.19 17.46 116.80 18.65Q118.41 19.85 118.87 21.67Q119.34 23.49 119.34 27.73L119.34 50.44L109.47 50.44L109.47 28.00Q109.47 24.66 109.25 23.93Q109.03 23.19 108.03 23.19Q106.98 23.19 106.71 24.04Q106.45 24.88 106.45 28.54L106.45 50.44L96.58 50.44L96.58 18.04L106.62 18.04Z"/></g><g transform="translate(0, 60.546875)"><path d="M20.09 10.91L25.98 50.44L15.45 50.44L14.94 43.33L11.25 43.33L10.64 50.44L0 50.44L5.22 10.91L20.09 10.91M14.65 36.33Q13.87 29.61 13.09 19.75Q11.52 31.08 11.13 36.33L14.65 36.33ZM37.60 10.91L37.60 50.44L27.44 50.44L27.44 10.91L37.60 10.91ZM63.55 18.04L63.55 42.99Q63.55 48.05 63.32 49.52Q63.09 51.00 61.67 52.65Q60.25 54.30 57.73 55.16Q55.20 56.03 51.37 56.03Q46.66 56.03 43.80 54.43Q40.94 52.83 40.84 48.14L50.42 48.14Q50.42 50.29 51.98 50.29Q53.10 50.29 53.47 49.63Q53.83 48.97 53.83 46.88L53.83 44.43Q52.56 45.58 51.16 46.17Q49.76 46.75 48.22 46.75Q45.56 46.75 43.84 45.68Q42.11 44.60 41.48 42.86Q40.84 41.11 40.84 37.89L40.84 26.12Q40.84 21.51 42.50 19.48Q44.17 17.46 47.56 17.46Q49.41 17.46 50.94 18.21Q52.47 18.97 53.66 20.48L54.37 18.04L63.55 18.04M53.66 26.64Q53.66 24.41 53.41 23.80Q53.15 23.19 52.27 23.19Q51.42 23.19 51.06 23.89Q50.71 24.58 50.71 26.64L50.71 37.52Q50.71 39.70 50.98 40.34Q51.25 40.99 52.10 40.99Q53.08 40.99 53.37 40.21Q53.66 39.43 53.66 36.67L53.66 26.64ZM89.38 29.42L89.38 37.35Q89.38 41.72 88.94 43.76Q88.50 45.80 87.06 47.57Q85.62 49.34 83.36 50.18Q81.10 51.03 78.17 51.03Q74.90 51.03 72.63 50.31Q70.36 49.58 69.10 48.13Q67.85 46.68 67.31 44.62Q66.77 42.55 66.77 38.43L66.77 30.13Q66.77 25.61 67.75 23.07Q68.73 20.53 71.26 18.99Q73.80 17.46 77.76 17.46Q81.08 17.46 83.46 18.44Q85.84 19.43 87.13 21.02Q88.43 22.61 88.90 24.29Q89.38 25.98 89.38 29.42M79.52 26.98Q79.52 24.49 79.25 23.84Q78.98 23.19 78.10 23.19Q77.22 23.19 76.93 23.84Q76.64 24.49 76.64 26.98L76.64 41.60Q76.64 43.90 76.93 44.59Q77.22 45.29 78.08 45.29Q78.96 45.29 79.24 44.65Q79.52 44.02 79.52 41.92L79.52 26.98ZM102.49 18.04L102.10 22.29Q104.25 17.72 108.33 17.46L108.33 28.86Q105.62 28.86 104.35 29.59Q103.08 30.32 102.78 31.63Q102.49 32.93 102.49 37.65L102.49 50.44L92.63 50.44L92.63 18.04L102.49 18.04ZM120.68 10.91L120.68 16.06L110.52 16.06L110.52 10.91L120.68 10.91M120.68 18.04L120.68 50.44L110.52 50.44L110.52 18.04L120.68 18.04ZM134.62 13.72L134.62 18.82L137.28 18.82L137.28 23.95L134.62 23.95L134.62 41.28Q134.62 44.48 134.95 44.85Q135.28 45.21 137.70 45.21L137.70 50.44L133.72 50.44Q130.35 50.44 128.91 50.16Q127.47 49.88 126.37 48.86Q125.27 47.85 125 46.55Q124.73 45.24 124.73 40.41L124.73 23.95L122.61 23.95L122.61 18.82L124.73 18.82L124.73 13.72L134.62 13.72ZM149.32 10.91L149.32 19.80Q150.59 18.63 152.06 18.04Q153.54 17.46 155.22 17.46Q157.81 17.46 159.63 18.77Q161.45 20.09 161.85 21.81Q162.26 23.54 162.26 28.10L162.26 50.44L152.39 50.44L152.39 27.64Q152.39 24.80 152.11 24.00Q151.83 23.19 150.85 23.19Q149.95 23.19 149.63 24.02Q149.32 24.85 149.32 27.32L149.32 50.44L139.45 50.44L139.45 10.91L149.32 10.91ZM175.39 18.04L175.22 21.12Q176.37 19.29 177.95 18.37Q179.54 17.46 181.57 17.46Q185.52 17.46 187.79 21.12Q189.04 19.29 190.60 18.37Q192.16 17.46 194.07 17.46Q196.58 17.46 198.23 18.68Q199.88 19.90 200.34 21.67Q200.81 23.44 200.81 27.42L200.81 50.44L191.24 50.44L191.24 29.32Q191.24 25.17 190.95 24.18Q190.67 23.19 189.65 23.19Q188.60 23.19 188.29 24.17Q187.99 25.15 187.99 29.32L187.99 50.44L178.42 50.44L178.42 29.86Q178.42 25.10 178.19 24.15Q177.95 23.19 176.90 23.19Q176.25 23.19 175.78 23.69Q175.32 24.19 175.27 24.91Q175.22 25.63 175.22 27.98L175.22 50.44L165.65 50.44L165.65 18.04L175.39 18.04ZM224.34 28.39L215.60 28.39L215.60 26.64Q215.60 24.39 215.34 23.79Q215.09 23.19 214.06 23.19Q213.23 23.19 212.82 23.74Q212.40 24.29 212.40 25.39Q212.40 26.88 212.61 27.58Q212.82 28.27 213.85 29.10Q214.89 29.93 218.12 31.52Q222.41 33.62 223.75 35.47Q225.10 37.33 225.10 40.87Q225.10 44.82 224.07 46.84Q223.05 48.85 220.64 49.94Q218.24 51.03 214.84 51.03Q211.08 51.03 208.41 49.85Q205.74 48.68 204.74 46.68Q203.74 44.68 203.74 40.63L203.74 39.06L212.48 39.06L212.48 41.11Q212.48 43.73 212.81 44.51Q213.13 45.29 214.11 45.29Q215.16 45.29 215.58 44.76Q215.99 44.24 215.99 42.55Q215.99 40.23 215.45 39.65Q214.89 39.06 209.72 36.18Q205.37 33.74 204.42 31.75Q203.47 29.76 203.47 27.03Q203.47 23.14 204.49 21.30Q205.52 19.46 207.97 18.46Q210.42 17.46 213.67 17.46Q216.89 17.46 219.15 18.27Q221.41 19.09 222.62 20.43Q223.83 21.78 224.08 22.92Q224.34 24.07 224.34 26.51L224.34 28.39Z"/></g><g transform="translate(0, 121.09375)"><path d="M24.29 28.15L14.01 28.15L14.01 21.26Q14.01 18.26 13.68 17.52Q13.35 16.77 12.23 16.77Q10.96 16.77 10.62 17.68Q10.28 18.58 10.28 21.58L10.28 39.94Q10.28 42.82 10.62 43.70Q10.96 44.58 12.16 44.58Q13.31 44.58 13.66 43.70Q14.01 42.82 14.01 39.58L14.01 34.62L24.29 34.62L24.29 36.16Q24.29 42.29 23.43 44.85Q22.56 47.41 19.59 49.34Q16.63 51.27 12.28 51.27Q7.76 51.27 4.83 49.63Q1.90 48.00 0.95 45.10Q0 42.21 0 36.40L0 24.85Q0 20.58 0.29 18.44Q0.59 16.31 2.04 14.33Q3.49 12.35 6.07 11.22Q8.64 10.08 11.99 10.08Q16.53 10.08 19.48 11.84Q22.44 13.60 23.36 16.22Q24.29 18.85 24.29 24.39L24.29 28.15ZM36.50 30.59L27.25 30.59L27.25 28.42Q27.25 24.66 28.11 22.62Q28.98 20.58 31.59 19.02Q34.20 17.46 38.38 17.46Q43.38 17.46 45.92 19.23Q48.46 21.00 48.97 23.57Q49.49 26.15 49.49 34.18L49.49 50.44L39.89 50.44L39.89 47.56Q38.99 49.29 37.56 50.16Q36.13 51.03 34.16 51.03Q31.57 51.03 29.41 49.57Q27.25 48.12 27.25 43.21L27.25 40.55Q27.25 36.91 28.39 35.60Q29.54 34.28 34.08 32.52Q38.94 30.62 39.28 29.96Q39.62 29.30 39.62 27.27Q39.62 24.73 39.25 23.96Q38.87 23.19 37.99 23.19Q36.99 23.19 36.74 23.84Q36.50 24.49 36.50 27.20L36.50 30.59M39.62 35.03Q37.26 36.77 36.88 37.94Q36.50 39.11 36.50 41.31Q36.50 43.82 36.83 44.56Q37.16 45.29 38.13 45.29Q39.06 45.29 39.34 44.71Q39.62 44.14 39.62 41.70L39.62 35.03ZM63.04 10.91L63.04 50.44L52.88 50.44L52.88 10.91L63.04 10.91ZM88.38 30.27L79.08 30.27L79.08 26.54Q79.08 24.58 78.76 23.89Q78.44 23.19 77.59 23.19Q76.73 23.19 76.44 23.80Q76.15 24.41 76.15 26.54L76.15 41.82Q76.15 43.55 76.59 44.42Q77.03 45.29 77.88 45.29Q78.88 45.29 79.24 44.38Q79.59 43.48 79.59 40.97L79.59 37.11L88.38 37.11Q88.35 40.99 88.10 42.93Q87.84 44.87 86.46 46.91Q85.08 48.95 82.86 49.99Q80.64 51.03 77.37 51.03Q73.19 51.03 70.75 49.60Q68.31 48.17 67.30 45.59Q66.28 43.02 66.28 38.28L66.28 29.08Q66.28 24.95 67.11 22.85Q67.94 20.75 70.65 19.10Q73.36 17.46 77.25 17.46Q81.10 17.46 83.84 19.09Q86.57 20.73 87.48 23.22Q88.38 25.71 88.38 30.27ZM113.89 18.04L113.89 50.44L103.86 50.44L104.03 47.75Q103.00 49.39 101.50 50.21Q100 51.03 98.05 51.03Q95.83 51.03 94.36 50.24Q92.90 49.46 92.20 48.17Q91.50 46.88 91.33 45.47Q91.16 44.07 91.16 39.89L91.16 18.04L101.03 18.04L101.03 40.09Q101.03 43.87 101.26 44.58Q101.49 45.29 102.51 45.29Q103.61 45.29 103.82 44.56Q104.03 43.82 104.03 39.84L104.03 18.04L113.89 18.04ZM127.59 10.91L127.59 50.44L117.43 50.44L117.43 10.91L127.59 10.91ZM139.94 30.59L130.69 30.59L130.69 28.42Q130.69 24.66 131.56 22.62Q132.42 20.58 135.03 19.02Q137.65 17.46 141.82 17.46Q146.83 17.46 149.37 19.23Q151.90 21.00 152.42 23.57Q152.93 26.15 152.93 34.18L152.93 50.44L143.33 50.44L143.33 47.56Q142.43 49.29 141.00 50.16Q139.58 51.03 137.60 51.03Q135.01 51.03 132.85 49.57Q130.69 48.12 130.69 43.21L130.69 40.55Q130.69 36.91 131.84 35.60Q132.98 34.28 137.52 32.52Q142.38 30.62 142.72 29.96Q143.07 29.30 143.07 27.27Q143.07 24.73 142.69 23.96Q142.31 23.19 141.43 23.19Q140.43 23.19 140.19 23.84Q139.94 24.49 139.94 27.20L139.94 30.59M143.07 35.03Q140.70 36.77 140.32 37.94Q139.94 39.11 139.94 41.31Q139.94 43.82 140.27 44.56Q140.60 45.29 141.58 45.29Q142.50 45.29 142.79 44.71Q143.07 44.14 143.07 41.70L143.07 35.03ZM166.72 13.72L166.72 18.82L169.38 18.82L169.38 23.95L166.72 23.95L166.72 41.28Q166.72 44.48 167.05 44.85Q167.38 45.21 169.80 45.21L169.80 50.44L165.82 50.44Q162.45 50.44 161.01 50.16Q159.57 49.88 158.47 48.86Q157.37 47.85 157.10 46.55Q156.84 45.24 156.84 40.41L156.84 23.95L154.71 23.95L154.71 18.82L156.84 18.82L156.84 13.72L166.72 13.72ZM193.87 29.42L193.87 37.35Q193.87 41.72 193.43 43.76Q192.99 45.80 191.55 47.57Q190.11 49.34 187.85 50.18Q185.60 51.03 182.67 51.03Q179.39 51.03 177.12 50.31Q174.85 49.58 173.60 48.13Q172.34 46.68 171.80 44.62Q171.26 42.55 171.26 38.43L171.26 30.13Q171.26 25.61 172.24 23.07Q173.22 20.53 175.76 18.99Q178.30 17.46 182.25 17.46Q185.57 17.46 187.95 18.44Q190.33 19.43 191.63 21.02Q192.92 22.61 193.40 24.29Q193.87 25.98 193.87 29.42M184.01 26.98Q184.01 24.49 183.74 23.84Q183.47 23.19 182.59 23.19Q181.71 23.19 181.42 23.84Q181.13 24.49 181.13 26.98L181.13 41.60Q181.13 43.90 181.42 44.59Q181.71 45.29 182.57 45.29Q183.45 45.29 183.73 44.65Q184.01 44.02 184.01 41.92L184.01 26.98ZM206.98 18.04L206.59 22.29Q208.74 17.72 212.82 17.46L212.82 28.86Q210.11 28.86 208.84 29.59Q207.57 30.32 207.28 31.63Q206.98 32.93 206.98 37.65L206.98 50.44L197.12 50.44L197.12 18.04L206.98 18.04Z"/></g></g></g></svg>