<svg xmlns="http://www.w3.org/2000/svg" viewBox="0 10.90540595047651 271.0719064125388 161.45162696365102" data-asc="1.0087890625" width="271.0719064125388" height="161.45162696365102"><defs/><g fill="#000000"><g transform="translate(0, 0)"><path d="M23.63 10.91L23.63 50.44L13.35 50.44L13.35 33.84L10.28 33.84L10.28 50.44L0 50.44L0 10.91L10.28 10.91L10.28 25.05L13.35 25.05L13.35 10.91L23.63 10.91ZM36.28 30.59L27.03 30.59L27.03 28.42Q27.03 24.66 27.89 22.62Q28.76 20.58 31.37 19.02Q33.98 17.46 38.16 17.46Q43.16 17.46 45.70 19.23Q48.24 21.00 48.75 23.57Q49.27 26.15 49.27 34.18L49.27 50.44L39.67 50.44L39.67 47.56Q38.77 49.29 37.34 50.16Q35.91 51.03 33.94 51.03Q31.35 51.03 29.19 49.57Q27.03 48.12 27.03 43.21L27.03 40.55Q27.03 36.91 28.17 35.60Q29.32 34.28 33.86 32.52Q38.72 30.62 39.06 29.96Q39.40 29.30 39.40 27.27Q39.40 24.73 39.03 23.96Q38.65 23.19 37.77 23.19Q36.77 23.19 36.52 23.84Q36.28 24.49 36.28 27.20L36.28 30.59M39.40 35.03Q37.04 36.77 36.66 37.94Q36.28 39.11 36.28 41.31Q36.28 43.82 36.61 44.56Q36.94 45.29 37.92 45.29Q38.84 45.29 39.12 44.71Q39.40 44.14 39.40 41.70L39.40 35.03ZM62.52 18.04L62.13 22.29Q64.28 17.72 68.36 17.46L68.36 28.86Q65.65 28.86 64.38 29.59Q63.11 30.32 62.82 31.63Q62.52 32.93 62.52 37.65L62.52 50.44L52.66 50.44L52.66 18.04L62.52 18.04ZM92.99 10.91L92.99 50.44L83.13 50.44L83.13 48.10Q81.71 49.56 80.15 50.29Q78.59 51.03 76.88 51.03Q74.58 51.03 72.90 49.82Q71.22 48.61 70.74 47.02Q70.26 45.43 70.26 41.85L70.26 26.68Q70.26 22.95 70.74 21.39Q71.22 19.82 72.92 18.64Q74.63 17.46 77.00 17.46Q78.83 17.46 80.36 18.12Q81.88 18.77 83.13 20.09L83.13 10.91L92.99 10.91M83.13 26.20Q83.13 24.41 82.82 23.80Q82.52 23.19 81.62 23.19Q80.74 23.19 80.43 23.74Q80.13 24.29 80.13 26.20L80.13 42.07Q80.13 44.04 80.42 44.67Q80.71 45.29 81.54 45.29Q82.50 45.29 82.81 44.59Q83.13 43.90 83.13 41.19L83.13 26.20ZM128.39 18.04L124.46 50.44L113.75 50.44Q112.87 44.51 111.72 34.81Q111.33 39.06 110.62 43.41L109.52 50.44L98.80 50.44L94.63 18.04L103.13 18.04Q103.22 19.31 105.27 36.57Q105.42 34.81 107.47 18.04L115.65 18.04L117.65 36.57Q118.12 28.47 119.90 18.04L128.39 18.04ZM138.82 30.59L129.57 30.59L129.57 28.42Q129.57 24.66 130.43 22.62Q131.30 20.58 133.91 19.02Q136.52 17.46 140.70 17.46Q145.70 17.46 148.24 19.23Q150.78 21.00 151.29 23.57Q151.81 26.15 151.81 34.18L151.81 50.44L142.21 50.44L142.21 47.56Q141.31 49.29 139.88 50.16Q138.45 51.03 136.47 51.03Q133.89 51.03 131.73 49.57Q129.57 48.12 129.57 43.21L129.57 40.55Q129.57 36.91 130.71 35.60Q131.86 34.28 136.40 32.52Q141.26 30.62 141.60 29.96Q141.94 29.30 141.94 27.27Q141.94 24.73 141.56 23.96Q141.19 23.19 140.31 23.19Q139.31 23.19 139.06 23.84Q138.82 24.49 138.82 27.20L138.82 30.59M141.94 35.03Q139.58 36.77 139.20 37.94Q138.82 39.11 138.82 41.31Q138.82 43.82 139.15 44.56Q139.48 45.29 140.45 45.29Q141.38 45.29 141.66 44.71Q141.94 44.14 141.94 41.70L141.94 35.03ZM165.06 18.04L164.67 22.29Q166.82 17.72 170.90 17.46L170.90 28.86Q168.19 28.86 166.92 29.59Q165.65 30.32 165.36 31.63Q165.06 32.93 165.06 37.65L165.06 50.44L155.20 50.44L155.20 18.04L165.06 18.04ZM195.43 34.81L182.67 34.81L182.67 41.82Q182.67 44.02 182.98 44.65Q183.30 45.29 184.20 45.29Q185.33 45.29 185.71 44.45Q186.08 43.60 186.08 41.19L186.08 36.91L195.43 36.91L195.43 39.31Q195.43 42.31 195.06 43.92Q194.68 45.53 193.29 47.36Q191.89 49.19 189.76 50.11Q187.62 51.03 184.40 51.03Q181.27 51.03 178.88 50.12Q176.49 49.22 175.16 47.64Q173.83 46.07 173.32 44.18Q172.80 42.29 172.80 38.67L172.80 29.22Q172.80 24.98 173.95 22.52Q175.10 20.07 177.71 18.76Q180.32 17.46 183.72 17.46Q187.87 17.46 190.56 19.03Q193.26 20.61 194.35 23.21Q195.43 25.81 195.43 30.52L195.43 34.81M185.55 29.54L185.55 27.17Q185.55 24.66 185.28 23.93Q185.01 23.19 184.18 23.19Q183.15 23.19 182.91 23.82Q182.67 24.44 182.67 27.17L182.67 29.54L185.55 29.54Z"/></g><g transform="translate(0, 60.546875)"><path d="M0 10.91L7.28 10.91Q14.55 10.91 17.13 11.47Q19.70 12.04 21.33 14.34Q22.95 16.65 22.95 21.70Q22.95 26.32 21.80 27.91Q20.65 29.49 17.29 29.81Q20.34 30.57 21.39 31.84Q22.44 33.11 22.69 34.17Q22.95 35.23 22.95 40.01L22.95 50.44L13.40 50.44L13.40 37.30Q13.40 34.13 12.90 33.37Q12.40 32.62 10.28 32.62L10.28 50.44L0 50.44L0 10.91M10.28 17.68L10.28 26.46Q12.01 26.46 12.71 25.99Q13.40 25.51 13.40 22.90L13.40 20.73Q13.40 18.85 12.73 18.26Q12.06 17.68 10.28 17.68ZM48.97 34.81L36.21 34.81L36.21 41.82Q36.21 44.02 36.52 44.65Q36.84 45.29 37.74 45.29Q38.87 45.29 39.25 44.45Q39.62 43.60 39.62 41.19L39.62 36.91L48.97 36.91L48.97 39.31Q48.97 42.31 48.60 43.92Q48.22 45.53 46.83 47.36Q45.43 49.19 43.30 50.11Q41.16 51.03 37.94 51.03Q34.81 51.03 32.42 50.12Q30.03 49.22 28.70 47.64Q27.37 46.07 26.86 44.18Q26.34 42.29 26.34 38.67L26.34 29.22Q26.34 24.98 27.49 22.52Q28.64 20.07 31.25 18.76Q33.86 17.46 37.26 17.46Q41.41 17.46 44.10 19.03Q46.80 20.61 47.89 23.21Q48.97 25.81 48.97 30.52L48.97 34.81M39.09 29.54L39.09 27.17Q39.09 24.66 38.82 23.93Q38.55 23.19 37.72 23.19Q36.69 23.19 36.45 23.82Q36.21 24.44 36.21 27.17L36.21 29.54L39.09 29.54ZM62.23 18.04L62.06 20.90Q63.38 19.17 64.97 18.31Q66.55 17.46 68.43 17.46Q70.73 17.46 72.40 18.69Q74.07 19.92 74.49 21.53Q74.90 23.14 74.90 27.00L74.90 40.65Q74.90 45.07 74.38 46.94Q73.85 48.80 72.23 49.91Q70.61 51.03 68.31 51.03Q66.48 51.03 64.92 50.17Q63.35 49.32 62.06 47.63L62.06 55.05L52.20 55.05L52.20 18.04L62.23 18.04M65.04 27.47Q65.04 24.46 64.82 23.83Q64.60 23.19 63.60 23.19Q62.62 23.19 62.34 23.93Q62.06 24.66 62.06 27.47L62.06 40.89Q62.06 43.82 62.35 44.56Q62.65 45.29 63.62 45.29Q64.58 45.29 64.81 44.62Q65.04 43.95 65.04 41.36L65.04 27.47ZM88.31 10.91L88.31 50.44L78.15 50.44L78.15 10.91L88.31 10.91ZM100.66 30.59L91.41 30.59L91.41 28.42Q91.41 24.66 92.27 22.62Q93.14 20.58 95.75 19.02Q98.36 17.46 102.54 17.46Q107.54 17.46 110.08 19.23Q112.62 21.00 113.13 23.57Q113.65 26.15 113.65 34.18L113.65 50.44L104.05 50.44L104.05 47.56Q103.15 49.29 101.72 50.16Q100.29 51.03 98.32 51.03Q95.73 51.03 93.57 49.57Q91.41 48.12 91.41 43.21L91.41 40.55Q91.41 36.91 92.55 35.60Q93.70 34.28 98.24 32.52Q103.10 30.62 103.44 29.96Q103.78 29.30 103.78 27.27Q103.78 24.73 103.41 23.96Q103.03 23.19 102.15 23.19Q101.15 23.19 100.90 23.84Q100.66 24.49 100.66 27.20L100.66 30.59M103.78 35.03Q101.42 36.77 101.04 37.94Q100.66 39.11 100.66 41.31Q100.66 43.82 100.99 44.56Q101.32 45.29 102.29 45.29Q103.22 45.29 103.50 44.71Q103.78 44.14 103.78 41.70L103.78 35.03ZM138.84 30.27L129.54 30.27L129.54 26.54Q129.54 24.58 129.22 23.89Q128.91 23.19 128.05 23.19Q127.20 23.19 126.90 23.80Q126.61 24.41 126.61 26.54L126.61 41.82Q126.61 43.55 127.05 44.42Q127.49 45.29 128.34 45.29Q129.35 45.29 129.70 44.38Q130.05 43.48 130.05 40.97L130.05 37.11L138.84 37.11Q138.82 40.99 138.56 42.93Q138.31 44.87 136.93 46.91Q135.55 48.95 133.33 49.99Q131.10 51.03 127.83 51.03Q123.66 51.03 121.22 49.60Q118.77 48.17 117.76 45.59Q116.75 43.02 116.75 38.28L116.75 29.08Q116.75 24.95 117.58 22.85Q118.41 20.75 121.12 19.10Q123.83 17.46 127.71 17.46Q131.57 17.46 134.30 19.09Q137.04 20.73 137.94 23.22Q138.84 25.71 138.84 30.27ZM164.11 34.81L151.34 34.81L151.34 41.82Q151.34 44.02 151.66 44.65Q151.98 45.29 152.88 45.29Q154.00 45.29 154.38 44.45Q154.76 43.60 154.76 41.19L154.76 36.91L164.11 36.91L164.11 39.31Q164.11 42.31 163.73 43.92Q163.35 45.53 161.96 47.36Q160.57 49.19 158.44 50.11Q156.30 51.03 153.08 51.03Q149.95 51.03 147.56 50.12Q145.17 49.22 143.84 47.64Q142.50 46.07 141.99 44.18Q141.48 42.29 141.48 38.67L141.48 29.22Q141.48 24.98 142.63 22.52Q143.77 20.07 146.39 18.76Q149.00 17.46 152.39 17.46Q156.54 17.46 159.24 19.03Q161.94 20.61 163.02 23.21Q164.11 25.81 164.11 30.52L164.11 34.81M154.22 29.54L154.22 27.17Q154.22 24.66 153.96 23.93Q153.69 23.19 152.86 23.19Q151.83 23.19 151.59 23.82Q151.34 24.44 151.34 27.17L151.34 29.54L154.22 29.54ZM177.08 18.04L176.90 21.12Q178.05 19.29 179.64 18.37Q181.23 17.46 183.25 17.46Q187.21 17.46 189.48 21.12Q190.72 19.29 192.29 18.37Q193.85 17.46 195.75 17.46Q198.27 17.46 199.91 18.68Q201.56 19.90 202.03 21.67Q202.49 23.44 202.49 27.42L202.49 50.44L192.92 50.44L192.92 29.32Q192.92 25.17 192.64 24.18Q192.36 23.19 191.33 23.19Q190.28 23.19 189.98 24.17Q189.67 25.15 189.67 29.32L189.67 50.44L180.10 50.44L180.10 29.86Q180.10 25.10 179.87 24.15Q179.64 23.19 178.59 23.19Q177.93 23.19 177.47 23.69Q177.00 24.19 176.95 24.91Q176.90 25.63 176.90 27.98L176.90 50.44L167.33 50.44L167.33 18.04L177.08 18.04ZM228.22 34.81L215.45 34.81L215.45 41.82Q215.45 44.02 215.77 44.65Q216.09 45.29 216.99 45.29Q218.12 45.29 218.49 44.45Q218.87 43.60 218.87 41.19L218.87 36.91L228.22 36.91L228.22 39.31Q228.22 42.31 227.84 43.92Q227.47 45.53 226.07 47.36Q224.68 49.19 222.55 50.11Q220.41 51.03 217.19 51.03Q214.06 51.03 211.67 50.12Q209.28 49.22 207.95 47.64Q206.62 46.07 206.10 44.18Q205.59 42.29 205.59 38.67L205.59 29.22Q205.59 24.98 206.74 22.52Q207.89 20.07 210.50 18.76Q213.11 17.46 216.50 17.46Q220.65 17.46 223.35 19.03Q226.05 20.61 227.14 23.21Q228.22 25.81 228.22 30.52L228.22 34.81M218.33 29.54L218.33 27.17Q218.33 24.66 218.07 23.93Q217.80 23.19 216.97 23.19Q215.94 23.19 215.70 23.82Q215.45 24.44 215.45 27.17L215.45 29.54L218.33 29.54ZM241.48 18.04L241.31 21.02Q242.38 19.24 243.93 18.35Q245.48 17.46 247.51 17.46Q250.05 17.46 251.66 18.65Q253.27 19.85 253.74 21.67Q254.20 23.49 254.20 27.73L254.20 50.44L244.34 50.44L244.34 28.00Q244.34 24.66 244.12 23.93Q243.90 23.19 242.90 23.19Q241.85 23.19 241.58 24.04Q241.31 24.88 241.31 28.54L241.31 50.44L231.45 50.44L231.45 18.04L241.48 18.04ZM267.99 13.72L267.99 18.82L270.65 18.82L270.65 23.95L267.99 23.95L267.99 41.28Q267.99 44.48 268.32 44.85Q268.65 45.21 271.07 45.21L271.07 50.44L267.09 50.44Q263.72 50.44 262.28 50.16Q260.84 49.88 259.74 48.86Q258.64 47.85 258.37 46.55Q258.11 45.24 258.11 40.41L258.11 23.95L255.98 23.95L255.98 18.82L258.11 18.82L258.11 13.72L267.99 13.72Z"/></g><g transform="translate(0, 121.09375)"><path d="M24.29 28.15L14.01 28.15L14.01 21.26Q14.01 18.26 13.68 17.52Q13.35 16.77 12.23 16.77Q10.96 16.77 10.62 17.68Q10.28 18.58 10.28 21.58L10.28 39.94Q10.28 42.82 10.62 43.70Q10.96 44.58 12.16 44.58Q13.31 44.58 13.66 43.70Q14.01 42.82 14.01 39.58L14.01 34.62L24.29 34.62L24.29 36.16Q24.29 42.29 23.43 44.85Q22.56 47.41 19.59 49.34Q16.63 51.27 12.28 51.27Q7.76 51.27 4.83 49.63Q1.90 48.00 0.95 45.10Q0 42.21 0 36.40L0 24.85Q0 20.58 0.29 18.44Q0.59 16.31 2.04 14.33Q3.49 12.35 6.07 11.22Q8.64 10.08 11.99 10.08Q16.53 10.08 19.48 11.84Q22.44 13.60 23.36 16.22Q24.29 18.85 24.29 24.39L24.29 28.15ZM36.50 30.59L27.25 30.59L27.25 28.42Q27.25 24.66 28.11 22.62Q28.98 20.58 31.59 19.02Q34.20 17.46 38.38 17.46Q43.38 17.46 45.92 19.23Q48.46 21.00 48.97 23.57Q49.49 26.15 49.49 34.18L49.49 50.44L39.89 50.44L39.89 47.56Q38.99 49.29 37.56 50.16Q36.13 51.03 34.16 51.03Q31.57 51.03 29.41 49.57Q27.25 48.12 27.25 43.21L27.25 40.55Q27.25 36.91 28.39 35.60Q29.54 34.28 34.08 32.52Q38.94 30.62 39.28 29.96Q39.62 29.30 39.62 27.27Q39.62 24.73 39.25 23.96Q38.87 23.19 37.99 23.19Q36.99 23.19 36.74 23.84Q36.50 24.49 36.50 27.20L36.50 30.59M39.62 35.03Q37.26 36.77 36.88 37.94Q36.50 39.11 36.50 41.31Q36.50 43.82 36.83 44.56Q37.16 45.29 38.13 45.29Q39.06 45.29 39.34 44.71Q39.62 44.14 39.62 41.70L39.62 35.03ZM63.04 10.91L63.04 50.44L52.88 50.44L52.88 10.91L63.04 10.91ZM88.38 30.27L79.08 30.27L79.08 26.54Q79.08 24.58 78.76 23.89Q78.44 23.19 77.59 23.19Q76.73 23.19 76.44 23.80Q76.15 24.41 76.15 26.54L76.15 41.82Q76.15 43.55 76.59 44.42Q77.03 45.29 77.88 45.29Q78.88 45.29 79.24 44.38Q79.59 43.48 79.59 40.97L79.59 37.11L88.38 37.11Q88.35 40.99 88.10 42.93Q87.84 44.87 86.46 46.91Q85.08 48.95 82.86 49.99Q80.64 51.03 77.37 51.03Q73.19 51.03 70.75 49.60Q68.31 48.17 67.30 45.59Q66.28 43.02 66.28 38.28L66.28 29.08Q66.28 24.95 67.11 22.85Q67.94 20.75 70.65 19.10Q73.36 17.46 77.25 17.46Q81.10 17.46 83.84 19.09Q86.57 20.73 87.48 23.22Q88.38 25.71 88.38 30.27ZM113.89 18.04L113.89 50.44L103.86 50.44L104.03 47.75Q103.00 49.39 101.50 50.21Q100 51.03 98.05 51.03Q95.83 51.03 94.36 50.24Q92.90 49.46 92.20 48.17Q91.50 46.88 91.33 45.47Q91.16 44.07 91.16 39.89L91.16 18.04L101.03 18.04L101.03 40.09Q101.03 43.87 101.26 44.58Q101.49 45.29 102.51 45.29Q103.61 45.29 103.82 44.56Q104.03 43.82 104.03 39.84L104.03 18.04L113.89 18.04ZM127.59 10.91L127.59 50.44L117.43 50.44L117.43 10.91L127.59 10.91ZM139.94 30.59L130.69 30.59L130.69 28.42Q130.69 24.66 131.56 22.62Q132.42 20.58 135.03 19.02Q137.65 17.46 141.82 17.46Q146.83 17.46 149.37 19.23Q151.90 21.00 152.42 23.57Q152.93 26.15 152.93 34.18L152.93 50.44L143.33 50.44L143.33 47.56Q142.43 49.29 141.00 50.16Q139.58 51.03 137.60 51.03Q135.01 51.03 132.85 49.57Q130.69 48.12 130.69 43.21L130.69 40.55Q130.69 36.91 131.84 35.60Q132.98 34.28 137.52 32.52Q142.38 30.62 142.72 29.96Q143.07 29.30 143.07 27.27Q143.07 24.73 142.69 23.96Q142.31 23.19 141.43 23.19Q140.43 23.19 140.19 23.84Q139.94 24.49 139.94 27.20L139.94 30.59M143.07 35.03Q140.70 36.77 140.32 37.94Q139.94 39.11 139.94 41.31Q139.94 43.82 140.27 44.56Q140.60 45.29 141.58 45.29Q142.50 45.29 142.79 44.71Q143.07 44.14 143.07 41.70L143.07 35.03ZM166.72 13.72L166.72 18.82L169.38 18.82L169.38 23.95L166.72 23.95L166.72 41.28Q166.72 44.48 167.05 44.85Q167.38 45.21 169.80 45.21L169.80 50.44L165.82 50.44Q162.45 50.44 161.01 50.16Q159.57 49.88 158.47 48.86Q157.37 47.85 157.10 46.55Q156.84 45.24 156.84 40.41L156.84 23.95L154.71 23.95L154.71 18.82L156.84 18.82L156.84 13.72L166.72 13.72ZM193.87 29.42L193.87 37.35Q193.87 41.72 193.43 43.76Q192.99 45.80 191.55 47.57Q190.11 49.34 187.85 50.18Q185.60 51.03 182.67 51.03Q179.39 51.03 177.12 50.31Q174.85 49.58 173.60 48.13Q172.34 46.68 171.80 44.62Q171.26 42.55 171.26 38.43L171.26 30.13Q171.26 25.61 172.24 23.07Q173.22 20.53 175.76 18.99Q178.30 17.46 182.25 17.46Q185.57 17.46 187.95 18.44Q190.33 19.43 191.63 21.02Q192.92 22.61 193.40 24.29Q193.87 25.98 193.87 29.42M184.01 26.98Q184.01 24.49 183.74 23.84Q183.47 23.19 182.59 23.19Q181.71 23.19 181.42 23.84Q181.13 24.49 181.13 26.98L181.13 41.60Q181.13 43.90 181.42 44.59Q181.71 45.29 182.57 45.29Q183.45 45.29 183.73 44.65Q184.01 44.02 184.01 41.92L184.01 26.98ZM206.98 18.04L206.59 22.29Q208.74 17.72 212.82 17.46L212.82 28.86Q210.11 28.86 208.84 29.59Q207.57 30.32 207.28 31.63Q206.98 32.93 206.98 37.65L206.98 50.44L197.12 50.44L197.12 18.04L206.98 18.04Z"/></g></g></svg>