<svg xmlns="http://www.w3.org/2000/svg" viewBox="0 10.91390048827019 260.160456439684 44.14059923684355" data-asc="1.0087890625" width="260.160456439684" height="44.14059923684355"><defs/><g fill="#000000"><g transform="translate(0, 0)"><path d="M10.03 18.04L9.86 20.90Q11.18 19.17 12.77 18.31Q14.36 17.46 16.24 17.46Q18.53 17.46 20.20 18.69Q21.88 19.92 22.29 21.53Q22.71 23.14 22.71 27.00L22.71 40.65Q22.71 45.07 22.18 46.94Q21.66 48.80 20.03 49.91Q18.41 51.03 16.11 51.03Q14.28 51.03 12.72 50.17Q11.16 49.32 9.86 47.63L9.86 55.05L0 55.05L0 18.04L10.03 18.04M12.84 27.47Q12.84 24.46 12.62 23.83Q12.40 23.19 11.40 23.19Q10.42 23.19 10.14 23.93Q9.86 24.66 9.86 27.47L9.86 40.89Q9.86 43.82 10.16 44.56Q10.45 45.29 11.43 45.29Q12.38 45.29 12.61 44.62Q12.84 43.95 12.84 41.36L12.84 27.47ZM48.27 29.42L48.27 37.35Q48.27 41.72 47.83 43.76Q47.39 45.80 45.95 47.57Q44.51 49.34 42.25 50.18Q39.99 51.03 37.06 51.03Q33.79 51.03 31.52 50.31Q29.25 49.58 27.99 48.13Q26.73 46.68 26.20 44.62Q25.66 42.55 25.66 38.43L25.66 30.13Q25.66 25.61 26.64 23.07Q27.61 20.53 30.15 18.99Q32.69 17.46 36.65 17.46Q39.97 17.46 42.35 18.44Q44.73 19.43 46.02 21.02Q47.31 22.61 47.79 24.29Q48.27 25.98 48.27 29.42M38.40 26.98Q38.40 24.49 38.13 23.84Q37.87 23.19 36.99 23.19Q36.11 23.19 35.82 23.84Q35.52 24.49 35.52 26.98L35.52 41.60Q35.52 43.90 35.82 44.59Q36.11 45.29 36.96 45.29Q37.84 45.29 38.12 44.65Q38.40 44.02 38.40 41.92L38.40 26.98ZM83.37 18.04L79.44 50.44L68.73 50.44Q67.85 44.51 66.70 34.81Q66.31 39.06 65.60 43.41L64.50 50.44L53.78 50.44L49.61 18.04L58.11 18.04Q58.20 19.31 60.25 36.57Q60.40 34.81 62.45 18.04L70.63 18.04L72.63 36.57Q73.10 28.47 74.88 18.04L83.37 18.04ZM107.32 34.81L94.56 34.81L94.56 41.82Q94.56 44.02 94.87 44.65Q95.19 45.29 96.09 45.29Q97.22 45.29 97.60 44.45Q97.97 43.60 97.97 41.19L97.97 36.91L107.32 36.91L107.32 39.31Q107.32 42.31 106.95 43.92Q106.57 45.53 105.18 47.36Q103.78 49.19 101.65 50.11Q99.51 51.03 96.29 51.03Q93.16 51.03 90.77 50.12Q88.38 49.22 87.05 47.64Q85.72 46.07 85.21 44.18Q84.69 42.29 84.69 38.67L84.69 29.22Q84.69 24.98 85.84 22.52Q86.99 20.07 89.60 18.76Q92.21 17.46 95.61 17.46Q99.76 17.46 102.45 19.03Q105.15 20.61 106.24 23.21Q107.32 25.81 107.32 30.52L107.32 34.81M97.44 29.54L97.44 27.17Q97.44 24.66 97.17 23.93Q96.90 23.19 96.07 23.19Q95.04 23.19 94.80 23.82Q94.56 24.44 94.56 27.17L94.56 29.54L97.44 29.54ZM120.41 18.04L120.02 22.29Q122.17 17.72 126.25 17.46L126.25 28.86Q123.54 28.86 122.27 29.59Q121.00 30.32 120.70 31.63Q120.41 32.93 120.41 37.65L120.41 50.44L110.55 50.44L110.55 18.04L120.41 18.04ZM138.60 10.91L138.60 50.44L128.44 50.44L128.44 10.91L138.60 10.91ZM164.48 34.81L151.71 34.81L151.71 41.82Q151.71 44.02 152.03 44.65Q152.34 45.29 153.25 45.29Q154.37 45.29 154.75 44.45Q155.13 43.60 155.13 41.19L155.13 36.91L164.48 36.91L164.48 39.31Q164.48 42.31 164.10 43.92Q163.72 45.53 162.33 47.36Q160.94 49.19 158.80 50.11Q156.67 51.03 153.44 51.03Q150.32 51.03 147.92 50.12Q145.53 49.22 144.20 47.64Q142.87 46.07 142.36 44.18Q141.85 42.29 141.85 38.67L141.85 29.22Q141.85 24.98 142.99 22.52Q144.14 20.07 146.75 18.76Q149.37 17.46 152.76 17.46Q156.91 17.46 159.61 19.03Q162.30 20.61 163.39 23.21Q164.48 25.81 164.48 30.52L164.48 34.81M154.59 29.54L154.59 27.17Q154.59 24.66 154.32 23.93Q154.05 23.19 153.22 23.19Q152.20 23.19 151.95 23.82Q151.71 24.44 151.71 27.17L151.71 29.54L154.59 29.54ZM178.10 13.72L178.10 18.82L180.76 18.82L180.76 23.95L178.10 23.95L178.10 41.28Q178.10 44.48 178.43 44.85Q178.76 45.21 181.18 45.21L181.18 50.44L177.20 50.44Q173.83 50.44 172.39 50.16Q170.95 49.88 169.85 48.86Q168.75 47.85 168.48 46.55Q168.21 45.24 168.21 40.41L168.21 23.95L166.09 23.95L166.09 18.82L168.21 18.82L168.21 13.72L178.10 13.72ZM192.80 18.04L192.41 22.29Q194.56 17.72 198.63 17.46L198.63 28.86Q195.92 28.86 194.65 29.59Q193.38 30.32 193.09 31.63Q192.80 32.93 192.80 37.65L192.80 50.44L182.93 50.44L182.93 18.04L192.80 18.04ZM210.99 10.91L210.99 16.06L200.83 16.06L200.83 10.91L210.99 10.91M210.99 18.04L210.99 50.44L200.83 50.44L200.83 18.04L210.99 18.04ZM236.33 30.27L227.03 30.27L227.03 26.54Q227.03 24.58 226.71 23.89Q226.39 23.19 225.54 23.19Q224.68 23.19 224.39 23.80Q224.10 24.41 224.10 26.54L224.10 41.82Q224.10 43.55 224.54 44.42Q224.98 45.29 225.83 45.29Q226.83 45.29 227.19 44.38Q227.54 43.48 227.54 40.97L227.54 37.11L236.33 37.11Q236.30 40.99 236.05 42.93Q235.79 44.87 234.41 46.91Q233.03 48.95 230.81 49.99Q228.59 51.03 225.32 51.03Q221.14 51.03 218.70 49.60Q216.26 48.17 215.25 45.59Q214.23 43.02 214.23 38.28L214.23 29.08Q214.23 24.95 215.06 22.85Q215.89 20.75 218.60 19.10Q221.31 17.46 225.20 17.46Q229.05 17.46 231.79 19.09Q234.52 20.73 235.42 23.22Q236.33 25.71 236.33 30.27ZM259.40 28.39L250.66 28.39L250.66 26.64Q250.66 24.39 250.40 23.79Q250.15 23.19 249.12 23.19Q248.29 23.19 247.88 23.74Q247.46 24.29 247.46 25.39Q247.46 26.88 247.67 27.58Q247.88 28.27 248.91 29.10Q249.95 29.93 253.17 31.52Q257.47 33.62 258.81 35.47Q260.16 37.33 260.16 40.87Q260.16 44.82 259.13 46.84Q258.11 48.85 255.70 49.94Q253.30 51.03 249.90 51.03Q246.14 51.03 243.47 49.85Q240.80 48.68 239.79 46.68Q238.79 44.68 238.79 40.63L238.79 39.06L247.53 39.06L247.53 41.11Q247.53 43.73 247.86 44.51Q248.19 45.29 249.17 45.29Q250.22 45.29 250.63 44.76Q251.05 44.24 251.05 42.55Q251.05 40.23 250.51 39.65Q249.95 39.06 244.78 36.18Q240.43 33.74 239.48 31.75Q238.53 29.76 238.53 27.03Q238.53 23.14 239.55 21.30Q240.58 19.46 243.03 18.46Q245.48 17.46 248.73 17.46Q251.95 17.46 254.21 18.27Q256.47 19.09 257.68 20.43Q258.89 21.78 259.14 22.92Q259.40 24.07 259.40 26.51L259.40 28.39Z"/></g></g></svg>