<svg xmlns="http://www.w3.org/2000/svg" viewBox="0 17.460828422965907 220.39345005704985 37.58818996917065" data-asc="1.0087890625" width="220.39345005704985" height="37.58818996917065"><defs/><g fill="#000000"><g transform="translate(0, 0)"><path d="M10.03 18.04L9.86 20.90Q11.18 19.17 12.77 18.31Q14.36 17.46 16.24 17.46Q18.53 17.46 20.20 18.69Q21.88 19.92 22.29 21.53Q22.71 23.14 22.71 27.00L22.71 40.65Q22.71 45.07 22.18 46.94Q21.66 48.80 20.03 49.91Q18.41 51.03 16.11 51.03Q14.28 51.03 12.72 50.17Q11.16 49.32 9.86 47.63L9.86 55.05L0 55.05L0 18.04L10.03 18.04M12.84 27.47Q12.84 24.46 12.62 23.83Q12.40 23.19 11.40 23.19Q10.42 23.19 10.14 23.93Q9.86 24.66 9.86 27.47L9.86 40.89Q9.86 43.82 10.16 44.56Q10.45 45.29 11.43 45.29Q12.38 45.29 12.61 44.62Q12.84 43.95 12.84 41.36L12.84 27.47ZM35.82 18.04L35.42 22.29Q37.57 17.72 41.65 17.46L41.65 28.86Q38.94 28.86 37.67 29.59Q36.40 30.32 36.11 31.63Q35.82 32.93 35.82 37.65L35.82 50.44L25.95 50.44L25.95 18.04L35.82 18.04ZM66.16 29.42L66.16 37.35Q66.16 41.72 65.72 43.76Q65.28 45.80 63.84 47.57Q62.40 49.34 60.14 50.18Q57.89 51.03 54.96 51.03Q51.68 51.03 49.41 50.31Q47.14 49.58 45.89 48.13Q44.63 46.68 44.09 44.62Q43.55 42.55 43.55 38.43L43.55 30.13Q43.55 25.61 44.53 23.07Q45.51 20.53 48.05 18.99Q50.59 17.46 54.54 17.46Q57.86 17.46 60.24 18.44Q62.62 19.43 63.92 21.02Q65.21 22.61 65.69 24.29Q66.16 25.98 66.16 29.42M56.30 26.98Q56.30 24.49 56.03 23.84Q55.76 23.19 54.88 23.19Q54.00 23.19 53.71 23.84Q53.42 24.49 53.42 26.98L53.42 41.60Q53.42 43.90 53.71 44.59Q54.00 45.29 54.86 45.29Q55.74 45.29 56.02 44.65Q56.30 44.02 56.30 41.92L56.30 26.98ZM91.21 30.27L81.91 30.27L81.91 26.54Q81.91 24.58 81.59 23.89Q81.27 23.19 80.42 23.19Q79.57 23.19 79.27 23.80Q78.98 24.41 78.98 26.54L78.98 41.82Q78.98 43.55 79.42 44.42Q79.86 45.29 80.71 45.29Q81.71 45.29 82.07 44.38Q82.42 43.48 82.42 40.97L82.42 37.11L91.21 37.11Q91.19 40.99 90.93 42.93Q90.67 44.87 89.29 46.91Q87.92 48.95 85.69 49.99Q83.47 51.03 80.20 51.03Q76.03 51.03 73.58 49.60Q71.14 48.17 70.13 45.59Q69.12 43.02 69.12 38.28L69.12 29.08Q69.12 24.95 69.95 22.85Q70.78 20.75 73.49 19.10Q76.20 17.46 80.08 17.46Q83.94 17.46 86.67 19.09Q89.40 20.73 90.31 23.22Q91.21 25.71 91.21 30.27ZM104.17 18.04L104.00 20.90Q105.32 19.17 106.91 18.31Q108.50 17.46 110.38 17.46Q112.67 17.46 114.34 18.69Q116.02 19.92 116.43 21.53Q116.85 23.14 116.85 27.00L116.85 40.65Q116.85 45.07 116.32 46.94Q115.80 48.80 114.17 49.91Q112.55 51.03 110.25 51.03Q108.42 51.03 106.86 50.17Q105.30 49.32 104.00 47.63L104.00 55.05L94.14 55.05L94.14 18.04L104.17 18.04M106.98 27.47Q106.98 24.46 106.76 23.83Q106.54 23.19 105.54 23.19Q104.57 23.19 104.28 23.93Q104.00 24.66 104.00 27.47L104.00 40.89Q104.00 43.82 104.30 44.56Q104.59 45.29 105.57 45.29Q106.52 45.29 106.75 44.62Q106.98 43.95 106.98 41.36L106.98 27.47ZM142.41 29.42L142.41 37.35Q142.41 41.72 141.97 43.76Q141.53 45.80 140.09 47.57Q138.65 49.34 136.39 50.18Q134.13 51.03 131.20 51.03Q127.93 51.03 125.66 50.31Q123.39 49.58 122.13 48.13Q120.87 46.68 120.34 44.62Q119.80 42.55 119.80 38.43L119.80 30.13Q119.80 25.61 120.78 23.07Q121.75 20.53 124.29 18.99Q126.83 17.46 130.79 17.46Q134.11 17.46 136.49 18.44Q138.87 19.43 140.16 21.02Q141.46 22.61 141.93 24.29Q142.41 25.98 142.41 29.42M132.54 26.98Q132.54 24.49 132.28 23.84Q132.01 23.19 131.13 23.19Q130.25 23.19 129.96 23.84Q129.66 24.49 129.66 26.98L129.66 41.60Q129.66 43.90 129.96 44.59Q130.25 45.29 131.10 45.29Q131.98 45.29 132.26 44.65Q132.54 44.02 132.54 41.92L132.54 26.98ZM177.51 18.04L173.58 50.44L162.87 50.44Q161.99 44.51 160.84 34.81Q160.45 39.06 159.74 43.41L158.64 50.44L147.92 50.44L143.75 18.04L152.25 18.04Q152.34 19.31 154.39 36.57Q154.54 34.81 156.59 18.04L164.77 18.04L166.77 36.57Q167.24 28.47 169.02 18.04L177.51 18.04ZM201.46 34.81L188.70 34.81L188.70 41.82Q188.70 44.02 189.01 44.65Q189.33 45.29 190.23 45.29Q191.36 45.29 191.74 44.45Q192.11 43.60 192.11 41.19L192.11 36.91L201.46 36.91L201.46 39.31Q201.46 42.31 201.09 43.92Q200.71 45.53 199.32 47.36Q197.92 49.19 195.79 50.11Q193.65 51.03 190.43 51.03Q187.30 51.03 184.91 50.12Q182.52 49.22 181.19 47.64Q179.86 46.07 179.35 44.18Q178.83 42.29 178.83 38.67L178.83 29.22Q178.83 24.98 179.98 22.52Q181.13 20.07 183.74 18.76Q186.35 17.46 189.75 17.46Q193.90 17.46 196.59 19.03Q199.29 20.61 200.38 23.21Q201.46 25.81 201.46 30.52L201.46 34.81M191.58 29.54L191.58 27.17Q191.58 24.66 191.31 23.93Q191.04 23.19 190.21 23.19Q189.18 23.19 188.94 23.82Q188.70 24.44 188.70 27.17L188.70 29.54L191.58 29.54ZM214.55 18.04L214.16 22.29Q216.31 17.72 220.39 17.46L220.39 28.86Q217.68 28.86 216.41 29.59Q215.14 30.32 214.84 31.63Q214.55 32.93 214.55 37.65L214.55 50.44L204.69 50.44L204.69 18.04L214.55 18.04Z"/></g></g></svg>