<svg xmlns="http://www.w3.org/2000/svg" viewBox="0 10.90540595047651 236.4491690462302 161.21240386718736" data-asc="1.0087890625" width="236.4491690462302" height="161.21240386718736"><defs/><g fill="#000000"><g transform="translate(0, 0)"><path d="M22.46 10.91L22.46 18.82L16.36 18.82L16.36 50.44L6.08 50.44L6.08 18.82L0 18.82L0 10.91L22.46 10.91ZM44.75 34.81L31.98 34.81L31.98 41.82Q31.98 44.02 32.30 44.65Q32.62 45.29 33.52 45.29Q34.64 45.29 35.02 44.45Q35.40 43.60 35.40 41.19L35.40 36.91L44.75 36.91L44.75 39.31Q44.75 42.31 44.37 43.92Q43.99 45.53 42.60 47.36Q41.21 49.19 39.07 50.11Q36.94 51.03 33.72 51.03Q30.59 51.03 28.20 50.12Q25.81 49.22 24.48 47.64Q23.14 46.07 22.63 44.18Q22.12 42.29 22.12 38.67L22.12 29.22Q22.12 24.98 23.27 22.52Q24.41 20.07 27.03 18.76Q29.64 17.46 33.03 17.46Q37.18 17.46 39.88 19.03Q42.58 20.61 43.66 23.21Q44.75 25.81 44.75 30.52L44.75 34.81M34.86 29.54L34.86 27.17Q34.86 24.66 34.59 23.93Q34.33 23.19 33.50 23.19Q32.47 23.19 32.23 23.82Q31.98 24.44 31.98 27.17L31.98 29.54L34.86 29.54ZM69.78 30.27L60.47 30.27L60.47 26.54Q60.47 24.58 60.16 23.89Q59.84 23.19 58.98 23.19Q58.13 23.19 57.84 23.80Q57.54 24.41 57.54 26.54L57.54 41.82Q57.54 43.55 57.98 44.42Q58.42 45.29 59.28 45.29Q60.28 45.29 60.63 44.38Q60.99 43.48 60.99 40.97L60.99 37.11L69.78 37.11Q69.75 40.99 69.49 42.93Q69.24 44.87 67.86 46.91Q66.48 48.95 64.26 49.99Q62.04 51.03 58.76 51.03Q54.59 51.03 52.15 49.60Q49.71 48.17 48.69 45.59Q47.68 43.02 47.68 38.28L47.68 29.08Q47.68 24.95 48.51 22.85Q49.34 20.75 52.05 19.10Q54.76 17.46 58.64 17.46Q62.50 17.46 65.23 19.09Q67.97 20.73 68.87 23.22Q69.78 25.71 69.78 30.27ZM82.57 10.91L82.57 19.80Q83.84 18.63 85.31 18.04Q86.79 17.46 88.48 17.46Q91.06 17.46 92.88 18.77Q94.70 20.09 95.10 21.81Q95.51 23.54 95.51 28.10L95.51 50.44L85.64 50.44L85.64 27.64Q85.64 24.80 85.36 24.00Q85.08 23.19 84.11 23.19Q83.20 23.19 82.89 24.02Q82.57 24.85 82.57 27.32L82.57 50.44L72.71 50.44L72.71 10.91L82.57 10.91ZM108.94 18.04L108.76 21.02Q109.84 19.24 111.39 18.35Q112.94 17.46 114.97 17.46Q117.50 17.46 119.12 18.65Q120.73 19.85 121.19 21.67Q121.66 23.49 121.66 27.73L121.66 50.44L111.79 50.44L111.79 28.00Q111.79 24.66 111.57 23.93Q111.35 23.19 110.35 23.19Q109.30 23.19 109.03 24.04Q108.76 24.88 108.76 28.54L108.76 50.44L98.90 50.44L98.90 18.04L108.94 18.04ZM147.36 29.42L147.36 37.35Q147.36 41.72 146.92 43.76Q146.48 45.80 145.04 47.57Q143.60 49.34 141.35 50.18Q139.09 51.03 136.16 51.03Q132.89 51.03 130.62 50.31Q128.34 49.58 127.09 48.13Q125.83 46.68 125.29 44.62Q124.76 42.55 124.76 38.43L124.76 30.13Q124.76 25.61 125.73 23.07Q126.71 20.53 129.25 18.99Q131.79 17.46 135.74 17.46Q139.06 17.46 141.44 18.44Q143.82 19.43 145.12 21.02Q146.41 22.61 146.89 24.29Q147.36 25.98 147.36 29.42M137.50 26.98Q137.50 24.49 137.23 23.84Q136.96 23.19 136.08 23.19Q135.21 23.19 134.91 23.84Q134.62 24.49 134.62 26.98L134.62 41.60Q134.62 43.90 134.91 44.59Q135.21 45.29 136.06 45.29Q136.94 45.29 137.22 44.65Q137.50 44.02 137.50 41.92L137.50 26.98ZM160.77 10.91L160.77 50.44L150.61 50.44L150.61 10.91L160.77 10.91ZM186.62 29.42L186.62 37.35Q186.62 41.72 186.18 43.76Q185.74 45.80 184.30 47.57Q182.86 49.34 180.60 50.18Q178.34 51.03 175.42 51.03Q172.14 51.03 169.87 50.31Q167.60 49.58 166.35 48.13Q165.09 46.68 164.55 44.62Q164.01 42.55 164.01 38.43L164.01 30.13Q164.01 25.61 164.99 23.07Q165.97 20.53 168.51 18.99Q171.04 17.46 175 17.46Q178.32 17.46 180.70 18.44Q183.08 19.43 184.38 21.02Q185.67 22.61 186.15 24.29Q186.62 25.98 186.62 29.42M176.76 26.98Q176.76 24.49 176.49 23.84Q176.22 23.19 175.34 23.19Q174.46 23.19 174.17 23.84Q173.88 24.49 173.88 26.98L173.88 41.60Q173.88 43.90 174.17 44.59Q174.46 45.29 175.32 45.29Q176.20 45.29 176.48 44.65Q176.76 44.02 176.76 41.92L176.76 26.98ZM212.28 18.04L212.28 42.99Q212.28 48.05 212.05 49.52Q211.82 51.00 210.40 52.65Q208.98 54.30 206.46 55.16Q203.93 56.03 200.10 56.03Q195.39 56.03 192.53 54.43Q189.67 52.83 189.58 48.14L199.15 48.14Q199.15 50.29 200.71 50.29Q201.83 50.29 202.20 49.63Q202.56 48.97 202.56 46.88L202.56 44.43Q201.29 45.58 199.89 46.17Q198.49 46.75 196.95 46.75Q194.29 46.75 192.57 45.68Q190.84 44.60 190.21 42.86Q189.58 41.11 189.58 37.89L189.58 26.12Q189.58 21.51 191.24 19.48Q192.90 17.46 196.29 17.46Q198.14 17.46 199.67 18.21Q201.20 18.97 202.39 20.48L203.10 18.04L212.28 18.04M202.39 26.64Q202.39 24.41 202.14 23.80Q201.88 23.19 201.00 23.19Q200.15 23.19 199.79 23.89Q199.44 24.58 199.44 26.64L199.44 37.52Q199.44 39.70 199.71 40.34Q199.98 40.99 200.83 40.99Q201.81 40.99 202.10 40.21Q202.39 39.43 202.39 36.67L202.39 26.64ZM236.45 18.04L233.62 41.48Q232.96 47.05 232.51 49.07Q232.06 51.10 231.01 52.42Q229.96 53.74 228.09 54.36Q226.22 54.98 222.12 54.98L216.14 54.98L216.14 49.80Q218.43 49.80 219.09 49.57Q219.75 49.34 219.75 48.54Q219.75 48.14 219.14 45.14L213.75 18.04L222.71 18.04L225.93 39.89L227.49 18.04L236.45 18.04Z"/></g><g transform="translate(0, 60.546875)"><path d="M24.29 28.15L14.01 28.15L14.01 21.26Q14.01 18.26 13.68 17.52Q13.35 16.77 12.23 16.77Q10.96 16.77 10.62 17.68Q10.28 18.58 10.28 21.58L10.28 39.94Q10.28 42.82 10.62 43.70Q10.96 44.58 12.16 44.58Q13.31 44.58 13.66 43.70Q14.01 42.82 14.01 39.58L14.01 34.62L24.29 34.62L24.29 36.16Q24.29 42.29 23.43 44.85Q22.56 47.41 19.59 49.34Q16.63 51.27 12.28 51.27Q7.76 51.27 4.83 49.63Q1.90 48.00 0.95 45.10Q0 42.21 0 36.40L0 24.85Q0 20.58 0.29 18.44Q0.59 16.31 2.04 14.33Q3.49 12.35 6.07 11.22Q8.64 10.08 11.99 10.08Q16.53 10.08 19.48 11.84Q22.44 13.60 23.36 16.22Q24.29 18.85 24.29 24.39L24.29 28.15ZM36.50 30.59L27.25 30.59L27.25 28.42Q27.25 24.66 28.11 22.62Q28.98 20.58 31.59 19.02Q34.20 17.46 38.38 17.46Q43.38 17.46 45.92 19.23Q48.46 21.00 48.97 23.57Q49.49 26.15 49.49 34.18L49.49 50.44L39.89 50.44L39.89 47.56Q38.99 49.29 37.56 50.16Q36.13 51.03 34.16 51.03Q31.57 51.03 29.41 49.57Q27.25 48.12 27.25 43.21L27.25 40.55Q27.25 36.91 28.39 35.60Q29.54 34.28 34.08 32.52Q38.94 30.62 39.28 29.96Q39.62 29.30 39.62 27.27Q39.62 24.73 39.25 23.96Q38.87 23.19 37.99 23.19Q36.99 23.19 36.74 23.84Q36.50 24.49 36.50 27.20L36.50 30.59M39.62 35.03Q37.26 36.77 36.88 37.94Q36.50 39.11 36.50 41.31Q36.50 43.82 36.83 44.56Q37.16 45.29 38.13 45.29Q39.06 45.29 39.34 44.71Q39.62 44.14 39.62 41.70L39.62 35.03ZM62.74 18.04L62.35 22.29Q64.50 17.72 68.58 17.46L68.58 28.86Q65.87 28.86 64.60 29.59Q63.33 30.32 63.04 31.63Q62.74 32.93 62.74 37.65L62.74 50.44L52.88 50.44L52.88 18.04L62.74 18.04ZM80.64 10.91L80.64 20.26Q81.86 18.85 83.36 18.15Q84.86 17.46 86.62 17.46Q88.65 17.46 90.14 18.09Q91.63 18.73 92.41 19.87Q93.19 21.02 93.35 22.12Q93.51 23.22 93.51 26.81L93.51 41.41Q93.51 44.97 93.03 46.72Q92.55 48.46 90.80 49.74Q89.04 51.03 86.62 51.03Q84.89 51.03 83.39 50.27Q81.88 49.51 80.64 48.00L80.00 50.44L70.78 50.44L70.78 10.91L80.64 10.91M83.64 27.25Q83.64 24.73 83.33 23.96Q83.01 23.19 82.08 23.19Q81.18 23.19 80.91 23.86Q80.64 24.54 80.64 27.25L80.64 41.21Q80.64 43.82 80.94 44.56Q81.25 45.29 82.15 45.29Q83.08 45.29 83.36 44.53Q83.64 43.77 83.64 40.89L83.64 27.25ZM119.07 29.42L119.07 37.35Q119.07 41.72 118.63 43.76Q118.19 45.80 116.75 47.57Q115.31 49.34 113.05 50.18Q110.79 51.03 107.86 51.03Q104.59 51.03 102.32 50.31Q100.05 49.58 98.79 48.13Q97.53 46.68 97.00 44.62Q96.46 42.55 96.46 38.43L96.46 30.13Q96.46 25.61 97.44 23.07Q98.41 20.53 100.95 18.99Q103.49 17.46 107.45 17.46Q110.77 17.46 113.15 18.44Q115.53 19.43 116.82 21.02Q118.12 22.61 118.59 24.29Q119.07 25.98 119.07 29.42M109.20 26.98Q109.20 24.49 108.94 23.84Q108.67 23.19 107.79 23.19Q106.91 23.19 106.62 23.84Q106.32 24.49 106.32 26.98L106.32 41.60Q106.32 43.90 106.62 44.59Q106.91 45.29 107.76 45.29Q108.64 45.29 108.92 44.65Q109.20 44.02 109.20 41.92L109.20 26.98ZM132.35 18.04L132.18 21.02Q133.25 19.24 134.80 18.35Q136.35 17.46 138.38 17.46Q140.92 17.46 142.53 18.65Q144.14 19.85 144.60 21.67Q145.07 23.49 145.07 27.73L145.07 50.44L135.21 50.44L135.21 28.00Q135.21 24.66 134.99 23.93Q134.77 23.19 133.76 23.19Q132.71 23.19 132.45 24.04Q132.18 24.88 132.18 28.54L132.18 50.44L122.31 50.44L122.31 18.04L132.35 18.04Z"/></g><g transform="translate(0, 121.09375)"><path d="M0 10.91L17.14 10.91L17.14 18.82L10.28 18.82L10.28 26.32L16.70 26.32L16.70 33.84L10.28 33.84L10.28 42.53L17.82 42.53L17.82 50.44L0 50.44L0 10.91ZM40.63 28.39L31.88 28.39L31.88 26.64Q31.88 24.39 31.63 23.79Q31.37 23.19 30.35 23.19Q29.52 23.19 29.10 23.74Q28.69 24.29 28.69 25.39Q28.69 26.88 28.89 27.58Q29.10 28.27 30.14 29.10Q31.18 29.93 34.40 31.52Q38.70 33.62 40.04 35.47Q41.38 37.33 41.38 40.87Q41.38 44.82 40.36 46.84Q39.33 48.85 36.93 49.94Q34.52 51.03 31.13 51.03Q27.37 51.03 24.69 49.85Q22.02 48.68 21.02 46.68Q20.02 44.68 20.02 40.63L20.02 39.06L28.76 39.06L28.76 41.11Q28.76 43.73 29.09 44.51Q29.42 45.29 30.40 45.29Q31.45 45.29 31.86 44.76Q32.28 44.24 32.28 42.55Q32.28 40.23 31.74 39.65Q31.18 39.06 26.00 36.18Q21.66 33.74 20.70 31.75Q19.75 29.76 19.75 27.03Q19.75 23.14 20.78 21.30Q21.80 19.46 24.26 18.46Q26.71 17.46 29.96 17.46Q33.18 17.46 35.44 18.27Q37.70 19.09 38.90 20.43Q40.11 21.78 40.37 22.92Q40.63 24.07 40.63 26.51L40.63 28.39ZM54.42 13.72L54.42 18.82L57.08 18.82L57.08 23.95L54.42 23.95L54.42 41.28Q54.42 44.48 54.75 44.85Q55.08 45.21 57.50 45.21L57.50 50.44L53.52 50.44Q50.15 50.44 48.71 50.16Q47.27 49.88 46.17 48.86Q45.07 47.85 44.80 46.55Q44.53 45.24 44.53 40.41L44.53 23.95L42.41 23.95L42.41 18.82L44.53 18.82L44.53 13.72L54.42 13.72ZM69.41 10.91L69.41 16.06L59.25 16.06L59.25 10.91L69.41 10.91M69.41 18.04L69.41 50.44L59.25 50.44L59.25 18.04L69.41 18.04ZM82.69 18.04L82.52 21.12Q83.67 19.29 85.25 18.37Q86.84 17.46 88.87 17.46Q92.82 17.46 95.09 21.12Q96.34 19.29 97.90 18.37Q99.46 17.46 101.37 17.46Q103.88 17.46 105.53 18.68Q107.18 19.90 107.64 21.67Q108.11 23.44 108.11 27.42L108.11 50.44L98.54 50.44L98.54 29.32Q98.54 25.17 98.25 24.18Q97.97 23.19 96.95 23.19Q95.90 23.19 95.59 24.17Q95.29 25.15 95.29 29.32L95.29 50.44L85.72 50.44L85.72 29.86Q85.72 25.10 85.49 24.15Q85.25 23.19 84.20 23.19Q83.54 23.19 83.08 23.69Q82.62 24.19 82.57 24.91Q82.52 25.63 82.52 27.98L82.52 50.44L72.95 50.44L72.95 18.04L82.69 18.04ZM120.31 30.59L111.06 30.59L111.06 28.42Q111.06 24.66 111.93 22.62Q112.79 20.58 115.41 19.02Q118.02 17.46 122.19 17.46Q127.20 17.46 129.74 19.23Q132.28 21.00 132.79 23.57Q133.30 26.15 133.30 34.18L133.30 50.44L123.71 50.44L123.71 47.56Q122.80 49.29 121.37 50.16Q119.95 51.03 117.97 51.03Q115.38 51.03 113.22 49.57Q111.06 48.12 111.06 43.21L111.06 40.55Q111.06 36.91 112.21 35.60Q113.35 34.28 117.90 32.52Q122.75 30.62 123.10 29.96Q123.44 29.30 123.44 27.27Q123.44 24.73 123.06 23.96Q122.68 23.19 121.80 23.19Q120.80 23.19 120.56 23.84Q120.31 24.49 120.31 27.20L120.31 30.59M123.44 35.03Q121.07 36.77 120.69 37.94Q120.31 39.11 120.31 41.31Q120.31 43.82 120.64 44.56Q120.97 45.29 121.95 45.29Q122.88 45.29 123.16 44.71Q123.44 44.14 123.44 41.70L123.44 35.03ZM147.09 13.72L147.09 18.82L149.76 18.82L149.76 23.95L147.09 23.95L147.09 41.28Q147.09 44.48 147.42 44.85Q147.75 45.21 150.17 45.21L150.17 50.44L146.19 50.44Q142.82 50.44 141.38 50.16Q139.94 49.88 138.84 48.86Q137.74 47.85 137.48 46.55Q137.21 45.24 137.21 40.41L137.21 23.95L135.08 23.95L135.08 18.82L137.21 18.82L137.21 13.72L147.09 13.72ZM174.24 29.42L174.24 37.35Q174.24 41.72 173.80 43.76Q173.36 45.80 171.92 47.57Q170.48 49.34 168.23 50.18Q165.97 51.03 163.04 51.03Q159.77 51.03 157.50 50.31Q155.22 49.58 153.97 48.13Q152.71 46.68 152.17 44.62Q151.64 42.55 151.64 38.43L151.64 30.13Q151.64 25.61 152.61 23.07Q153.59 20.53 156.13 18.99Q158.67 17.46 162.62 17.46Q165.94 17.46 168.32 18.44Q170.70 19.43 172.00 21.02Q173.29 22.61 173.77 24.29Q174.24 25.98 174.24 29.42M164.38 26.98Q164.38 24.49 164.11 23.84Q163.84 23.19 162.96 23.19Q162.08 23.19 161.79 23.84Q161.50 24.49 161.50 26.98L161.50 41.60Q161.50 43.90 161.79 44.59Q162.08 45.29 162.94 45.29Q163.82 45.29 164.10 44.65Q164.38 44.02 164.38 41.92L164.38 26.98ZM187.35 18.04L186.96 22.29Q189.11 17.72 193.19 17.46L193.19 28.86Q190.48 28.86 189.21 29.59Q187.94 30.32 187.65 31.63Q187.35 32.93 187.35 37.65L187.35 50.44L177.49 50.44L177.49 18.04L187.35 18.04Z"/></g></g></svg>