<svg xmlns="http://www.w3.org/2000/svg" viewBox="0 10.077380314113661 199.15261081601204 41.18770002242706" data-asc="1.0087890625" width="199.15261081601204" height="41.18770002242706"><defs/><g fill="#000000"><g transform="translate(0, 0)"><path d="M26.76 10.91L21.53 50.44L5.93 50.44L0 10.91L10.84 10.91Q12.72 27.25 13.53 38.53Q14.33 27.12 15.21 18.26L15.92 10.91L26.76 10.91ZM50.29 22.88L40.75 22.88L40.75 19.95Q40.75 17.90 40.38 17.33Q40.01 16.77 39.16 16.77Q38.23 16.77 37.76 17.53Q37.28 18.29 37.28 19.82Q37.28 21.80 37.82 22.80Q38.33 23.80 40.72 25.22Q47.58 29.30 49.37 31.91Q51.15 34.52 51.15 40.33Q51.15 44.56 50.16 46.56Q49.17 48.56 46.34 49.91Q43.51 51.27 39.75 51.27Q35.62 51.27 32.70 49.71Q29.79 48.14 28.88 45.73Q27.98 43.31 27.98 38.87L27.98 36.28L37.52 36.28L37.52 41.09Q37.52 43.31 37.93 43.95Q38.33 44.58 39.36 44.58Q40.38 44.58 40.88 43.77Q41.38 42.97 41.38 41.38Q41.38 37.89 40.43 36.82Q39.45 35.74 35.62 33.23Q31.79 30.69 30.54 29.54Q29.30 28.39 28.48 26.37Q27.66 24.34 27.66 21.19Q27.66 16.65 28.82 14.55Q29.98 12.45 32.57 11.27Q35.16 10.08 38.82 10.08Q42.82 10.08 45.64 11.38Q48.46 12.67 49.38 14.64Q50.29 16.60 50.29 21.31L50.29 22.88ZM78.37 28.15L68.09 28.15L68.09 21.26Q68.09 18.26 67.76 17.52Q67.43 16.77 66.31 16.77Q65.04 16.77 64.70 17.68Q64.36 18.58 64.36 21.58L64.36 39.94Q64.36 42.82 64.70 43.70Q65.04 44.58 66.24 44.58Q67.38 44.58 67.74 43.70Q68.09 42.82 68.09 39.58L68.09 34.62L78.37 34.62L78.37 36.16Q78.37 42.29 77.50 44.85Q76.64 47.41 73.67 49.34Q70.70 51.27 66.36 51.27Q61.84 51.27 58.91 49.63Q55.98 48.00 55.03 45.10Q54.08 42.21 54.08 36.40L54.08 24.85Q54.08 20.58 54.37 18.44Q54.66 16.31 56.12 14.33Q57.57 12.35 60.14 11.22Q62.72 10.08 66.06 10.08Q70.61 10.08 73.56 11.84Q76.51 13.60 77.44 16.22Q78.37 18.85 78.37 24.39L78.37 28.15ZM90.58 30.59L81.32 30.59L81.32 28.42Q81.32 24.66 82.19 22.62Q83.06 20.58 85.67 19.02Q88.28 17.46 92.46 17.46Q97.46 17.46 100 19.23Q102.54 21.00 103.05 23.57Q103.56 26.15 103.56 34.18L103.56 50.44L93.97 50.44L93.97 47.56Q93.07 49.29 91.64 50.16Q90.21 51.03 88.23 51.03Q85.64 51.03 83.48 49.57Q81.32 48.12 81.32 43.21L81.32 40.55Q81.32 36.91 82.47 35.60Q83.62 34.28 88.16 32.52Q93.02 30.62 93.36 29.96Q93.70 29.30 93.70 27.27Q93.70 24.73 93.32 23.96Q92.94 23.19 92.07 23.19Q91.06 23.19 90.82 23.84Q90.58 24.49 90.58 27.20L90.58 30.59M93.70 35.03Q91.33 36.77 90.95 37.94Q90.58 39.11 90.58 41.31Q90.58 43.82 90.91 44.56Q91.24 45.29 92.21 45.29Q93.14 45.29 93.42 44.71Q93.70 44.14 93.70 41.70L93.70 35.03ZM116.82 18.04L116.43 22.29Q118.58 17.72 122.66 17.46L122.66 28.86Q119.95 28.86 118.68 29.59Q117.41 30.32 117.11 31.63Q116.82 32.93 116.82 37.65L116.82 50.44L106.96 50.44L106.96 18.04L116.82 18.04ZM134.72 10.91L134.72 20.26Q135.94 18.85 137.44 18.15Q138.94 17.46 140.70 17.46Q142.72 17.46 144.21 18.09Q145.70 18.73 146.48 19.87Q147.27 21.02 147.42 22.12Q147.58 23.22 147.58 26.81L147.58 41.41Q147.58 44.97 147.11 46.72Q146.63 48.46 144.87 49.74Q143.12 51.03 140.70 51.03Q138.96 51.03 137.46 50.27Q135.96 49.51 134.72 48.00L134.08 50.44L124.85 50.44L124.85 10.91L134.72 10.91M137.72 27.25Q137.72 24.73 137.40 23.96Q137.08 23.19 136.16 23.19Q135.25 23.19 134.99 23.86Q134.72 24.54 134.72 27.25L134.72 41.21Q134.72 43.82 135.02 44.56Q135.33 45.29 136.23 45.29Q137.16 45.29 137.44 44.53Q137.72 43.77 137.72 40.89L137.72 27.25ZM173.14 29.42L173.14 37.35Q173.14 41.72 172.71 43.76Q172.27 45.80 170.83 47.57Q169.38 49.34 167.13 50.18Q164.87 51.03 161.94 51.03Q158.67 51.03 156.40 50.31Q154.13 49.58 152.87 48.13Q151.61 46.68 151.07 44.62Q150.54 42.55 150.54 38.43L150.54 30.13Q150.54 25.61 151.51 23.07Q152.49 20.53 155.03 18.99Q157.57 17.46 161.52 17.46Q164.84 17.46 167.22 18.44Q169.60 19.43 170.90 21.02Q172.19 22.61 172.67 24.29Q173.14 25.98 173.14 29.42M163.28 26.98Q163.28 24.49 163.01 23.84Q162.74 23.19 161.87 23.19Q160.99 23.19 160.69 23.84Q160.40 24.49 160.40 26.98L160.40 41.60Q160.40 43.90 160.69 44.59Q160.99 45.29 161.84 45.29Q162.72 45.29 163.00 44.65Q163.28 44.02 163.28 41.92L163.28 26.98ZM186.43 18.04L186.25 21.02Q187.33 19.24 188.88 18.35Q190.43 17.46 192.46 17.46Q195.00 17.46 196.61 18.65Q198.22 19.85 198.68 21.67Q199.15 23.49 199.15 27.73L199.15 50.44L189.28 50.44L189.28 28.00Q189.28 24.66 189.06 23.93Q188.84 23.19 187.84 23.19Q186.79 23.19 186.52 24.04Q186.25 24.88 186.25 28.54L186.25 50.44L176.39 50.44L176.39 18.04L186.43 18.04Z"/></g></g></svg>