<svg xmlns="http://www.w3.org/2000/svg" viewBox="0 10.905786370267343 168.8173132526298 161.21822531605827" data-asc="1.0087890625" width="168.8173132526298" height="161.21822531605827"><defs/><g><g><g transform="translate(0, 0)"><path d="M40.72 10.91L36.16 50.44L23.32 50.44Q21.56 41.33 20.21 29.74Q19.60 34.69 17.36 50.44L4.59 50.44L0 10.91L9.99 10.91L11.04 24.71L12.11 38.01Q12.67 27.69 14.94 10.91L25.63 10.91Q25.85 12.65 26.76 23.95L27.88 38.96Q28.74 24.63 30.74 10.91L40.72 10.91ZM64.82 34.81L52.05 34.81L52.05 41.82Q52.05 44.02 52.37 44.65Q52.69 45.29 53.59 45.29Q54.71 45.29 55.09 44.45Q55.47 43.60 55.47 41.19L55.47 36.91L64.82 36.91L64.82 39.31Q64.82 42.31 64.44 43.92Q64.06 45.53 62.67 47.36Q61.28 49.19 59.14 50.11Q57.01 51.03 53.78 51.03Q50.66 51.03 48.27 50.12Q45.87 49.22 44.54 47.64Q43.21 46.07 42.70 44.18Q42.19 42.29 42.19 38.67L42.19 29.22Q42.19 24.98 43.33 22.52Q44.48 20.07 47.09 18.76Q49.71 17.46 53.10 17.46Q57.25 17.46 59.95 19.03Q62.65 20.61 63.73 23.21Q64.82 25.81 64.82 30.52L64.82 34.81M54.93 29.54L54.93 27.17Q54.93 24.66 54.66 23.93Q54.39 23.19 53.56 23.19Q52.54 23.19 52.29 23.82Q52.05 24.44 52.05 27.17L52.05 29.54L54.93 29.54ZM77.91 10.91L77.91 20.26Q79.13 18.85 80.63 18.15Q82.13 17.46 83.89 17.46Q85.91 17.46 87.40 18.09Q88.89 18.73 89.67 19.87Q90.45 21.02 90.61 22.12Q90.77 23.22 90.77 26.81L90.77 41.41Q90.77 44.97 90.30 46.72Q89.82 48.46 88.06 49.74Q86.30 51.03 83.89 51.03Q82.15 51.03 80.65 50.27Q79.15 49.51 77.91 48.00L77.27 50.44L68.04 50.44L68.04 10.91L77.91 10.91M80.91 27.25Q80.91 24.73 80.59 23.96Q80.27 23.19 79.35 23.19Q78.44 23.19 78.17 23.86Q77.91 24.54 77.91 27.25L77.91 41.21Q77.91 43.82 78.21 44.56Q78.52 45.29 79.42 45.29Q80.35 45.29 80.63 44.53Q80.91 43.77 80.91 40.89L80.91 27.25ZM114.16 28.39L105.42 28.39L105.42 26.64Q105.42 24.39 105.16 23.79Q104.91 23.19 103.88 23.19Q103.05 23.19 102.64 23.74Q102.22 24.29 102.22 25.39Q102.22 26.88 102.43 27.58Q102.64 28.27 103.67 29.10Q104.71 29.93 107.93 31.52Q112.23 33.62 113.57 35.47Q114.92 37.33 114.92 40.87Q114.92 44.82 113.89 46.84Q112.87 48.85 110.46 49.94Q108.06 51.03 104.66 51.03Q100.90 51.03 98.23 49.85Q95.56 48.68 94.56 46.68Q93.55 44.68 93.55 40.63L93.55 39.06L102.29 39.06L102.29 41.11Q102.29 43.73 102.62 44.51Q102.95 45.29 103.93 45.29Q104.98 45.29 105.40 44.76Q105.81 44.24 105.81 42.55Q105.81 40.23 105.27 39.65Q104.71 39.06 99.54 36.18Q95.19 33.74 94.24 31.75Q93.29 29.76 93.29 27.03Q93.29 23.14 94.31 21.30Q95.34 19.46 97.79 18.46Q100.24 17.46 103.49 17.46Q106.71 17.46 108.97 18.27Q111.23 19.09 112.44 20.43Q113.65 21.78 113.90 22.92Q114.16 24.07 114.16 26.51L114.16 28.39ZM127.71 10.91L127.71 16.06L117.55 16.06L117.55 10.91L127.71 10.91M127.71 18.04L127.71 50.44L117.55 50.44L117.55 18.04L127.71 18.04ZM141.65 13.72L141.65 18.82L144.31 18.82L144.31 23.95L141.65 23.95L141.65 41.28Q141.65 44.48 141.98 44.85Q142.31 45.21 144.73 45.21L144.73 50.44L140.75 50.44Q137.38 50.44 135.94 50.16Q134.50 49.88 133.40 48.86Q132.30 47.85 132.03 46.55Q131.76 45.24 131.76 40.41L131.76 23.95L129.64 23.95L129.64 18.82L131.76 18.82L131.76 13.72L141.65 13.72ZM168.82 34.81L156.05 34.81L156.05 41.82Q156.05 44.02 156.37 44.65Q156.69 45.29 157.59 45.29Q158.72 45.29 159.09 44.45Q159.47 43.60 159.47 41.19L159.47 36.91L168.82 36.91L168.82 39.31Q168.82 42.31 168.44 43.92Q168.07 45.53 166.67 47.36Q165.28 49.19 163.15 50.11Q161.01 51.03 157.79 51.03Q154.66 51.03 152.27 50.12Q149.88 49.22 148.55 47.64Q147.22 46.07 146.70 44.18Q146.19 42.29 146.19 38.67L146.19 29.22Q146.19 24.98 147.34 22.52Q148.49 20.07 151.10 18.76Q153.71 17.46 157.10 17.46Q161.25 17.46 163.95 19.03Q166.65 20.61 167.74 23.21Q168.82 25.81 168.82 30.52L168.82 34.81M158.94 29.54L158.94 27.17Q158.94 24.66 158.67 23.93Q158.40 23.19 157.57 23.19Q156.54 23.19 156.30 23.82Q156.05 24.44 156.05 27.17L156.05 29.54L158.94 29.54Z"/></g><g transform="translate(0, 60.546875)"><path d="M24.29 28.15L14.01 28.15L14.01 21.26Q14.01 18.26 13.68 17.52Q13.35 16.77 12.23 16.77Q10.96 16.77 10.62 17.68Q10.28 18.58 10.28 21.58L10.28 39.94Q10.28 42.82 10.62 43.70Q10.96 44.58 12.16 44.58Q13.31 44.58 13.66 43.70Q14.01 42.82 14.01 39.58L14.01 34.62L24.29 34.62L24.29 36.16Q24.29 42.29 23.43 44.85Q22.56 47.41 19.59 49.34Q16.63 51.27 12.28 51.27Q7.76 51.27 4.83 49.63Q1.90 48.00 0.95 45.10Q0 42.21 0 36.40L0 24.85Q0 20.58 0.29 18.44Q0.59 16.31 2.04 14.33Q3.49 12.35 6.07 11.22Q8.64 10.08 11.99 10.08Q16.53 10.08 19.48 11.84Q22.44 13.60 23.36 16.22Q24.29 18.85 24.29 24.39L24.29 28.15ZM36.50 30.59L27.25 30.59L27.25 28.42Q27.25 24.66 28.11 22.62Q28.98 20.58 31.59 19.02Q34.20 17.46 38.38 17.46Q43.38 17.46 45.92 19.23Q48.46 21.00 48.97 23.57Q49.49 26.15 49.49 34.18L49.49 50.44L39.89 50.44L39.89 47.56Q38.99 49.29 37.56 50.16Q36.13 51.03 34.16 51.03Q31.57 51.03 29.41 49.57Q27.25 48.12 27.25 43.21L27.25 40.55Q27.25 36.91 28.39 35.60Q29.54 34.28 34.08 32.52Q38.94 30.62 39.28 29.96Q39.62 29.30 39.62 27.27Q39.62 24.73 39.25 23.96Q38.87 23.19 37.99 23.19Q36.99 23.19 36.74 23.84Q36.50 24.49 36.50 27.20L36.50 30.59M39.62 35.03Q37.26 36.77 36.88 37.94Q36.50 39.11 36.50 41.31Q36.50 43.82 36.83 44.56Q37.16 45.29 38.13 45.29Q39.06 45.29 39.34 44.71Q39.62 44.14 39.62 41.70L39.62 35.03ZM62.74 18.04L62.35 22.29Q64.50 17.72 68.58 17.46L68.58 28.86Q65.87 28.86 64.60 29.59Q63.33 30.32 63.04 31.63Q62.74 32.93 62.74 37.65L62.74 50.44L52.88 50.44L52.88 18.04L62.74 18.04ZM80.64 10.91L80.64 20.26Q81.86 18.85 83.36 18.15Q84.86 17.46 86.62 17.46Q88.65 17.46 90.14 18.09Q91.63 18.73 92.41 19.87Q93.19 21.02 93.35 22.12Q93.51 23.22 93.51 26.81L93.51 41.41Q93.51 44.97 93.03 46.72Q92.55 48.46 90.80 49.74Q89.04 51.03 86.62 51.03Q84.89 51.03 83.39 50.27Q81.88 49.51 80.64 48.00L80.00 50.44L70.78 50.44L70.78 10.91L80.64 10.91M83.64 27.25Q83.64 24.73 83.33 23.96Q83.01 23.19 82.08 23.19Q81.18 23.19 80.91 23.86Q80.64 24.54 80.64 27.25L80.64 41.21Q80.64 43.82 80.94 44.56Q81.25 45.29 82.15 45.29Q83.08 45.29 83.36 44.53Q83.64 43.77 83.64 40.89L83.64 27.25ZM119.07 29.42L119.07 37.35Q119.07 41.72 118.63 43.76Q118.19 45.80 116.75 47.57Q115.31 49.34 113.05 50.18Q110.79 51.03 107.86 51.03Q104.59 51.03 102.32 50.31Q100.05 49.58 98.79 48.13Q97.53 46.68 97.00 44.62Q96.46 42.55 96.46 38.43L96.46 30.13Q96.46 25.61 97.44 23.07Q98.41 20.53 100.95 18.99Q103.49 17.46 107.45 17.46Q110.77 17.46 113.15 18.44Q115.53 19.43 116.82 21.02Q118.12 22.61 118.59 24.29Q119.07 25.98 119.07 29.42M109.20 26.98Q109.20 24.49 108.94 23.84Q108.67 23.19 107.79 23.19Q106.91 23.19 106.62 23.84Q106.32 24.49 106.32 26.98L106.32 41.60Q106.32 43.90 106.62 44.59Q106.91 45.29 107.76 45.29Q108.64 45.29 108.92 44.65Q109.20 44.02 109.20 41.92L109.20 26.98ZM132.35 18.04L132.18 21.02Q133.25 19.24 134.80 18.35Q136.35 17.46 138.38 17.46Q140.92 17.46 142.53 18.65Q144.14 19.85 144.60 21.67Q145.07 23.49 145.07 27.73L145.07 50.44L135.21 50.44L135.21 28.00Q135.21 24.66 134.99 23.93Q134.77 23.19 133.76 23.19Q132.71 23.19 132.45 24.04Q132.18 24.88 132.18 28.54L132.18 50.44L122.31 50.44L122.31 18.04L132.35 18.04Z"/></g><g transform="translate(0, 121.09375)"><path d="M31.71 10.91L31.71 50.44L22.73 50.44L22.73 23.75L19.14 50.44L12.77 50.44L8.98 24.37L8.98 50.44L0 50.44L0 10.91L13.31 10.91Q13.89 14.48 14.55 19.31L15.97 29.37L18.31 10.91L31.71 10.91ZM57.89 34.81L45.12 34.81L45.12 41.82Q45.12 44.02 45.43 44.65Q45.75 45.29 46.66 45.29Q47.78 45.29 48.16 44.45Q48.54 43.60 48.54 41.19L48.54 36.91L57.89 36.91L57.89 39.31Q57.89 42.31 57.51 43.92Q57.13 45.53 55.74 47.36Q54.35 49.19 52.21 50.11Q50.07 51.03 46.85 51.03Q43.73 51.03 41.33 50.12Q38.94 49.22 37.61 47.64Q36.28 46.07 35.77 44.18Q35.25 42.29 35.25 38.67L35.25 29.22Q35.25 24.98 36.40 22.52Q37.55 20.07 40.16 18.76Q42.77 17.46 46.17 17.46Q50.32 17.46 53.02 19.03Q55.71 20.61 56.80 23.21Q57.89 25.81 57.89 30.52L57.89 34.81M48.00 29.54L48.00 27.17Q48.00 24.66 47.73 23.93Q47.46 23.19 46.63 23.19Q45.61 23.19 45.36 23.82Q45.12 24.44 45.12 27.17L45.12 29.54L48.00 29.54ZM71.51 13.72L71.51 18.82L74.17 18.82L74.17 23.95L71.51 23.95L71.51 41.28Q71.51 44.48 71.84 44.85Q72.17 45.21 74.58 45.21L74.58 50.44L70.61 50.44Q67.24 50.44 65.80 50.16Q64.36 49.88 63.26 48.86Q62.16 47.85 61.89 46.55Q61.62 45.24 61.62 40.41L61.62 23.95L59.50 23.95L59.50 18.82L61.62 18.82L61.62 13.72L71.51 13.72ZM98.68 34.81L85.91 34.81L85.91 41.82Q85.91 44.02 86.23 44.65Q86.55 45.29 87.45 45.29Q88.57 45.29 88.95 44.45Q89.33 43.60 89.33 41.19L89.33 36.91L98.68 36.91L98.68 39.31Q98.68 42.31 98.30 43.92Q97.92 45.53 96.53 47.36Q95.14 49.19 93.01 50.11Q90.87 51.03 87.65 51.03Q84.52 51.03 82.13 50.12Q79.74 49.22 78.41 47.64Q77.08 46.07 76.56 44.18Q76.05 42.29 76.05 38.67L76.05 29.22Q76.05 24.98 77.20 22.52Q78.34 20.07 80.96 18.76Q83.57 17.46 86.96 17.46Q91.11 17.46 93.81 19.03Q96.51 20.61 97.60 23.21Q98.68 25.81 98.68 30.52L98.68 34.81M88.79 29.54L88.79 27.17Q88.79 24.66 88.53 23.93Q88.26 23.19 87.43 23.19Q86.40 23.19 86.16 23.82Q85.91 24.44 85.91 27.17L85.91 29.54L88.79 29.54ZM111.77 18.04L111.38 22.29Q113.53 17.72 117.60 17.46L117.60 28.86Q114.89 28.86 113.62 29.59Q112.35 30.32 112.06 31.63Q111.77 32.93 111.77 37.65L111.77 50.44L101.90 50.44L101.90 18.04L111.77 18.04Z"/></g></g></g></svg>