<svg xmlns="http://www.w3.org/2000/svg" viewBox="0 10.077251638169924 456.0261231000887 41.187470100082564" data-asc="1.0087890625" width="456.0261231000887" height="41.187470100082564"><defs/><g><g><g transform="translate(0, 0)"><path d="M40.72 10.91L36.16 50.44L23.32 50.44Q21.56 41.33 20.21 29.74Q19.60 34.69 17.36 50.44L4.59 50.44L0 10.91L9.99 10.91L11.04 24.71L12.11 38.01Q12.67 27.69 14.94 10.91L25.63 10.91Q25.85 12.65 26.76 23.95L27.88 38.96Q28.74 24.63 30.74 10.91L40.72 10.91ZM64.82 34.81L52.05 34.81L52.05 41.82Q52.05 44.02 52.37 44.65Q52.69 45.29 53.59 45.29Q54.71 45.29 55.09 44.45Q55.47 43.60 55.47 41.19L55.47 36.91L64.82 36.91L64.82 39.31Q64.82 42.31 64.44 43.92Q64.06 45.53 62.67 47.36Q61.28 49.19 59.14 50.11Q57.01 51.03 53.78 51.03Q50.66 51.03 48.27 50.12Q45.87 49.22 44.54 47.64Q43.21 46.07 42.70 44.18Q42.19 42.29 42.19 38.67L42.19 29.22Q42.19 24.98 43.33 22.52Q44.48 20.07 47.09 18.76Q49.71 17.46 53.10 17.46Q57.25 17.46 59.95 19.03Q62.65 20.61 63.73 23.21Q64.82 25.81 64.82 30.52L64.82 34.81M54.93 29.54L54.93 27.17Q54.93 24.66 54.66 23.93Q54.39 23.19 53.56 23.19Q52.54 23.19 52.29 23.82Q52.05 24.44 52.05 27.17L52.05 29.54L54.93 29.54ZM77.91 10.91L77.91 20.26Q79.13 18.85 80.63 18.15Q82.13 17.46 83.89 17.46Q85.91 17.46 87.40 18.09Q88.89 18.73 89.67 19.87Q90.45 21.02 90.61 22.12Q90.77 23.22 90.77 26.81L90.77 41.41Q90.77 44.97 90.30 46.72Q89.82 48.46 88.06 49.74Q86.30 51.03 83.89 51.03Q82.15 51.03 80.65 50.27Q79.15 49.51 77.91 48.00L77.27 50.44L68.04 50.44L68.04 10.91L77.91 10.91M80.91 27.25Q80.91 24.73 80.59 23.96Q80.27 23.19 79.35 23.19Q78.44 23.19 78.17 23.86Q77.91 24.54 77.91 27.25L77.91 41.21Q77.91 43.82 78.21 44.56Q78.52 45.29 79.42 45.29Q80.35 45.29 80.63 44.53Q80.91 43.77 80.91 40.89L80.91 27.25ZM114.16 28.39L105.42 28.39L105.42 26.64Q105.42 24.39 105.16 23.79Q104.91 23.19 103.88 23.19Q103.05 23.19 102.64 23.74Q102.22 24.29 102.22 25.39Q102.22 26.88 102.43 27.58Q102.64 28.27 103.67 29.10Q104.71 29.93 107.93 31.52Q112.23 33.62 113.57 35.47Q114.92 37.33 114.92 40.87Q114.92 44.82 113.89 46.84Q112.87 48.85 110.46 49.94Q108.06 51.03 104.66 51.03Q100.90 51.03 98.23 49.85Q95.56 48.68 94.56 46.68Q93.55 44.68 93.55 40.63L93.55 39.06L102.29 39.06L102.29 41.11Q102.29 43.73 102.62 44.51Q102.95 45.29 103.93 45.29Q104.98 45.29 105.40 44.76Q105.81 44.24 105.81 42.55Q105.81 40.23 105.27 39.65Q104.71 39.06 99.54 36.18Q95.19 33.74 94.24 31.75Q93.29 29.76 93.29 27.03Q93.29 23.14 94.31 21.30Q95.34 19.46 97.79 18.46Q100.24 17.46 103.49 17.46Q106.71 17.46 108.97 18.27Q111.23 19.09 112.44 20.43Q113.65 21.78 113.90 22.92Q114.16 24.07 114.16 26.51L114.16 28.39ZM127.71 10.91L127.71 16.06L117.55 16.06L117.55 10.91L127.71 10.91M127.71 18.04L127.71 50.44L117.55 50.44L117.55 18.04L127.71 18.04ZM141.65 13.72L141.65 18.82L144.31 18.82L144.31 23.95L141.65 23.95L141.65 41.28Q141.65 44.48 141.98 44.85Q142.31 45.21 144.73 45.21L144.73 50.44L140.75 50.44Q137.38 50.44 135.94 50.16Q134.50 49.88 133.40 48.86Q132.30 47.85 132.03 46.55Q131.76 45.24 131.76 40.41L131.76 23.95L129.64 23.95L129.64 18.82L131.76 18.82L131.76 13.72L141.65 13.72ZM168.82 34.81L156.05 34.81L156.05 41.82Q156.05 44.02 156.37 44.65Q156.69 45.29 157.59 45.29Q158.72 45.29 159.09 44.45Q159.47 43.60 159.47 41.19L159.47 36.91L168.82 36.91L168.82 39.31Q168.82 42.31 168.44 43.92Q168.07 45.53 166.67 47.36Q165.28 49.19 163.15 50.11Q161.01 51.03 157.79 51.03Q154.66 51.03 152.27 50.12Q149.88 49.22 148.55 47.64Q147.22 46.07 146.70 44.18Q146.19 42.29 146.19 38.67L146.19 29.22Q146.19 24.98 147.34 22.52Q148.49 20.07 151.10 18.76Q153.71 17.46 157.10 17.46Q161.25 17.46 163.95 19.03Q166.65 20.61 167.74 23.21Q168.82 25.81 168.82 30.52L168.82 34.81M158.94 29.54L158.94 27.17Q158.94 24.66 158.67 23.93Q158.40 23.19 157.57 23.19Q156.54 23.19 156.30 23.82Q156.05 24.44 156.05 27.17L156.05 29.54L158.94 29.54ZM205.15 28.15L194.87 28.15L194.87 21.26Q194.87 18.26 194.54 17.52Q194.21 16.77 193.09 16.77Q191.82 16.77 191.48 17.68Q191.14 18.58 191.14 21.58L191.14 39.94Q191.14 42.82 191.48 43.70Q191.82 44.58 193.02 44.58Q194.17 44.58 194.52 43.70Q194.87 42.82 194.87 39.58L194.87 34.62L205.15 34.62L205.15 36.16Q205.15 42.29 204.28 44.85Q203.42 47.41 200.45 49.34Q197.49 51.27 193.14 51.27Q188.62 51.27 185.69 49.63Q182.76 48.00 181.81 45.10Q180.86 42.21 180.86 36.40L180.86 24.85Q180.86 20.58 181.15 18.44Q181.45 16.31 182.90 14.33Q184.35 12.35 186.93 11.22Q189.50 10.08 192.85 10.08Q197.39 10.08 200.34 11.84Q203.30 13.60 204.22 16.22Q205.15 18.85 205.15 24.39L205.15 28.15ZM217.36 30.59L208.11 30.59L208.11 28.42Q208.11 24.66 208.97 22.62Q209.84 20.58 212.45 19.02Q215.06 17.46 219.24 17.46Q224.24 17.46 226.78 19.23Q229.32 21.00 229.83 23.57Q230.35 26.15 230.35 34.18L230.35 50.44L220.75 50.44L220.75 47.56Q219.85 49.29 218.42 50.16Q216.99 51.03 215.01 51.03Q212.43 51.03 210.27 49.57Q208.11 48.12 208.11 43.21L208.11 40.55Q208.11 36.91 209.25 35.60Q210.40 34.28 214.94 32.52Q219.80 30.62 220.14 29.96Q220.48 29.30 220.48 27.27Q220.48 24.73 220.10 23.96Q219.73 23.19 218.85 23.19Q217.85 23.19 217.60 23.84Q217.36 24.49 217.36 27.20L217.36 30.59M220.48 35.03Q218.12 36.77 217.74 37.94Q217.36 39.11 217.36 41.31Q217.36 43.82 217.69 44.56Q218.02 45.29 218.99 45.29Q219.92 45.29 220.20 44.71Q220.48 44.14 220.48 41.70L220.48 35.03ZM243.60 18.04L243.21 22.29Q245.36 17.72 249.44 17.46L249.44 28.86Q246.73 28.86 245.46 29.59Q244.19 30.32 243.90 31.63Q243.60 32.93 243.60 37.65L243.60 50.44L233.74 50.44L233.74 18.04L243.60 18.04ZM261.50 10.91L261.50 20.26Q262.72 18.85 264.22 18.15Q265.72 17.46 267.48 17.46Q269.51 17.46 271.00 18.09Q272.49 18.73 273.27 19.87Q274.05 21.02 274.21 22.12Q274.37 23.22 274.37 26.81L274.37 41.41Q274.37 44.97 273.89 46.72Q273.41 48.46 271.66 49.74Q269.90 51.03 267.48 51.03Q265.75 51.03 264.25 50.27Q262.74 49.51 261.50 48.00L260.86 50.44L251.64 50.44L251.64 10.91L261.50 10.91M264.50 27.25Q264.50 24.73 264.18 23.96Q263.87 23.19 262.94 23.19Q262.04 23.19 261.77 23.86Q261.50 24.54 261.50 27.25L261.50 41.21Q261.50 43.82 261.80 44.56Q262.11 45.29 263.01 45.29Q263.94 45.29 264.22 44.53Q264.50 43.77 264.50 40.89L264.50 27.25ZM299.93 29.42L299.93 37.35Q299.93 41.72 299.49 43.76Q299.05 45.80 297.61 47.57Q296.17 49.34 293.91 50.18Q291.65 51.03 288.72 51.03Q285.45 51.03 283.18 50.31Q280.91 49.58 279.65 48.13Q278.39 46.68 277.86 44.62Q277.32 42.55 277.32 38.43L277.32 30.13Q277.32 25.61 278.30 23.07Q279.27 20.53 281.81 18.99Q284.35 17.46 288.31 17.46Q291.63 17.46 294.01 18.44Q296.39 19.43 297.68 21.02Q298.97 22.61 299.45 24.29Q299.93 25.98 299.93 29.42M290.06 26.98Q290.06 24.49 289.79 23.84Q289.53 23.19 288.65 23.19Q287.77 23.19 287.48 23.84Q287.18 24.49 287.18 26.98L287.18 41.60Q287.18 43.90 287.48 44.59Q287.77 45.29 288.62 45.29Q289.50 45.29 289.78 44.65Q290.06 44.02 290.06 41.92L290.06 26.98ZM313.21 18.04L313.04 21.02Q314.11 19.24 315.66 18.35Q317.21 17.46 319.24 17.46Q321.78 17.46 323.39 18.65Q325 19.85 325.46 21.67Q325.93 23.49 325.93 27.73L325.93 50.44L316.06 50.44L316.06 28.00Q316.06 24.66 315.84 23.93Q315.63 23.19 314.62 23.19Q313.57 23.19 313.31 24.04Q313.04 24.88 313.04 28.54L313.04 50.44L303.17 50.44L303.17 18.04L313.21 18.04ZM370.14 10.91L370.14 50.44L361.16 50.44L361.16 23.75L357.57 50.44L351.20 50.44L347.41 24.37L347.41 50.44L338.43 50.44L338.43 10.91L351.73 10.91Q352.32 14.48 352.98 19.31L354.39 29.37L356.74 10.91L370.14 10.91ZM396.31 34.81L383.54 34.81L383.54 41.82Q383.54 44.02 383.86 44.65Q384.18 45.29 385.08 45.29Q386.21 45.29 386.58 44.45Q386.96 43.60 386.96 41.19L386.96 36.91L396.31 36.91L396.31 39.31Q396.31 42.31 395.94 43.92Q395.56 45.53 394.17 47.36Q392.77 49.19 390.64 50.11Q388.50 51.03 385.28 51.03Q382.15 51.03 379.76 50.12Q377.37 49.22 376.04 47.64Q374.71 46.07 374.19 44.18Q373.68 42.29 373.68 38.67L373.68 29.22Q373.68 24.98 374.83 22.52Q375.98 20.07 378.59 18.76Q381.20 17.46 384.59 17.46Q388.75 17.46 391.44 19.03Q394.14 20.61 395.23 23.21Q396.31 25.81 396.31 30.52L396.31 34.81M386.43 29.54L386.43 27.17Q386.43 24.66 386.16 23.93Q385.89 23.19 385.06 23.19Q384.03 23.19 383.79 23.82Q383.54 24.44 383.54 27.17L383.54 29.54L386.43 29.54ZM409.94 13.72L409.94 18.82L412.60 18.82L412.60 23.95L409.94 23.95L409.94 41.28Q409.94 44.48 410.27 44.85Q410.60 45.21 413.01 45.21L413.01 50.44L409.03 50.44Q405.66 50.44 404.22 50.16Q402.78 49.88 401.68 48.86Q400.59 47.85 400.32 46.55Q400.05 45.24 400.05 40.41L400.05 23.95L397.92 23.95L397.92 18.82L400.05 18.82L400.05 13.72L409.94 13.72ZM437.11 34.81L424.34 34.81L424.34 41.82Q424.34 44.02 424.66 44.65Q424.98 45.29 425.88 45.29Q427.00 45.29 427.38 44.45Q427.76 43.60 427.76 41.19L427.76 36.91L437.11 36.91L437.11 39.31Q437.11 42.31 436.73 43.92Q436.35 45.53 434.96 47.36Q433.57 49.19 431.43 50.11Q429.30 51.03 426.07 51.03Q422.95 51.03 420.56 50.12Q418.16 49.22 416.83 47.64Q415.50 46.07 414.99 44.18Q414.48 42.29 414.48 38.67L414.48 29.22Q414.48 24.98 415.63 22.52Q416.77 20.07 419.38 18.76Q422.00 17.46 425.39 17.46Q429.54 17.46 432.24 19.03Q434.94 20.61 436.02 23.21Q437.11 25.81 437.11 30.52L437.11 34.81M427.22 29.54L427.22 27.17Q427.22 24.66 426.95 23.93Q426.68 23.19 425.85 23.19Q424.83 23.19 424.58 23.82Q424.34 24.44 424.34 27.17L424.34 29.54L427.22 29.54ZM450.20 18.04L449.80 22.29Q451.95 17.72 456.03 17.46L456.03 28.86Q453.32 28.86 452.05 29.59Q450.78 30.32 450.49 31.63Q450.20 32.93 450.20 37.65L450.20 50.44L440.33 50.44L440.33 18.04L450.20 18.04Z"/></g></g></g></svg>