<?xml version="1.0" encoding="UTF-8"?>
<svg id="Layer_2" data-name="Layer 2" xmlns="http://www.w3.org/2000/svg" viewBox="0 0 887.79 96.49">
  <defs>
    <style>
      .cls-1 {
        fill: #262c62;
      }

      .cls-2 {
        fill: #75bf91;
      }
    </style>
  </defs>
  <g id="graphics">
    <g id="logo">
      <g>
        <path class="cls-1" d="m869.37,80.92h-96.71c-1.27,0-2.3-1.03-2.3-2.3V16.45c0-1.27,1.03-2.3,2.3-2.3h96.71c1.27,0,2.3,1.03,2.3,2.3v62.17c0,1.27-1.03,2.3-2.3,2.3Zm-94.41-4.61h92.1V18.76h-92.1v57.56Z"/>
        <path class="cls-2" d="m799.05,66.63s1.41-7.11,6.83-9.02c4.06,5.61,11.63,7.87,18.67,5.03,4.1-1.67,8.6-9.49,11.56-13.54,4.83-6.61,10.66-12.81,10.66-12.81,0,0-19.48-8.82-32.93-3.85-8.34,3.08-12.66,12.44-10.19,20.61-6.26,4.4-8.37,11.76-8.37,11.76l3.78,1.81Z"/>
        <path class="cls-1" d="m832.67,86.1c-.3.69-.99,1.17-1.79,1.17h-19.74c-.8,0-1.48-.48-1.79-1.17h-55.12v2.3c0,3.81,2.8,6.91,6.26,6.91h121.03c3.46,0,6.26-3.09,6.26-6.91v-2.3h-55.12Z"/>
      </g>
      <g>
        <path class="cls-2" d="m0,22.74C0,10.17,10.17,0,22.69,0c12.57,0,22.69,10.17,22.69,22.74,0,12.52-10.12,22.69-22.69,22.69C10.17,45.43,0,35.27,0,22.74Zm32.26,0c0-5.32-4.25-9.61-9.57-9.61-5.27,0-9.57,4.3-9.57,9.61,0,5.27,4.3,9.57,9.57,9.57,5.32,0,9.57-4.3,9.57-9.57Z"/>
        <path class="cls-1" d="m109.72,42.57c-1.31-8.92-8.08-14.34-17.47-14.34-12.56,0-20.8,9.63-20.8,26.51,0,17.35,8.36,26.51,20.68,26.51,9.15,0,15.97-4.99,17.59-13.67l17.35.08c-1.86,14.94-14.42,28.77-35.22,28.77-21.71,0-37.8-15.21-37.8-41.68,0-26.55,16.36-41.68,37.8-41.68,18.78,0,32.97,10.78,35.22,29.52h-17.35Z"/>
        <path class="cls-1" d="m153.64,95.31h-16.88s0-81.15,0-81.15h16.88s0,81.15,0,81.15Z"/>
        <path class="cls-1" d="m164.65,65.15c0-18.78,11.61-31.5,29.52-31.5,16.09,0,28.61,10.22,28.61,30.91v4.64s-41.44,0-41.44,0v.04c0,9.07,5.35,14.66,13.79,14.66,5.63,0,9.98-2.42,11.69-7.05l15.61,1.03c-2.38,11.29-12.52,18.62-27.58,18.62-18.74,0-30.19-12.04-30.19-31.34Zm42.24-6.42c-.04-7.25-5.11-12.48-12.44-12.48-7.49,0-12.76,5.55-13.11,12.48h25.56Z"/>
        <path class="cls-1" d="m232.1,78.31c0-13.59,10.82-17.63,22.86-18.74,10.58-1.03,14.74-1.55,14.74-5.47v-.24c0-4.99-3.29-7.88-9.03-7.88-6.06,0-9.67,2.97-10.82,7.01l-15.61-1.27c2.34-11.09,11.93-18.07,26.51-18.07,13.55,0,25.83,6.1,25.83,20.6v41.05s-16.01,0-16.01,0v-8.44s-.48,0-.48,0c-2.97,5.67-8.8,9.59-17.79,9.59-11.61,0-20.21-6.1-20.21-18.15Zm37.72-4.75v-6.46c-2.02,1.35-8.04,2.22-11.73,2.73-5.94.83-9.87,3.17-9.87,7.93,0,4.64,3.72,7.05,8.92,7.05,7.41,0,12.68-4.87,12.68-11.25Z"/>
        <path class="cls-1" d="m316.58,95.31h-16.88s0-60.86,0-60.86h16.09s0,10.74,0,10.74h.71c2.73-7.09,9.27-11.53,18.31-11.53,12.68,0,21,8.72,21,22.9v38.75s-16.88,0-16.88,0v-35.74c.04-7.45-4.04-11.89-10.82-11.89-6.82,0-11.49,4.6-11.53,12.44v35.18Z"/>
        <path class="cls-1" d="m366.63,65.15c0-18.78,11.61-31.5,29.52-31.5,16.09,0,28.61,10.22,28.61,30.91v4.64s-41.44,0-41.44,0v.04c0,9.07,5.35,14.66,13.79,14.66,5.63,0,9.98-2.42,11.69-7.05l15.61,1.03c-2.38,11.29-12.52,18.62-27.58,18.62-18.74,0-30.19-12.04-30.19-31.34Zm42.24-6.42c-.04-7.25-5.11-12.48-12.44-12.48-7.49,0-12.76,5.55-13.11,12.48h25.56Z"/>
        <path class="cls-1" d="m435.77,34.45h16.36s0,10.62,0,10.62h.63c2.22-7.53,7.8-11.49,14.62-11.49,1.7,0,3.8.24,5.31.59v14.98c-1.59-.52-4.79-.91-7.13-.91-7.45,0-12.92,5.15-12.92,12.64v34.43s-16.88,0-16.88,0v-60.86Z"/>
        <path class="cls-1" d="m493.32,14.16h18.74s13.43,56.38,13.43,56.38h.67s14.82-56.38,14.82-56.38h16.05s14.78,56.5,14.78,56.5h.71s13.43-56.5,13.43-56.5h18.74s-23.22,81.15-23.22,81.15h-16.72s-15.45-53.05-15.45-53.05h-.63s-15.41,53.05-15.41,53.05h-16.72s-23.22-81.15-23.22-81.15Z"/>
        <path class="cls-1" d="m602.18,65.15c0-18.78,11.61-31.5,29.52-31.5,16.09,0,28.61,10.22,28.61,30.91v4.64s-41.44,0-41.44,0v.04c0,9.07,5.35,14.66,13.79,14.66,5.63,0,9.98-2.42,11.69-7.05l15.61,1.03c-2.38,11.29-12.52,18.62-27.58,18.62-18.74,0-30.19-12.04-30.19-31.34Zm42.24-6.42c-.04-7.25-5.11-12.48-12.44-12.48-7.49,0-12.76,5.55-13.11,12.48h25.56Z"/>
        <path class="cls-1" d="m671.64,14.16h16.88s0,30.51,0,30.51h.52c2.26-4.95,7.13-11.02,17.31-11.02,13.35,0,24.65,10.38,24.65,31.3,0,20.37-10.82,31.34-24.69,31.34-9.83,0-14.94-5.67-17.28-10.74h-.75s0,9.75,0,9.75h-16.64s0-81.15,0-81.15Zm29.32,68.7c8.28,0,12.8-7.37,12.8-17.99,0-10.54-4.44-17.79-12.8-17.79-8.2,0-12.8,6.93-12.8,17.79,0,10.86,4.68,17.99,12.8,17.99Z"/>
      </g>
    </g>
  </g>
</svg>