<?xml version="1.0" encoding="UTF-8"?>
<svg id="Layer_1" data-name="Layer 1" xmlns="http://www.w3.org/2000/svg" viewBox="0 0 960 960">
  <defs>
    <style>
      .cls-1, .cls-2 {
        fill: #000e9c;
        stroke-width: 0px;
      }

      .cls-2 {
        fill-rule: evenodd;
      }
    </style>
  </defs>
  <path class="cls-2" d="M260.19,419.21c22.96,41.38,18.66,92.52-10.89,129.49h-62.4l19.21-33.97h-25.41l29.95-52.77h25.55l23.98-42.7v-.06ZM136.96,548.7h-63.62c-30.12-36.83-34.5-88.39-11.03-129.78l41.27,71.69,45.49-79.22h66.94l-79.02,137.26h0l-.03.06Z"/>
  <path class="cls-1" d="M312.78,484.96c0-36.64,18.25-54.25,48.23-54.25s48.2,17.61,48.2,54.25-18.37,54.05-48.2,54.05-48.23-17.75-48.23-54.05ZM323.61,484.96c0,30.12,13.74,44.47,37.4,44.47s37.37-14.35,37.37-44.47-13.74-44.68-37.37-44.68-37.4,14.38-37.4,44.68Z"/>
  <path class="cls-1" d="M487.99,435.05c.78-2.05,2.75-3.41,4.95-3.41,2.88-.02,5.22,2.3,5.24,5.18,0,.03,0,.06,0,.09-.03.79-.18,1.56-.47,2.3l-36.15,95.32c-.87,2.72-3.79,4.23-6.52,3.35-1.59-.51-2.84-1.76-3.35-3.35l-36.15-95.32c-.28-.74-.44-1.51-.47-2.3-.03-2.88,2.27-5.24,5.15-5.27.03,0,.06,0,.09,0,2.2,0,4.16,1.35,4.95,3.41l31.35,83.12,31.38-83.12Z"/>
  <path class="cls-1" d="M520.12,488.34v44.5c.22,2.9-1.96,5.43-4.86,5.64s-5.43-1.96-5.64-4.86c-.02-.26-.02-.52,0-.78v-96.05c-.22-2.9,1.96-5.43,4.86-5.64s5.43,1.96,5.64,4.86c.02.26.02.52,0,.78v41.97h53.79v-41.85c-.22-2.9,1.96-5.43,4.86-5.64s5.43,1.96,5.64,4.86c.02.26.02.52,0,.78v96.05c.22,2.9-1.96,5.43-4.86,5.64s-5.43-1.96-5.64-4.86c-.02-.26-.02-.52,0-.78v-44.62h-53.79Z"/>
  <path class="cls-1" d="M634.01,464.56c9.16-.39,17.97,3.55,23.78,10.65.69.81,1.07,1.84,1.08,2.91.05,2.43-1.88,4.43-4.31,4.48-.06,0-.12,0-.18,0-1.46,0-2.84-.68-3.7-1.86-4.08-4.93-10.29-7.59-16.68-7.13-14.23,0-21.8,9.11-21.8,28.12s7.57,28.26,21.8,28.26c6.56-.06,12.89-2.41,17.9-6.64.81-.69,1.84-1.07,2.91-1.08,2.48,0,4.48,2.01,4.48,4.48-.01,1.53-.76,2.96-2.01,3.84-6.49,5.52-14.77,8.49-23.28,8.35-19.94,0-31.84-11.9-31.84-37.23s11.9-37.17,31.84-37.17Z"/>
  <path class="cls-1" d="M683.28,431.79v88.39c0,6.17,2.01,8.73,6.17,8.73,2.56-.2,4.81,1.71,5.01,4.27.2,2.56-1.71,4.81-4.27,5.01-.24.02-.49.02-.74,0-10.33,0-16.07-6.2-16.07-18.07v-88.33c.08-2.7,2.25-4.86,4.95-4.92,2.72,0,4.93,2.2,4.95,4.92Z"/>
  <path class="cls-1" d="M767.48,501.64c0,25.32-12.37,37.23-32.45,37.23s-32.42-11.9-32.42-37.23,12.52-37.08,32.42-37.08,32.45,11.73,32.45,37.08ZM757.44,501.64c0-19.47-8.18-28.12-22.41-28.12s-22.38,8.73-22.38,28.12,8.18,28.26,22.38,28.26,22.53-8.5,22.53-28.26h-.12Z"/>
  <path class="cls-1" d="M791.29,470.44v40.31c0,10.04,3.23,18.69,18.83,18.69s18.86-8.73,18.86-18.69v-40.31c.03-2.76,2.3-4.98,5.06-4.95.01,0,.02,0,.03,0,2.68.03,4.83,2.23,4.8,4.92,0,.01,0,.02,0,.03v40.31c0,14.55-4.8,28.12-28.76,28.12s-28.73-13.45-28.73-28.12v-40.31c-.05-2.68,2.09-4.9,4.77-4.95.06,0,.12,0,.18,0,2.73.02,4.93,2.22,4.95,4.95Z"/>
  <path class="cls-1" d="M904.83,474.6v-42.81c0-2.73,2.22-4.94,4.96-4.94,2.73,0,4.93,2.21,4.94,4.94v76.75c0,20.37-12.66,30.44-30.27,30.44-19.94,0-31.7-11.9-31.7-37.23s11.15-37.08,31.05-37.08c8.17-.15,15.94,3.52,21.01,9.92ZM904.83,487.12s-5.82-13.59-20.37-13.59-21.8,9.11-21.8,28.12,7.57,28.26,21.8,28.26c11.87,0,20.37-6.78,20.37-21.48v-21.3Z"/>
</svg>